<svg xmlns="http://www.w3.org/2000/svg" width="512" height="512" viewBox="0 0 512 512" version="1.1"><path d="M 349 24.380 C 347.075 25.124, 292.175 55.085, 227 90.962 C 161.825 126.838, 90.738 165.935, 69.029 177.845 C 26.264 201.308, 22.881 203.701, 18.202 213.804 C 15.117 220.466, 14.092 231.687, 15.961 238.360 C 16.613 240.689, 20.704 249.099, 25.053 257.048 L 32.959 271.500 32.985 258 C 33 250.575, 33.450 241.825, 33.985 238.555 C 35.837 227.247, 43.038 217.082, 52.682 212.162 C 59.180 208.847, 67.312 208, 92.634 208 L 116.900 208 229.200 146.177 C 290.965 112.174, 349.852 79.774, 360.060 74.177 C 370.268 68.580, 379.764 64, 381.162 64 C 386.508 64, 389.959 67.900, 398.644 83.757 C 405.498 96.270, 407 99.795, 407 103.361 C 407 106.492, 406.371 108.378, 404.750 110.104 C 403.512 111.422, 363.628 133.875, 316.117 160 L 229.734 207.500 329.617 208.016 C 399.025 208.375, 430.433 208.871, 432.558 209.642 C 442.562 213.269, 450.488 220.320, 454.620 229.266 C 457.490 235.479, 457.502 235.584, 458 260.115 L 458.500 284.730 470.500 278.060 C 484.292 270.393, 490.064 265.230, 493.832 257.191 C 496.142 252.265, 496.500 250.211, 496.500 241.909 C 496.500 233.028, 496.256 231.844, 493.208 225.909 C 491.397 222.384, 467.547 178.781, 440.208 129.013 C 386.553 31.342, 386.536 31.314, 375.500 25.988 C 369.405 23.046, 354.751 22.157, 349 24.380 M 71.619 251.009 C 70.035 251.498, 67.630 252.933, 66.274 254.198 C 61.257 258.884, 61 260.348, 61.002 284.200 C 61.003 309.182, 61.501 311.457, 67.898 315.730 C 71.270 317.983, 71.565 318, 106.500 318 C 141.368 318, 141.736 317.978, 145.048 315.747 C 146.887 314.507, 149.316 311.920, 150.446 309.997 C 152.350 306.755, 152.500 304.895, 152.496 284.500 C 152.492 259.591, 151.882 256.956, 145.144 252.766 C 141.564 250.540, 140.909 250.497, 108 250.311 C 89.575 250.207, 73.204 250.521, 71.619 251.009 M 348.655 263.829 C 346.228 266.510, 346.526 271.554, 349.223 273.443 C 351.138 274.785, 356.602 275, 388.723 275 C 424.667 275, 426.072 274.928, 428 273 C 429.100 271.900, 430 269.875, 430 268.500 C 430 267.125, 429.100 265.100, 428 264 C 426.070 262.070, 424.667 262, 388.155 262 C 352.761 262, 350.203 262.118, 348.655 263.829 M 378.655 291.829 C 376.939 293.724, 376.486 297.684, 377.765 299.600 C 379.714 302.519, 383.353 303, 403.500 303 C 423.647 303, 427.286 302.519, 429.235 299.600 C 430.593 297.567, 430.016 294.016, 428 292 C 426.117 290.117, 424.667 290, 403.155 290 C 382.293 290, 380.166 290.159, 378.655 291.829 M 69.020 399.713 C 63.515 402.540, 61 407.176, 61 414.500 C 61 421.824, 63.515 426.461, 69.020 429.286 C 72.095 430.865, 74.945 431.039, 93.500 430.786 C 112.188 430.532, 114.808 430.291, 117.301 428.602 C 121.347 425.860, 123.107 421.724, 123.308 414.486 C 123.500 407.581, 122.093 404.654, 116.618 400.562 C 114.073 398.660, 112.256 398.478, 93.179 398.213 C 74.927 397.960, 72.091 398.136, 69.020 399.713 M 172.333 399.061 C 168.302 400.274, 164.271 405.040, 163.414 409.605 C 162.489 414.536, 163.662 422.019, 165.827 425 C 169.725 430.369, 172.728 430.997, 194.500 430.997 C 211.567 430.997, 215.003 430.740, 217.929 429.248 C 223.563 426.375, 225.334 423.054, 225.423 415.193 C 225.514 407.105, 224.077 403.834, 219.063 400.716 C 215.727 398.641, 214.226 398.487, 195.500 398.304 C 184.500 398.196, 174.075 398.536, 172.333 399.061 M 275.500 398.697 C 266.200 401.193, 262.138 415.120, 267.931 424.646 C 271.364 430.291, 274.570 431, 296.651 430.998 C 318.450 430.997, 321.239 430.389, 325.382 424.739 C 328.245 420.835, 328.743 410.720, 326.304 406.034 C 322.775 399.254, 320.035 398.522, 297.500 398.330 C 286.500 398.236, 276.600 398.401, 275.500 398.697 M 375.467 399.958 C 369.750 402.844, 367.685 406.832, 367.820 414.724 C 367.957 422.789, 370.394 427.140, 376.039 429.399 C 379.217 430.671, 383.953 431, 399.052 431 C 419.656 431, 422.476 430.451, 426.984 425.566 C 430.469 421.788, 431.110 410.105, 428.096 405.299 C 424.242 399.153, 421.739 398.532, 399.500 398.212 C 381.042 397.945, 379.189 398.080, 375.467 399.958 M 314.592 456.064 C 309.692 456.569, 305.500 457.167, 305.276 457.391 C 303.370 459.297, 362.036 460.210, 381.500 458.577 C 391.293 457.756, 392.061 457.560, 388.500 456.788 C 382.738 455.540, 325.138 454.975, 314.592 456.064" stroke="none" fill="#fad373" fill-rule="evenodd"/><path d="M 361 73.642 C 351.375 78.935, 292.515 111.331, 230.200 145.633 L 116.900 208 92.633 208 C 79.287 208, 65.711 208.491, 62.465 209.091 C 47.174 211.918, 36.364 223.286, 33.929 239.099 C 33.314 243.096, 33.048 286.260, 33.222 354.022 L 33.500 462.543 36.787 469.219 C 40.423 476.605, 46.362 482.521, 53.838 486.203 L 58.500 488.500 245.500 488.500 L 432.500 488.500 437.217 486.321 C 443.811 483.274, 451.121 476.097, 454.574 469.278 L 457.500 463.500 457.500 349.500 L 457.500 235.500 454.620 229.266 C 450.488 220.320, 442.562 213.269, 432.558 209.642 C 430.433 208.871, 399.025 208.375, 329.617 208.016 L 229.734 207.500 316.117 160 C 363.628 133.875, 403.512 111.422, 404.750 110.104 C 406.371 108.378, 407 106.492, 407 103.361 C 407 99.795, 405.498 96.270, 398.644 83.757 C 389.931 67.850, 386.503 63.990, 381.102 64.009 C 379.671 64.014, 370.625 68.349, 361 73.642 M 71.619 251.009 C 70.035 251.498, 67.630 252.933, 66.274 254.198 C 61.257 258.884, 61 260.348, 61.002 284.200 C 61.003 309.182, 61.501 311.457, 67.898 315.730 C 71.270 317.983, 71.565 318, 106.500 318 C 141.368 318, 141.736 317.978, 145.048 315.747 C 146.887 314.507, 149.316 311.920, 150.446 309.997 C 152.350 306.755, 152.500 304.895, 152.496 284.500 C 152.492 259.591, 151.882 256.956, 145.144 252.766 C 141.564 250.540, 140.909 250.497, 108 250.311 C 89.575 250.207, 73.204 250.521, 71.619 251.009 M 348.655 263.829 C 346.228 266.510, 346.526 271.554, 349.223 273.443 C 351.138 274.785, 356.602 275, 388.723 275 C 424.667 275, 426.072 274.928, 428 273 C 429.100 271.900, 430 269.875, 430 268.500 C 430 267.125, 429.100 265.100, 428 264 C 426.070 262.070, 424.667 262, 388.155 262 C 352.761 262, 350.203 262.118, 348.655 263.829 M 378.655 291.829 C 376.939 293.724, 376.486 297.684, 377.765 299.600 C 379.714 302.519, 383.353 303, 403.500 303 C 423.647 303, 427.286 302.519, 429.235 299.600 C 430.593 297.567, 430.016 294.016, 428 292 C 426.117 290.117, 424.667 290, 403.155 290 C 382.293 290, 380.166 290.159, 378.655 291.829 M 69.020 399.713 C 63.515 402.540, 61 407.176, 61 414.500 C 61 421.824, 63.515 426.461, 69.020 429.286 C 72.095 430.865, 74.945 431.039, 93.500 430.786 C 112.188 430.532, 114.808 430.291, 117.301 428.602 C 121.347 425.860, 123.107 421.724, 123.308 414.486 C 123.500 407.581, 122.093 404.654, 116.618 400.562 C 114.073 398.660, 112.256 398.478, 93.179 398.213 C 74.927 397.960, 72.091 398.136, 69.020 399.713 M 172.333 399.061 C 168.302 400.274, 164.271 405.040, 163.414 409.605 C 162.489 414.536, 163.662 422.019, 165.827 425 C 169.725 430.369, 172.728 430.997, 194.500 430.997 C 211.567 430.997, 215.003 430.740, 217.929 429.248 C 223.563 426.375, 225.334 423.054, 225.423 415.193 C 225.514 407.105, 224.077 403.834, 219.063 400.716 C 215.727 398.641, 214.226 398.487, 195.500 398.304 C 184.500 398.196, 174.075 398.536, 172.333 399.061 M 275.500 398.697 C 266.200 401.193, 262.138 415.120, 267.931 424.646 C 271.364 430.291, 274.570 431, 296.651 430.998 C 318.450 430.997, 321.239 430.389, 325.382 424.739 C 328.245 420.835, 328.743 410.720, 326.304 406.034 C 322.775 399.254, 320.035 398.522, 297.500 398.330 C 286.500 398.236, 276.600 398.401, 275.500 398.697 M 375.467 399.958 C 369.750 402.844, 367.685 406.832, 367.820 414.724 C 367.957 422.789, 370.394 427.140, 376.039 429.399 C 379.217 430.671, 383.953 431, 399.052 431 C 419.656 431, 422.476 430.451, 426.984 425.566 C 430.469 421.788, 431.110 410.105, 428.096 405.299 C 424.242 399.153, 421.739 398.532, 399.500 398.212 C 381.042 397.945, 379.189 398.080, 375.467 399.958 M 314.592 456.064 C 309.692 456.569, 305.500 457.167, 305.276 457.391 C 303.370 459.297, 362.036 460.210, 381.500 458.577 C 391.293 457.756, 392.061 457.560, 388.500 456.788 C 382.738 455.540, 325.138 454.975, 314.592 456.064" stroke="none" fill="#54aafb" fill-rule="evenodd"/></svg>