<svg xmlns="http://www.w3.org/2000/svg" width="374" height="303" viewBox="0 0 374 303" version="1.1"><path d="M 200.655 1.829 C 198.688 4.003, 198.520 7.035, 200.250 9.134 C 200.938 9.968, 204.509 12.995, 208.187 15.861 C 227.517 30.924, 240 56.706, 240 81.565 C 240 88.667, 240.316 90.316, 242 92 C 244.588 94.588, 247.462 94.538, 250.142 91.858 C 252.155 89.845, 252.247 89.051, 251.683 78.608 C 251.022 66.362, 248.438 54.357, 244.401 44.764 C 238.305 30.280, 223.165 11.205, 211.567 3.394 C 205.886 -0.432, 203.067 -0.836, 200.655 1.829 M 186.315 19.075 C 183.562 20.099, 181.701 23.484, 182.504 26.012 C 182.842 27.077, 184.554 28.929, 186.309 30.128 C 203.048 41.565, 214 61.950, 214 81.672 C 214 90.846, 215.510 94, 219.902 94 C 224.616 94, 226.001 91.367, 225.993 82.421 C 225.974 60.620, 214.291 36.728, 197.322 23.788 C 190.426 18.529, 189.198 18.003, 186.315 19.075 M 171.517 38.392 C 167.422 42.487, 168.194 44.259, 177.141 51.302 C 186.163 58.404, 192 71.093, 192 83.605 C 192 88.667, 192.417 90.417, 194 92 C 196.585 94.585, 199.461 94.539, 202.131 91.869 C 204.070 89.930, 204.216 88.959, 203.750 81.119 C 202.737 64.087, 195.076 49.650, 181.755 39.671 C 176.556 35.776, 174.402 35.507, 171.517 38.392 M 159.875 54.368 C 156.783 55.901, 156.079 61.265, 158.690 63.389 C 159.685 64.199, 161.982 66.074, 163.794 67.556 C 168.624 71.508, 171 76.855, 171 83.769 C 171 90.019, 172.163 92.401, 175.733 93.461 C 177.377 93.949, 178.663 93.427, 180.607 91.484 C 183.110 88.981, 183.224 88.434, 182.794 81.001 C 182.406 74.299, 181.842 72.330, 178.920 67.466 C 173.035 57.671, 164.732 51.961, 159.875 54.368 M 113.500 71.162 C 108.515 72.979, 104.321 76.704, 102.102 81.289 C 100.249 85.117, 100 87.429, 100 100.816 L 100 116 81 116 L 62 116 62 108.589 C 62 91.383, 53.238 77.464, 39.609 73.020 C 37.252 72.252, 33.041 71.943, 28.934 72.237 C 16.769 73.107, 7.040 80.832, 2.454 93.261 C 0.043 99.796, -0.122 115.411, 2.156 121.500 C 3.408 124.849, 3.438 125.907, 2.341 128 C 1.305 129.974, 1.026 142.199, 1.015 186.093 L 1 241.685 3.328 246.093 C 4.856 248.987, 7.318 251.530, 10.499 253.500 L 15.343 256.500 80.422 256.500 C 136.633 256.500, 145.909 256.293, 148.500 254.982 L 151.500 253.464 154.101 260.119 C 160.093 275.451, 170.349 289.165, 180.874 295.919 C 186.889 299.779, 196.130 303, 201.189 303 C 208.639 303, 215.541 298.734, 218.985 292 C 220.845 288.363, 226.410 256.418, 225.618 253.922 C 225.370 253.140, 224.898 251.271, 224.569 249.768 C 223.774 246.136, 218.567 240.330, 214.028 238.014 C 207.101 234.481, 206.745 237.575, 219.945 186.712 C 226.575 161.165, 232 138.359, 232 136.032 C 232 126.908, 225.083 118.990, 215.348 116.968 C 206.990 115.232, 185.640 116.162, 180.910 118.467 C 177.662 120.051, 177.044 120.074, 174.409 118.712 C 172.808 117.884, 168.911 116.883, 165.749 116.488 L 160 115.770 159.984 100.135 C 159.968 85.798, 159.781 84.171, 157.725 80.542 C 156.492 78.364, 153.537 75.214, 151.158 73.542 C 146.843 70.507, 146.800 70.500, 131.667 70.284 C 122.620 70.156, 115.289 70.510, 113.500 71.162 M 120 163.500 L 120 237 130 237 L 140 237 140 163.500 L 140 90 130 90 L 120 90 120 163.500 M 23.420 92.886 C 17.217 96.668, 15.198 105.999, 19.263 112.102 C 24.311 119.680, 33.871 120.817, 40.442 114.620 C 46.583 108.827, 46.434 101.198, 40.053 94.817 C 36.673 91.438, 35.677 91, 31.368 91.004 C 28.371 91.006, 25.316 91.729, 23.420 92.886 M 21 186.500 L 21 237 31 237 L 41 237 41 186.500 L 41 136 31 136 L 21 136 21 186.500 M 54.219 148.250 L 54.500 160.500 68.723 160.777 L 82.945 161.055 79.095 167.344 C 76.978 170.803, 69.998 183.803, 63.583 196.233 L 51.920 218.833 52.210 227.666 L 52.500 236.500 80.750 236.766 L 109 237.031 109 224.016 L 109 211 93.487 211 L 77.975 211 80.520 206.969 C 81.919 204.751, 88.675 192.120, 95.532 178.898 L 108 154.859 108 145.429 L 108 136 80.969 136 L 53.938 136 54.219 148.250 M 148.679 136.750 C 148.190 137.586, 165.217 211.961, 169.408 227.290 C 178.006 258.740, 186.845 274.352, 199.581 280.583 C 202.598 282.059, 205.382 282.952, 205.767 282.566 C 206.153 282.180, 207.401 276.064, 208.541 268.973 L 210.613 256.082 207.799 254.917 C 203.364 253.080, 197.534 246.792, 194.481 240.551 L 191.681 234.827 204.340 186.028 C 211.303 159.189, 217 136.953, 217 136.615 C 217 135.567, 195.160 135.933, 194.505 136.992 C 193.713 138.273, 183.353 190.323, 182.448 197.571 C 182.069 200.607, 181.564 202.897, 181.327 202.660 C 181.090 202.423, 178.675 188.340, 175.961 171.364 C 173.247 154.389, 170.787 139.488, 170.494 138.250 C 169.984 136.095, 169.523 136, 159.540 136 C 153.808 136, 148.921 136.338, 148.679 136.750 M 228 219.858 L 228 234.717 234.167 234.804 C 241.587 234.909, 243.722 233.909, 245.585 229.452 C 247.449 224.989, 247.368 222.237, 245.248 218.029 C 243.323 214.206, 240.148 212.894, 235.750 214.104 C 233.020 214.855, 233 214.825, 233 209.930 C 233 205.338, 232.829 205, 230.500 205 L 228 205 228 219.858 M 282.096 209.573 C 275.918 214.771, 275.634 225.834, 281.526 231.726 C 284.252 234.452, 285.551 235, 289.289 235 C 295.030 235, 299.174 232.120, 297.074 229.589 C 295.852 228.117, 295.541 228.105, 294.028 229.475 C 293.101 230.314, 290.948 231, 289.244 231 C 284.819 231, 282 227.108, 282 221 C 282 214.813, 284.811 211, 289.373 211 C 291.148 211, 293.121 211.521, 293.758 212.158 C 294.634 213.034, 295.314 212.984, 296.560 211.950 C 298.069 210.698, 298.022 210.436, 295.992 208.792 C 292.587 206.035, 285.850 206.414, 282.096 209.573 M 308.624 214.520 C 307.181 215.269, 306 215.458, 306 214.941 C 306 214.423, 305.100 214, 304 214 C 302.127 214, 302 214.667, 302 224.500 C 302 234.333, 302.127 235, 304 235 C 305.799 235, 306.003 234.323, 306.032 228.250 C 306.066 220.953, 307.427 218, 310.753 218 C 312.393 218, 314 216.280, 314 214.525 C 314 213.386, 310.817 213.382, 308.624 214.520 M 321.263 214.212 C 314.892 215.862, 312.753 226.176, 317.589 231.923 C 319.744 234.485, 320.901 235, 324.500 235 C 328.099 235, 329.256 234.485, 331.411 231.923 C 334.952 227.715, 334.995 221.336, 331.511 217.195 C 328.669 213.818, 325.897 213.011, 321.263 214.212 M 364 213.892 C 360.736 214.796, 358.516 219.227, 359.968 221.940 C 360.550 223.028, 363.086 224.829, 365.602 225.942 C 370.152 227.955, 370.783 229.473, 367.842 231.328 C 366.780 231.998, 365.312 231.803, 363.101 230.700 C 360.171 229.239, 359.846 229.238, 359.286 230.696 C 358.392 233.028, 361.714 235, 366.536 235 C 371.575 235, 374.302 232.508, 373.825 228.338 C 373.569 226.106, 372.483 224.967, 368.732 223 C 362.011 219.475, 363.577 215.992, 370.941 218.090 C 371.733 218.315, 372.543 217.765, 372.742 216.866 C 372.984 215.768, 372.052 214.865, 369.902 214.116 C 368.142 213.502, 366.656 213.045, 366.601 213.100 C 366.545 213.155, 365.375 213.511, 364 213.892 M 250.122 219.250 C 256.627 235.574, 256.419 234.712, 254.556 237.556 C 253.617 238.987, 252.247 239.925, 251.508 239.642 C 250.401 239.216, 249 240.858, 249 242.582 C 249 242.812, 250.565 243, 252.477 243 C 255.071 243, 256.365 242.373, 257.573 240.529 C 259.154 238.116, 267 216.823, 267 214.946 C 267 214.426, 266.119 214, 265.042 214 C 263.479 214, 262.597 215.543, 260.671 221.653 L 258.258 229.306 256.257 223.903 C 255.156 220.931, 253.942 217.488, 253.560 216.250 C 253.090 214.729, 252.082 214, 250.447 214 L 248.029 214 250.122 219.250 M 338 222.277 C 338 232.028, 339.430 235, 344.122 235 C 345.777 235, 348.002 234.534, 349.066 233.965 C 350.399 233.251, 351 233.251, 351 233.965 C 351 234.534, 351.900 235, 353 235 C 354.873 235, 355 234.333, 355 224.500 C 355 214.667, 354.873 214, 353 214 C 351.192 214, 351 214.667, 351 220.929 C 351 228.507, 349.652 231, 345.554 231 C 342.885 231, 342 228.105, 342 219.375 C 342 214.667, 341.752 214, 340 214 C 338.161 214, 338 214.667, 338 222.277 M 234.750 218.080 C 232.116 219.614, 232.253 229.530, 234.928 230.961 C 238.841 233.056, 242 229.784, 242 223.637 C 242 218.275, 238.725 215.765, 234.750 218.080 M 321.573 218.570 C 319.259 220.883, 318.613 224.652, 319.969 227.924 C 321.459 231.521, 324.333 232.360, 327.204 230.036 C 329.996 227.775, 330.177 221.958, 327.545 219.050 C 325.322 216.593, 323.681 216.461, 321.573 218.570" stroke="none" fill="#84ccf4" fill-rule="evenodd"/><path d="M 120 163.500 L 120 237 130 237 L 140 237 140 163.500 L 140 90 130 90 L 120 90 120 163.500 M 23.420 92.886 C 17.217 96.668, 15.198 105.999, 19.263 112.102 C 24.311 119.680, 33.871 120.817, 40.442 114.620 C 46.583 108.827, 46.434 101.198, 40.053 94.817 C 36.673 91.438, 35.677 91, 31.368 91.004 C 28.371 91.006, 25.316 91.729, 23.420 92.886 M 21 186.500 L 21 237 31 237 L 41 237 41 186.500 L 41 136 31 136 L 21 136 21 186.500 M 54.219 148.250 L 54.500 160.500 68.723 160.777 L 82.945 161.055 79.095 167.344 C 76.978 170.803, 69.998 183.803, 63.583 196.233 L 51.920 218.833 52.210 227.666 L 52.500 236.500 80.750 236.766 L 109 237.031 109 224.016 L 109 211 93.487 211 L 77.975 211 80.520 206.969 C 81.919 204.751, 88.675 192.120, 95.532 178.898 L 108 154.859 108 145.429 L 108 136 80.969 136 L 53.938 136 54.219 148.250 M 148.679 136.750 C 148.190 137.586, 165.217 211.961, 169.408 227.290 C 178.006 258.740, 186.845 274.352, 199.581 280.583 C 202.598 282.059, 205.382 282.952, 205.767 282.566 C 206.153 282.180, 207.401 276.064, 208.541 268.973 L 210.613 256.082 207.799 254.917 C 203.364 253.080, 197.534 246.792, 194.481 240.551 L 191.681 234.827 204.340 186.028 C 211.303 159.189, 217 136.953, 217 136.615 C 217 135.567, 195.160 135.933, 194.505 136.992 C 193.713 138.273, 183.353 190.323, 182.448 197.571 C 182.069 200.607, 181.564 202.897, 181.327 202.660 C 181.090 202.423, 178.675 188.340, 175.961 171.364 C 173.247 154.389, 170.787 139.488, 170.494 138.250 C 169.984 136.095, 169.523 136, 159.540 136 C 153.808 136, 148.921 136.338, 148.679 136.750" stroke="none" fill="#fafbfc" fill-rule="evenodd"/></svg>