<?xml version="1.0" encoding="UTF-8"?>
<!DOCTYPE svg PUBLIC "-//W3C//DTD SVG 1.1//EN" "http://www.w3.org/Graphics/SVG/1.1/DTD/svg11.dtd">
<svg xmlns="http://www.w3.org/2000/svg" version="1.1" width="591px" height="591px" style="shape-rendering:geometricPrecision; text-rendering:geometricPrecision; image-rendering:optimizeQuality; fill-rule:evenodd; clip-rule:evenodd" xmlns:xlink="http://www.w3.org/1999/xlink">
<g><path style="opacity:1" fill="#e92c3f" d="M 433.5,101.5 C 434.482,104.962 434.815,108.629 434.5,112.5C 434.334,118.842 434.5,125.175 435,131.5C 443,129.133 451.166,127.467 459.5,126.5C 460.5,126.5 461.5,126.5 462.5,126.5C 462.5,128.167 462.5,129.833 462.5,131.5C 461.038,139.479 459.704,147.479 458.5,155.5C 466.458,154.597 474.458,154.264 482.5,154.5C 484.415,154.216 486.081,154.549 487.5,155.5C 484.783,163.935 481.783,172.268 478.5,180.5C 477.596,181.209 477.263,182.209 477.5,183.5C 479.167,183.5 480.833,183.5 482.5,183.5C 490.846,184.02 499.179,184.687 507.5,185.5C 503.771,194.791 499.104,203.624 493.5,212C 503.074,215.146 512.741,218.146 522.5,221C 516.379,228.743 510.379,236.577 504.5,244.5C 512.707,248.77 521.04,252.77 529.5,256.5C 529.5,257.5 529.5,258.5 529.5,259.5C 523.004,265.829 516.337,271.995 509.5,278C 517.796,283.304 525.796,288.971 533.5,295C 525.796,301.029 517.796,306.696 509.5,312C 516.532,318.507 523.532,325.007 530.5,331.5C 530.167,332.167 529.833,332.833 529.5,333.5C 521.04,337.23 512.707,341.23 504.5,345.5C 510.379,353.423 516.379,361.257 522.5,369C 513.625,371.969 504.625,374.469 495.5,376.5C 494.325,376.281 493.325,376.614 492.5,377.5C 492.624,378.107 492.957,378.44 493.5,378.5C 497.641,385.437 501.807,392.437 506,399.5C 507.009,401.025 507.509,402.692 507.5,404.5C 499.192,405.46 490.859,406.127 482.5,406.5C 480.833,406.5 479.167,406.5 477.5,406.5C 477.263,407.791 477.596,408.791 478.5,409.5C 481.783,417.732 484.783,426.065 487.5,434.5C 485.735,435.461 483.735,435.795 481.5,435.5C 473.441,435.567 465.441,435.4 457.5,435C 459.867,443 461.533,451.166 462.5,459.5C 462.5,460.833 462.5,462.167 462.5,463.5C 461.167,463.5 459.833,463.5 458.5,463.5C 451.142,462.295 443.809,460.962 436.5,459.5C 435.791,458.596 434.791,458.263 433.5,458.5C 433.187,462.042 433.521,465.375 434.5,468.5C 434.5,471.833 434.5,475.167 434.5,478.5C 434.813,482.042 434.479,485.375 433.5,488.5C 424.479,485.66 415.646,482.326 407,478.5C 405.767,488.501 404.6,498.501 403.5,508.5C 394.612,504.387 385.945,499.72 377.5,494.5C 374.18,504.113 371.013,513.78 368,523.5C 360.333,517.167 352.667,510.833 345,504.5C 340.667,513.833 336.333,523.167 332,532.5C 325.322,524.99 318.489,517.657 311.5,510.5C 305.821,518.538 300.154,526.538 294.5,534.5C 288.846,526.538 283.179,518.538 277.5,510.5C 270.511,517.657 263.678,524.99 257,532.5C 252.667,523.167 248.333,513.833 244,504.5C 236.333,510.833 228.667,517.167 221,523.5C 217.742,513.893 214.576,504.227 211.5,494.5C 203.055,499.72 194.388,504.387 185.5,508.5C 184.371,498.506 183.204,488.506 182,478.5C 173.325,482.254 164.492,485.587 155.5,488.5C 154.521,485.375 154.187,482.042 154.5,478.5C 154.666,471.825 154.5,465.158 154,458.5C 146.313,460.738 138.479,462.404 130.5,463.5C 129.167,463.5 127.833,463.5 126.5,463.5C 126.5,462.167 126.5,460.833 126.5,459.5C 127.833,451.167 129.167,442.833 130.5,434.5C 122.876,435.398 115.209,435.731 107.5,435.5C 105.265,435.795 103.265,435.461 101.5,434.5C 104.217,426.065 107.217,417.732 110.5,409.5C 111.404,408.791 111.737,407.791 111.5,406.5C 109.833,406.5 108.167,406.5 106.5,406.5C 98.1541,405.98 89.8208,405.313 81.5,404.5C 85.739,395.526 90.4057,386.692 95.5,378C 85.9256,374.854 76.259,371.854 66.5,369C 72.6212,361.257 78.6212,353.423 84.5,345.5C 75.5,341 66.5,336.5 57.5,332C 64.8333,325.333 72.1667,318.667 79.5,312C 71.2036,306.696 63.2036,301.029 55.5,295C 63.2036,288.971 71.2036,283.304 79.5,278C 73.0915,271.818 66.7582,265.651 60.5,259.5C 59.8902,258.609 59.5569,257.609 59.5,256.5C 67.9596,252.77 76.293,248.77 84.5,244.5C 78.6212,236.577 72.6212,228.743 66.5,221C 76.2133,218.155 85.8799,215.155 95.5,212C 90.4057,203.308 85.739,194.474 81.5,185.5C 89.8159,184.635 98.1492,183.968 106.5,183.5C 108.167,183.5 109.833,183.5 111.5,183.5C 111.737,182.209 111.404,181.209 110.5,180.5C 107.217,172.268 104.217,163.935 101.5,155.5C 103.265,154.539 105.265,154.205 107.5,154.5C 115.559,154.433 123.559,154.6 131.5,155C 129.133,147 127.467,138.834 126.5,130.5C 126.5,129.167 126.5,127.833 126.5,126.5C 127.833,126.5 129.167,126.5 130.5,126.5C 137.556,127.578 144.556,128.911 151.5,130.5C 152.568,131.434 153.901,131.768 155.5,131.5C 155.813,127.958 155.479,124.625 154.5,121.5C 154.5,118.167 154.5,114.833 154.5,111.5C 154.187,107.958 154.521,104.625 155.5,101.5C 164.521,104.34 173.354,107.674 182,111.5C 183.233,101.499 184.4,91.4985 185.5,81.5C 194.388,85.6132 203.055,90.2798 211.5,95.5C 214.82,85.8869 217.987,76.2202 221,66.5C 228.667,72.8333 236.333,79.1667 244,85.5C 248.333,76.1667 252.667,66.8333 257,57.5C 263.678,65.01 270.511,72.3434 277.5,79.5C 283.179,71.4624 288.846,63.4624 294.5,55.5C 300.154,63.4624 305.821,71.4624 311.5,79.5C 318.489,72.3434 325.322,65.01 332,57.5C 336.333,66.8333 340.667,76.1667 345,85.5C 352.667,79.1667 360.333,72.8333 368,66.5C 371.258,76.1065 374.424,85.7732 377.5,95.5C 385.945,90.2798 394.612,85.6132 403.5,81.5C 404.629,91.4942 405.796,101.494 407,111.5C 415.675,107.746 424.508,104.413 433.5,101.5 Z"/></g>
<g><path style="opacity:1" fill="#fad82b" d="M 276.5,85.5 C 348.796,82.1869 408.63,107.52 456,161.5C 506.525,227.504 516.858,299.504 487,377.5C 451.377,453.091 391.877,495.258 308.5,504C 233.085,506.702 172.252,478.535 126,419.5C 84.333,358.507 74.9997,292.84 98,222.5C 131.361,142.74 190.861,97.0736 276.5,85.5 Z"/></g>
<g><path style="opacity:1" fill="#f8b4bd" d="M 155.5,101.5 C 154.521,104.625 154.187,107.958 154.5,111.5C 153.192,107.981 153.192,104.315 154.5,100.5C 155.107,100.624 155.44,100.957 155.5,101.5 Z"/></g>
<g><path style="opacity:1" fill="#ea3836" d="M 292.5,104.5 C 298.613,104.743 304.613,105.577 310.5,107C 313.349,109.559 314.183,112.726 313,116.5C 311.736,118.607 309.903,119.607 307.5,119.5C 308.936,123.957 311.27,127.957 314.5,131.5C 316.957,133.225 319.623,133.725 322.5,133C 324.003,125.83 325.669,118.663 327.5,111.5C 326.811,109.647 325.478,108.481 323.5,108C 327.554,108.009 331.554,108.676 335.5,110C 332.271,110.356 330.771,112.19 331,115.5C 330.071,121.049 328.904,126.549 327.5,132C 327.495,134.163 328.495,135.663 330.5,136.5C 330.167,136.833 329.833,137.167 329.5,137.5C 323.573,136.019 317.573,134.852 311.5,134C 308.048,130.266 305.215,126.1 303,121.5C 301.989,120.663 300.822,120.33 299.5,120.5C 299.335,124.182 299.501,127.848 300,131.5C 300.75,132.126 301.584,132.626 302.5,133C 298.309,133.922 294.309,133.588 290.5,132C 291.766,131.691 292.933,131.191 294,130.5C 295.098,122.536 295.598,114.536 295.5,106.5C 293.821,106.715 292.821,106.048 292.5,104.5 Z"/></g>
<g><path style="opacity:1" fill="#ea3736" d="M 269.5,105.5 C 281.951,105.118 287.785,111.118 287,123.5C 284.689,131.906 279.189,135.739 270.5,135C 261.935,131.378 258.435,124.878 260,115.5C 262.022,110.98 265.189,107.647 269.5,105.5 Z"/></g>
<g><path style="opacity:1" fill="#fad52b" d="M 270.5,107.5 C 277.216,107.375 281.049,110.709 282,117.5C 283.007,122.111 282.34,126.445 280,130.5C 275.96,134.35 271.96,134.35 268,130.5C 264.586,124.439 263.92,118.106 266,111.5C 267.397,109.93 268.897,108.596 270.5,107.5 Z"/></g>
<g><path style="opacity:1" fill="#fad52b" d="M 300.5,107.5 C 308.562,107.232 310.562,110.566 306.5,117.5C 304.253,118.374 301.92,118.708 299.5,118.5C 300.244,114.881 300.577,111.215 300.5,107.5 Z"/></g>
<g><path style="opacity:1" fill="#f8b6bf" d="M 433.5,101.5 C 433.56,100.957 433.893,100.624 434.5,100.5C 435.809,104.649 435.809,108.649 434.5,112.5C 434.815,108.629 434.482,104.962 433.5,101.5 Z"/></g>
<g><path style="opacity:1" fill="#ea3936" d="M 249.5,109.5 C 251.017,109.511 252.184,110.177 253,111.5C 253.824,114.882 253.657,118.216 252.5,121.5C 249.637,117.832 248.637,113.832 249.5,109.5 Z"/></g>
<g><path style="opacity:1" fill="#ea3336" d="M 348.5,113.5 C 354.684,114.484 360.351,116.151 365.5,118.5C 364.803,121.29 363.803,123.957 362.5,126.5C 360.594,116.881 355.261,114.214 346.5,118.5C 341.38,124.056 340.213,130.39 343,137.5C 345.76,141.207 349.26,142.207 353.5,140.5C 354.599,137.704 355.599,134.871 356.5,132C 356.18,130.347 355.18,129.347 353.5,129C 357.337,129.068 361.003,130.068 364.5,132C 363.234,132.309 362.067,132.809 361,133.5C 359.735,136.461 358.569,139.461 357.5,142.5C 342.994,145.158 336.161,139.158 337,124.5C 339.437,119.226 343.271,115.56 348.5,113.5 Z"/></g>
<g><path style="opacity:1" fill="#e93336" d="M 231.5,115.5 C 243.434,116.27 248.601,122.604 247,134.5C 246.117,137.102 244.617,139.269 242.5,141C 236.798,144.199 230.798,146.199 224.5,147C 226.41,146.592 227.41,145.425 227.5,143.5C 225.32,136.458 222.654,129.625 219.5,123C 218.167,122.667 216.833,122.333 215.5,122C 220.904,119.706 226.238,117.54 231.5,115.5 Z"/></g>
<g><path style="opacity:1" fill="#fad72b" d="M 228.5,118.5 C 240.922,119.788 245.089,126.455 241,138.5C 238.477,141.288 235.31,142.621 231.5,142.5C 229.474,135.59 227.141,128.757 224.5,122C 225.686,120.588 227.019,119.421 228.5,118.5 Z"/></g>
<g><path style="opacity:1" fill="#e92d37" d="M 372.5,123.5 C 373.251,122.427 374.251,122.26 375.5,123C 378.014,124.757 380.681,126.257 383.5,127.5C 382.033,127.723 380.533,128.056 379,128.5C 375.423,135.153 372.256,141.987 369.5,149C 370.272,150.221 371.272,151.221 372.5,152C 372,152.167 371.5,152.333 371,152.5C 367.563,150.532 364.063,148.698 360.5,147C 362.669,148.114 364.502,147.614 366,145.5C 369.319,139.03 372.485,132.53 375.5,126C 374.87,124.69 373.87,123.856 372.5,123.5 Z"/></g>
<g><path style="opacity:1" fill="#f78892" d="M 459.5,126.5 C 460.946,125.387 462.613,125.22 464.5,126C 463.891,127.948 463.224,129.782 462.5,131.5C 462.5,129.833 462.5,128.167 462.5,126.5C 461.5,126.5 460.5,126.5 459.5,126.5 Z"/></g>
<g><path style="opacity:1" fill="#f7808a" d="M 130.5,126.5 C 129.167,126.5 127.833,126.5 126.5,126.5C 126.5,127.833 126.5,129.167 126.5,130.5C 125.549,129.081 125.216,127.415 125.5,125.5C 127.415,125.216 129.081,125.549 130.5,126.5 Z"/></g>
<g><path style="opacity:1" fill="#f7b0bb" d="M 154.5,121.5 C 155.479,124.625 155.813,127.958 155.5,131.5C 153.901,131.768 152.568,131.434 151.5,130.5C 152.5,130.5 153.5,130.5 154.5,130.5C 154.5,127.5 154.5,124.5 154.5,121.5 Z"/></g>
<g><path style="opacity:1" fill="#ea3736" d="M 387.5,130.5 C 387.56,129.957 387.893,129.624 388.5,129.5C 390.001,130.752 391.668,131.752 393.5,132.5C 394.844,141.139 396.011,149.806 397,158.5C 399.667,154.5 402.333,150.5 405,146.5C 405.305,144.443 405.305,142.443 405,140.5C 407.589,142.211 410.089,144.045 412.5,146C 410.331,144.886 408.498,145.386 407,147.5C 402.979,154.223 398.479,160.556 393.5,166.5C 392.465,157.481 391.298,148.481 390,139.5C 386.376,144.58 382.876,149.747 379.5,155C 380.5,156 381.5,157 382.5,158C 379.199,157.176 376.199,155.51 373.5,153C 375.669,154.114 377.502,153.614 379,151.5C 382.085,146.328 385.419,141.328 389,136.5C 389.941,134.011 389.441,132.011 387.5,130.5 Z"/></g>
<g><path style="opacity:1" fill="#ea3836" d="M 197.5,130.5 C 198.239,130.369 198.906,130.536 199.5,131C 197.789,132.133 197.289,133.633 198,135.5C 202.748,141.994 207.248,148.661 211.5,155.5C 211.167,155.833 210.833,156.167 210.5,156.5C 201.815,153.666 193.148,151.166 184.5,149C 187.333,153.167 190.167,157.333 193,161.5C 194.826,163.074 196.993,163.907 199.5,164C 196.659,165.586 193.993,167.42 191.5,169.5C 191.167,169.167 190.833,168.833 190.5,168.5C 192.04,167.468 192.54,166.135 192,164.5C 188.697,159.031 185.197,153.698 181.5,148.5C 178.967,147.722 176.634,147.389 174.5,147.5C 176.35,145.315 178.684,143.982 181.5,143.5C 189.166,145.674 196.833,147.507 204.5,149C 202,145.167 199.5,141.333 197,137.5C 195.269,135.647 193.436,134.981 191.5,135.5C 193.571,133.815 195.571,132.148 197.5,130.5 Z"/></g>
<g><path style="opacity:1" fill="#ea3436" d="M 416.5,149.5 C 422.224,154.038 427.557,159.038 432.5,164.5C 428.982,171.414 427.816,171.081 429,163.5C 426.667,161.167 424.333,158.833 422,156.5C 412.731,164.085 413.898,168.252 425.5,169C 422.96,171.205 420.793,173.705 419,176.5C 419.761,172.017 417.928,168.684 413.5,166.5C 409.809,168.649 407.642,171.649 407,175.5C 408.833,177.333 410.667,179.167 412.5,181C 422.148,179.665 422.648,180.832 414,184.5C 408.67,180.003 403.503,175.336 398.5,170.5C 400.021,170.12 401.687,169.954 403.5,170C 409.054,164.949 414.054,159.449 418.5,153.5C 417.37,152.378 416.703,151.044 416.5,149.5 Z"/></g>
<g><path style="opacity:1" fill="#e71d37" d="M 277.5,152.5 C 337.556,148.779 384.056,171.779 417,221.5C 437.711,257.83 442.378,296.163 431,336.5C 410.636,394.421 370.136,427.921 309.5,437C 250.222,440.611 204.388,417.777 172,368.5C 141.622,311.734 145.288,257.401 183,205.5C 207.882,175.977 239.382,158.31 277.5,152.5 Z"/></g>
<g><path style="opacity:1" fill="#f9c4ca" d="M 107.5,154.5 C 105.265,154.205 103.265,154.539 101.5,155.5C 100.957,155.44 100.624,155.107 100.5,154.5C 102.973,153.203 105.307,153.203 107.5,154.5 Z"/></g>
<g><path style="opacity:1" fill="#f9c1c7" d="M 482.5,154.5 C 484.364,153.207 486.364,153.207 488.5,154.5C 488.376,155.107 488.043,155.44 487.5,155.5C 486.081,154.549 484.415,154.216 482.5,154.5 Z"/></g>
<g><path style="opacity:1" fill="#f9d52b" d="M 293.5,158.5 C 295.405,162.216 296.739,166.216 297.5,170.5C 302.179,170.334 306.845,170.501 311.5,171C 307.656,173.422 303.99,176.089 300.5,179C 302.876,182.677 303.876,186.51 303.5,190.5C 300.167,188.167 296.833,185.833 293.5,183.5C 290.244,185.711 287.078,188.045 284,190.5C 283.977,186.546 284.811,182.713 286.5,179C 283.198,176.342 279.865,173.675 276.5,171C 280.871,170.828 285.204,170.328 289.5,169.5C 290.842,165.805 292.175,162.138 293.5,158.5 Z"/></g>
<g><path style="opacity:1" fill="#e93337" d="M 164.5,156.5 C 177.324,155.828 183.824,161.828 184,174.5C 179.133,185.011 171.633,187.511 161.5,182C 152.706,172.187 153.706,163.687 164.5,156.5 Z"/></g>
<g><path style="opacity:1" fill="#f9d52b" d="M 163.5,159.5 C 172.666,159.99 178.666,164.656 181.5,173.5C 180.475,180.684 176.475,183.184 169.5,181C 162.648,177.509 159.148,172.009 159,164.5C 160.025,162.313 161.525,160.646 163.5,159.5 Z"/></g>
<g><path style="opacity:1" fill="#fad62b" d="M 239.5,186.5 C 243.5,187.167 247.5,187.833 251.5,188.5C 248.546,190.28 245.713,192.28 243,194.5C 242.953,198.147 243.786,201.647 245.5,205C 245.167,205.5 244.833,206 244.5,206.5C 241.193,204.36 238.026,202.026 235,199.5C 231.974,202.026 228.807,204.36 225.5,206.5C 225.167,206.167 224.833,205.833 224.5,205.5C 226.287,201.989 227.121,198.322 227,194.5C 224.401,192.121 221.567,190.121 218.5,188.5C 222.5,187.833 226.5,187.167 230.5,186.5C 232.266,182.715 233.766,178.715 235,174.5C 236.607,178.49 238.107,182.49 239.5,186.5 Z"/></g>
<g><path style="opacity:1" fill="#fad62b" d="M 357.5,186.5 C 361.5,187.167 365.5,187.833 369.5,188.5C 366.546,190.28 363.713,192.28 361,194.5C 361.036,198.11 361.869,201.61 363.5,205C 363.167,205.5 362.833,206 362.5,206.5C 359.457,204.287 356.29,202.287 353,200.5C 349.71,202.287 346.543,204.287 343.5,206.5C 343.167,206.167 342.833,205.833 342.5,205.5C 344.287,201.989 345.121,198.322 345,194.5C 342.401,192.121 339.567,190.121 336.5,188.5C 340.5,187.833 344.5,187.167 348.5,186.5C 350.266,182.715 351.766,178.715 353,174.5C 354.607,178.49 356.107,182.49 357.5,186.5 Z"/></g>
<g><path style="opacity:1" fill="#ea3236" d="M 146.5,175.5 C 146.929,176.953 147.096,178.619 147,180.5C 152.731,185.235 158.731,189.569 165,193.5C 166.261,193.241 167.261,192.574 168,191.5C 167.13,195.054 165.297,198.221 162.5,201C 161.833,201.667 161.167,201.667 160.5,201C 161.554,199.612 161.72,198.112 161,196.5C 155.269,191.765 149.269,187.431 143,183.5C 141.739,183.759 140.739,184.426 140,185.5C 139.333,184.833 139.333,184.167 140,183.5C 142.415,180.986 144.581,178.319 146.5,175.5 Z"/></g>
<g><path style="opacity:1" fill="#f7a4b0" d="M 110.5,180.5 C 111.404,181.209 111.737,182.209 111.5,183.5C 109.833,183.5 108.167,183.5 106.5,183.5C 108.219,182.978 109.552,181.978 110.5,180.5 Z"/></g>
<g><path style="opacity:1" fill="#e93037" d="M 445.5,180.5 C 451.598,185.364 454.432,191.697 454,199.5C 446.992,205.561 441.659,204.228 438,195.5C 435.154,197.257 432.488,199.257 430,201.5C 430,202.833 430,204.167 430,205.5C 427.022,202.574 425.022,199.24 424,195.5C 424.689,196.357 425.522,197.023 426.5,197.5C 433.554,193.313 440.221,188.647 446.5,183.5C 445.873,182.583 445.539,181.583 445.5,180.5 Z"/></g>
<g><path style="opacity:1" fill="#f7acb7" d="M 478.5,180.5 C 479.448,181.978 480.781,182.978 482.5,183.5C 480.833,183.5 479.167,183.5 477.5,183.5C 477.263,182.209 477.596,181.209 478.5,180.5 Z"/></g>
<g><path style="opacity:1" fill="#f27332" d="M 230.5,186.5 C 226.5,187.167 222.5,187.833 218.5,188.5C 217.957,188.44 217.624,188.107 217.5,187.5C 221.783,186.508 226.116,186.174 230.5,186.5 Z"/></g>
<g><path style="opacity:1" fill="#f37532" d="M 239.5,186.5 C 243.884,186.174 248.217,186.508 252.5,187.5C 252.376,188.107 252.043,188.44 251.5,188.5C 247.5,187.833 243.5,187.167 239.5,186.5 Z"/></g>
<g><path style="opacity:1" fill="#f27332" d="M 348.5,186.5 C 344.5,187.167 340.5,187.833 336.5,188.5C 335.957,188.44 335.624,188.107 335.5,187.5C 339.783,186.508 344.116,186.174 348.5,186.5 Z"/></g>
<g><path style="opacity:1" fill="#f37532" d="M 357.5,186.5 C 361.884,186.174 366.217,186.508 370.5,187.5C 370.376,188.107 370.043,188.44 369.5,188.5C 365.5,187.833 361.5,187.167 357.5,186.5 Z"/></g>
<g><path style="opacity:1" fill="#f9d22b" d="M 447.5,188.5 C 452.26,191.076 452.594,194.242 448.5,198C 444.258,200.217 441.258,199.05 439.5,194.5C 442.492,192.829 445.159,190.829 447.5,188.5 Z"/></g>
<g><path style="opacity:1" fill="#ea3436" d="M 135.5,189.5 C 137.757,189.962 139.757,190.962 141.5,192.5C 137.863,192.213 135.197,194.046 133.5,198C 140.083,202.543 146.917,206.71 154,210.5C 154.833,209.5 155.667,208.5 156.5,207.5C 155.871,211.428 154.037,215.095 151,218.5C 152.114,216.331 151.614,214.498 149.5,213C 143.37,209.7 137.37,206.2 131.5,202.5C 127.996,205.344 127.663,208.511 130.5,212C 128.369,211.602 126.369,210.602 124.5,209C 128.305,202.554 131.972,196.054 135.5,189.5 Z"/></g>
<g><path style="opacity:1" fill="#ea3337" d="M 460.5,203.5 C 465.363,209.256 467.529,215.922 467,223.5C 463,227.5 459,227.5 455,223.5C 450.734,228.367 448.4,234.033 448,240.5C 446.697,238.06 445.53,235.56 444.5,233C 447.546,228.081 449.879,222.915 451.5,217.5C 448.309,218.092 445.309,219.259 442.5,221C 441.783,222.652 441.45,224.152 441.5,225.5C 438.845,222.206 437.345,218.539 437,214.5C 437.674,215.578 438.674,216.245 440,216.5C 446.992,213.997 453.826,210.997 460.5,207.5C 461.292,206.3 461.292,204.967 460.5,203.5 Z"/></g>
<g><path style="opacity:1" fill="#fad42b" d="M 459.5,212.5 C 464.213,212.468 465.713,214.801 464,219.5C 459.349,223.842 455.849,223.009 453.5,217C 455.358,215.245 457.358,213.745 459.5,212.5 Z"/></g>
<g><path style="opacity:1" fill="#f9d62b" d="M 190.5,216.5 C 192.717,219.777 194.384,223.444 195.5,227.5C 199.796,228.328 204.129,228.828 208.5,229C 205.135,231.675 201.802,234.342 198.5,237C 200.189,240.713 201.023,244.546 201,248.5C 197.974,245.974 194.807,243.64 191.5,241.5C 188.086,243.957 184.586,246.291 181,248.5C 181.534,244.558 182.701,240.725 184.5,237C 181.113,233.947 177.447,231.28 173.5,229C 178.155,228.501 182.821,228.334 187.5,228.5C 188.5,224.5 189.5,220.5 190.5,216.5 Z"/></g>
<g><path style="opacity:1" fill="#f9d52b" d="M 396.5,216.5 C 398.438,220.125 400.105,223.959 401.5,228C 405.833,228.333 410.167,228.667 414.5,229C 411.42,231.29 408.253,233.457 405,235.5C 405.462,239.879 406.129,244.212 407,248.5C 403.758,245.795 400.258,243.461 396.5,241.5C 393.244,243.711 390.078,246.045 387,248.5C 386.977,244.546 387.811,240.713 389.5,237C 386.563,233.862 383.23,231.195 379.5,229C 383.871,228.828 388.204,228.328 392.5,227.5C 393.842,223.805 395.175,220.138 396.5,216.5 Z"/></g>
<g><path style="opacity:1" fill="#eb3c36" d="M 148.5,220.5 C 149.043,220.56 149.376,220.893 149.5,221.5C 148.436,224.627 147.103,227.627 145.5,230.5C 144.614,229.675 144.281,228.675 144.5,227.5C 141.833,227.5 139.167,227.5 136.5,227.5C 135.801,230.573 134.801,233.573 133.5,236.5C 134.833,238.5 136.5,240.167 138.5,241.5C 139.62,240.167 140.953,239.667 142.5,240C 141.563,242.707 140.23,245.207 138.5,247.5C 137.719,246.271 137.219,244.938 137,243.5C 130.5,237 124,230.5 117.5,224C 127.427,222.742 137.427,222.076 147.5,222C 148.056,221.617 148.389,221.117 148.5,220.5 Z"/></g>
<g><path style="opacity:1" fill="#fad62b" d="M 124.5,228.5 C 127.687,227.194 131.02,227.194 134.5,228.5C 133.877,230.711 132.877,232.711 131.5,234.5C 129.147,232.477 126.814,230.477 124.5,228.5 Z"/></g>
<g><path style="opacity:1" fill="#ea3836" d="M 461.5,236.5 C 475.344,236.498 480.844,243.165 478,256.5C 472.11,264.751 464.61,266.584 455.5,262C 446.646,251.047 448.646,242.547 461.5,236.5 Z"/></g>
<g><path style="opacity:1" fill="#f9d72b" d="M 465.5,241.5 C 474.772,240.919 478.272,244.919 476,253.5C 470.544,258.76 464.044,260.593 456.5,259C 452.251,255.623 451.418,251.457 454,246.5C 457.54,243.939 461.373,242.272 465.5,241.5 Z"/></g>
<g><path style="opacity:1" fill="#eb3d36" d="M 130.5,248.5 C 133.697,248.095 136.364,249.428 138.5,252.5C 137.201,259.256 135.535,265.923 133.5,272.5C 133.089,271.738 132.923,270.738 133,269.5C 132.25,268.874 131.416,268.374 130.5,268C 123.751,266.817 117.084,265.317 110.5,263.5C 109.108,264.605 107.941,265.939 107,267.5C 106.863,263.017 107.696,258.684 109.5,254.5C 110.452,256.045 110.785,257.712 110.5,259.5C 118.072,261.309 125.739,262.642 133.5,263.5C 134.005,260.479 134.672,257.479 135.5,254.5C 134.566,251.898 132.899,249.898 130.5,248.5 Z"/></g>
<g><path style="opacity:1" fill="#f9989e" d="M 59.5,256.5 C 59.5569,257.609 59.8902,258.609 60.5,259.5C 57.2855,259.013 56.9522,258.013 59.5,256.5 Z"/></g>
<g><path style="opacity:1" fill="#faa0a4" d="M 529.5,256.5 C 532.167,257.5 532.167,258.5 529.5,259.5C 529.5,258.5 529.5,257.5 529.5,256.5 Z"/></g>
<g><path style="opacity:1" fill="#ea3c36" d="M 475.5,269.5 C 477.607,268.532 479.941,268.198 482.5,268.5C 483.497,276.133 484.163,283.799 484.5,291.5C 482.143,291.663 479.81,291.497 477.5,291C 478.931,290.535 480.097,289.701 481,288.5C 481.497,286.19 481.663,283.857 481.5,281.5C 473.494,282.116 465.494,282.782 457.5,283.5C 457.762,284.978 457.429,286.311 456.5,287.5C 455.168,282.34 455.168,279.34 456.5,278.5C 464.87,278.623 473.203,278.123 481.5,277C 480.751,275.266 480.251,273.433 480,271.5C 478.89,269.963 477.39,269.297 475.5,269.5 Z"/></g>
<g><path style="opacity:1" fill="#fad72b" d="M 363.5,317.5 C 356.345,316.345 349.012,316.178 341.5,317C 342.044,317.717 342.711,318.217 343.5,318.5C 353.722,323.861 363.556,329.861 373,336.5C 372.354,340.784 370.354,344.451 367,347.5C 345.088,331.793 321.255,319.626 295.5,311C 266.303,300.461 236.303,293.294 205.5,289.5C 205.335,285.818 205.501,282.152 206,278.5C 226.598,279.89 246.931,283.556 267,289.5C 303.744,276.351 341.578,270.018 380.5,270.5C 381.482,273.096 382.149,275.762 382.5,278.5C 348.899,278.156 316.232,283.323 284.5,294C 288.142,295.883 291.975,297.383 296,298.5C 324.904,290.011 354.404,286.677 384.5,288.5C 384.82,291.898 384.487,295.232 383.5,298.5C 359.557,296.483 335.891,298.316 312.5,304C 316.466,306.214 320.633,308.047 325,309.5C 343.916,306.562 362.749,307.062 381.5,311C 382.334,313.712 382,316.379 380.5,319C 374.82,318.944 369.154,318.444 363.5,317.5 Z"/></g>
<g><path style="opacity:1" fill="#e93536" d="M 125.5,273.5 C 128.192,274.009 130.692,275.009 133,276.5C 133.222,283.841 132.889,291.174 132,298.5C 131.833,295.667 130.333,294.167 127.5,294C 120.5,293.333 113.5,293.333 106.5,294C 105.874,294.75 105.374,295.584 105,296.5C 104.072,291.98 104.405,287.646 106,283.5C 105.833,287.333 107.667,289.167 111.5,289C 118.082,289.81 124.582,289.643 131,288.5C 132.919,281.876 131.086,276.876 125.5,273.5 Z"/></g>
<g><path style="opacity:1" fill="#f9d52b" d="M 174.5,278.5 C 176.155,282.383 177.821,286.383 179.5,290.5C 183.459,291.327 187.459,291.827 191.5,292C 188.667,294.167 185.833,296.333 183,298.5C 183.184,302.075 184.018,305.575 185.5,309C 185.167,309.5 184.833,310 184.5,310.5C 181.457,308.287 178.29,306.287 175,304.5C 171.401,306.429 168.067,308.763 165,311.5C 165.871,307.212 166.538,302.879 167,298.5C 164.167,296.333 161.333,294.167 158.5,292C 162.5,291.667 166.5,291.333 170.5,291C 172.335,286.996 173.668,282.83 174.5,278.5 Z"/></g>
<g><path style="opacity:1" fill="#fad32b" d="M 413.5,278.5 C 415.405,282.216 416.739,286.216 417.5,290.5C 422.179,290.334 426.845,290.501 431.5,291C 428.333,293.5 425.167,296 422,298.5C 421.879,302.322 422.713,305.989 424.5,309.5C 420.591,308.876 417.091,306.876 414,303.5C 410.842,306.08 407.508,308.413 404,310.5C 404.667,306.5 405.333,302.5 406,298.5C 402.974,295.974 399.807,293.64 396.5,291.5C 400.796,290.672 405.129,290.172 409.5,290C 411.131,286.272 412.465,282.439 413.5,278.5 Z"/></g>
<g><path style="opacity:1" fill="#eb3e36" d="M 456.5,294.5 C 457.234,295.878 457.901,297.378 458.5,299C 466.514,299.39 474.514,299.89 482.5,300.5C 483.328,295.792 483.994,295.625 484.5,300C 483.834,305.817 483.334,311.651 483,317.5C 480.861,318.769 478.695,318.769 476.5,317.5C 477.689,316.571 479.022,316.238 480.5,316.5C 481.272,312.548 481.605,308.548 481.5,304.5C 478.167,304.5 474.833,304.5 471.5,304.5C 471.335,307.518 471.502,310.518 472,313.5C 472.75,314.126 473.584,314.626 474.5,315C 471.118,315.824 467.784,315.657 464.5,314.5C 469.023,312.775 470.689,309.442 469.5,304.5C 465.5,304.167 461.5,303.833 457.5,303.5C 456.179,309.786 457.846,314.953 462.5,319C 460.243,318.563 457.91,318.063 455.5,317.5C 455.269,309.791 455.602,302.124 456.5,294.5 Z"/></g>
<g><path style="opacity:1" fill="#fad72b" d="M 205.5,299.5 C 249.415,305.415 290.415,319.582 328.5,342C 337.419,348.248 345.752,355.248 353.5,363C 350.308,365.692 346.975,368.192 343.5,370.5C 325.579,353.446 304.912,340.612 281.5,332C 257.26,322.53 232.26,316.03 206.5,312.5C 205.8,308.202 205.467,303.869 205.5,299.5 Z"/></g>
<g><path style="opacity:1" fill="#eb3e36" d="M 125.5,301.5 C 127.942,300.712 130.442,301.045 133,302.5C 133.753,309.395 134.587,316.229 135.5,323C 133.939,323.188 133.272,322.355 133.5,320.5C 125.082,320.283 116.749,320.95 108.5,322.5C 108.657,323.873 108.49,325.207 108,326.5C 107.667,326.167 107.333,325.833 107,325.5C 106.423,318.5 105.923,311.5 105.5,304.5C 111.601,302.741 112.434,303.741 108,307.5C 107.828,310.826 107.995,314.159 108.5,317.5C 111.86,317.384 115.193,317.051 118.5,316.5C 118.663,314.143 118.497,311.81 118,309.5C 116.829,308.107 115.329,307.273 113.5,307C 116.633,305.43 119.967,305.097 123.5,306C 122.584,306.374 121.75,306.874 121,307.5C 120.502,310.482 120.335,313.482 120.5,316.5C 124.135,315.886 127.802,315.552 131.5,315.5C 131.665,312.15 131.498,308.817 131,305.5C 129.568,303.561 127.735,302.228 125.5,301.5 Z"/></g>
<g><path style="opacity:1" fill="#ea3336" d="M 485.5,308.5 C 485.735,307.903 486.235,307.57 487,307.5C 491.819,307.645 493.485,309.979 492,314.5C 489.963,312.294 487.797,310.294 485.5,308.5 Z"/></g>
<g><path style="opacity:1" fill="#f06231" d="M 363.5,317.5 C 356.646,317.176 349.979,317.509 343.5,318.5C 342.711,318.217 342.044,317.717 341.5,317C 349.012,316.178 356.345,316.345 363.5,317.5 Z"/></g>
<g><path style="opacity:1" fill="#fad72b" d="M 209.5,323.5 C 235.526,327.564 260.192,335.731 283.5,348C 294.842,354.341 304.675,362.508 313,372.5C 315.204,375.23 316.537,378.23 317,381.5C 313.574,382.687 310.074,383.687 306.5,384.5C 298.863,373.696 289.196,365.196 277.5,359C 257.524,348.563 236.524,340.897 214.5,336C 212.538,331.946 210.871,327.779 209.5,323.5 Z"/></g>
<g><path style="opacity:1" fill="#ea3a36" d="M 461.5,323.5 C 478.291,325.753 482.958,334.419 475.5,349.5C 475.709,350.086 476.043,350.586 476.5,351C 466.224,351.45 465.557,350.117 474.5,347C 479.316,338.961 477.316,333.294 468.5,330C 464.833,329.333 461.167,329.333 457.5,330C 452.435,332.692 450.769,336.692 452.5,342C 455.311,342.911 458.144,343.744 461,344.5C 462.584,344.012 463.751,343.012 464.5,341.5C 464.994,345.229 464.328,348.895 462.5,352.5C 461.738,351.372 461.071,350.205 460.5,349C 449.844,348.53 446.677,343.363 451,333.5C 453.106,328.557 456.606,325.224 461.5,323.5 Z"/></g>
<g><path style="opacity:1" fill="#ea3536" d="M 114.5,330.5 C 122.177,330.003 126.343,333.669 127,341.5C 129.66,340.166 132.494,339.332 135.5,339C 136.09,337.491 136.756,335.991 137.5,334.5C 139.607,338.256 140.44,342.256 140,346.5C 138.695,343.694 136.528,342.86 133.5,344C 127.139,345.297 120.972,347.13 115,349.5C 114.667,350.5 114.333,351.5 114,352.5C 111.708,346.676 110.708,340.676 111,334.5C 112.376,333.295 113.542,331.962 114.5,330.5 Z"/></g>
<g><path style="opacity:1" fill="#f9dbdd" d="M 530.5,331.5 C 531.757,332.623 531.424,333.289 529.5,333.5C 529.833,332.833 530.167,332.167 530.5,331.5 Z"/></g>
<g><path style="opacity:1" fill="#f9d52b" d="M 115.5,335.5 C 118.685,335.02 121.519,335.686 124,337.5C 124.667,338.833 124.667,340.167 124,341.5C 120.88,342.573 117.713,343.573 114.5,344.5C 113.064,341.232 113.397,338.232 115.5,335.5 Z"/></g>
<g><path style="opacity:1" fill="#f9d52b" d="M 193.5,336.5 C 195.411,340.233 196.744,344.233 197.5,348.5C 201.846,348.334 206.179,348.501 210.5,349C 207.667,351.167 204.833,353.333 202,355.5C 202.2,359.949 202.866,364.282 204,368.5C 200.758,365.795 197.258,363.461 193.5,361.5C 189.979,364.248 186.312,366.414 182.5,368C 184.025,364.427 185.358,360.76 186.5,357C 183.563,353.862 180.23,351.195 176.5,349C 180.871,348.828 185.204,348.328 189.5,347.5C 190.842,343.805 192.175,340.138 193.5,336.5 Z"/></g>
<g><path style="opacity:1" fill="#f9d52b" d="M 393.5,336.5 C 395.385,340.157 397.052,343.99 398.5,348C 402.5,348.333 406.5,348.667 410.5,349C 407.667,351.167 404.833,353.333 402,355.5C 402.468,359.889 403.134,364.223 404,368.5C 400.758,365.795 397.258,363.461 393.5,361.5C 389.979,364.248 386.312,366.414 382.5,368C 384.025,364.427 385.358,360.76 386.5,357C 383.563,353.862 380.23,351.195 376.5,349C 380.871,348.828 385.204,348.328 389.5,347.5C 390.842,343.805 392.175,340.138 393.5,336.5 Z"/></g>
<g><path style="opacity:1" fill="#f9d62b" d="M 222.5,349.5 C 240.806,352.077 256.306,360.411 269,374.5C 270.626,376.917 272.126,379.417 273.5,382C 252.656,377.242 235.656,366.409 222.5,349.5 Z"/></g>
<g><path style="opacity:1" fill="#ea3436" d="M 446.5,350.5 C 447.219,352.091 448.219,353.591 449.5,355C 455.942,357.971 462.442,360.804 469,363.5C 470.221,362.728 471.221,361.728 472,360.5C 472.667,361.5 472.667,362.5 472,363.5C 469.364,369.449 466.364,375.116 463,380.5C 457.098,379.01 457.264,377.676 463.5,376.5C 464.833,373.833 466.167,371.167 467.5,368.5C 457.839,361.209 454.339,363.542 457,375.5C 453.961,374.397 451.127,372.897 448.5,371C 449.833,370.667 451.167,370.333 452.5,370C 454.017,367.796 455.35,365.462 456.5,363C 453.209,361.403 449.875,359.903 446.5,358.5C 444.475,361.379 442.808,364.546 441.5,368C 442.56,370.251 443.393,372.418 444,374.5C 442.145,372.645 440.312,370.812 438.5,369C 441.27,362.85 443.936,356.684 446.5,350.5 Z"/></g>
<g><path style="opacity:1" fill="#e93037" d="M 124.5,354.5 C 127.226,354.264 129.559,355.097 131.5,357C 132.965,359.43 134.298,361.93 135.5,364.5C 138.284,363.608 140.95,362.442 143.5,361C 144.227,359.601 144.727,358.101 145,356.5C 146.961,360.06 148.295,363.727 149,367.5C 148.196,366.196 147.029,365.529 145.5,365.5C 139.133,367.901 132.799,370.401 126.5,373C 125.107,374.171 124.273,375.671 124,377.5C 121.274,372.823 119.441,367.823 118.5,362.5C 118.654,358.357 120.654,355.691 124.5,354.5 Z"/></g>
<g><path style="opacity:1" fill="#f9d32b" d="M 125.5,359.5 C 129.766,359.125 132.433,360.959 133.5,365C 130.285,366.774 126.952,368.274 123.5,369.5C 120.504,365.479 121.171,362.146 125.5,359.5 Z"/></g>
<g><path style="opacity:1" fill="#ea3436" d="M 149.5,368.5 C 152.657,371.15 154.49,374.483 155,378.5C 154.333,377.833 153.667,377.167 153,376.5C 150.923,378.076 149.423,380.076 148.5,382.5C 149.789,385.58 151.455,388.414 153.5,391C 155.751,390.793 158.085,390.627 160.5,390.5C 160.34,388.801 160.506,387.134 161,385.5C 162.5,387.833 164,390.167 165.5,392.5C 165.167,392.833 164.833,393.167 164.5,393.5C 163.228,392.954 161.894,392.621 160.5,392.5C 151.542,394.328 142.542,395.495 133.5,396C 138.333,389.167 143.167,382.333 148,375.5C 149.202,373.323 149.702,370.989 149.5,368.5 Z"/></g>
<g><path style="opacity:1" fill="#eb3b36" d="M 470.5,371.5 C 472.905,372.398 474.905,373.898 476.5,376C 475.789,377.255 474.956,378.421 474,379.5C 472.155,377.133 470.989,374.467 470.5,371.5 Z"/></g>
<g><path style="opacity:1" fill="#ea3536" d="M 436.5,373.5 C 436.795,374.897 437.129,376.397 437.5,378C 442.672,381.085 447.672,384.419 452.5,388C 454.955,389.377 457.288,389.877 459.5,389.5C 455.667,395.167 451.833,400.833 448,406.5C 442.14,403.715 442.307,402.215 448.5,402C 450.363,399.636 452.029,397.136 453.5,394.5C 451.14,392.147 448.473,390.147 445.5,388.5C 443.898,390.708 442.564,393.041 441.5,395.5C 441.529,397.029 442.196,398.196 443.5,399C 440.246,398.303 437.246,396.803 434.5,394.5C 438.732,394.324 441.732,391.991 443.5,387.5C 440.672,385.252 437.672,383.252 434.5,381.5C 428.857,385.252 427.524,390.086 430.5,396C 430.167,396.167 429.833,396.333 429.5,396.5C 428.52,395.019 427.353,393.685 426,392.5C 425.48,390.711 425.813,389.044 427,387.5C 430.388,382.952 433.555,378.286 436.5,373.5 Z"/></g>
<g><path style="opacity:1" fill="#f6a9b5" d="M 495.5,376.5 C 494.833,377.167 494.167,377.833 493.5,378.5C 492.957,378.44 492.624,378.107 492.5,377.5C 493.325,376.614 494.325,376.281 495.5,376.5 Z"/></g>
<g><path style="opacity:1" fill="#fad12b" d="M 231.5,378.5 C 232.75,378.577 233.583,379.244 234,380.5C 235.145,383.432 235.978,386.432 236.5,389.5C 241.179,389.334 245.845,389.501 250.5,390C 246.386,392.519 243.052,395.685 240.5,399.5C 241.874,403.105 242.708,406.771 243,410.5C 239.642,407.642 236.142,404.975 232.5,402.5C 228.858,404.975 225.358,407.642 222,410.5C 222.625,406.446 223.792,402.446 225.5,398.5C 222.48,395.484 219.146,392.817 215.5,390.5C 219.833,389.833 224.167,389.167 228.5,388.5C 229.909,385.273 230.909,381.94 231.5,378.5 Z"/></g>
<g><path style="opacity:1" fill="#fad22b" d="M 354.5,377.5 C 356.405,381.216 357.739,385.216 358.5,389.5C 363.179,389.334 367.845,389.501 372.5,390C 368.649,392.564 365.316,395.564 362.5,399C 363.1,402.134 364.1,405.134 365.5,408C 365.167,408.5 364.833,409 364.5,409.5C 361.193,407.36 358.026,405.026 355,402.5C 351.333,405.167 347.667,407.833 344,410.5C 344.925,406.716 346.091,402.883 347.5,399C 344.528,395.7 341.195,392.7 337.5,390C 341.871,389.828 346.204,389.328 350.5,388.5C 351.842,384.805 353.175,381.138 354.5,377.5 Z"/></g>
<g><path style="opacity:1" fill="#f9cb2b" d="M 146.5,384.5 C 148.268,386.508 149.934,388.674 151.5,391C 147.965,392.574 144.298,393.241 140.5,393C 142.72,390.287 144.72,387.454 146.5,384.5 Z"/></g>
<g><path style="opacity:1" fill="#f9d52b" d="M 293.5,399.5 C 295.438,403.125 297.105,406.959 298.5,411C 302.5,411.333 306.5,411.667 310.5,412C 307.667,414.167 304.833,416.333 302,418.5C 302.468,422.889 303.134,427.223 304,431.5C 300.825,428.915 297.491,426.581 294,424.5C 290.71,426.287 287.543,428.287 284.5,430.5C 284.167,430 283.833,429.5 283.5,429C 284.982,425.575 285.816,422.075 286,418.5C 282.747,416.457 279.58,414.29 276.5,412C 280.871,411.828 285.204,411.328 289.5,410.5C 290.842,406.805 292.175,403.138 293.5,399.5 Z"/></g>
<g><path style="opacity:1" fill="#f6a4b1" d="M 106.5,406.5 C 108.167,406.5 109.833,406.5 111.5,406.5C 111.737,407.791 111.404,408.791 110.5,409.5C 109.552,408.022 108.219,407.022 106.5,406.5 Z"/></g>
<g><path style="opacity:1" fill="#f8afb8" d="M 482.5,406.5 C 480.781,407.022 479.448,408.022 478.5,409.5C 477.596,408.791 477.263,407.791 477.5,406.5C 479.167,406.5 480.833,406.5 482.5,406.5 Z"/></g>
<g><path style="opacity:1" fill="#e82137" d="M 163.5,409.5 C 171.219,408.87 173.219,411.87 169.5,418.5C 161.415,419.86 159.415,416.86 163.5,409.5 Z"/></g>
<g><path style="opacity:1" fill="#e92c37" d="M 418.5,411.5 C 426.44,410.937 428.44,414.104 424.5,421C 415.91,421.612 413.91,418.445 418.5,411.5 Z"/></g>
<g><path style="opacity:1" fill="#f9c4ca" d="M 101.5,434.5 C 103.265,435.461 105.265,435.795 107.5,435.5C 105.307,436.797 102.973,436.797 100.5,435.5C 100.624,434.893 100.957,434.56 101.5,434.5 Z"/></g>
<g><path style="opacity:1" fill="#f9c0c7" d="M 487.5,434.5 C 488.043,434.56 488.376,434.893 488.5,435.5C 486.027,436.797 483.693,436.797 481.5,435.5C 483.735,435.795 485.735,435.461 487.5,434.5 Z"/></g>
<g><path style="opacity:1" fill="#f57a87" d="M 126.5,459.5 C 126.5,460.833 126.5,462.167 126.5,463.5C 127.833,463.5 129.167,463.5 130.5,463.5C 129.081,464.451 127.415,464.784 125.5,464.5C 125.216,462.585 125.549,460.919 126.5,459.5 Z"/></g>
<g><path style="opacity:1" fill="#f59eac" d="M 436.5,459.5 C 434.612,461.988 433.945,464.988 434.5,468.5C 433.521,465.375 433.187,462.042 433.5,458.5C 434.791,458.263 435.791,458.596 436.5,459.5 Z"/></g>
<g><path style="opacity:1" fill="#f68692" d="M 462.5,459.5 C 465.601,464.387 464.267,465.72 458.5,463.5C 459.833,463.5 461.167,463.5 462.5,463.5C 462.5,462.167 462.5,460.833 462.5,459.5 Z"/></g>
<g><path style="opacity:1" fill="#f7a9b5" d="M 154.5,478.5 C 154.187,482.042 154.521,485.375 155.5,488.5C 155.44,489.043 155.107,489.376 154.5,489.5C 153.192,485.685 153.192,482.019 154.5,478.5 Z"/></g>
<g><path style="opacity:1" fill="#f7a8b4" d="M 434.5,478.5 C 435.808,482.019 435.808,485.685 434.5,489.5C 433.893,489.376 433.56,489.043 433.5,488.5C 434.479,485.375 434.813,482.042 434.5,478.5 Z"/></g>
</svg>
