<?xml version="1.0" encoding="UTF-8"?>
<!DOCTYPE svg PUBLIC "-//W3C//DTD SVG 1.1//EN" "http://www.w3.org/Graphics/SVG/1.1/DTD/svg11.dtd">
<svg xmlns="http://www.w3.org/2000/svg" version="1.1" width="598px" height="592px" style="shape-rendering:geometricPrecision; text-rendering:geometricPrecision; image-rendering:optimizeQuality; fill-rule:evenodd; clip-rule:evenodd" xmlns:xlink="http://www.w3.org/1999/xlink">
<g><path style="opacity:1" fill="#f9f9f9" d="M -0.5,-0.5 C 95.5,-0.5 191.5,-0.5 287.5,-0.5C 287.5,-0.166667 287.5,0.166667 287.5,0.5C 201.787,3.77842 130.287,37.1118 73,100.5C 26.5405,154.678 2.37381,217.678 0.5,289.5C 0.166667,289.5 -0.166667,289.5 -0.5,289.5C -0.5,192.833 -0.5,96.1667 -0.5,-0.5 Z"/></g>
<g><path style="opacity:1" fill="#f9f9f9" d="M 287.5,0.5 C 287.5,0.166667 287.5,-0.166667 287.5,-0.5C 390.833,-0.5 494.167,-0.5 597.5,-0.5C 597.5,196.833 597.5,394.167 597.5,591.5C 398.167,591.5 198.833,591.5 -0.5,591.5C -0.5,490.833 -0.5,390.167 -0.5,289.5C -0.166667,289.5 0.166667,289.5 0.5,289.5C 1.73439,404.501 51.0677,492.001 148.5,552C 232.886,597.562 319.886,602.895 409.5,568C 489.785,532.715 544.952,473.882 575,391.5C 603.5,302.667 593.834,218.334 546,138.5C 495.079,61.0981 423.579,15.5981 331.5,2C 316.852,0.920449 302.186,0.420449 287.5,0.5 Z"/></g>
<g><path style="opacity:1" fill="#191919" d="M 287.5,0.5 C 302.186,0.420449 316.852,0.920449 331.5,2C 423.579,15.5981 495.079,61.0981 546,138.5C 593.834,218.334 603.5,302.667 575,391.5C 544.952,473.882 489.785,532.715 409.5,568C 319.886,602.895 232.886,597.562 148.5,552C 51.0677,492.001 1.73439,404.501 0.5,289.5C 2.37381,217.678 26.5405,154.678 73,100.5C 130.287,37.1118 201.787,3.77842 287.5,0.5 Z"/></g>
<g><path style="opacity:1" fill="#2cacd6" d="M 303.5,26.5 C 308.833,26.5 314.167,26.5 319.5,26.5C 328.886,27.8402 338.22,29.5069 347.5,31.5C 322.351,29.1027 297.018,28.1027 271.5,28.5C 281.974,27.1787 292.641,26.512 303.5,26.5 Z"/></g>
<g><path style="opacity:1" fill="#0c273a" d="M 303.5,26.5 C 292.641,26.512 281.974,27.1787 271.5,28.5C 249.063,30.0915 227.729,35.7582 207.5,45.5C 207.414,44.5041 207.748,43.6708 208.5,43C 211.368,42.1392 213.702,40.4725 215.5,38C 227.39,35.3068 239.057,31.9734 250.5,28C 265.338,27.2448 280.171,26.4115 295,25.5C 298.021,25.5022 300.854,25.8356 303.5,26.5 Z"/></g>
<g><path style="opacity:1" fill="#0cbbf9" d="M 271.5,28.5 C 297.018,28.1027 322.351,29.1027 347.5,31.5C 360.052,33.1251 372.052,36.4585 383.5,41.5C 383.5,43.1667 383.5,44.8333 383.5,46.5C 381.103,48.0327 382.103,47.6993 386.5,45.5C 387.696,45.8457 387.696,46.3457 386.5,47C 389.804,46.7408 393.138,47.4075 396.5,49C 398.046,50.4396 398.879,52.2729 399,54.5C 399.725,55.0585 400.558,55.3918 401.5,55.5C 404.004,54.2803 406.504,53.2803 409,52.5C 409.833,53.3333 410.667,54.1667 411.5,55C 409.119,56.7656 406.452,57.9322 403.5,58.5C 402.614,59.325 402.281,60.325 402.5,61.5C 404.857,61.6633 407.19,61.4966 409.5,61C 410.893,59.8289 411.727,58.3289 412,56.5C 413.976,57.4279 415.809,58.5946 417.5,60C 417.167,60.3333 416.833,60.6667 416.5,61C 423.714,62.2326 430.048,65.2326 435.5,70C 438.737,71.4521 442.07,72.6188 445.5,73.5C 448.979,76.2339 451.979,79.4005 454.5,83C 458.618,85.2798 462.618,87.7798 466.5,90.5C 465.071,91.935 463.405,92.935 461.5,93.5C 456.584,91.8753 451.918,89.8753 447.5,87.5C 447.5,88.8333 447.5,90.1667 447.5,91.5C 449.591,91.3184 451.591,91.6518 453.5,92.5C 454.386,93.325 454.719,94.325 454.5,95.5C 458.607,94.8496 462.107,95.8496 465,98.5C 465.196,96.7139 466.029,95.3805 467.5,94.5C 469.021,94.8797 470.687,95.0464 472.5,95C 473.641,96.6166 474.474,98.45 475,100.5C 476.509,101.09 478.009,101.756 479.5,102.5C 480.145,103.732 480.311,105.065 480,106.5C 485.805,111.805 484.805,112.805 477,109.5C 476.5,109.833 476,110.167 475.5,110.5C 477.545,112.051 479.045,114.051 480,116.5C 480.893,115.289 481.726,115.289 482.5,116.5C 482.88,119.583 484.214,122.083 486.5,124C 485.044,124.423 484.544,125.256 485,126.5C 488.76,127.133 492.427,128.133 496,129.5C 496.374,128.584 496.874,127.75 497.5,127C 501.676,125.772 504.176,127.605 505,132.5C 506.708,134.543 508.708,136.21 511,137.5C 511.483,138.448 511.649,139.448 511.5,140.5C 512.959,140.433 514.292,140.766 515.5,141.5C 514.099,147.368 515.932,151.702 521,154.5C 521.628,158.467 523.795,161.301 527.5,163C 526.483,164.049 526.316,165.216 527,166.5C 528.493,169.315 530.327,171.815 532.5,174C 531.453,175.578 531.453,177.078 532.5,178.5C 533.288,177.23 534.288,176.23 535.5,175.5C 538.957,180.75 541.624,186.417 543.5,192.5C 543.022,196.929 543.688,201.096 545.5,205C 545.355,205.772 545.022,206.439 544.5,207C 545.728,207.779 546.728,208.779 547.5,210C 549.056,214.804 551.056,219.304 553.5,223.5C 553.577,227.215 553.244,230.881 552.5,234.5C 551.5,234.5 550.5,234.5 549.5,234.5C 549.916,237.406 550.582,240.239 551.5,243C 551.039,245.199 550.873,247.366 551,249.5C 552.356,250.38 553.856,250.714 555.5,250.5C 555.351,249.448 555.517,248.448 556,247.5C 557.797,249.674 557.964,252.007 556.5,254.5C 558.036,259.215 559.369,264.049 560.5,269C 559.643,272.234 559.309,275.401 559.5,278.5C 561.632,280.395 561.966,282.562 560.5,285C 562.651,295.217 562.318,305.217 559.5,315C 559.994,316.462 560.327,317.962 560.5,319.5C 558.861,327.477 557.361,335.477 556,343.5C 555,343.167 554,342.833 553,342.5C 551.294,340.295 549.794,337.962 548.5,335.5C 546.887,337.461 545.887,339.794 545.5,342.5C 545.997,345.55 547.497,346.55 550,345.5C 550.5,346.667 551.333,347.5 552.5,348C 551.592,350.232 550.592,352.399 549.5,354.5C 549.824,356.569 550.658,356.902 552,355.5C 551.443,358.383 551.61,361.216 552.5,364C 550.615,369.67 549.115,375.503 548,381.5C 547.097,382.701 545.931,383.535 544.5,384C 545.718,386.445 545.218,388.612 543,390.5C 542.58,394.191 542.08,397.858 541.5,401.5C 540.33,403.279 538.664,404.279 536.5,404.5C 536.5,402.5 536.5,400.5 536.5,398.5C 532.062,397.425 530.062,399.092 530.5,403.5C 536.569,403.704 537.903,406.204 534.5,411C 534.833,411.333 535.167,411.667 535.5,412C 533.65,411.405 531.65,410.905 529.5,410.5C 530.572,417.154 529.406,423.488 526,429.5C 522.71,431.499 521.21,434.499 521.5,438.5C 520.325,438.281 519.325,438.614 518.5,439.5C 517.652,441.409 517.318,443.409 517.5,445.5C 516.883,445.389 516.383,445.056 516,444.5C 513.672,448.83 511.339,453.163 509,457.5C 508.667,457.167 508.333,456.833 508,456.5C 506.859,459.01 505.026,460.176 502.5,460C 500.859,451.972 499.859,443.806 499.5,435.5C 500.362,432.441 500.362,429.441 499.5,426.5C 498.675,425.614 497.675,425.281 496.5,425.5C 497.13,419.559 495.63,414.226 492,409.5C 491.888,404.277 489.888,399.944 486,396.5C 485.667,393.833 485.333,391.167 485,388.5C 483.989,389.337 482.822,389.67 481.5,389.5C 481.5,387.167 481.5,384.833 481.5,382.5C 480.167,382.5 478.833,382.5 477.5,382.5C 476.603,378.501 475.603,374.834 474.5,371.5C 473.481,372.687 472.314,373.687 471,374.5C 469.505,370.502 466.671,368.168 462.5,367.5C 459.568,366.2 457.234,364.2 455.5,361.5C 456.404,360.791 456.737,359.791 456.5,358.5C 449.837,356.96 449.837,355.126 456.5,353C 453.877,350.301 451.377,350.801 449,354.5C 445.947,352.57 443.447,350.07 441.5,347C 442.167,346.667 442.833,346.333 443.5,346C 442.167,345.333 442.167,344.667 443.5,344C 444.784,343.316 445.951,343.483 447,344.5C 449.206,339.589 447.706,337.923 442.5,339.5C 439.781,337.874 436.947,336.541 434,335.5C 431.107,336.28 428.441,336.28 426,335.5C 424.739,335.759 423.739,336.426 423,337.5C 422.676,335.431 421.842,335.098 420.5,336.5C 417.875,335.236 415.208,334.069 412.5,333C 413.129,329.557 414.129,326.057 415.5,322.5C 409.435,322.192 403.602,320.859 398,318.5C 395.194,320.602 392.027,321.602 388.5,321.5C 382.169,321.668 376.502,319.835 371.5,316C 363.522,314.304 355.522,312.804 347.5,311.5C 346.833,311.5 346.167,311.5 345.5,311.5C 345.389,310.883 345.056,310.383 344.5,310C 341.768,309.587 339.101,308.92 336.5,308C 335.809,306.933 335.309,305.766 335,304.5C 334.667,305.167 334.333,305.833 334,306.5C 328.235,304.766 322.402,303.099 316.5,301.5C 310.372,302.419 304.706,301.086 299.5,297.5C 300.59,295.997 301.757,295.664 303,296.5C 303.483,295.552 303.649,294.552 303.5,293.5C 300.797,293.045 298.13,292.378 295.5,291.5C 294.833,291.833 294.167,292.167 293.5,292.5C 295.287,293.316 296.954,294.316 298.5,295.5C 298,295.833 297.5,296.167 297,296.5C 293.667,295.833 290.333,295.167 287,294.5C 284.969,295.435 283.136,294.935 281.5,293C 276.676,292.886 272.01,292.053 267.5,290.5C 269.108,289.758 270.775,289.591 272.5,290C 272.167,289.667 271.833,289.333 271.5,289C 272.956,288.577 273.456,287.744 273,286.5C 271.215,287.24 269.382,287.907 267.5,288.5C 264.286,288.616 260.953,288.282 257.5,287.5C 256.036,284.934 254.869,282.267 254,279.5C 244.606,282.362 235.439,281.195 226.5,276C 227.93,274.12 227.596,272.62 225.5,271.5C 220.333,274.497 216.166,273.497 213,268.5C 212.586,268.957 212.086,269.291 211.5,269.5C 206.431,267.25 201.764,264.417 197.5,261C 196.207,260.51 194.873,260.343 193.5,260.5C 192.5,260.167 191.833,259.5 191.5,258.5C 190.315,257.143 189.315,255.643 188.5,254C 188.645,253.228 188.978,252.561 189.5,252C 185.65,249.239 181.983,246.239 178.5,243C 179.34,241.334 178.84,241.167 177,242.5C 175.242,241.531 174.742,240.364 175.5,239C 174.833,238.667 174.167,238.333 173.5,238C 175.394,236.921 175.727,235.587 174.5,234C 177.297,231.242 176.631,229.742 172.5,229.5C 170.865,229.878 169.365,230.544 168,231.5C 164.948,229.064 162.615,226.064 161,222.5C 159.549,220.536 157.716,219.203 155.5,218.5C 154.559,216.95 153.893,215.284 153.5,213.5C 153.174,205.072 150.341,197.739 145,191.5C 144.667,187.833 144.333,184.167 144,180.5C 143.025,174.465 141.525,168.632 139.5,163C 139.655,154.018 140.988,145.351 143.5,137C 143.167,136.667 142.833,136.333 142.5,136C 144.626,133.62 145.96,130.787 146.5,127.5C 148.565,127.738 150.565,127.238 152.5,126C 151.5,125 150.5,124 149.5,123C 150.649,121.396 150.649,119.73 149.5,118C 149.892,116.989 150.559,116.489 151.5,116.5C 150.696,115.059 150.029,113.559 149.5,112C 151.25,109.087 152.417,105.92 153,102.5C 153.414,102.043 153.914,101.709 154.5,101.5C 155.5,102.5 156.5,103.5 157.5,104.5C 156.36,107.923 155.026,111.256 153.5,114.5C 154.297,118.798 154.63,123.132 154.5,127.5C 155.5,127.5 156.5,127.5 157.5,127.5C 157.772,123.098 157.439,118.765 156.5,114.5C 159.99,110.225 160.823,105.558 159,100.5C 155.877,102.589 155.71,101.922 158.5,98.5C 157.494,97.6043 157.494,96.9377 158.5,96.5C 159.251,97.376 159.751,98.376 160,99.5C 160.651,97.765 160.485,96.0983 159.5,94.5C 160.472,91.8684 161.805,89.5351 163.5,87.5C 163.296,88.5294 163.796,89.5294 165,90.5C 165.333,89.8333 165.667,89.1667 166,88.5C 167.079,91.0627 167.579,93.7294 167.5,96.5C 169.144,96.7135 170.644,96.3802 172,95.5C 173.213,92.2325 173.546,88.8992 173,85.5C 171.194,87.9519 169.694,87.6186 168.5,84.5C 167.604,85.5063 166.938,85.5063 166.5,84.5C 167.695,82.2487 168.695,79.9154 169.5,77.5C 170.365,76.4173 171.365,76.2506 172.5,77C 173.685,78.353 175.019,79.5197 176.5,80.5C 180.717,76.7913 185.717,75.4579 191.5,76.5C 191.785,74.712 191.452,73.0453 190.5,71.5C 188.273,72.0525 185.939,72.0525 183.5,71.5C 183.5,68.8333 183.5,66.1667 183.5,63.5C 184.833,63.5 186.167,63.5 187.5,63.5C 187.5,64.8333 187.5,66.1667 187.5,67.5C 189.167,67.5 190.833,67.5 192.5,67.5C 192.286,65.8561 192.62,64.3561 193.5,63C 188.464,60.1529 188.964,57.9862 195,56.5C 195.483,55.552 195.649,54.552 195.5,53.5C 195.973,52.0937 196.973,51.427 198.5,51.5C 201.588,51.3773 204.255,52.3773 206.5,54.5C 207.5,54.1667 208.167,53.5 208.5,52.5C 207.315,51.147 205.981,49.9803 204.5,49C 206.833,48.6667 209.167,48.3333 211.5,48C 212.645,46.1406 214.312,45.3073 216.5,45.5C 219.216,45.9606 221.882,46.6273 224.5,47.5C 225.167,47.1667 225.833,46.8333 226.5,46.5C 225.726,45.2888 224.893,45.2888 224,46.5C 222.933,45.8095 221.766,45.3095 220.5,45C 229.682,38.549 239.682,36.549 250.5,39C 247.937,38.237 247.937,37.737 250.5,37.5C 252.055,37.722 253.389,38.3887 254.5,39.5C 255.614,38.277 255.781,36.9437 255,35.5C 253.173,36.184 251.673,35.5173 250.5,33.5C 253.631,32.5385 256.464,32.5385 259,33.5C 262.888,30.7941 267.055,29.1274 271.5,28.5 Z"/></g>
<g><path style="opacity:1" fill="#062c40" d="M 319.5,26.5 C 327.208,26.3583 334.875,26.8583 342.5,28C 353.13,30.5445 363.797,32.8778 374.5,35C 382.475,38.9477 390.808,42.281 399.5,45C 402.177,45.8136 404.177,47.3136 405.5,49.5C 398.29,46.5296 390.957,43.8629 383.5,41.5C 372.052,36.4585 360.052,33.1251 347.5,31.5C 338.22,29.5069 328.886,27.8402 319.5,26.5 Z"/></g>
<g><path style="opacity:1" fill="#1db4e4" d="M 271.5,28.5 C 267.055,29.1274 262.888,30.7941 259,33.5C 256.464,32.5385 253.631,32.5385 250.5,33.5C 251.673,35.5173 253.173,36.184 255,35.5C 255.781,36.9437 255.614,38.277 254.5,39.5C 253.389,38.3887 252.055,37.722 250.5,37.5C 247.937,37.737 247.937,38.237 250.5,39C 239.682,36.549 229.682,38.549 220.5,45C 221.766,45.3095 222.933,45.8095 224,46.5C 224.893,45.2888 225.726,45.2888 226.5,46.5C 225.833,46.8333 225.167,47.1667 224.5,47.5C 221.882,46.6273 219.216,45.9606 216.5,45.5C 214.312,45.3073 212.645,46.1406 211.5,48C 209.167,48.3333 206.833,48.6667 204.5,49C 205.981,49.9803 207.315,51.147 208.5,52.5C 208.167,53.5 207.5,54.1667 206.5,54.5C 204.255,52.3773 201.588,51.3773 198.5,51.5C 201.328,49.2519 204.328,47.2519 207.5,45.5C 227.729,35.7582 249.063,30.0915 271.5,28.5 Z"/></g>
<g><path style="opacity:1" fill="#152433" d="M 405.5,49.5 C 409.167,49.5 412.833,49.5 416.5,49.5C 416.5,50.5 416.5,51.5 416.5,52.5C 421.66,53.7465 426.326,56.0798 430.5,59.5C 431.086,59.2907 431.586,58.9574 432,58.5C 434.192,60.2353 436.692,61.402 439.5,62C 439.715,65.0532 441.048,67.8865 443.5,70.5C 431.115,62.9747 418.449,55.9747 405.5,49.5 Z"/></g>
<g><path style="opacity:1" fill="#0b293c" d="M 185.5,59.5 C 178.562,64.7688 172.229,70.7688 166.5,77.5C 165.427,76.7494 165.26,75.7494 166,74.5C 168.941,71.4685 171.774,68.3018 174.5,65C 178.104,62.8589 181.771,61.0256 185.5,59.5 Z"/></g>
<g><path style="opacity:1" fill="#1eb6e7" d="M 383.5,41.5 C 390.957,43.8629 398.29,46.5296 405.5,49.5C 418.449,55.9747 431.115,62.9747 443.5,70.5C 454.886,78.3713 465.886,86.8713 476.5,96C 482.667,102.167 488.833,108.333 495,114.5C 500.396,122.02 506.229,129.02 512.5,135.5C 513.529,137.517 514.529,139.517 515.5,141.5C 514.292,140.766 512.959,140.433 511.5,140.5C 511.649,139.448 511.483,138.448 511,137.5C 508.708,136.21 506.708,134.543 505,132.5C 504.176,127.605 501.676,125.772 497.5,127C 496.874,127.75 496.374,128.584 496,129.5C 492.427,128.133 488.76,127.133 485,126.5C 484.544,125.256 485.044,124.423 486.5,124C 484.214,122.083 482.88,119.583 482.5,116.5C 481.726,115.289 480.893,115.289 480,116.5C 479.045,114.051 477.545,112.051 475.5,110.5C 476,110.167 476.5,109.833 477,109.5C 484.805,112.805 485.805,111.805 480,106.5C 480.311,105.065 480.145,103.732 479.5,102.5C 478.009,101.756 476.509,101.09 475,100.5C 474.474,98.45 473.641,96.6166 472.5,95C 470.687,95.0464 469.021,94.8797 467.5,94.5C 466.029,95.3805 465.196,96.7139 465,98.5C 462.107,95.8496 458.607,94.8496 454.5,95.5C 454.719,94.325 454.386,93.325 453.5,92.5C 451.591,91.6518 449.591,91.3184 447.5,91.5C 447.5,90.1667 447.5,88.8333 447.5,87.5C 451.918,89.8753 456.584,91.8753 461.5,93.5C 463.405,92.935 465.071,91.935 466.5,90.5C 462.618,87.7798 458.618,85.2798 454.5,83C 451.979,79.4005 448.979,76.2339 445.5,73.5C 442.07,72.6188 438.737,71.4521 435.5,70C 430.048,65.2326 423.714,62.2326 416.5,61C 416.833,60.6667 417.167,60.3333 417.5,60C 415.809,58.5946 413.976,57.4279 412,56.5C 411.727,58.3289 410.893,59.8289 409.5,61C 407.19,61.4966 404.857,61.6633 402.5,61.5C 402.281,60.325 402.614,59.325 403.5,58.5C 406.452,57.9322 409.119,56.7656 411.5,55C 410.667,54.1667 409.833,53.3333 409,52.5C 406.504,53.2803 404.004,54.2803 401.5,55.5C 400.558,55.3918 399.725,55.0585 399,54.5C 398.879,52.2729 398.046,50.4396 396.5,49C 393.138,47.4075 389.804,46.7408 386.5,47C 387.696,46.3457 387.696,45.8457 386.5,45.5C 382.103,47.6993 381.103,48.0327 383.5,46.5C 383.5,44.8333 383.5,43.1667 383.5,41.5 Z"/></g>
<g><path style="opacity:1" fill="#12232f" d="M 443.5,70.5 C 445.199,70.3398 446.866,70.5065 448.5,71C 452.548,75.2856 457.381,76.7856 463,75.5C 465.346,76.6178 467.179,78.2845 468.5,80.5C 464.065,82.531 463.898,84.1976 468,85.5C 469.261,85.2409 470.261,84.5742 471,83.5C 470.49,85.3801 470.657,87.2134 471.5,89C 473.981,90.3249 476.481,90.8249 479,90.5C 479.456,91.7441 478.956,92.5774 477.5,93C 479.036,96.2573 481.202,98.0906 484,98.5C 488.423,105.375 493.757,111.375 500,116.5C 501.726,118.228 503.059,120.228 504,122.5C 504.333,122.167 504.667,121.833 505,121.5C 506.294,122.854 506.46,124.188 505.5,125.5C 509.339,127.865 511.672,131.199 512.5,135.5C 506.229,129.02 500.396,122.02 495,114.5C 488.833,108.333 482.667,102.167 476.5,96C 465.886,86.8713 454.886,78.3713 443.5,70.5 Z"/></g>
<g><path style="opacity:1" fill="#1bb6e9" d="M 195.5,53.5 C 195.649,54.552 195.483,55.552 195,56.5C 188.964,57.9862 188.464,60.1529 193.5,63C 192.62,64.3561 192.286,65.8561 192.5,67.5C 190.833,67.5 189.167,67.5 187.5,67.5C 187.5,66.1667 187.5,64.8333 187.5,63.5C 186.167,63.5 184.833,63.5 183.5,63.5C 183.5,66.1667 183.5,68.8333 183.5,71.5C 185.939,72.0525 188.273,72.0525 190.5,71.5C 191.452,73.0453 191.785,74.712 191.5,76.5C 185.717,75.4579 180.717,76.7913 176.5,80.5C 175.019,79.5197 173.685,78.353 172.5,77C 171.365,76.2506 170.365,76.4173 169.5,77.5C 168.695,79.9154 167.695,82.2487 166.5,84.5C 166.938,85.5063 167.604,85.5063 168.5,84.5C 169.694,87.6186 171.194,87.9519 173,85.5C 173.546,88.8992 173.213,92.2325 172,95.5C 170.644,96.3802 169.144,96.7135 167.5,96.5C 167.579,93.7294 167.079,91.0627 166,88.5C 165.667,89.1667 165.333,89.8333 165,90.5C 163.796,89.5294 163.296,88.5294 163.5,87.5C 161.805,89.5351 160.472,91.8684 159.5,94.5C 160.485,96.0983 160.651,97.765 160,99.5C 159.751,98.376 159.251,97.376 158.5,96.5C 157.494,96.9377 157.494,97.6043 158.5,98.5C 155.71,101.922 155.877,102.589 159,100.5C 160.823,105.558 159.99,110.225 156.5,114.5C 157.439,118.765 157.772,123.098 157.5,127.5C 156.5,127.5 155.5,127.5 154.5,127.5C 154.63,123.132 154.297,118.798 153.5,114.5C 155.026,111.256 156.36,107.923 157.5,104.5C 156.5,103.5 155.5,102.5 154.5,101.5C 153.914,101.709 153.414,102.043 153,102.5C 152.417,105.92 151.25,109.087 149.5,112C 150.029,113.559 150.696,115.059 151.5,116.5C 150.559,116.489 149.892,116.989 149.5,118C 150.649,119.73 150.649,121.396 149.5,123C 150.5,124 151.5,125 152.5,126C 150.565,127.238 148.565,127.738 146.5,127.5C 145.96,130.787 144.626,133.62 142.5,136C 142.833,136.333 143.167,136.667 143.5,137C 140.988,145.351 139.655,154.018 139.5,163C 141.525,168.632 143.025,174.465 144,180.5C 144.333,184.167 144.667,187.833 145,191.5C 150.341,197.739 153.174,205.072 153.5,213.5C 145.377,199.573 140.377,184.573 138.5,168.5C 138.5,166.833 138.5,165.167 138.5,163.5C 137.655,132.174 146.655,104.174 165.5,79.5C 165.833,78.8333 166.167,78.1667 166.5,77.5C 172.229,70.7688 178.562,64.7688 185.5,59.5C 188.53,56.9855 191.863,54.9855 195.5,53.5 Z"/></g>
<g><path style="opacity:1" fill="#092636" d="M 165.5,79.5 C 146.655,104.174 137.655,132.174 138.5,163.5C 136.707,149.494 137.54,135.494 141,121.5C 144.259,116.027 146.926,110.36 149,104.5C 149.847,101.412 149.347,98.5791 147.5,96C 149.433,95.7489 151.266,95.2489 153,94.5C 154.612,90.2833 156.446,86.2833 158.5,82.5C 160.672,81.1989 163.005,80.1989 165.5,79.5 Z"/></g>
<g><path style="opacity:1" fill="#191e0e" d="M 101.5,114.5 C 103.185,115.184 104.185,116.517 104.5,118.5C 104.167,119.5 103.5,120.167 102.5,120.5C 101.575,119.359 100.741,119.359 100,120.5C 99.4712,122.585 99.9712,124.418 101.5,126C 99.2366,127.701 97.4033,129.867 96,132.5C 95.7822,135.426 95.2822,138.26 94.5,141C 95.2583,142.364 94.7583,143.531 93,144.5C 91.3511,151.744 90.3511,159.078 90,166.5C 89.6174,167.056 89.1174,167.389 88.5,167.5C 88.8333,162.833 89.1667,158.167 89.5,153.5C 89.1113,149.586 89.7779,145.92 91.5,142.5C 93.7528,137.844 95.2528,132.844 96,127.5C 97.1353,127.273 98.302,126.94 99.5,126.5C 98.4557,124.232 98.289,121.899 99,119.5C 100.094,117.922 100.928,116.255 101.5,114.5 Z"/></g>
<g><path style="opacity:1" fill="#072a3d" d="M 380.5,149.5 C 380.833,150.5 381.5,151.167 382.5,151.5C 382.5,151.833 382.5,152.167 382.5,152.5C 381.127,152.657 379.793,152.49 378.5,152C 363.616,138.009 345.949,132.676 325.5,136C 315.85,137.566 307.183,141.232 299.5,147C 297.833,147.333 296.167,147.667 294.5,148C 292.848,151.818 290.181,154.652 286.5,156.5C 285.702,158.078 285.202,159.744 285,161.5C 283.774,159.452 282.274,159.119 280.5,160.5C 285.505,153.313 291.838,147.479 299.5,143C 327.867,128.776 354.867,130.943 380.5,149.5 Z"/></g>
<g><path style="opacity:1" fill="#c7e269" d="M 92.5,119.5 C 90.1841,123.489 87.8508,127.489 85.5,131.5C 80.4769,137.519 75.4769,143.519 70.5,149.5C 76.6816,138.652 84.015,128.652 92.5,119.5 Z"/></g>
<g><path style="opacity:1" fill="#1d270b" d="M 101.5,114.5 C 100.928,116.255 100.094,117.922 99,119.5C 98.289,121.899 98.4557,124.232 99.5,126.5C 98.302,126.94 97.1353,127.273 96,127.5C 95.2528,132.844 93.7528,137.844 91.5,142.5C 92.7234,136.165 94.0567,129.832 95.5,123.5C 97.4355,120.096 98.6022,116.429 99,112.5C 96.6278,114.703 94.4611,117.037 92.5,119.5C 84.015,128.652 76.6816,138.652 70.5,149.5C 68.8333,151.5 67.1667,153.5 65.5,155.5C 65.3433,154.127 65.51,152.793 66,151.5C 69.8685,146.637 72.8685,141.304 75,135.5C 78.2651,133.241 81.2651,130.574 84,127.5C 86.3836,123.212 89.2169,119.212 92.5,115.5C 94.3031,114.863 95.6364,113.697 96.5,112C 97.7932,111.51 99.1266,111.343 100.5,111.5C 100.263,112.791 100.596,113.791 101.5,114.5 Z"/></g>
<g><path style="opacity:1" fill="#c7da73" d="M 95.5,123.5 C 95.5,122.167 95.5,120.833 95.5,119.5C 94.5,119.5 93.5,119.5 92.5,119.5C 94.4611,117.037 96.6278,114.703 99,112.5C 98.6022,116.429 97.4355,120.096 95.5,123.5 Z"/></g>
<g><path style="opacity:1" fill="#191919" d="M 382.5,152.5 C 383.833,153.167 384.833,154.167 385.5,155.5C 388.719,159.594 391.219,164.261 393,169.5C 397.409,172.655 399.409,176.989 399,182.5C 400.507,185.987 402.174,189.321 404,192.5C 404.458,200.843 404.291,209.176 403.5,217.5C 402.503,217.47 401.836,217.97 401.5,219C 401.11,224.754 399.277,229.921 396,234.5C 395.667,234.167 395.333,233.833 395,233.5C 394.489,235.878 393.822,238.212 393,240.5C 389.409,245.131 385.909,249.798 382.5,254.5C 379.79,255.515 377.457,257.015 375.5,259C 374.748,259.671 374.414,260.504 374.5,261.5C 369.455,266.274 363.455,269.274 356.5,270.5C 349.556,271.824 342.556,272.824 335.5,273.5C 328.232,272.174 320.899,271.007 313.5,270C 310.439,267.965 307.105,266.799 303.5,266.5C 301.422,263.916 299.088,261.416 296.5,259C 293.249,258.332 290.249,257.166 287.5,255.5C 286.833,255.167 286.167,254.833 285.5,254.5C 282.5,250.5 279.5,246.5 276.5,242.5C 274.169,236.63 272.003,230.63 270,224.5C 269.623,223.058 268.79,222.058 267.5,221.5C 267.5,221.167 267.5,220.833 267.5,220.5C 266.615,211.513 266.448,202.513 267,193.5C 269.565,184.713 272.398,176.047 275.5,167.5C 276.443,164.6 278.11,162.267 280.5,160.5C 282.274,159.119 283.774,159.452 285,161.5C 285.202,159.744 285.702,158.078 286.5,156.5C 290.181,154.652 292.848,151.818 294.5,148C 296.167,147.667 297.833,147.333 299.5,147C 307.183,141.232 315.85,137.566 325.5,136C 345.949,132.676 363.616,138.009 378.5,152C 379.793,152.49 381.127,152.657 382.5,152.5 Z"/></g>
<g><path style="opacity:1" fill="#0b2337" d="M 512.5,135.5 C 514.371,135.859 515.871,136.859 517,138.5C 518.808,141.438 520.308,144.438 521.5,147.5C 522.5,147.5 523.5,147.5 524.5,147.5C 526.082,151.688 527.415,156.021 528.5,160.5C 524.709,153.793 520.376,147.46 515.5,141.5C 514.529,139.517 513.529,137.517 512.5,135.5 Z"/></g>
<g><path style="opacity:1" fill="#25b2df" d="M 380.5,149.5 C 354.867,130.943 327.867,128.776 299.5,143C 291.838,147.479 285.505,153.313 280.5,160.5C 278.11,162.267 276.443,164.6 275.5,167.5C 274.407,169.349 273.074,171.016 271.5,172.5C 273.13,168.348 272.797,164.348 270.5,160.5C 271,160.167 271.5,159.833 272,159.5C 273.567,160.856 275.4,161.523 277.5,161.5C 278.026,158.192 276.693,156.026 273.5,155C 275.101,154.727 276.601,154.227 278,153.5C 278.333,153.833 278.667,154.167 279,154.5C 280.621,152.507 282.287,150.507 284,148.5C 284.718,149.451 285.551,149.617 286.5,149C 287.594,145.172 289.76,142.005 293,139.5C 294.951,141.137 294.784,142.637 292.5,144C 293,144.167 293.5,144.333 294,144.5C 295.478,143.022 296.978,141.522 298.5,140C 302.76,138.868 306.76,137.201 310.5,135C 312.112,134.28 313.612,134.446 315,135.5C 318.679,134.115 322.512,133.282 326.5,133C 327.126,132.25 327.626,131.416 328,130.5C 332.253,131.382 336.587,132.049 341,132.5C 349.365,130.238 357.199,131.738 364.5,137C 366.9,137.186 369.234,137.686 371.5,138.5C 373.625,141.59 376.292,144.09 379.5,146C 379.167,146.333 378.833,146.667 378.5,147C 379.381,147.708 380.047,148.542 380.5,149.5 Z"/></g>
<g><path style="opacity:1" fill="#c5e362" d="M 95.5,123.5 C 94.0567,129.832 92.7234,136.165 91.5,142.5C 89.7779,145.92 89.1113,149.586 89.5,153.5C 85.0008,178.852 85.8341,204.186 92,229.5C 93.3709,234.464 95.2043,239.131 97.5,243.5C 97.5,244.167 97.5,244.833 97.5,245.5C 95.7151,245.074 94.7151,243.908 94.5,242C 91.7253,232.923 89.2253,223.757 87,214.5C 85.5044,203.887 84.6711,193.22 84.5,182.5C 85.7112,169.183 86.8778,155.85 88,142.5C 91.5135,137.374 93.3468,131.708 93.5,125.5C 94.1818,124.757 94.8485,124.091 95.5,123.5 Z"/></g>
<g><path style="opacity:1" fill="#cef944" d="M 92.5,119.5 C 93.5,119.5 94.5,119.5 95.5,119.5C 95.5,120.833 95.5,122.167 95.5,123.5C 94.8485,124.091 94.1818,124.757 93.5,125.5C 93.3468,131.708 91.5135,137.374 88,142.5C 86.8778,155.85 85.7112,169.183 84.5,182.5C 84.6711,193.22 85.5044,203.887 87,214.5C 89.2253,223.757 91.7253,232.923 94.5,242C 94.7151,243.908 95.7151,245.074 97.5,245.5C 98.1667,247.167 98.8333,248.833 99.5,250.5C 102.342,256.857 105.675,262.857 109.5,268.5C 109.427,270.027 110.094,271.027 111.5,271.5C 111.5,272.5 111.5,273.5 111.5,274.5C 110.923,277.55 112.09,279.55 115,280.5C 115.681,282.895 116.515,285.228 117.5,287.5C 119.893,289.277 121.56,291.61 122.5,294.5C 123.795,295.098 125.128,295.598 126.5,296C 128.703,299.037 131.369,301.537 134.5,303.5C 136.167,304.5 137.5,305.833 138.5,307.5C 141.043,311.149 143.71,314.816 146.5,318.5C 149.721,320.692 152.721,323.025 155.5,325.5C 155.5,327.167 155.5,328.833 155.5,330.5C 156.978,330.238 158.311,330.571 159.5,331.5C 163.425,335.262 167.259,339.262 171,343.5C 171.861,346.368 173.528,348.702 176,350.5C 176.422,353.236 176.422,355.902 176,358.5C 177.073,359.28 178.24,359.113 179.5,358C 178.353,356.719 178.687,356.386 180.5,357C 181.264,359.069 181.764,361.236 182,363.5C 182.677,361.311 183.844,360.978 185.5,362.5C 186.072,364.078 186.406,365.578 186.5,367C 189.996,367.656 192.996,369.156 195.5,371.5C 196.5,371.833 197.167,372.5 197.5,373.5C 199.681,377.526 201.181,381.859 202,386.5C 206.324,389.579 209.824,393.413 212.5,398C 213.094,398.464 213.761,398.631 214.5,398.5C 219.337,405.504 223.671,412.837 227.5,420.5C 227.5,420.833 227.5,421.167 227.5,421.5C 229.396,425.297 230.729,429.297 231.5,433.5C 234.427,448.71 236.761,464.044 238.5,479.5C 237.646,490.186 236.646,500.853 235.5,511.5C 235.483,513.565 235.15,515.565 234.5,517.5C 232.994,519.975 231.661,522.642 230.5,525.5C 227.193,526.087 226.193,527.754 227.5,530.5C 226.087,534.723 225.421,539.057 225.5,543.5C 224.736,546.018 223.736,548.351 222.5,550.5C 215.624,551.563 209.624,549.897 204.5,545.5C 199.445,544.579 194.445,543.579 189.5,542.5C 185.147,537.171 179.481,534.504 172.5,534.5C 170.909,532.563 169.242,530.563 167.5,528.5C 162.392,527.64 157.726,525.974 153.5,523.5C 152.198,521.31 150.531,519.31 148.5,517.5C 142.626,516.067 137.959,512.9 134.5,508C 121.087,500.146 110.087,489.813 101.5,477C 99.6547,475.872 97.6547,475.372 95.5,475.5C 95.5,475.167 95.5,474.833 95.5,474.5C 95.1667,472.5 94.8333,470.5 94.5,468.5C 93.1266,468.657 91.7932,468.49 90.5,468C 88.2121,464.506 85.8788,461.006 83.5,457.5C 82.675,456.614 81.675,456.281 80.5,456.5C 74.3998,447.089 68.5665,437.423 63,427.5C 62.3292,426.748 61.4959,426.414 60.5,426.5C 58.4854,423.131 56.4854,419.798 54.5,416.5C 54.0075,414.181 53.0075,412.181 51.5,410.5C 49.6779,404.864 47.3446,399.531 44.5,394.5C 44.5,394.167 44.5,393.833 44.5,393.5C 39.115,379.916 35.115,365.916 32.5,351.5C 31.0308,333.05 29.3642,314.883 27.5,297C 27.9638,283.153 28.6304,269.319 29.5,255.5C 29.5,254.833 29.5,254.167 29.5,253.5C 31.097,251.217 32.7637,248.884 34.5,246.5C 35.6086,247.59 36.6086,247.59 37.5,246.5C 36.4688,245.3 35.6355,243.966 35,242.5C 34.237,245.063 33.737,245.063 33.5,242.5C 33.9125,239.318 34.7458,236.318 36,233.5C 36.4983,230.183 36.665,226.85 36.5,223.5C 37.6566,219.207 38.6566,214.873 39.5,210.5C 41.2793,207.085 42.6127,203.419 43.5,199.5C 44.9063,199.027 45.573,198.027 45.5,196.5C 47.4179,194.621 49.2512,192.621 51,190.5C 52.3662,185.687 54.0328,181.021 56,176.5C 56.0002,180.927 57.1668,181.427 59.5,178C 57.503,176.847 57.1696,175.347 58.5,173.5C 59.8834,176.076 60.7167,175.742 61,172.5C 61.4828,173.448 61.6495,174.448 61.5,175.5C 62.5,175.5 63.5,175.5 64.5,175.5C 64.7035,173.61 64.0368,172.11 62.5,171C 65.0456,169.479 65.0456,167.979 62.5,166.5C 62.9807,163.545 64.4807,161.211 67,159.5C 67.4705,155.885 68.6371,152.551 70.5,149.5C 75.4769,143.519 80.4769,137.519 85.5,131.5C 87.8508,127.489 90.1841,123.489 92.5,119.5 Z"/></g>
<g><path style="opacity:1" fill="#c6e45f" d="M 70.5,149.5 C 68.6371,152.551 67.4705,155.885 67,159.5C 64.4807,161.211 62.9807,163.545 62.5,166.5C 61.609,167.11 60.609,167.443 59.5,167.5C 61.0661,163.272 63.0661,159.272 65.5,155.5C 67.1667,153.5 68.8333,151.5 70.5,149.5 Z"/></g>
<g><path style="opacity:1" fill="#21b4de" d="M 394.5,164.5 C 391.86,161.194 388.86,158.194 385.5,155.5C 384.833,154.167 383.833,153.167 382.5,152.5C 382.5,152.167 382.5,151.833 382.5,151.5C 385.588,150.932 388.588,150.932 391.5,151.5C 392.516,154.134 392.516,156.8 391.5,159.5C 392.5,159.5 393.5,159.5 394.5,159.5C 394.5,161.167 394.5,162.833 394.5,164.5 Z"/></g>
<g><path style="opacity:1" fill="#21b3df" d="M 515.5,141.5 C 520.376,147.46 524.709,153.793 528.5,160.5C 531.088,165.344 533.421,170.344 535.5,175.5C 534.288,176.23 533.288,177.23 532.5,178.5C 531.453,177.078 531.453,175.578 532.5,174C 530.327,171.815 528.493,169.315 527,166.5C 526.316,165.216 526.483,164.049 527.5,163C 523.795,161.301 521.628,158.467 521,154.5C 515.932,151.702 514.099,147.368 515.5,141.5 Z"/></g>
<g><path style="opacity:1" fill="#1a210f" d="M 65.5,155.5 C 63.0661,159.272 61.0661,163.272 59.5,167.5C 53.5392,176.425 48.8726,186.091 45.5,196.5C 45.573,198.027 44.9063,199.027 43.5,199.5C 44.5018,195.609 45.3352,191.609 46,187.5C 48.6755,183.82 50.5089,179.82 51.5,175.5C 50.1266,175.657 48.7932,175.49 47.5,175C 48.1667,174.667 48.8333,174.333 49.5,174C 48.5494,173.282 48.3828,172.449 49,171.5C 50,172.167 51,172.833 52,173.5C 52.3511,168.651 53.1845,163.984 54.5,159.5C 55.5,159.5 56.5,159.5 57.5,159.5C 56.4218,162.43 55.9218,165.43 56,168.5C 58.254,164.993 60.254,161.327 62,157.5C 62.8159,156.177 63.9826,155.511 65.5,155.5 Z"/></g>
<g><path style="opacity:1" fill="#c8ed4d" d="M 62.5,166.5 C 65.0456,167.979 65.0456,169.479 62.5,171C 64.0368,172.11 64.7035,173.61 64.5,175.5C 63.5,175.5 62.5,175.5 61.5,175.5C 61.6495,174.448 61.4828,173.448 61,172.5C 60.7167,175.742 59.8834,176.076 58.5,173.5C 57.1696,175.347 57.503,176.847 59.5,178C 57.1668,181.427 56.0002,180.927 56,176.5C 54.0328,181.021 52.3662,185.687 51,190.5C 49.2512,192.621 47.4179,194.621 45.5,196.5C 48.8726,186.091 53.5392,176.425 59.5,167.5C 60.609,167.443 61.609,167.11 62.5,166.5 Z"/></g>
<g><path style="opacity:1" fill="#1cb7ea" d="M 271.5,173.5 C 264.062,188.771 262.728,204.438 267.5,220.5C 267.5,220.833 267.5,221.167 267.5,221.5C 268.635,229.422 271.635,236.422 276.5,242.5C 279.5,246.5 282.5,250.5 285.5,254.5C 284.85,254.804 284.183,255.137 283.5,255.5C 282.527,252.028 280.36,249.694 277,248.5C 275.33,243.826 273.163,239.493 270.5,235.5C 269.269,236.651 269.269,237.817 270.5,239C 267.877,241.195 265.877,240.695 264.5,237.5C 266.957,235.375 266.624,233.541 263.5,232C 265.028,230.352 265.695,228.352 265.5,226C 265.501,221.979 264.501,218.312 262.5,215C 263.435,212.619 263.768,210.119 263.5,207.5C 261.052,207.085 259.719,208.085 259.5,210.5C 260.581,213.41 261.248,216.41 261.5,219.5C 261.091,226.263 260.257,232.93 259,239.5C 258.626,238.584 258.126,237.75 257.5,237C 257.624,220.224 257.791,203.391 258,186.5C 260.104,182.768 261.604,178.768 262.5,174.5C 264.015,176.547 264.849,178.881 265,181.5C 265.998,178.756 266.665,176.089 267,173.5C 268.49,174.728 269.99,174.728 271.5,173.5 Z"/></g>
<g><path style="opacity:1" fill="#0a293d" d="M 385.5,155.5 C 388.86,158.194 391.86,161.194 394.5,164.5C 398.714,173.217 402.214,182.217 405,191.5C 405.667,198.5 405.667,205.5 405,212.5C 404.802,214.382 404.302,216.048 403.5,217.5C 404.291,209.176 404.458,200.843 404,192.5C 402.174,189.321 400.507,185.987 399,182.5C 399.409,176.989 397.409,172.655 393,169.5C 391.219,164.261 388.719,159.594 385.5,155.5 Z"/></g>
<g><path style="opacity:1" fill="#132331" d="M 138.5,168.5 C 140.377,184.573 145.377,199.573 153.5,213.5C 153.893,215.284 154.559,216.95 155.5,218.5C 156.861,220.85 158.194,223.184 159.5,225.5C 158.143,224.315 156.643,223.315 155,222.5C 152.815,223.64 150.982,224.64 149.5,225.5C 149.5,223.833 149.5,222.167 149.5,220.5C 150.5,220.5 151.5,220.5 152.5,220.5C 152.776,217.148 151.609,214.481 149,212.5C 148.477,208.858 147.31,205.524 145.5,202.5C 143.089,202.863 141.589,201.863 141,199.5C 139.999,189.169 139.165,178.835 138.5,168.5 Z"/></g>
<g><path style="opacity:1" fill="#18b7ec" d="M 400.5,230.5 C 402.394,226.376 403.394,222.043 403.5,217.5C 404.302,216.048 404.802,214.382 405,212.5C 405.667,205.5 405.667,198.5 405,191.5C 402.214,182.217 398.714,173.217 394.5,164.5C 395.88,163.294 397.047,163.627 398,165.5C 399.383,168.368 400.216,171.368 400.5,174.5C 401.5,174.5 402.5,174.5 403.5,174.5C 404.919,180.704 406.919,180.871 409.5,175C 411.706,174.268 413.372,174.935 414.5,177C 411.931,180.725 409.598,184.559 407.5,188.5C 408.724,191.769 410.391,192.102 412.5,189.5C 410.989,187.162 411.323,186.496 413.5,187.5C 414.95,184.859 415.617,185.192 415.5,188.5C 415.523,190.067 415.023,191.4 414,192.5C 413.833,206.179 413.333,219.846 412.5,233.5C 411.914,233.291 411.414,232.957 411,232.5C 410.231,229.901 410.398,227.401 411.5,225C 410.106,224.044 409.439,222.711 409.5,221C 410.809,217.432 411.809,213.766 412.5,210C 412.045,208.276 411.212,206.776 410,205.5C 409.034,208.644 407.701,211.644 406,214.5C 406.566,220.781 404.733,226.114 400.5,230.5 Z"/></g>
<g><path style="opacity:1" fill="#043047" d="M 275.5,167.5 C 272.398,176.047 269.565,184.713 267,193.5C 266.448,202.513 266.615,211.513 267.5,220.5C 262.728,204.438 264.062,188.771 271.5,173.5C 271.5,173.167 271.5,172.833 271.5,172.5C 273.074,171.016 274.407,169.349 275.5,167.5 Z"/></g>
<g><path style="opacity:1" fill="#14222e" d="M 528.5,160.5 C 529.822,160.33 530.989,160.663 532,161.5C 540.007,177.195 546.673,193.528 552,210.5C 552.414,210.957 552.914,211.291 553.5,211.5C 554.429,210.311 554.762,208.978 554.5,207.5C 555.5,207.5 556.5,207.5 557.5,207.5C 557.34,209.199 557.506,210.866 558,212.5C 560.692,214.212 561.026,216.212 559,218.5C 557.667,217.833 556.667,216.833 556,215.5C 555.833,216.667 555.667,217.833 555.5,219C 557.582,225.669 558.582,232.502 558.5,239.5C 557.335,234.01 555.669,228.676 553.5,223.5C 553.322,220.784 552.822,218.117 552,215.5C 549.61,207.56 546.777,199.894 543.5,192.5C 541.624,186.417 538.957,180.75 535.5,175.5C 533.421,170.344 531.088,165.344 528.5,160.5 Z"/></g>
<g><path style="opacity:1" fill="#25afd9" d="M 543.5,192.5 C 546.777,199.894 549.61,207.56 552,215.5C 552.822,218.117 553.322,220.784 553.5,223.5C 551.056,219.304 549.056,214.804 547.5,210C 546.728,208.779 545.728,207.779 544.5,207C 545.022,206.439 545.355,205.772 545.5,205C 543.688,201.096 543.022,196.929 543.5,192.5 Z"/></g>
<g><path style="opacity:1" fill="#1b2705" d="M 89.5,153.5 C 89.1667,158.167 88.8333,162.833 88.5,167.5C 88.0215,184.902 88.8549,202.235 91,219.5C 92.369,223.667 94.0356,227.667 96,231.5C 96.0659,235.251 96.8992,238.751 98.5,242C 98.4301,242.765 98.0967,243.265 97.5,243.5C 95.2043,239.131 93.3709,234.464 92,229.5C 85.8341,204.186 85.0008,178.852 89.5,153.5 Z"/></g>
<g><path style="opacity:1" fill="#1db4e4" d="M 155.5,218.5 C 157.716,219.203 159.549,220.536 161,222.5C 162.615,226.064 164.948,229.064 168,231.5C 169.365,230.544 170.865,229.878 172.5,229.5C 176.631,229.742 177.297,231.242 174.5,234C 175.727,235.587 175.394,236.921 173.5,238C 174.167,238.333 174.833,238.667 175.5,239C 174.742,240.364 175.242,241.531 177,242.5C 178.84,241.167 179.34,241.334 178.5,243C 181.983,246.239 185.65,249.239 189.5,252C 188.978,252.561 188.645,253.228 188.5,254C 189.315,255.643 190.315,257.143 191.5,258.5C 189.068,257.25 186.734,255.75 184.5,254C 178.998,249.602 173.998,244.769 169.5,239.5C 166.522,234.531 163.189,229.865 159.5,225.5C 158.194,223.184 156.861,220.85 155.5,218.5 Z"/></g>
<g><path style="opacity:1" fill="#053147" d="M 267.5,221.5 C 268.79,222.058 269.623,223.058 270,224.5C 272.003,230.63 274.169,236.63 276.5,242.5C 271.635,236.422 268.635,229.422 267.5,221.5 Z"/></g>
<g><path style="opacity:1" fill="#1a2306" d="M 39.5,210.5 C 38.6566,214.873 37.6566,219.207 36.5,223.5C 33.2508,233.17 30.9175,243.17 29.5,253.5C 29.5,254.167 29.5,254.833 29.5,255.5C 29.1667,255.5 28.8333,255.5 28.5,255.5C 28.6265,244.756 30.4599,234.422 34,224.5C 34.6667,221.167 35.3333,217.833 36,214.5C 36.9487,212.907 38.1154,211.574 39.5,210.5 Z"/></g>
<g><path style="opacity:1" fill="#c7e854" d="M 36.5,223.5 C 36.665,226.85 36.4983,230.183 36,233.5C 34.7458,236.318 33.9125,239.318 33.5,242.5C 33.737,245.063 34.237,245.063 35,242.5C 35.6355,243.966 36.4688,245.3 37.5,246.5C 36.6086,247.59 35.6086,247.59 34.5,246.5C 32.7637,248.884 31.097,251.217 29.5,253.5C 30.9175,243.17 33.2508,233.17 36.5,223.5 Z"/></g>
<g><path style="opacity:1" fill="#0a2734" d="M 403.5,217.5 C 403.394,222.043 402.394,226.376 400.5,230.5C 399.227,232.713 398.227,235.046 397.5,237.5C 394.007,243.123 390.007,248.456 385.5,253.5C 382.356,256.99 378.69,259.657 374.5,261.5C 374.414,260.504 374.748,259.671 375.5,259C 377.457,257.015 379.79,255.515 382.5,254.5C 385.909,249.798 389.409,245.131 393,240.5C 393.822,238.212 394.489,235.878 395,233.5C 395.333,233.833 395.667,234.167 396,234.5C 399.277,229.921 401.11,224.754 401.5,219C 401.836,217.97 402.503,217.47 403.5,217.5 Z"/></g>
<g><path style="opacity:1" fill="#07253b" d="M 169.5,239.5 C 173.998,244.769 178.998,249.602 184.5,254C 186.734,255.75 189.068,257.25 191.5,258.5C 191.833,259.5 192.5,260.167 193.5,260.5C 195.5,262.167 197.5,263.833 199.5,265.5C 197.072,264.788 194.739,263.788 192.5,262.5C 184.861,257.024 177.694,251.024 171,244.5C 170.392,242.846 169.892,241.179 169.5,239.5 Z"/></g>
<g><path style="opacity:1" fill="#1fb5e6" d="M 553.5,223.5 C 555.669,228.676 557.335,234.01 558.5,239.5C 566.989,285.342 564.823,330.675 552,375.5C 549.158,384.547 545.658,393.213 541.5,401.5C 542.08,397.858 542.58,394.191 543,390.5C 545.218,388.612 545.718,386.445 544.5,384C 545.931,383.535 547.097,382.701 548,381.5C 549.115,375.503 550.615,369.67 552.5,364C 551.61,361.216 551.443,358.383 552,355.5C 550.658,356.902 549.824,356.569 549.5,354.5C 550.592,352.399 551.592,350.232 552.5,348C 551.333,347.5 550.5,346.667 550,345.5C 547.497,346.55 545.997,345.55 545.5,342.5C 545.887,339.794 546.887,337.461 548.5,335.5C 549.794,337.962 551.294,340.295 553,342.5C 554,342.833 555,343.167 556,343.5C 557.361,335.477 558.861,327.477 560.5,319.5C 560.327,317.962 559.994,316.462 559.5,315C 562.318,305.217 562.651,295.217 560.5,285C 561.966,282.562 561.632,280.395 559.5,278.5C 559.309,275.401 559.643,272.234 560.5,269C 559.369,264.049 558.036,259.215 556.5,254.5C 557.964,252.007 557.797,249.674 556,247.5C 555.517,248.448 555.351,249.448 555.5,250.5C 553.856,250.714 552.356,250.38 551,249.5C 550.873,247.366 551.039,245.199 551.5,243C 550.582,240.239 549.916,237.406 549.5,234.5C 550.5,234.5 551.5,234.5 552.5,234.5C 553.244,230.881 553.577,227.215 553.5,223.5 Z"/></g>
<g><path style="opacity:1" fill="#1a2608" d="M 109.5,268.5 C 105.675,262.857 102.342,256.857 99.5,250.5C 100.397,249.402 101.23,249.402 102,250.5C 104.737,256.21 107.571,261.877 110.5,267.5C 110.376,268.107 110.043,268.44 109.5,268.5 Z"/></g>
<g><path style="opacity:1" fill="#16b9ef" d="M 397.5,237.5 C 397.46,240.881 397.793,244.214 398.5,247.5C 396.833,247.5 395.167,247.5 393.5,247.5C 393.66,249.199 393.494,250.866 393,252.5C 386.35,258.4 379.516,263.4 372.5,267.5C 371.269,268.651 371.269,269.817 372.5,271C 370.892,271.658 369.725,271.158 369,269.5C 365.899,269.805 363.066,271.305 360.5,274C 363.95,281.804 361.95,283.804 354.5,280C 357.937,279.351 358.104,278.851 355,278.5C 352.266,279.721 349.433,280.721 346.5,281.5C 340.589,280.922 334.589,280.922 328.5,281.5C 326.292,280.728 326.625,279.895 329.5,279C 335.935,279.854 336.101,279.021 330,276.5C 326.638,276.583 323.138,276.75 319.5,277C 320.646,277.645 321.646,278.478 322.5,279.5C 324.62,278.128 325.62,278.795 325.5,281.5C 322.449,281.546 319.782,280.546 317.5,278.5C 316.205,279.098 314.872,279.598 313.5,280C 313.833,280.333 314.167,280.667 314.5,281C 313.692,281.308 313.025,281.808 312.5,282.5C 314.693,285.098 317.36,286.931 320.5,288C 319.737,288.944 318.737,289.444 317.5,289.5C 315.016,288.132 312.35,287.299 309.5,287C 308.833,286 308.167,285 307.5,284C 308.711,283.213 309.711,282.546 310.5,282C 309.262,279.285 309.262,276.618 310.5,274C 307.915,271.742 305.082,269.909 302,268.5C 301.667,269.167 301.333,269.833 301,270.5C 300.558,268.321 299.558,267.655 298,268.5C 292.215,265.251 288.048,260.585 285.5,254.5C 286.167,254.833 286.833,255.167 287.5,255.5C 292.129,260.151 297.463,263.818 303.5,266.5C 315.85,273.535 329.184,276.035 343.5,274C 348.147,273.462 352.48,272.295 356.5,270.5C 363.455,269.274 369.455,266.274 374.5,261.5C 378.69,259.657 382.356,256.99 385.5,253.5C 390.007,248.456 394.007,243.123 397.5,237.5 Z"/></g>
<g><path style="opacity:1" fill="#02394c" d="M 303.5,266.5 C 307.105,266.799 310.439,267.965 313.5,270C 320.899,271.007 328.232,272.174 335.5,273.5C 342.556,272.824 349.556,271.824 356.5,270.5C 352.48,272.295 348.147,273.462 343.5,274C 329.184,276.035 315.85,273.535 303.5,266.5 Z"/></g>
<g><path style="opacity:1" fill="#0c2841" d="M 287.5,255.5 C 290.249,257.166 293.249,258.332 296.5,259C 299.088,261.416 301.422,263.916 303.5,266.5C 297.463,263.818 292.129,260.151 287.5,255.5 Z"/></g>
<g><path style="opacity:1" fill="#161e29" d="M 199.5,265.5 C 207.551,270.525 215.884,275.025 224.5,279C 240.084,284.812 255.751,289.979 271.5,294.5C 260.419,293.365 249.752,290.532 239.5,286C 233.894,286.554 229.227,284.887 225.5,281C 223.167,280.333 220.833,280.333 218.5,281C 218.966,282.299 218.966,283.799 218.5,285.5C 222.819,284.799 226.486,285.966 229.5,289C 227.074,288.952 224.741,289.119 222.5,289.5C 220.264,287.383 217.597,286.383 214.5,286.5C 211.761,286.91 209.427,287.743 207.5,289C 206.643,288.311 205.977,287.478 205.5,286.5C 209.166,283.035 213.499,280.535 218.5,279C 217.107,277.637 215.441,276.804 213.5,276.5C 211.666,277.754 209.666,278.421 207.5,278.5C 207.178,276.278 207.845,274.444 209.5,273C 207.403,271.39 205.07,270.223 202.5,269.5C 201.174,268.358 200.174,267.024 199.5,265.5 Z"/></g>
<g><path style="opacity:1" fill="#1d260c" d="M 111.5,271.5 C 114.597,274.203 117.264,277.37 119.5,281C 120.5,281.333 121.5,281.667 122.5,282C 121.177,282.816 120.511,283.983 120.5,285.5C 117.878,281.543 114.878,277.876 111.5,274.5C 111.5,273.5 111.5,272.5 111.5,271.5 Z"/></g>
<g><path style="opacity:1" fill="#cae85c" d="M 111.5,274.5 C 114.878,277.876 117.878,281.543 120.5,285.5C 124.761,291.767 129.427,297.767 134.5,303.5C 131.369,301.537 128.703,299.037 126.5,296C 125.128,295.598 123.795,295.098 122.5,294.5C 121.56,291.61 119.893,289.277 117.5,287.5C 116.515,285.228 115.681,282.895 115,280.5C 112.09,279.55 110.923,277.55 111.5,274.5 Z"/></g>
<g><path style="opacity:1" fill="#20b3e3" d="M 193.5,260.5 C 194.873,260.343 196.207,260.51 197.5,261C 201.764,264.417 206.431,267.25 211.5,269.5C 212.086,269.291 212.586,268.957 213,268.5C 216.166,273.497 220.333,274.497 225.5,271.5C 227.596,272.62 227.93,274.12 226.5,276C 235.439,281.195 244.606,282.362 254,279.5C 254.869,282.267 256.036,284.934 257.5,287.5C 260.953,288.282 264.286,288.616 267.5,288.5C 269.382,287.907 271.215,287.24 273,286.5C 273.456,287.744 272.956,288.577 271.5,289C 271.833,289.333 272.167,289.667 272.5,290C 270.775,289.591 269.108,289.758 267.5,290.5C 272.01,292.053 276.676,292.886 281.5,293C 283.136,294.935 284.969,295.435 287,294.5C 290.333,295.167 293.667,295.833 297,296.5C 297.5,296.167 298,295.833 298.5,295.5C 296.954,294.316 295.287,293.316 293.5,292.5C 294.167,292.167 294.833,291.833 295.5,291.5C 298.13,292.378 300.797,293.045 303.5,293.5C 303.649,294.552 303.483,295.552 303,296.5C 301.757,295.664 300.59,295.997 299.5,297.5C 304.706,301.086 310.372,302.419 316.5,301.5C 322.402,303.099 328.235,304.766 334,306.5C 334.333,305.833 334.667,305.167 335,304.5C 335.309,305.766 335.809,306.933 336.5,308C 339.101,308.92 341.768,309.587 344.5,310C 345.056,310.383 345.389,310.883 345.5,311.5C 320.866,305.574 296.199,299.907 271.5,294.5C 255.751,289.979 240.084,284.812 224.5,279C 215.884,275.025 207.551,270.525 199.5,265.5C 197.5,263.833 195.5,262.167 193.5,260.5 Z"/></g>
<g><path style="opacity:1" fill="#c4e168" d="M 138.5,307.5 C 144.87,312.869 150.537,318.869 155.5,325.5C 152.721,323.025 149.721,320.692 146.5,318.5C 143.71,314.816 141.043,311.149 138.5,307.5 Z"/></g>
<g><path style="opacity:1" fill="#0a2835" d="M 271.5,294.5 C 296.199,299.907 320.866,305.574 345.5,311.5C 346.167,311.5 346.833,311.5 347.5,311.5C 356.325,314 364.991,317 373.5,320.5C 363.017,318.794 352.684,316.627 342.5,314C 333.374,309.83 323.707,307.497 313.5,307C 306.637,303.809 299.47,301.975 292,301.5C 291.667,301.833 291.333,302.167 291,302.5C 290.5,300.667 289.333,299.5 287.5,299C 281.782,298.408 276.449,296.908 271.5,294.5 Z"/></g>
<g><path style="opacity:1" fill="#c2e25e" d="M 28.5,255.5 C 28.8333,255.5 29.1667,255.5 29.5,255.5C 28.6304,269.319 27.9638,283.153 27.5,297C 29.3642,314.883 31.0308,333.05 32.5,351.5C 29.7292,341.128 27.8958,330.461 27,319.5C 26.5001,303.503 26.3334,287.503 26.5,271.5C 27.8063,266.384 28.473,261.051 28.5,255.5 Z"/></g>
<g><path style="opacity:1" fill="#29acd3" d="M 347.5,311.5 C 355.522,312.804 363.522,314.304 371.5,316C 376.502,319.835 382.169,321.668 388.5,321.5C 391.579,323.545 394.912,325.378 398.5,327C 399.252,327.671 399.586,328.504 399.5,329.5C 391.506,326.504 383.506,323.504 375.5,320.5C 374.833,320.5 374.167,320.5 373.5,320.5C 364.991,317 356.325,314 347.5,311.5 Z"/></g>
<g><path style="opacity:1" fill="#1b2709" d="M 120.5,285.5 C 121.473,285.987 122.473,286.487 123.5,287C 135.64,301.973 148.973,315.807 163.5,328.5C 166.735,334.319 170.901,339.319 176,343.5C 176.483,344.448 176.649,345.448 176.5,346.5C 169.86,339.194 162.86,332.194 155.5,325.5C 150.537,318.869 144.87,312.869 138.5,307.5C 137.5,305.833 136.167,304.5 134.5,303.5C 129.427,297.767 124.761,291.767 120.5,285.5 Z"/></g>
<g><path style="opacity:1" fill="#15b9ef" d="M 455.5,361.5 C 453.33,359.914 450.996,358.58 448.5,357.5C 443.245,353.195 437.578,349.361 431.5,346C 421.106,339.724 410.44,334.224 399.5,329.5C 399.586,328.504 399.252,327.671 398.5,327C 394.912,325.378 391.579,323.545 388.5,321.5C 392.027,321.602 395.194,320.602 398,318.5C 403.602,320.859 409.435,322.192 415.5,322.5C 414.129,326.057 413.129,329.557 412.5,333C 415.208,334.069 417.875,335.236 420.5,336.5C 421.842,335.098 422.676,335.431 423,337.5C 423.739,336.426 424.739,335.759 426,335.5C 428.441,336.28 431.107,336.28 434,335.5C 436.947,336.541 439.781,337.874 442.5,339.5C 447.706,337.923 449.206,339.589 447,344.5C 445.951,343.483 444.784,343.316 443.5,344C 442.167,344.667 442.167,345.333 443.5,346C 442.833,346.333 442.167,346.667 441.5,347C 443.447,350.07 445.947,352.57 449,354.5C 451.377,350.801 453.877,350.301 456.5,353C 449.837,355.126 449.837,356.96 456.5,358.5C 456.737,359.791 456.404,360.791 455.5,361.5 Z"/></g>
<g><path style="opacity:1" fill="#151e28" d="M 375.5,320.5 C 383.506,323.504 391.506,326.504 399.5,329.5C 410.44,334.224 421.106,339.724 431.5,346C 437.578,349.361 443.245,353.195 448.5,357.5C 443.942,355.388 439.275,353.554 434.5,352C 432.359,350.85 430.526,349.35 429,347.5C 426.708,348.931 424.208,349.764 421.5,350C 420.44,351.298 419.274,352.465 418,353.5C 416.343,352.516 414.677,351.516 413,350.5C 411.829,352.616 410.329,353.282 408.5,352.5C 407.833,353.5 407.167,354.5 406.5,355.5C 404.021,352.65 403.021,349.316 403.5,345.5C 405.199,345.34 406.866,345.506 408.5,346C 410.748,347.914 413.248,349.414 416,350.5C 418.164,348.382 420.664,346.715 423.5,345.5C 424.833,344.833 424.833,344.167 423.5,343.5C 419.563,341.965 415.563,340.632 411.5,339.5C 405.689,333.838 398.689,331.005 390.5,331C 387.125,327.523 385.125,327.69 384.5,331.5C 382.78,330.045 380.78,329.212 378.5,329C 381.003,328.871 383.003,327.871 384.5,326C 380.153,326.169 377.153,324.335 375.5,320.5 Z"/></g>
<g><path style="opacity:1" fill="#caeb57" d="M 155.5,325.5 C 162.86,332.194 169.86,339.194 176.5,346.5C 179.129,350.463 182.129,354.129 185.5,357.5C 189.246,361.906 192.58,366.573 195.5,371.5C 192.996,369.156 189.996,367.656 186.5,367C 186.406,365.578 186.072,364.078 185.5,362.5C 183.844,360.978 182.677,361.311 182,363.5C 181.764,361.236 181.264,359.069 180.5,357C 178.687,356.386 178.353,356.719 179.5,358C 178.24,359.113 177.073,359.28 176,358.5C 176.422,355.902 176.422,353.236 176,350.5C 173.528,348.702 171.861,346.368 171,343.5C 167.259,339.262 163.425,335.262 159.5,331.5C 158.311,330.571 156.978,330.238 155.5,330.5C 155.5,328.833 155.5,327.167 155.5,325.5 Z"/></g>
<g><path style="opacity:1" fill="#1d260e" d="M 26.5,271.5 C 26.3334,287.503 26.5001,303.503 27,319.5C 27.8958,330.461 29.7292,341.128 32.5,351.5C 35.115,365.916 39.115,379.916 44.5,393.5C 43.5041,393.586 42.6708,393.252 42,392.5C 40.3202,388.466 38.6535,384.466 37,380.5C 36.1667,381.5 35.3333,382.5 34.5,383.5C 33.5455,380.888 33.5455,378.221 34.5,375.5C 32.6562,374.241 31.3229,372.241 30.5,369.5C 31.6113,368.389 32.278,367.055 32.5,365.5C 30.2076,355.986 28.7076,346.319 28,336.5C 27.0853,335.672 26.4186,334.672 26,333.5C 25.0282,320.854 24.5282,308.187 24.5,295.5C 24.5022,287.138 25.1689,279.138 26.5,271.5 Z"/></g>
<g><path style="opacity:1" fill="#1d260d" d="M 185.5,357.5 C 188.86,359.341 191.86,361.841 194.5,365C 195.569,368.299 197.903,371.132 201.5,373.5C 203.446,379.434 207.113,383.768 212.5,386.5C 214.704,395.532 219.204,403.199 226,409.5C 226.941,412.815 227.774,416.148 228.5,419.5C 228.376,420.107 228.043,420.44 227.5,420.5C 223.671,412.837 219.337,405.504 214.5,398.5C 210.067,389.292 204.4,380.959 197.5,373.5C 197.167,372.5 196.5,371.833 195.5,371.5C 192.58,366.573 189.246,361.906 185.5,357.5 Z"/></g>
<g><path style="opacity:1" fill="#0f2532" d="M 558.5,239.5 C 559.586,239.62 560.253,240.287 560.5,241.5C 561.147,245.595 562.48,249.429 564.5,253C 564.047,266.415 564.047,279.915 564.5,293.5C 564.611,310.202 563.944,326.869 562.5,343.5C 560.921,346.426 559.921,349.593 559.5,353C 559.833,354 560.167,355 560.5,356C 559.018,359.49 557.518,362.99 556,366.5C 555.833,368.167 555.667,369.833 555.5,371.5C 556.655,375.365 557.321,379.365 557.5,383.5C 556.448,383.351 555.448,383.517 554.5,384C 549.559,394.658 544.059,405.158 538,415.5C 535.634,422.574 532.967,429.574 530,436.5C 528.157,438.171 525.991,439.171 523.5,439.5C 527.719,430.73 532.219,422.063 537,413.5C 538.798,409.578 540.298,405.578 541.5,401.5C 545.658,393.213 549.158,384.547 552,375.5C 564.823,330.675 566.989,285.342 558.5,239.5 Z"/></g>
<g><path style="opacity:1" fill="#c8e85b" d="M 197.5,373.5 C 204.4,380.959 210.067,389.292 214.5,398.5C 213.761,398.631 213.094,398.464 212.5,398C 209.824,393.413 206.324,389.579 202,386.5C 201.181,381.859 199.681,377.526 197.5,373.5 Z"/></g>
<g><path style="opacity:1" fill="#27add8" d="M 462.5,367.5 C 466.671,368.168 469.505,370.502 471,374.5C 472.314,373.687 473.481,372.687 474.5,371.5C 475.603,374.834 476.603,378.501 477.5,382.5C 478.833,382.5 480.167,382.5 481.5,382.5C 481.5,384.833 481.5,387.167 481.5,389.5C 482.822,389.67 483.989,389.337 485,388.5C 485.333,391.167 485.667,393.833 486,396.5C 489.888,399.944 491.888,404.277 492,409.5C 495.63,414.226 497.13,419.559 496.5,425.5C 497.675,425.281 498.675,425.614 499.5,426.5C 500.362,429.441 500.362,432.441 499.5,435.5C 499.859,443.806 500.859,451.972 502.5,460C 505.026,460.176 506.859,459.01 508,456.5C 508.333,456.833 508.667,457.167 509,457.5C 511.339,453.163 513.672,448.83 516,444.5C 516.383,445.056 516.883,445.389 517.5,445.5C 515.305,450.38 512.638,455.046 509.5,459.5C 505.747,461.866 503.414,465.199 502.5,469.5C 501.5,469.5 500.5,469.5 499.5,469.5C 501.404,439.446 494.404,411.78 478.5,386.5C 477.151,385.091 475.818,383.757 474.5,382.5C 471.284,376.942 467.284,371.942 462.5,367.5 Z"/></g>
<g><path style="opacity:1" fill="#27360a" d="M 44.5,394.5 C 47.3446,399.531 49.6779,404.864 51.5,410.5C 49.7425,408.859 48.2425,406.859 47,404.5C 46.3942,401.287 45.2275,398.287 43.5,395.5C 43.6236,394.893 43.9569,394.56 44.5,394.5 Z"/></g>
<g><path style="opacity:1" fill="#203209" d="M 54.5,416.5 C 56.4854,419.798 58.4854,423.131 60.5,426.5C 61.1098,427.391 61.4431,428.391 61.5,429.5C 58.8185,427.838 56.8185,425.505 55.5,422.5C 54.5344,420.604 54.2011,418.604 54.5,416.5 Z"/></g>
<g><path style="opacity:1" fill="#21b4e0" d="M 541.5,401.5 C 540.298,405.578 538.798,409.578 537,413.5C 532.219,422.063 527.719,430.73 523.5,439.5C 521.515,441.424 519.515,443.424 517.5,445.5C 517.318,443.409 517.652,441.409 518.5,439.5C 519.325,438.614 520.325,438.281 521.5,438.5C 521.21,434.499 522.71,431.499 526,429.5C 529.406,423.488 530.572,417.154 529.5,410.5C 531.65,410.905 533.65,411.405 535.5,412C 535.167,411.667 534.833,411.333 534.5,411C 537.903,406.204 536.569,403.704 530.5,403.5C 530.062,399.092 532.062,397.425 536.5,398.5C 536.5,400.5 536.5,402.5 536.5,404.5C 538.664,404.279 540.33,403.279 541.5,401.5 Z"/></g>
<g><path style="opacity:1" fill="#1f2d0a" d="M 227.5,421.5 C 229.431,422.259 230.931,423.593 232,425.5C 233.247,432.954 234.747,440.287 236.5,447.5C 235.139,442.722 233.472,438.056 231.5,433.5C 230.729,429.297 229.396,425.297 227.5,421.5 Z"/></g>
<g><path style="opacity:1" fill="#c8e569" d="M 60.5,426.5 C 61.4959,426.414 62.3292,426.748 63,427.5C 68.5665,437.423 74.3998,447.089 80.5,456.5C 73.4286,448.026 67.0953,439.026 61.5,429.5C 61.4431,428.391 61.1098,427.391 60.5,426.5 Z"/></g>
<g><path style="opacity:1" fill="#1b230d" d="M 61.5,429.5 C 67.0953,439.026 73.4286,448.026 80.5,456.5C 82.4203,459.339 84.0869,462.339 85.5,465.5C 82.3581,462.531 79.0247,459.698 75.5,457C 74.552,456.517 73.552,456.351 72.5,456.5C 72.0444,453.356 71.0444,450.356 69.5,447.5C 67.9938,446.77 66.6605,446.437 65.5,446.5C 66.0253,445.808 66.6919,445.308 67.5,445C 66.6198,443.644 66.2865,442.144 66.5,440.5C 65.5,440.5 64.5,440.5 63.5,440.5C 63.5762,436.616 62.9095,432.95 61.5,429.5 Z"/></g>
<g><path style="opacity:1" fill="#c9e25f" d="M 80.5,456.5 C 81.675,456.281 82.675,456.614 83.5,457.5C 85.8788,461.006 88.2121,464.506 90.5,468C 91.7932,468.49 93.1266,468.657 94.5,468.5C 94.8333,470.5 95.1667,472.5 95.5,474.5C 92.121,471.449 88.7877,468.449 85.5,465.5C 84.0869,462.339 82.4203,459.339 80.5,456.5 Z"/></g>
<g><path style="opacity:1" fill="#cced60" d="M 231.5,433.5 C 233.472,438.056 235.139,442.722 236.5,447.5C 236.833,450.167 237.167,452.833 237.5,455.5C 237.362,460.414 238.028,465.081 239.5,469.5C 239.666,477.174 239.5,484.841 239,492.5C 238.557,499.114 237.39,505.448 235.5,511.5C 236.646,500.853 237.646,490.186 238.5,479.5C 236.761,464.044 234.427,448.71 231.5,433.5 Z"/></g>
<g><path style="opacity:1" fill="#09293b" d="M 474.5,382.5 C 475.818,383.757 477.151,385.091 478.5,386.5C 494.404,411.78 501.404,439.446 499.5,469.5C 500.5,469.5 501.5,469.5 502.5,469.5C 503.414,465.199 505.747,461.866 509.5,459.5C 509.432,464.076 507.432,467.576 503.5,470C 500.722,470.923 498.722,470.089 497.5,467.5C 498.878,447.102 495.711,427.435 488,408.5C 484.545,405.26 482.378,401.26 481.5,396.5C 480.675,395.614 479.675,395.281 478.5,395.5C 479.211,391.719 478.045,388.719 475,386.5C 474.51,385.207 474.343,383.873 474.5,382.5 Z"/></g>
<g><path style="opacity:1" fill="#96af48" d="M 237.5,455.5 C 238.972,459.919 239.638,464.586 239.5,469.5C 238.028,465.081 237.362,460.414 237.5,455.5 Z"/></g>
<g><path style="opacity:1" fill="#20290d" d="M 85.5,465.5 C 88.7877,468.449 92.121,471.449 95.5,474.5C 95.5,474.833 95.5,475.167 95.5,475.5C 97.1667,477.5 98.8333,479.5 100.5,481.5C 99.5768,482.303 98.5768,482.47 97.5,482C 95.381,478.546 92.881,475.379 90,472.5C 88.8289,471.107 87.3289,470.273 85.5,470C 84.9282,468.723 84.9282,467.223 85.5,465.5 Z"/></g>
<g><path style="opacity:1" fill="#1a2110" d="M 100.5,481.5 C 104.457,485.491 108.457,489.491 112.5,493.5C 111.883,493.611 111.383,493.944 111,494.5C 109.167,493.333 107.667,491.833 106.5,490C 105.207,489.51 103.873,489.343 102.5,489.5C 102.5,490.833 102.5,492.167 102.5,493.5C 100.833,493.5 99.1667,493.5 97.5,493.5C 97.5,491.833 97.5,490.167 97.5,488.5C 98.8333,488.5 100.167,488.5 101.5,488.5C 101.552,486.097 101.219,483.764 100.5,481.5 Z"/></g>
<g><path style="opacity:1" fill="#c0db5f" d="M 95.5,475.5 C 97.6547,475.372 99.6547,475.872 101.5,477C 110.087,489.813 121.087,500.146 134.5,508C 137.959,512.9 142.626,516.067 148.5,517.5C 150.531,519.31 152.198,521.31 153.5,523.5C 152.833,523.5 152.167,523.5 151.5,523.5C 139.882,515.217 128.549,506.55 117.5,497.5C 116.055,495.937 114.389,494.604 112.5,493.5C 108.457,489.491 104.457,485.491 100.5,481.5C 98.8333,479.5 97.1667,477.5 95.5,475.5 Z"/></g>
<g><path style="opacity:1" fill="#1f2b09" d="M 236.5,447.5 C 237.644,449.1 238.811,450.767 240,452.5C 240.667,469.833 240.667,487.167 240,504.5C 236.345,521.479 231.012,537.813 224,553.5C 221.478,554.631 218.811,555.297 216,555.5C 212.911,554.379 209.745,553.379 206.5,552.5C 206.5,551.5 206.5,550.5 206.5,549.5C 211.46,551.158 216.46,552.325 221.5,553C 222.252,552.329 222.586,551.496 222.5,550.5C 223.736,548.351 224.736,546.018 225.5,543.5C 229.269,535.196 232.269,526.529 234.5,517.5C 235.15,515.565 235.483,513.565 235.5,511.5C 237.39,505.448 238.557,499.114 239,492.5C 239.5,484.841 239.666,477.174 239.5,469.5C 239.638,464.586 238.972,459.919 237.5,455.5C 237.167,452.833 236.833,450.167 236.5,447.5 Z"/></g>
<g><path style="opacity:1" fill="#1b260a" d="M 117.5,497.5 C 128.549,506.55 139.882,515.217 151.5,523.5C 141.638,519.978 133.138,514.311 126,506.5C 124.951,507.517 123.784,507.684 122.5,507C 120.562,503.917 118.896,500.751 117.5,497.5 Z"/></g>
<g><path style="opacity:1" fill="#1b2508" d="M 151.5,523.5 C 152.167,523.5 152.833,523.5 153.5,523.5C 159.334,527.921 165.668,531.588 172.5,534.5C 177.918,537.537 183.584,540.203 189.5,542.5C 194.833,544.833 200.167,547.167 205.5,549.5C 199.444,548.31 193.444,546.81 187.5,545C 176.923,539.143 166.256,533.476 155.5,528C 153.365,527.124 152.031,525.624 151.5,523.5 Z"/></g>
<g><path style="opacity:1" fill="#cdee5e" d="M 234.5,517.5 C 232.269,526.529 229.269,535.196 225.5,543.5C 225.421,539.057 226.087,534.723 227.5,530.5C 226.193,527.754 227.193,526.087 230.5,525.5C 231.661,522.642 232.994,519.975 234.5,517.5 Z"/></g>
<g><path style="opacity:1" fill="#c3e25a" d="M 153.5,523.5 C 157.726,525.974 162.392,527.64 167.5,528.5C 169.242,530.563 170.909,532.563 172.5,534.5C 165.668,531.588 159.334,527.921 153.5,523.5 Z"/></g>
<g><path style="opacity:1" fill="#c6e25f" d="M 172.5,534.5 C 179.481,534.504 185.147,537.171 189.5,542.5C 183.584,540.203 177.918,537.537 172.5,534.5 Z"/></g>
<g><path style="opacity:1" fill="#c6e45f" d="M 189.5,542.5 C 194.445,543.579 199.445,544.579 204.5,545.5C 209.624,549.897 215.624,551.563 222.5,550.5C 222.586,551.496 222.252,552.329 221.5,553C 216.46,552.325 211.46,551.158 206.5,549.5C 206.167,549.5 205.833,549.5 205.5,549.5C 200.167,547.167 194.833,544.833 189.5,542.5 Z"/></g>
</svg>
