<?xml version="1.0" encoding="UTF-8"?>
<!DOCTYPE svg PUBLIC "-//W3C//DTD SVG 1.1//EN" "http://www.w3.org/Graphics/SVG/1.1/DTD/svg11.dtd">
<svg xmlns="http://www.w3.org/2000/svg" version="1.1" width="1181px" height="1181px" style="shape-rendering:geometricPrecision; text-rendering:geometricPrecision; image-rendering:optimizeQuality; fill-rule:evenodd; clip-rule:evenodd" xmlns:xlink="http://www.w3.org/1999/xlink">
<g><path style="opacity:1" fill="#f9f9f9" d="M -0.5,-0.5 C 393.167,-0.5 786.833,-0.5 1180.5,-0.5C 1180.5,393.167 1180.5,786.833 1180.5,1180.5C 786.833,1180.5 393.167,1180.5 -0.5,1180.5C -0.5,786.833 -0.5,393.167 -0.5,-0.5 Z"/></g>
<g><path style="opacity:1" fill="#c83403" d="M 561.5,64.5 C 603.539,62.9814 645.206,66.1481 686.5,74C 711.632,79.0395 734.966,88.3728 756.5,102C 766.164,109.489 774.164,118.322 780.5,128.5C 799.14,123.98 817.474,125.147 835.5,132C 858.341,141.084 879.674,152.75 899.5,167C 950.009,204.17 992.176,249.004 1026,301.5C 1037.68,320.849 1046.01,341.515 1051,363.5C 1052.13,374.991 1051.3,386.324 1048.5,397.5C 1066.1,409.28 1079.27,424.947 1088,444.5C 1103.69,483.601 1111.69,524.268 1112,566.5C 1114.81,617.502 1109.14,667.502 1095,716.5C 1088.37,737.266 1077.54,755.433 1062.5,771C 1057.81,774.359 1053.15,777.693 1048.5,781C 1053.42,801.268 1051.92,821.101 1044,840.5C 1034.56,863.389 1022.56,884.722 1008,904.5C 972.546,951.626 930.38,991.459 881.5,1024C 861.465,1037.02 839.798,1046.35 816.5,1052C 804.358,1054.42 792.358,1053.92 780.5,1050.5C 769.586,1067.98 754.586,1080.81 735.5,1089C 696.071,1104.74 655.071,1113.07 612.5,1114C 559.592,1117.34 507.926,1111.01 457.5,1095C 432.678,1086.47 412.844,1071.64 398,1050.5C 378.389,1055.1 359.223,1053.6 340.5,1046C 315.764,1035.47 292.764,1022.14 271.5,1006C 225.288,970.796 186.455,928.963 155,880.5C 142.828,861.32 134.161,840.653 129,818.5C 126.578,806.021 127.078,793.688 130.5,781.5C 125.69,777.537 120.69,773.704 115.5,770C 100.778,754.404 90.2777,736.237 84,715.5C 73.4972,681.983 67.8305,647.65 67,612.5C 64.7196,570.37 68.0529,528.704 77,487.5C 82.253,463.393 91.5863,441.06 105,420.5C 111.69,411.744 119.856,404.744 129.5,399.5C 129.833,398.667 130.167,397.833 130.5,397C 124.989,375.079 127.156,353.912 137,333.5C 145.63,313.563 156.296,294.896 169,277.5C 204.749,229.081 247.582,188.248 297.5,155C 318.752,141.208 341.752,131.542 366.5,126C 377.147,125.008 387.647,125.841 398,128.5C 409.857,110.785 425.69,97.6184 445.5,89C 471.469,78.091 498.469,71.091 526.5,68C 538.345,67.1106 550.012,65.9439 561.5,64.5 Z"/></g>
<g><path style="opacity:1" fill="#f9f9f8" d="M 562.5,82.5 C 608.524,80.4261 653.857,84.9261 698.5,96C 718.383,100.943 736.383,109.609 752.5,122C 761.764,131.604 767.098,143.104 768.5,156.5C 774.709,151.895 781.376,148.061 788.5,145C 804.349,142.566 819.682,144.566 834.5,151C 855.78,160.634 875.78,172.301 894.5,186C 941.426,221.583 980.593,264.083 1012,313.5C 1022.06,329.953 1029.06,347.619 1033,366.5C 1034.03,375.31 1033.36,383.977 1031,392.5C 1028.03,398.294 1024.87,403.961 1021.5,409.5C 1028.46,411.598 1035.46,413.765 1042.5,416C 1057.2,426.535 1067.7,440.368 1074,457.5C 1083.32,483.065 1089.32,509.398 1092,536.5C 1096.23,581.334 1094.9,626.001 1088,670.5C 1083.65,698.572 1073.98,724.572 1059,748.5C 1049.22,760.307 1036.72,767.307 1021.5,769.5C 1026.41,776.651 1030.24,784.317 1033,792.5C 1034.2,805.871 1032.54,818.871 1028,831.5C 1015.3,861.911 998.303,889.577 977,914.5C 943.245,954.945 904.078,988.778 859.5,1016C 841.424,1026.91 821.924,1033.41 801,1035.5C 793.291,1035.78 786.124,1033.95 779.5,1030C 775.833,1027.5 772.167,1025 768.5,1022.5C 767.085,1038.5 760.085,1051.34 747.5,1061C 727.823,1073.56 706.49,1082.23 683.5,1087C 612.643,1101.4 542.309,1099.4 472.5,1081C 452.575,1075.3 435.408,1065.13 421,1050.5C 415.428,1041.95 411.928,1032.62 410.5,1022.5C 396.85,1034.33 381.184,1038.16 363.5,1034C 337.289,1026.23 313.289,1014.23 291.5,998C 244.458,963.294 204.625,921.794 172,873.5C 160.95,856.065 152.617,837.399 147,817.5C 144.722,807.064 145.056,796.731 148,786.5C 151.467,780.562 154.634,774.562 157.5,768.5C 139.158,766.985 125.325,758.318 116,742.5C 101.916,715.845 92.9158,687.512 89,657.5C 80.5076,597.214 83.5076,537.547 98,478.5C 102.365,463.773 108.365,449.773 116,436.5C 125.592,420.448 139.759,411.615 158.5,410C 148.074,397.717 143.907,383.55 146,367.5C 149.891,349.059 156.558,331.726 166,315.5C 204.454,254.712 253.954,204.879 314.5,166C 332.084,154.918 351.084,147.584 371.5,144C 386.36,142.454 399.36,146.62 410.5,156.5C 412.333,140.822 419.333,127.989 431.5,118C 453.898,103.754 478.231,94.4208 504.5,90C 523.877,86.6835 543.21,84.1835 562.5,82.5 Z"/></g>
<g><path style="opacity:1" fill="#c93605" d="M 651.5,243.5 C 645.477,243.498 639.477,243.165 633.5,242.5C 629.972,234.442 626.139,226.442 622,218.5C 616.5,225.333 611,232.167 605.5,239C 583.503,239.48 561.503,240.647 539.5,242.5C 538.401,220.155 537.068,197.822 535.5,175.5C 552.183,174.261 568.849,172.928 585.5,171.5C 586.08,175.81 586.414,180.143 586.5,184.5C 574.869,185.688 563.202,186.355 551.5,186.5C 551.437,191.203 551.771,195.87 552.5,200.5C 563.195,200.212 573.862,199.546 584.5,198.5C 585.162,202.466 585.495,206.466 585.5,210.5C 574.827,211.072 564.16,211.739 553.5,212.5C 553.195,217.762 553.529,222.928 554.5,228C 566.504,227.894 578.504,227.394 590.5,226.5C 590.336,229.187 590.503,231.854 591,234.5C 598.833,224.833 606.667,215.167 614.5,205.5C 608.246,194.66 602.246,183.66 596.5,172.5C 602.194,171.853 607.861,172.353 613.5,174C 617.039,180.913 620.706,187.746 624.5,194.5C 629.659,188.503 634.659,182.336 639.5,176C 644.859,175.866 650.192,176.366 655.5,177.5C 647.337,187.181 639.67,197.181 632.5,207.5C 638.841,219.517 645.175,231.517 651.5,243.5 Z"/></g>
<g><path style="opacity:1" fill="#c93706" d="M 651.5,243.5 C 657.38,222.487 663.046,201.321 668.5,180C 681.38,182.313 694.046,185.646 706.5,190C 717.654,198.675 719.487,209.175 712,221.5C 707.345,227.16 701.345,229.827 694,229.5C 686.734,228.553 679.567,227.386 672.5,226C 670.268,233.529 667.935,241.029 665.5,248.5C 660.583,247.197 655.916,245.53 651.5,243.5 Z"/></g>
<g><path style="opacity:1" fill="#c93605" d="M 493.5,182.5 C 495.293,182.884 496.293,184.05 496.5,186C 498.062,188.792 498.395,191.625 497.5,194.5C 487.226,197.986 476.892,201.319 466.5,204.5C 466.167,205 465.833,205.5 465.5,206C 467.018,209.717 468.018,213.551 468.5,217.5C 477.607,215.473 486.607,212.973 495.5,210C 497.441,209.257 499.274,209.424 501,210.5C 501.631,213.393 502.464,216.226 503.5,219C 503.167,219.5 502.833,220 502.5,220.5C 492.359,223.366 482.359,226.532 472.5,230C 474.34,234.687 475.673,239.52 476.5,244.5C 487.88,241.374 499.213,238.041 510.5,234.5C 512.829,237.966 514.495,241.8 515.5,246C 499.076,251.753 482.409,256.587 465.5,260.5C 460.109,239.659 454.109,218.993 447.5,198.5C 447.818,197.353 448.484,196.519 449.5,196C 464.31,191.56 478.977,187.06 493.5,182.5 Z"/></g>
<g><path style="opacity:1" fill="#f9f4f2" d="M 679.5,194.5 C 686.779,195.69 693.612,198.024 700,201.5C 702.25,206.833 701.417,211.667 697.5,216C 690.125,217.54 682.959,216.707 676,213.5C 676.989,207.194 678.156,200.861 679.5,194.5 Z"/></g>
<g><path style="opacity:1" fill="#c93504" d="M 733.5,197.5 C 738.291,199.396 742.958,201.562 747.5,204C 740.234,219.868 733.234,235.868 726.5,252C 728.21,254.372 730.544,256.038 733.5,257C 740.754,260.131 748.087,262.964 755.5,265.5C 754.718,270.028 752.884,274.028 750,277.5C 736.833,272 723.667,266.5 710.5,261C 708.82,260.653 707.82,259.653 707.5,258C 716.044,237.749 724.711,217.583 733.5,197.5 Z"/></g>
<g><path style="opacity:1" fill="#c93605" d="M 428.5,203.5 C 429.376,203.369 430.043,203.702 430.5,204.5C 440.31,223.954 449.977,243.454 459.5,263C 454.971,266.44 449.971,268.44 444.5,269C 430.667,260.5 416.833,252 403,243.5C 408.501,256.179 414.335,268.845 420.5,281.5C 417.415,284.554 413.748,286.888 409.5,288.5C 398.801,268.937 388.467,249.104 378.5,229C 383.029,225.56 388.029,223.56 393.5,223C 407.751,231.708 421.917,240.541 436,249.5C 430.439,236.371 424.272,223.371 417.5,210.5C 421.026,207.906 424.692,205.573 428.5,203.5 Z"/></g>
<g><path style="opacity:1" fill="#c93504" d="M 793.5,231.5 C 810.693,231.18 822.86,238.847 830,254.5C 832.926,271.392 827.759,285.225 814.5,296C 796.728,305.669 781.228,302.836 768,287.5C 758.001,266.668 762.501,249.501 781.5,236C 785.432,233.972 789.432,232.472 793.5,231.5 Z"/></g>
<g><path style="opacity:1" fill="#c93606" d="M 361.5,238.5 C 371.797,250.652 381.63,263.319 391,276.5C 396.765,288.56 394.599,299.06 384.5,308C 378.19,313.995 370.69,317.495 362,318.5C 356.579,318.206 351.746,316.372 347.5,313C 336.784,299.952 326.451,286.619 316.5,273C 320.324,269.921 324.324,267.088 328.5,264.5C 338.463,277.568 348.796,290.402 359.5,303C 367.949,305.033 374.449,302.2 379,294.5C 379.667,291.833 379.667,289.167 379,286.5C 369.95,273.561 360.784,260.728 351.5,248C 354.664,244.67 357.997,241.503 361.5,238.5 Z"/></g>
<g><path style="opacity:1" fill="#f9f7f6" d="M 796.5,244.5 C 816.614,247.618 821.781,258.284 812,276.5C 802.319,290.649 791.319,291.982 779,280.5C 775.041,268.031 778.207,257.531 788.5,249C 791.099,247.205 793.766,245.705 796.5,244.5 Z"/></g>
<g><path style="opacity:1" fill="#c93504" d="M 851.5,265.5 C 855.621,268.409 859.621,271.575 863.5,275C 849.5,291.667 835.5,308.333 821.5,325C 820.5,325.667 819.5,325.667 818.5,325C 815.573,322.618 812.739,320.118 810,317.5C 809.333,316.833 809.333,316.167 810,315.5C 824.045,298.96 837.878,282.293 851.5,265.5 Z"/></g>
<g><path style="opacity:1" fill="#c93503" d="M 870.5,280.5 C 883.994,293.161 896.994,306.328 909.5,320C 906.651,323.016 903.651,325.85 900.5,328.5C 896.015,324.515 891.682,320.349 887.5,316C 886.5,315.333 885.5,315.333 884.5,316C 872.304,328.53 859.804,340.696 847,352.5C 843.273,349.276 840.106,345.609 837.5,341.5C 849.515,328.651 862.015,316.318 875,304.5C 875.667,303.833 875.667,303.167 875,302.5C 870.651,298.318 866.485,293.985 862.5,289.5C 865.189,286.48 867.856,283.48 870.5,280.5 Z"/></g>
<g><path style="opacity:1" fill="#ca3909" d="M 305.5,283.5 C 311.207,288.04 316.04,293.373 320,299.5C 320.667,302.833 320.667,306.167 320,309.5C 319.74,311.618 318.74,313.284 317,314.5C 315.5,313 314,311.5 312.5,310C 314.055,306.216 313.555,302.716 311,299.5C 309.649,301.019 308.149,302.352 306.5,303.5C 303.06,300.138 299.727,296.638 296.5,293C 299.704,289.964 302.704,286.797 305.5,283.5 Z"/></g>
<g><path style="opacity:1" fill="#c93504" d="M 287.5,312.5 C 306.095,314.545 318.928,324.211 326,341.5C 326.93,348.004 326.264,354.338 324,360.5C 316.635,370.573 308.802,380.239 300.5,389.5C 283.312,375.144 265.979,360.978 248.5,347C 256.5,337.667 264.5,328.333 272.5,319C 277.142,315.74 282.142,313.573 287.5,312.5 Z"/></g>
<g><path style="opacity:1" fill="#c83301" d="M 686.5,321.5 C 691.449,320.959 696.116,321.792 700.5,324C 723.584,343.913 733.751,369.079 731,399.5C 732.925,397.787 735.092,396.453 737.5,395.5C 739.891,389.712 743.724,388.379 749,391.5C 751.295,395.692 750.628,399.359 747,402.5C 745.467,410.556 747.634,411.723 753.5,406C 778.707,397.197 803.04,399.197 826.5,412C 836.111,421.511 835.444,430.511 824.5,439C 819.125,440.568 814.125,442.901 809.5,446C 806.833,450 803.5,453.333 799.5,456C 785.8,458.993 773.633,455.827 763,446.5C 769.325,458.88 768.992,471.213 762,483.5C 752.52,494.113 741.353,496.28 728.5,490C 719.518,480.253 716.018,468.753 718,455.5C 718.301,452.026 719.134,448.692 720.5,445.5C 720.167,445.167 719.833,444.833 719.5,444.5C 705.51,456.023 701.51,453.357 707.5,436.5C 707.167,436.167 706.833,435.833 706.5,435.5C 694.959,444.402 681.959,447.902 667.5,446C 654.845,439.759 650.012,429.592 653,415.5C 661.049,400.724 673.549,394.224 690.5,396C 683.708,391.542 677.875,386.042 673,379.5C 669.902,373.859 668.902,367.859 670,361.5C 675.747,353.443 678.08,344.443 677,334.5C 678.723,329.03 681.89,324.696 686.5,321.5 Z"/></g>
<g><path style="opacity:1" fill="#f9f7f6" d="M 284.5,327.5 C 297.244,328.083 306.41,334.083 312,345.5C 312.738,349.261 312.405,352.928 311,356.5C 308.039,361.292 304.539,365.625 300.5,369.5C 289.519,361.182 278.852,352.515 268.5,343.5C 272.882,337.118 278.215,331.785 284.5,327.5 Z"/></g>
<g><path style="opacity:1" fill="#c93605" d="M 919.5,336.5 C 920.675,336.281 921.675,336.614 922.5,337.5C 924.808,340.975 927.308,344.308 930,347.5C 930.667,348.5 930.667,349.5 930,350.5C 917.363,369.969 904.53,389.302 891.5,408.5C 888.025,404.896 885.025,400.896 882.5,396.5C 884.506,392.487 887.006,388.82 890,385.5C 890.667,384.167 890.667,382.833 890,381.5C 885.5,375.667 881,369.833 876.5,364C 871.319,365.61 865.986,366.61 860.5,367C 857.955,363.41 855.288,359.91 852.5,356.5C 874.921,349.801 897.254,343.135 919.5,336.5 Z"/></g>
<g><path style="opacity:1" fill="#c93707" d="M 473.5,344.5 C 476.795,356.001 479.961,367.668 483,379.5C 485.978,390.092 489.978,400.092 495,409.5C 481.531,405.516 468.031,405.516 454.5,409.5C 463.714,389.032 470.048,367.365 473.5,344.5 Z"/></g>
<g><path style="opacity:1" fill="#c93808" d="M 403.5,339.5 C 413.074,355.592 422.907,371.592 433,387.5C 438.451,395.286 444.285,402.786 450.5,410C 442.858,412.571 435.691,416.071 429,420.5C 422.403,392.878 413.903,365.878 403.5,339.5 Z"/></g>
<g><path style="opacity:1" fill="#c93707" d="M 549.5,340.5 C 544.265,356.68 538.432,373.014 532,389.5C 528.655,400.035 525.822,410.701 523.5,421.5C 516.626,417.563 509.626,413.897 502.5,410.5C 520.159,388.518 535.826,365.184 549.5,340.5 Z"/></g>
<g><path style="opacity:1" fill="#f9f1ef" d="M 907.5,353.5 C 908.873,353.343 910.207,353.51 911.5,354C 907,360.5 902.5,367 898,373.5C 894.833,369.167 891.667,364.833 888.5,360.5C 894.857,357.94 901.19,355.607 907.5,353.5 Z"/></g>
<g><path style="opacity:1" fill="#c93605" d="M 941.5,365.5 C 942.376,365.369 943.043,365.702 943.5,366.5C 951.667,381.5 959.833,396.5 968,411.5C 968.667,412.5 968.667,413.5 968,414.5C 964.944,416.279 961.777,417.946 958.5,419.5C 955,413.833 951.5,408.167 948,402.5C 932.333,411.167 916.667,419.833 901,428.5C 898.486,424.135 895.986,419.801 893.5,415.5C 908.919,406.707 924.419,398.04 940,389.5C 940.667,388.5 940.667,387.5 940,386.5C 937.293,381.584 934.459,376.751 931.5,372C 934.728,369.56 938.061,367.394 941.5,365.5 Z"/></g>
<g><path style="opacity:1" fill="#d04a20" d="M 745.5,371.5 C 747.927,373.508 748.927,376.174 748.5,379.5C 748.864,383.058 747.864,386.058 745.5,388.5C 746.456,382.967 746.456,377.3 745.5,371.5 Z"/></g>
<g><path style="opacity:1" fill="#c93504" d="M 224.5,384.5 C 238.598,390.715 252.598,397.215 266.5,404C 278.058,411.301 281.558,421.468 277,434.5C 273.629,445.202 266.796,452.702 256.5,457C 252.833,457.667 249.167,457.667 245.5,457C 230.226,450.363 215.226,443.196 200.5,435.5C 202.281,430.784 204.614,426.451 207.5,422.5C 221.197,429.016 234.864,435.516 248.5,442C 256.39,443.304 261.557,440.137 264,432.5C 266.73,426.704 265.563,421.87 260.5,418C 246.369,411.434 232.369,404.601 218.5,397.5C 220.785,393.265 222.785,388.931 224.5,384.5 Z"/></g>
<g><path style="opacity:1" fill="#d04b20" d="M 759.5,385.5 C 767.886,385.772 768.22,386.606 760.5,388C 757.397,389.439 754.564,391.273 752,393.5C 751.5,393 751,392.5 750.5,392C 753.214,389.322 756.214,387.155 759.5,385.5 Z"/></g>
<g><path style="opacity:1" fill="#c93605" d="M 587.5,399.5 C 588.239,399.369 588.906,399.536 589.5,400C 574.141,416.546 561.641,435.046 552,455.5C 545.756,443.181 537.256,432.681 526.5,424C 548.118,419.071 568.451,410.904 587.5,399.5 Z"/></g>
<g><path style="opacity:1" fill="#c93605" d="M 359.5,400.5 C 379.504,412.004 400.837,419.837 423.5,424C 412.456,433.043 403.623,443.876 397,456.5C 393.78,448.392 389.78,440.726 385,433.5C 376.643,422.32 368.143,411.32 359.5,400.5 Z"/></g>
<g><path style="opacity:1" fill="#c83402" d="M 543.5,482.5 C 543.5,487.833 543.5,493.167 543.5,498.5C 548.032,498.818 552.366,498.485 556.5,497.5C 595.838,497.385 635.172,497.219 674.5,497C 694.345,511.423 714.012,526.09 733.5,541C 728.511,541.499 723.511,541.666 718.5,541.5C 718.5,572.167 718.5,602.833 718.5,633.5C 683.508,634.572 648.508,634.739 613.5,634C 585.762,629.599 558.095,624.766 530.5,619.5C 529.558,619.608 528.725,619.941 528,620.5C 526.508,626.153 523.508,630.82 519,634.5C 520.904,643.173 519.071,651.007 513.5,658C 556.57,678.423 595.236,705.09 629.5,738C 643.563,751.394 656.897,765.394 669.5,780C 659.679,783.455 649.679,786.289 639.5,788.5C 604.298,738.798 561.631,696.631 511.5,662C 508.507,662.553 505.507,663.553 502.5,665C 492.718,666.694 484.885,663.527 479,655.5C 478.201,660.087 478.368,664.587 479.5,669C 531.878,700.869 576.211,741.702 612.5,791.5C 601.5,792.833 590.5,792.833 579.5,791.5C 551.919,747.768 518.252,709.102 478.5,675.5C 475.016,686.011 474.516,696.678 477,707.5C 503.977,731.297 527.477,757.964 547.5,787.5C 547.167,787.833 546.833,788.167 546.5,788.5C 536.045,786.136 525.712,783.303 515.5,780C 492.386,742.196 464.72,707.863 432.5,677C 426.792,671.623 420.792,666.623 414.5,662C 431.248,670.372 446.748,680.872 461,693.5C 466.542,685.681 466.875,677.681 462,669.5C 458.688,667.355 455.854,664.688 453.5,661.5C 436.027,664.261 425.694,656.928 422.5,639.5C 411.258,636.759 404.091,629.759 401,618.5C 398.409,594.929 408.909,582.596 432.5,581.5C 429.779,569.889 433.112,560.389 442.5,553C 408.597,530.96 398.431,500.794 412,462.5C 432.606,426.403 462.772,414.903 502.5,428C 525.879,438.877 539.545,457.043 543.5,482.5 Z"/></g>
<g><path style="opacity:1" fill="#c93504" d="M 970.5,422.5 C 971.496,422.414 972.329,422.748 973,423.5C 974.704,427.741 976.538,431.907 978.5,436C 958.057,444.638 937.557,453.138 917,461.5C 914.181,457.575 912.014,453.242 910.5,448.5C 930.581,439.787 950.581,431.121 970.5,422.5 Z"/></g>
<g><path style="opacity:1" fill="#ca390a" d="M 310.5,453.5 C 311.097,452.861 311.93,452.528 313,452.5C 340.2,458.133 367.7,460.8 395.5,460.5C 393.396,468.11 391.396,475.777 389.5,483.5C 364.067,471.133 337.734,461.133 310.5,453.5 Z"/></g>
<g><path style="opacity:1" fill="#c93605" d="M 954.5,455.5 C 979.529,453.045 993.195,464.212 995.5,489C 994.789,502.373 988.455,512.04 976.5,518C 947.353,528.6 930.02,518.767 924.5,488.5C 926.845,470.49 936.845,459.49 954.5,455.5 Z"/></g>
<g><path style="opacity:1" fill="#c93605" d="M 203.5,455.5 C 206.187,455.336 208.854,455.503 211.5,456C 212.516,456.519 213.182,457.353 213.5,458.5C 212.492,462.518 211.492,466.518 210.5,470.5C 203.645,469.851 199.145,472.851 197,479.5C 195.023,485.872 197.023,490.205 203,492.5C 205.503,492.01 207.503,490.677 209,488.5C 213.297,480.067 218.464,472.233 224.5,465C 238.715,458.022 248.881,461.855 255,476.5C 256.996,490.848 252.829,503.015 242.5,513C 236.589,516.165 230.255,517.332 223.5,516.5C 223.876,512.034 224.876,507.701 226.5,503.5C 239.799,501.601 245.299,493.934 243,480.5C 240.839,476.876 237.672,475.709 233.5,477C 227.8,483.562 222.967,490.729 219,498.5C 207.846,510.758 197.179,510.424 187,497.5C 183.023,485.358 184.69,474.025 192,463.5C 195.482,460.161 199.315,457.494 203.5,455.5 Z"/></g>
<g><path style="opacity:1" fill="#c93707" d="M 636.5,455.5 C 638.199,455.34 639.866,455.506 641.5,456C 613.172,463.384 585.839,473.218 559.5,485.5C 559.011,477.695 557.677,470.028 555.5,462.5C 582.839,462.464 609.839,460.131 636.5,455.5 Z"/></g>
<g><path style="opacity:1" fill="#f9f7f6" d="M 956.5,470.5 C 963.061,469.919 969.395,470.752 975.5,473C 985.062,482.965 984.728,492.632 974.5,502C 964.705,508.118 954.705,508.784 944.5,504C 936.373,496.159 935.54,487.659 942,478.5C 946.397,474.888 951.23,472.221 956.5,470.5 Z"/></g>
<g><path style="opacity:1" fill="#c93808" d="M 389.5,489.5 C 390.057,503.565 393.391,517.065 399.5,530C 390.666,528.037 381.666,526.704 372.5,526C 358.833,525.667 345.167,525.333 331.5,525C 349.592,517.458 366.592,508.125 382.5,497C 385.039,494.63 387.372,492.13 389.5,489.5 Z"/></g>
<g><path style="opacity:1" fill="#de8060" d="M 543.5,482.5 C 544.487,487.305 544.821,492.305 544.5,497.5C 548.5,497.5 552.5,497.5 556.5,497.5C 552.366,498.485 548.032,498.818 543.5,498.5C 543.5,493.167 543.5,487.833 543.5,482.5 Z"/></g>
<g><path style="opacity:1" fill="#f9f6f6" d="M 548.5,509.5 C 582.835,509.333 617.168,509.5 651.5,510C 643.167,515 634.833,520 626.5,525C 583.833,525.667 541.167,525.667 498.5,525C 506.5,520.333 514.5,515.667 522.5,511C 531.343,510.83 540.01,510.33 548.5,509.5 Z"/></g>
<g><path style="opacity:1" fill="#c93605" d="M 187.5,517.5 C 190.833,517.5 194.167,517.5 197.5,517.5C 197.167,522.167 196.833,526.833 196.5,531.5C 190.353,531.495 186.519,534.495 185,540.5C 182.645,547.75 184.978,552.417 192,554.5C 193.711,554.561 195.044,553.894 196,552.5C 199.742,543.352 203.742,534.352 208,525.5C 214.489,518.404 222.322,516.571 231.5,520C 241.945,526.641 245.779,536.141 243,548.5C 241.841,565.245 233.008,573.911 216.5,574.5C 216.503,569.473 216.836,564.473 217.5,559.5C 225.014,560.165 229.514,556.832 231,549.5C 232.276,543.877 231.443,538.71 228.5,534C 223.285,531.683 219.452,533.183 217,538.5C 213.942,546.283 210.608,553.95 207,561.5C 197.649,571.783 187.983,572.116 178,562.5C 170.674,549.719 171.007,537.053 179,524.5C 181.628,521.79 184.461,519.456 187.5,517.5 Z"/></g>
<g><path style="opacity:1" fill="#c93605" d="M 992.5,528.5 C 996.437,528.207 1000.27,528.54 1004,529.5C 1004.67,534.167 1004.67,538.833 1004,543.5C 990.833,553.333 977.667,563.167 964.5,573C 978.875,572.997 993.209,572.163 1007.5,570.5C 1007.82,575.444 1007.82,580.277 1007.5,585C 985.46,586.747 963.46,588.414 941.5,590C 940.363,584.918 940.196,579.751 941,574.5C 954.256,564.788 967.423,554.955 980.5,545C 966.144,545.224 951.811,546.057 937.5,547.5C 937.772,543.098 937.439,538.765 936.5,534.5C 955.265,532.266 973.932,530.266 992.5,528.5 Z"/></g>
<g><path style="opacity:1" fill="#f9f7f7" d="M 611.5,619.5 C 610.848,604.402 610.182,589.402 609.5,574.5C 591.144,573.651 572.811,572.651 554.5,571.5C 554.5,584.5 554.5,597.5 554.5,610.5C 545.833,609.167 537.167,607.833 528.5,606.5C 526.503,598.494 521.836,592.494 514.5,588.5C 515.253,575.498 509.919,565.998 498.5,560C 493.264,558.661 487.93,558.161 482.5,558.5C 482.5,551.5 482.5,544.5 482.5,537.5C 528.5,537.5 574.5,537.5 620.5,537.5C 620.5,565.167 620.5,592.833 620.5,620.5C 617.518,620.037 614.518,619.704 611.5,619.5 Z"/></g>
<g><path style="opacity:1" fill="#c83403" d="M 388.5,544.5 C 400.723,542.247 408.89,546.914 413,558.5C 418.789,561.121 422.622,565.455 424.5,571.5C 402.823,572.676 391.156,584.176 389.5,606C 389.62,613.222 391.286,620.056 394.5,626.5C 385.399,636.835 384.065,648.169 390.5,660.5C 386.555,661.491 382.555,661.824 378.5,661.5C 377.806,651.853 377.306,642.187 377,632.5C 369.813,626.662 361.646,624.495 352.5,626C 344.05,622.296 340.717,615.963 342.5,607C 332.694,600.634 329.527,591.801 333,580.5C 335.263,574.732 339.43,571.399 345.5,570.5C 344.185,559.294 348.519,551.128 358.5,546C 367.078,543.797 374.245,545.963 380,552.5C 382.157,549.024 384.99,546.357 388.5,544.5 Z"/></g>
<g><path style="opacity:1" fill="#c93504" d="M 755.5,562.5 C 762.402,561.867 767.569,564.534 771,570.5C 778.198,565.866 784.531,566.866 790,573.5C 793.834,571.243 798.001,569.91 802.5,569.5C 806.152,562.534 810.652,561.867 816,567.5C 816.483,568.448 816.649,569.448 816.5,570.5C 819.443,570.647 822.276,571.313 825,572.5C 828.319,569.683 832.153,568.849 836.5,570C 841.828,573.872 847.828,576.205 854.5,577C 855.687,578.019 856.687,579.186 857.5,580.5C 835.512,583.553 813.512,586.72 791.5,590C 769.827,594.235 748.161,598.401 726.5,602.5C 723.968,589.916 727.635,579.749 737.5,572C 741.057,570.592 744.724,569.592 748.5,569C 750.729,566.6 753.063,564.433 755.5,562.5 Z"/></g>
<g><path style="opacity:1" fill="#f9f7f6" d="M 449.5,564.5 C 457.62,563.958 462.62,567.624 464.5,575.5C 475.238,577.241 481.238,583.574 482.5,594.5C 489.984,589.575 496.151,590.908 501,598.5C 502.987,607.843 499.32,613.51 490,615.5C 483.691,614.525 480.025,610.858 479,604.5C 472.083,612.939 463.916,614.439 454.5,609C 447.711,601.383 440.211,600.55 432,606.5C 427.347,613.282 427.514,619.948 432.5,626.5C 438.62,614.34 447.12,612.34 458,620.5C 462.969,628.32 462.469,635.82 456.5,643C 447.517,648.643 440.017,647.143 434,638.5C 432.801,635.274 432.301,631.941 432.5,628.5C 418.639,629.992 410.972,623.658 409.5,609.5C 411.534,597.656 418.534,591.656 430.5,591.5C 431.57,585.258 435.07,580.924 441,578.5C 441.051,572.053 443.884,567.386 449.5,564.5 Z"/></g>
<g><path style="opacity:1" fill="#ecc0b3" d="M 609.5,574.5 C 610.182,589.402 610.848,604.402 611.5,619.5C 609.516,604.871 608.85,589.871 609.5,574.5 Z"/></g>
<g><path style="opacity:1" fill="#cb3c0e" d="M 171.5,579.5 C 194.167,579.5 216.833,579.5 239.5,579.5C 239.5,584.833 239.5,590.167 239.5,595.5C 216.836,595.026 194.169,594.693 171.5,594.5C 171.5,589.5 171.5,584.5 171.5,579.5 Z"/></g>
<g><path style="opacity:1" fill="#f9f4f3" d="M 346.5,581.5 C 356.988,580.487 361.488,585.154 360,595.5C 359.535,596.931 358.701,598.097 357.5,599C 364.434,604.796 364.1,610.129 356.5,615C 347.817,615.173 344.817,611.006 347.5,602.5C 338.648,595.778 338.315,588.778 346.5,581.5 Z"/></g>
<g><path style="opacity:1" fill="#ca3b0c" d="M 841.5,595.5 C 845.226,595.177 848.893,595.511 852.5,596.5C 852.038,598.291 850.871,599.291 849,599.5C 807.84,606.082 767.34,615.415 727.5,627.5C 726.516,624.572 726.183,621.572 726.5,618.5C 764.66,609.401 802.994,601.735 841.5,595.5 Z"/></g>
<g><path style="opacity:1" fill="#f7eae6" d="M 370.5,606.5 C 373.238,605.965 375.072,606.965 376,609.5C 377.647,614.113 377.813,618.78 376.5,623.5C 373.772,622.14 371.439,620.307 369.5,618C 370.394,614.224 370.728,610.39 370.5,606.5 Z"/></g>
<g><path style="opacity:1" fill="#ca3b0d" d="M 837.5,613.5 C 839.857,613.337 842.19,613.503 844.5,614C 843.415,616.172 842.081,618.172 840.5,620C 819.622,624.515 798.955,629.848 778.5,636C 771.746,635.875 765.079,634.875 758.5,633C 784.624,625.385 810.957,618.885 837.5,613.5 Z"/></g>
<g><path style="opacity:1" fill="#c93504" d="M 970.5,616.5 C 980.021,614.944 987.187,618.278 992,626.5C 995.221,636.552 992.388,644.385 983.5,650C 973.252,653.791 965.419,650.958 960,641.5C 956.353,630.13 959.853,621.797 970.5,616.5 Z"/></g>
<g><path style="opacity:1" fill="#c93504" d="M 199.5,616.5 C 216.509,617.338 223.009,626.005 219,642.5C 212.418,651.777 203.918,653.944 193.5,649C 181.456,635.459 183.456,624.625 199.5,616.5 Z"/></g>
<g><path style="opacity:1" fill="#f8ece8" d="M 476.5,620.5 C 477.5,620.5 478.5,620.5 479.5,620.5C 479.657,621.873 479.49,623.207 479,624.5C 476.667,628.167 474.333,631.833 472,635.5C 471.743,631.23 470.576,627.23 468.5,623.5C 471.447,622.92 474.114,621.92 476.5,620.5 Z"/></g>
<g><path style="opacity:1" fill="#c93504" d="M 726.5,637.5 C 756.345,644.128 785.012,654.128 812.5,667.5C 809.555,672.445 806.221,677.112 802.5,681.5C 778.11,667.97 752.777,656.637 726.5,647.5C 726.5,644.167 726.5,640.833 726.5,637.5 Z"/></g>
<g><path style="opacity:1" fill="#ce461a" d="M 826.5,636.5 C 827.873,636.343 829.207,636.51 830.5,637C 827.659,641.007 824.325,644.507 820.5,647.5C 815.305,646.454 810.305,644.954 805.5,643C 812.654,640.968 819.654,638.801 826.5,636.5 Z"/></g>
<g><path style="opacity:1" fill="#c93504" d="M 567.5,636.5 C 638.167,652.5 701.5,683.5 757.5,729.5C 752.3,734.866 746.633,739.699 740.5,744C 738.956,745.187 737.289,745.52 735.5,745C 686.968,697.549 630.968,661.382 567.5,636.5 Z"/></g>
<g><path style="opacity:1" fill="#e18565" d="M 532.5,643.5 C 530.692,643.509 529.025,643.009 527.5,642C 529.535,641.401 531.201,641.901 532.5,643.5 Z"/></g>
<g><path style="opacity:1" fill="#c93504" d="M 532.5,643.5 C 581.785,659.139 626.785,682.639 667.5,714C 684.795,728.293 701.795,742.96 718.5,758C 709.835,764.002 700.502,768.336 690.5,771C 646.182,717.817 593.515,675.317 532.5,643.5 Z"/></g>
<g><path style="opacity:1" fill="#c93504" d="M 657.5,648.5 C 665.99,647.343 674.657,647.176 683.5,648C 720.921,660.379 756.255,677.046 789.5,698C 784.685,703.65 779.685,709.15 774.5,714.5C 738.429,687.623 699.429,665.623 657.5,648.5 Z"/></g>
<g><path style="opacity:1" fill="#f7e7e2" d="M 466.5,651.5 C 468.067,654.917 468.567,658.583 468,662.5C 466.167,660.667 464.333,658.833 462.5,657C 464.464,655.549 465.797,653.716 466.5,651.5 Z"/></g>
<g><path style="opacity:1" fill="#c93605" d="M 929.5,672.5 C 933.18,673.56 936.846,674.726 940.5,676C 941.022,676.561 941.355,677.228 941.5,678C 938.465,688.271 935.132,698.438 931.5,708.5C 931.818,709.647 932.484,710.481 933.5,711C 937.101,711.94 940.601,713.107 944,714.5C 947.52,704.071 951.187,693.737 955,683.5C 958.375,684.937 961.875,685.937 965.5,686.5C 962.089,697.065 959.089,707.732 956.5,718.5C 961.5,719.833 966.5,721.167 971.5,722.5C 975.036,711.226 978.369,699.893 981.5,688.5C 985.911,689.693 990.244,691.193 994.5,693C 988.936,708.358 983.77,723.858 979,739.5C 977.612,740.554 976.112,740.72 974.5,740C 954.577,733.692 934.744,727.192 915,720.5C 919.505,704.479 924.338,688.479 929.5,672.5 Z"/></g>
<g><path style="opacity:1" fill="#ca3909" d="M 378.5,670.5 C 378.897,669.475 379.563,669.308 380.5,670C 413.794,694.294 442.794,722.96 467.5,756C 463.367,754.6 459.367,752.6 455.5,750C 447.167,743.667 438.833,737.333 430.5,731C 415.173,709.168 397.839,689.001 378.5,670.5 Z"/></g>
<g><path style="opacity:1" fill="#c93606" d="M 248.5,680.5 C 249.822,680.33 250.989,680.663 252,681.5C 257.673,697.018 262.839,712.685 267.5,728.5C 263.931,729.189 260.431,730.189 257,731.5C 256.5,731.167 256,730.833 255.5,730.5C 251.666,719.828 247.832,709.161 244,698.5C 239.902,700.066 235.735,701.399 231.5,702.5C 234.635,713.239 237.969,723.905 241.5,734.5C 238.013,734.905 234.68,735.905 231.5,737.5C 227.251,728.089 223.584,718.423 220.5,708.5C 219.833,708.167 219.167,707.833 218.5,707.5C 214.241,709.132 209.908,710.466 205.5,711.5C 208.357,723.073 212.024,734.406 216.5,745.5C 212.447,748.022 208.28,749.355 204,749.5C 198.93,734.124 193.764,718.791 188.5,703.5C 188.818,702.353 189.484,701.519 190.5,701C 210.045,694.432 229.378,687.598 248.5,680.5 Z"/></g>
<g><path style="opacity:1" fill="#c93605" d="M 344.5,690.5 C 345.376,690.369 346.043,690.702 346.5,691.5C 348.38,695.428 350.38,699.261 352.5,703C 345.525,707.825 338.192,712.159 330.5,716C 334.96,723.753 339.294,731.586 343.5,739.5C 350.833,735.5 358.167,731.5 365.5,727.5C 368.338,731.172 370.671,735.172 372.5,739.5C 372.023,740.478 371.357,741.311 370.5,742C 351.673,751.913 333.007,762.079 314.5,772.5C 311.526,768.722 309.193,764.555 307.5,760C 315.5,755 323.5,750 331.5,745C 327.79,737.072 323.457,729.572 318.5,722.5C 310.5,726.833 302.5,731.167 294.5,735.5C 291.722,731.455 289.056,727.288 286.5,723C 306.057,712.392 325.391,701.559 344.5,690.5 Z"/></g>
<g><path style="opacity:1" fill="#c93605" d="M 839.5,692.5 C 852.558,692.505 860.224,698.838 862.5,711.5C 866.392,708.674 870.725,707.841 875.5,709C 881.858,712.347 888.525,714.847 895.5,716.5C 893.192,720.777 891.192,725.11 889.5,729.5C 882.318,727.273 875.152,724.94 868,722.5C 864.575,722.919 861.909,724.586 860,727.5C 857.697,731.939 855.53,736.439 853.5,741C 860.673,745.754 868.007,750.254 875.5,754.5C 873.739,759.034 871.239,763.034 868,766.5C 848.085,756.795 828.585,746.461 809.5,735.5C 814.745,724.677 820.245,714.01 826,703.5C 829.213,698.107 833.713,694.441 839.5,692.5 Z"/></g>
<g><path style="opacity:1" fill="#f9f5f3" d="M 838.5,708.5 C 845.651,707.563 850.317,710.397 852.5,717C 850.089,723.988 846.756,730.488 842.5,736.5C 837.292,733.465 831.959,730.632 826.5,728C 829.143,723.214 831.643,718.38 834,713.5C 835.059,711.341 836.559,709.674 838.5,708.5 Z"/></g>
<g><path style="opacity:1" fill="#c93605" d="M 268.5,733.5 C 269.496,733.414 270.329,733.748 271,734.5C 273.86,738.858 275.527,743.524 276,748.5C 267.96,762.748 259.793,776.915 251.5,791C 264.182,784.824 276.849,778.324 289.5,771.5C 290.442,771.608 291.275,771.941 292,772.5C 294.24,775.953 295.573,779.619 296,783.5C 277,794.167 258,804.833 239,815.5C 235.859,811.387 233.359,806.887 231.5,802C 237.946,789.607 244.78,777.44 252,765.5C 253.626,762.942 254.626,760.275 255,757.5C 242.96,764.367 230.793,771.034 218.5,777.5C 215.296,774.27 212.963,770.437 211.5,766C 230.534,755.152 249.534,744.318 268.5,733.5 Z"/></g>
<g><path style="opacity:1" fill="#c93504" d="M 806.5,739.5 C 817.002,748.499 827.668,757.332 838.5,766C 849.728,776.251 851.562,788.084 844,801.5C 839.254,808.917 832.754,814.083 824.5,817C 817.243,818.509 810.577,817.175 804.5,813C 792.793,802.823 781.126,792.657 769.5,782.5C 772.862,778.808 776.195,775.141 779.5,771.5C 791.729,782.566 804.396,793.066 817.5,803C 827.324,802.86 833.324,797.86 835.5,788C 835.142,785.968 834.308,784.134 833,782.5C 821.22,771.707 809.387,761.04 797.5,750.5C 800.747,746.986 803.747,743.32 806.5,739.5 Z"/></g>
<g><path style="opacity:1" fill="#c93605" d="M 961.5,748.5 C 965.795,749.646 969.462,751.813 972.5,755C 965.891,769.051 958.891,782.885 951.5,796.5C 931.344,786.589 911.344,776.422 891.5,766C 893.634,761.556 896.134,757.389 899,753.5C 915.051,761.109 930.884,769.109 946.5,777.5C 951.781,767.937 956.781,758.27 961.5,748.5 Z"/></g>
<g><path style="opacity:1" fill="#c93504" d="M 386.5,757.5 C 388.371,757.859 389.871,758.859 391,760.5C 393.181,763.344 395.347,766.178 397.5,769C 387.261,790.311 376.094,811.144 364,831.5C 360.065,828.238 356.898,824.404 354.5,820C 356.7,815.768 359.033,811.602 361.5,807.5C 358.524,803.356 355.357,799.356 352,795.5C 349.651,792.983 347.151,790.65 344.5,788.5C 339.926,790.371 335.426,792.371 331,794.5C 327.383,790.761 323.883,786.928 320.5,783C 342.699,774.722 364.699,766.222 386.5,757.5 Z"/></g>
<g><path style="opacity:1" fill="#f9f2f0" d="M 378.5,774.5 C 379.465,775.721 379.298,777.054 378,778.5C 374.5,784.167 371,789.833 367.5,795.5C 363.496,791.996 359.83,788.163 356.5,784C 363.975,780.906 371.309,777.74 378.5,774.5 Z"/></g>
<g><path style="opacity:1" fill="#c93504" d="M 296.5,784.5 C 298.716,785.203 300.549,786.536 302,788.5C 303.833,791 305.667,793.5 307.5,796C 298.638,808.697 289.971,821.53 281.5,834.5C 281.833,834.833 282.167,835.167 282.5,835.5C 296.694,830.268 310.861,824.935 325,819.5C 329.06,822.758 332.56,826.592 335.5,831C 313.38,839.907 291.047,847.907 268.5,855C 265.667,851.5 262.833,848 260,844.5C 259.333,843.167 259.333,841.833 260,840.5C 272.436,821.947 284.603,803.281 296.5,784.5 Z"/></g>
<g><path style="opacity:1" fill="#c93605" d="M 766.5,784.5 C 768.017,784.511 769.184,785.177 770,786.5C 771.833,789 773.667,791.5 775.5,794C 766.678,800.911 757.678,807.577 748.5,814C 747.549,814.718 747.383,815.551 748,816.5C 750.667,819.833 753.333,823.167 756,826.5C 764.359,819.974 772.859,813.641 781.5,807.5C 783.992,810.163 786.326,812.996 788.5,816C 779.833,822.667 771.167,829.333 762.5,836C 766.023,840.022 769.357,844.189 772.5,848.5C 781.833,841.5 791.167,834.5 800.5,827.5C 803.513,830.349 806.18,833.515 808.5,837C 795.347,847.409 782.013,857.576 768.5,867.5C 754.29,850.118 740.623,832.285 727.5,814C 740.684,804.303 753.684,794.47 766.5,784.5 Z"/></g>
<g><path style="opacity:1" fill="#c93605" d="M 506.5,850.5 C 507.933,848.086 508.433,845.419 508,842.5C 507.187,844.436 506.687,846.436 506.5,848.5C 505.521,849.765 504.521,851.099 503.5,852.5C 497.578,849.48 491.578,846.98 485.5,845C 478.371,860.759 471.371,876.593 464.5,892.5C 463.277,893.614 461.944,893.781 460.5,893C 457.583,891.472 454.583,890.139 451.5,889C 450.978,888.439 450.645,887.772 450.5,887C 457.656,870.526 464.656,854.026 471.5,837.5C 465.751,835.462 460.085,833.129 454.5,830.5C 453.904,829.284 453.737,827.951 454,826.5C 445.933,838.57 437.099,850.07 427.5,861C 420.903,864.378 413.903,865.378 406.5,864C 396.06,859.555 388.227,852.388 383,842.5C 381.418,834.592 382.751,827.259 387,820.5C 395.91,809.012 404.577,797.345 413,785.5C 417.144,788.149 420.978,791.149 424.5,794.5C 416.578,806.01 408.412,817.343 400,828.5C 395.521,833.703 395.354,839.037 399.5,844.5C 403.615,848.895 408.615,851.062 414.5,851C 417.102,850.117 419.269,848.617 421,846.5C 429.601,834.284 438.434,822.284 447.5,810.5C 451.361,813.528 455.361,816.361 459.5,819C 475.5,826 491.5,833 507.5,840C 524.081,844.03 540.748,847.53 557.5,850.5C 557.577,854.963 556.91,859.296 555.5,863.5C 543.905,860.845 532.239,858.512 520.5,856.5C 519.556,860.817 519.056,865.151 519,869.5C 529.245,871.77 539.412,874.437 549.5,877.5C 548.618,880.791 547.952,884.124 547.5,887.5C 537.199,886.31 527.033,884.31 517,881.5C 516.228,881.645 515.561,881.978 515,882.5C 514.231,886.514 513.397,890.514 512.5,894.5C 512.781,896.778 514.115,897.945 516.5,898C 526.584,899.863 536.584,902.03 546.5,904.5C 546.459,908.616 545.793,912.616 544.5,916.5C 527.775,913.486 511.108,910.152 494.5,906.5C 498.497,887.855 502.497,869.188 506.5,850.5 Z"/></g>
<g><path style="opacity:1" fill="#c93605" d="M 876.5,788.5 C 896.181,793.56 915.848,798.726 935.5,804C 939.199,804.908 942.532,806.408 945.5,808.5C 943.025,812.142 940.358,815.642 937.5,819C 932.537,818.686 927.704,817.519 923,815.5C 917.74,821.813 912.573,828.313 907.5,835C 910.624,839.414 913.624,843.914 916.5,848.5C 913.848,852.482 910.848,856.149 907.5,859.5C 894.68,840.537 881.846,821.537 869,802.5C 868.48,800.711 868.813,799.044 870,797.5C 872.385,794.621 874.552,791.621 876.5,788.5 Z"/></g>
<g><path style="opacity:1" fill="#f9f3f2" d="M 886.5,805.5 C 886.56,804.957 886.893,804.624 887.5,804.5C 895.068,807.3 902.735,809.8 910.5,812C 907.706,816.624 904.373,820.791 900.5,824.5C 895.777,818.125 891.11,811.791 886.5,805.5 Z"/></g>
<g><path style="opacity:1" fill="#c93605" d="M 859.5,811.5 C 863.415,813.743 866.749,816.743 869.5,820.5C 865.515,824.985 861.349,829.318 857,833.5C 856.333,834.167 856.333,834.833 857,835.5C 869.374,848.041 881.874,860.375 894.5,872.5C 891.894,876.609 888.727,880.276 885,883.5C 872.167,871.333 859.333,859.167 846.5,847C 845.833,846.333 845.167,846.333 844.5,847C 840.318,851.349 835.985,855.515 831.5,859.5C 828.349,856.85 825.349,854.016 822.5,851C 834.304,838.196 846.47,825.696 859,813.5C 859.464,812.906 859.631,812.239 859.5,811.5 Z"/></g>
<g><path style="opacity:1" fill="#c93605" d="M 696.5,828.5 C 697.376,828.369 698.043,828.702 698.5,829.5C 706.038,845.41 713.705,861.243 721.5,877C 731.294,873.107 740.961,868.607 750.5,863.5C 752.754,867.007 754.754,870.673 756.5,874.5C 742.358,881.906 728.024,888.739 713.5,895C 703.689,875.212 694.023,855.379 684.5,835.5C 688.563,833.14 692.563,830.807 696.5,828.5 Z"/></g>
<g><path style="opacity:1" fill="#c83301" d="M 337.5,832.5 C 341.402,834.893 344.902,837.893 348,841.5C 348.667,842.167 348.667,842.833 348,843.5C 332.833,858.667 317.667,873.833 302.5,889C 301.833,889.667 301.167,889.667 300.5,889C 297.667,886.167 294.833,883.333 292,880.5C 291.333,879.833 291.333,879.167 292,878.5C 307.368,863.299 322.535,847.965 337.5,832.5 Z"/></g>
<g><path style="opacity:1" fill="#c93504" d="M 660.5,841.5 C 662.017,841.511 663.184,842.177 664,843.5C 676.638,862.304 689.471,880.971 702.5,899.5C 702.291,900.086 701.957,900.586 701.5,901C 697.267,901.933 693.1,903.1 689,904.5C 685.967,899.753 682.467,895.42 678.5,891.5C 671.167,893.333 663.833,895.167 656.5,897C 654.947,902.352 654.281,907.852 654.5,913.5C 649.468,914.341 644.468,915.341 639.5,916.5C 642.004,892.793 644.838,869.127 648,845.5C 652.28,844.228 656.447,842.894 660.5,841.5 Z"/></g>
<g><path style="opacity:1" fill="#e69a7c" d="M 506.5,850.5 C 506.5,849.833 506.5,849.167 506.5,848.5C 506.687,846.436 507.187,844.436 508,842.5C 508.433,845.419 507.933,848.086 506.5,850.5 Z"/></g>
<g><path style="opacity:1" fill="#c93605" d="M 625.5,849.5 C 628.833,849.5 632.167,849.5 635.5,849.5C 629.989,872.211 624.155,894.877 618,917.5C 612.259,918.475 606.425,918.808 600.5,918.5C 592.765,896.634 584.432,874.967 575.5,853.5C 580.792,852.505 586.125,852.172 591.5,852.5C 596.498,867.325 601.998,881.992 608,896.5C 612.299,881.978 616.299,867.311 620,852.5C 621.649,851.047 623.482,850.047 625.5,849.5 Z"/></g>
<g><path style="opacity:1" fill="#c93504" d="M 354.5,849.5 C 364.34,857.168 374.34,864.668 384.5,872C 395.529,883.275 394.862,893.941 382.5,904C 378.284,905.204 373.951,905.87 369.5,906C 371.523,909.183 372.023,912.683 371,916.5C 367.391,923.612 363.558,930.612 359.5,937.5C 355.329,934.822 351.662,931.656 348.5,928C 352.623,921.755 355.956,915.088 358.5,908C 358.081,904.575 356.414,901.909 353.5,900C 349.4,897.533 345.566,894.699 342,891.5C 336.659,898.337 331.159,905.004 325.5,911.5C 321.518,908.848 317.851,905.848 314.5,902.5C 327.858,884.815 341.191,867.148 354.5,849.5 Z"/></g>
<g><path style="opacity:1" fill="#c93504" d="M 819.5,853.5 C 833.51,870.995 847.177,888.828 860.5,907C 856.244,910.045 852.077,913.212 848,916.5C 832.477,910.269 816.977,903.935 801.5,897.5C 800.479,898.002 800.312,898.668 801,899.5C 809.359,910.359 817.526,921.359 825.5,932.5C 822.44,935.725 818.94,938.392 815,940.5C 801.193,923.009 787.693,905.176 774.5,887C 778.424,883.79 782.59,880.956 787,878.5C 802.725,884.96 818.559,890.794 834.5,896C 826.333,885.167 818.167,874.333 810,863.5C 809.251,862.365 809.417,861.365 810.5,860.5C 813.75,858.388 816.75,856.055 819.5,853.5 Z"/></g>
<g><path style="opacity:1" fill="#f9f1ef" d="M 658.5,860.5 C 663.498,866.849 668.165,873.515 672.5,880.5C 667.611,882.31 662.611,883.977 657.5,885.5C 657.167,884.667 656.833,883.833 656.5,883C 657.558,875.534 658.224,868.034 658.5,860.5 Z"/></g>
<g><path style="opacity:1" fill="#f9f5f3" d="M 359.5,868.5 C 366.221,872.447 372.054,877.447 377,883.5C 377.091,888.454 374.924,892.287 370.5,895C 367.217,895.743 364.217,895.076 361.5,893C 357.311,889.31 352.978,885.81 348.5,882.5C 352.19,877.815 355.857,873.148 359.5,868.5 Z"/></g>
<g><path style="opacity:1" fill="#c93605" d="M 767.5,890.5 C 768.675,890.281 769.675,890.614 770.5,891.5C 772.039,894.746 773.706,897.912 775.5,901C 764.978,906.425 754.645,912.092 744.5,918C 746.11,922.054 748.11,925.887 750.5,929.5C 759.833,924.833 769.167,920.167 778.5,915.5C 781.357,918.83 782.69,922.496 782.5,926.5C 773.343,930.912 764.343,935.578 755.5,940.5C 757.746,945.326 760.246,949.992 763,954.5C 773.422,949.039 783.922,943.706 794.5,938.5C 796.626,941.919 798.626,945.419 800.5,949C 785.815,957.343 770.815,965.177 755.5,972.5C 744.801,952.937 734.467,933.104 724.5,913C 738.895,905.471 753.228,897.971 767.5,890.5 Z"/></g>
<g><path style="opacity:1" fill="#c93605" d="M 412.5,895.5 C 429.115,894.887 441.281,901.887 449,916.5C 453.406,937.305 446.573,953.139 428.5,964C 409.321,969.657 394.821,963.823 385,946.5C 379.594,927.143 385.094,911.643 401.5,900C 405.053,897.879 408.72,896.379 412.5,895.5 Z"/></g>
<g><path style="opacity:1" fill="#f9f6f5" d="M 415.5,908.5 C 433.444,910.054 439.61,919.387 434,936.5C 427.085,953.489 416.085,957.156 401,947.5C 394.32,933.514 397.153,921.681 409.5,912C 411.727,911.059 413.727,909.892 415.5,908.5 Z"/></g>
<g><path style="opacity:1" fill="#c93605" d="M 714.5,916.5 C 716.451,916.227 717.951,916.893 719,918.5C 724.575,938.631 730.075,958.798 735.5,979C 735.245,980.326 734.578,981.326 733.5,982C 730.081,982.521 726.748,983.355 723.5,984.5C 718.699,969.972 714.199,955.306 710,940.5C 708.57,955.803 707.57,971.136 707,986.5C 706.682,988.061 705.849,989.228 704.5,990C 700.959,991.255 697.459,991.422 694,990.5C 685.333,977.833 676.667,965.167 668,952.5C 671.689,966.42 675.522,980.42 679.5,994.5C 679.182,995.647 678.516,996.481 677.5,997C 673.899,997.94 670.399,999.107 667,1000.5C 660.533,979.308 654.367,957.975 648.5,936.5C 648.709,935.914 649.043,935.414 649.5,935C 654.543,933.822 659.543,932.489 664.5,931C 666.259,930.202 667.926,930.369 669.5,931.5C 678,943.833 686.5,956.167 695,968.5C 696.538,952.892 697.371,937.226 697.5,921.5C 703.402,920.279 709.068,918.612 714.5,916.5 Z"/></g>
<g><path style="opacity:1" fill="#c93606" d="M 465.5,917.5 C 470.376,918.737 475.209,920.07 480,921.5C 484.833,937.5 489.667,953.5 494.5,969.5C 498.897,956.641 502.897,943.641 506.5,930.5C 507,930.167 507.5,929.833 508,929.5C 512.11,930.816 516.276,931.816 520.5,932.5C 514.096,954.047 508.096,975.713 502.5,997.5C 496.991,996.719 491.824,995.052 487,992.5C 482.795,976.01 478.128,959.676 473,943.5C 468.595,957.369 464.761,971.369 461.5,985.5C 456.761,984.815 452.094,983.815 447.5,982.5C 453.091,960.725 459.091,939.058 465.5,917.5 Z"/></g>
<g><path style="opacity:1" fill="#c83504" d="M 527.5,934.5 C 532.879,934.771 538.212,935.438 543.5,936.5C 551.272,951.711 558.772,967.044 566,982.5C 567.882,967.867 569.382,953.2 570.5,938.5C 575.141,939.127 579.807,939.46 584.5,939.5C 582.302,961.815 580.302,984.148 578.5,1006.5C 573.254,1006.13 568.088,1005.46 563,1004.5C 555.318,989.136 547.651,973.802 540,958.5C 538.349,973.159 536.849,987.826 535.5,1002.5C 530.833,1002.17 526.167,1001.83 521.5,1001.5C 524.076,979.223 526.076,956.889 527.5,934.5 Z"/></g>
<g><path style="opacity:1" fill="#c93504" d="M 635.5,935.5 C 638.167,935.5 640.833,935.5 643.5,935.5C 643.5,939.833 643.5,944.167 643.5,948.5C 631.827,949.065 620.16,949.731 608.5,950.5C 608.998,955.152 609.331,959.819 609.5,964.5C 620.5,963.833 631.5,963.167 642.5,962.5C 642.5,966.5 642.5,970.5 642.5,974.5C 631.808,974.81 621.141,975.476 610.5,976.5C 611.342,981.787 611.676,987.12 611.5,992.5C 623.803,991.323 636.136,990.656 648.5,990.5C 648.5,994.5 648.5,998.5 648.5,1002.5C 631.483,1003.63 614.483,1004.96 597.5,1006.5C 596.443,984.432 594.777,962.432 592.5,940.5C 606.915,938.371 621.249,936.704 635.5,935.5 Z"/></g>
</svg>
