<?xml version="1.0" encoding="utf-8"?>
<!-- Generator: Adobe Illustrator 24.1.2, SVG Export Plug-In . SVG Version: 6.00 Build 0)  -->
<svg version="1.1" id="Layer_1" xmlns="http://www.w3.org/2000/svg" xmlns:xlink="http://www.w3.org/1999/xlink" x="0px" y="0px"
	 viewBox="0 0 141.7 141.7" style="enable-background:new 0 0 141.7 141.7;" xml:space="preserve">
<style type="text/css">
	.st0{fill:#034EA2;}
	.st1{fill:#FFDE2F;}
</style>
<g>
	<g>
		<polygon class="st0" points="76,18.5 80.9,13.1 84,19.8 89.7,15.2 91.6,22.3 98,18.7 98.8,26 105.7,23.4 105.3,30.7 112.5,29.2 
			111,36.4 118.4,36.1 115.8,43 123.1,43.7 119.4,50.1 126.5,52.1 121.9,57.8 128.6,60.8 123.2,65.8 129.3,69.8 123.2,73.9 
			128.6,78.8 121.9,81.8 126.5,87.6 119.4,89.5 123.1,95.9 115.8,96.7 118.4,103.6 111,103.2 112.5,110.4 105.3,108.9 105.7,116.3 
			98.8,113.7 98,121 91.6,117.3 89.7,124.4 83.9,119.8 80.9,126.5 76,121.1 72,127.2 67.9,121.1 63,126.5 60,119.8 54.2,124.4 
			52.3,117.3 45.9,121 45.1,113.7 38.2,116.3 38.6,108.9 31.4,110.4 32.9,103.2 25.5,103.6 28.1,96.7 20.8,95.9 24.5,89.5 
			17.4,87.6 22,81.8 15.3,78.8 20.7,73.8 14.6,69.8 20.7,65.8 15.3,60.8 22,57.8 17.4,52.1 24.5,50.1 20.8,43.7 28.2,42.9 
			25.5,36.1 32.9,36.4 31.4,29.2 38.6,30.7 38.2,23.4 45.1,26 45.9,18.7 52.3,22.3 54.2,15.2 60,19.8 63,13.1 67.9,18.5 72,12.4 		
			"/>
		<g>
			<g>
				<path class="st1" d="M21.8,69.8c0-27.7,22.5-50.2,50.2-50.2c27.7,0,50.2,22.5,50.2,50.2c0,27.7-22.5,50.2-50.2,50.2
					C44.2,120,21.8,97.5,21.8,69.8z"/>
				<path class="st1" d="M72,69.8"/>
			</g>
			<g>
				<path class="st1" d="M21.8,69.8c0-27.7,22.5-50.2,50.2-50.2c27.7,0,50.2,22.5,50.2,50.2c0,27.7-22.5,50.2-50.2,50.2
					C44.2,120,21.8,97.5,21.8,69.8z"/>
				<path class="st1" d="M72,69.8"/>
			</g>
		</g>
		<g>
			<g>
				<path class="st0" d="M37.8,69.8c0-18.9,15.3-34.2,34.2-34.2c18.9,0,34.2,15.3,34.2,34.2c0,18.9-15.3,34.2-34.2,34.2
					C53.1,104,37.8,88.7,37.8,69.8z"/>
				<path class="st0" d="M71.9,69.8"/>
			</g>
			<g>
				<path class="st0" d="M37.8,69.8c0-18.9,15.3-34.2,34.2-34.2c18.9,0,34.2,15.3,34.2,34.2c0,18.9-15.3,34.2-34.2,34.2
					C53.1,104,37.8,88.7,37.8,69.8z"/>
				<path class="st0" d="M71.9,69.8"/>
			</g>
		</g>
		<g>
			<g>
				<polygon class="st1" points="97.6,53.9 96.5,50.8 95.5,53.9 92.2,53.9 94.9,55.8 93.9,58.8 96.5,56.9 99.2,58.8 98.2,55.8 
					100.8,53.9 				"/>
				<polygon class="st1" points="87.1,43.9 86,40.9 85,43.9 81.7,43.9 84.4,45.8 83.4,48.8 86,47 88.7,48.8 87.7,45.8 90.3,43.9 
									"/>
				<polygon class="st1" points="72.8,40 71.8,37 70.8,40 67.5,40 70.1,41.9 69.1,44.9 71.8,43 74.4,44.9 73.4,41.9 76,40 				"/>
				<polygon class="st1" points="58.7,43.9 57.7,40.9 56.7,43.9 53.4,43.9 56.1,45.8 55,48.8 57.7,47 60.3,48.8 59.4,45.8 62,43.9 
									"/>
				<polygon class="st1" points="48.2,53.9 47.2,50.8 46.2,53.9 42.9,53.9 45.5,55.8 44.5,58.8 47.2,56.9 49.8,58.8 48.9,55.8 
					51.5,53.9 				"/>
				<polygon class="st1" points="44.3,68.9 43.3,65.9 42.3,68.9 39,68.9 41.6,70.8 40.6,73.8 43.3,71.9 45.9,73.8 45,70.8 
					47.6,68.9 				"/>
				<polygon class="st1" points="48.8,82.6 47.8,79.6 46.7,82.6 43.5,82.6 46.1,84.5 45.1,87.5 47.8,85.7 50.4,87.5 49.4,84.5 
					52,82.6 				"/>
				<polygon class="st1" points="58.2,92.6 57.1,89.5 56.1,92.6 52.8,92.6 55.5,94.4 54.5,97.5 57.1,95.6 59.8,97.5 58.8,94.5 
					61.4,92.6 				"/>
				<polygon class="st1" points="72.8,97.7 71.8,94.7 70.8,97.7 67.5,97.7 70.1,99.6 69.1,102.6 71.8,100.7 74.4,102.6 73.4,99.6 
					76,97.7 				"/>
				<polygon class="st1" points="87.5,92.6 86.4,89.5 85.4,92.6 82.1,92.6 84.8,94.5 83.8,97.5 86.4,95.6 89.1,97.5 88.1,94.5 
					90.7,92.6 				"/>
				<polygon class="st1" points="96.8,82.6 95.8,79.6 94.8,82.6 91.5,82.6 94.1,84.5 93.1,87.5 95.8,85.7 98.4,87.5 97.5,84.5 
					100.1,82.6 				"/>
				<polygon class="st1" points="101.6,68.9 100.6,65.8 99.6,68.9 96.3,68.9 99,70.7 97.9,73.8 100.6,71.9 103.2,73.8 102.3,70.7 
					104.9,68.9 				"/>
				<path class="st1" d="M83.7,87.9c-5.9-6.2-18.3-11.8-32.9-14l-0.1-0.4c-0.2-0.9-0.3-1.8-0.3-2.6c15.1,2.2,28.9,7.9,35.6,15.2
					C85.3,86.8,84.5,87.3,83.7,87.9z"/>
				<path class="st1" d="M74.7,91.2c-2.7-4.7-11.1-9.3-21.8-11.4c-0.5-1-1-2.1-1.4-3.2c12.3,2.1,23.1,7.5,26.2,14.1
					c-0.6,0.2-1.3,0.3-2,0.4C75.3,91.1,75,91.2,74.7,91.2z"/>
				<path class="st1" d="M54.6,82.5c5.8,1.5,10.6,4.3,12.3,8.2C61.9,89.5,57.5,86.6,54.6,82.5z"/>
				<path class="st1" d="M72.3,70.6c7.4-2,14.9-2.8,21.1-2.2c0.1,0.8,0.1,1.5,0,2.2c-5-0.5-11.1-0.1-17.5,1.4
					c1.1,0.4,2.2,0.9,3.2,1.3c5.2-0.8,10.2-0.7,13.9,0.4c-0.1,0.7-0.3,1.5-0.5,2.2c-2.5-0.8-5.9-1.1-9.6-0.8c2.9,1.5,5.6,3.1,8,4.8
					c-0.5,0.9-1,1.7-1.5,2.5c-8.9-6.5-23-11.8-39-14c0.1-1,0.2-1.9,0.4-2.9c5,0.7,9.9,1.7,14.6,3c9.2-3.2,18.8-4.8,27.2-4.9
					c0.2,0.7,0.4,1.4,0.5,2.2c-7.2,0-15.5,1.2-24,3.8C70.2,69.9,71.3,70.3,72.3,70.6z"/>
			</g>
			<g>
				<polygon class="st1" points="97.6,53.9 96.5,50.8 95.5,53.9 92.2,53.9 94.9,55.8 93.9,58.8 96.5,56.9 99.2,58.8 98.2,55.8 
					100.8,53.9 				"/>
				<polygon class="st1" points="87.1,43.9 86,40.9 85,43.9 81.7,43.9 84.4,45.8 83.4,48.8 86,47 88.7,48.8 87.7,45.8 90.3,43.9 
									"/>
				<polygon class="st1" points="72.8,40 71.8,37 70.8,40 67.5,40 70.1,41.9 69.1,44.9 71.8,43 74.4,44.9 73.4,41.9 76,40 				"/>
				<polygon class="st1" points="58.7,43.9 57.7,40.9 56.7,43.9 53.4,43.9 56.1,45.8 55,48.8 57.7,47 60.3,48.8 59.4,45.8 62,43.9 
									"/>
				<polygon class="st1" points="48.2,53.9 47.2,50.8 46.2,53.9 42.9,53.9 45.5,55.8 44.5,58.8 47.2,56.9 49.8,58.8 48.9,55.8 
					51.5,53.9 				"/>
				<polygon class="st1" points="44.3,68.9 43.3,65.9 42.3,68.9 39,68.9 41.6,70.8 40.6,73.8 43.3,71.9 45.9,73.8 45,70.8 
					47.6,68.9 				"/>
				<polygon class="st1" points="48.8,82.6 47.8,79.6 46.7,82.6 43.5,82.6 46.1,84.5 45.1,87.5 47.8,85.7 50.4,87.5 49.4,84.5 
					52,82.6 				"/>
				<polygon class="st1" points="58.2,92.6 57.1,89.5 56.1,92.6 52.8,92.6 55.5,94.4 54.5,97.5 57.1,95.6 59.8,97.5 58.8,94.5 
					61.4,92.6 				"/>
				<polygon class="st1" points="72.8,97.7 71.8,94.7 70.8,97.7 67.5,97.7 70.1,99.6 69.1,102.6 71.8,100.7 74.4,102.6 73.4,99.6 
					76,97.7 				"/>
				<polygon class="st1" points="87.5,92.6 86.4,89.5 85.4,92.6 82.1,92.6 84.8,94.5 83.8,97.5 86.4,95.6 89.1,97.5 88.1,94.5 
					90.7,92.6 				"/>
				<polygon class="st1" points="96.8,82.6 95.8,79.6 94.8,82.6 91.5,82.6 94.1,84.5 93.1,87.5 95.8,85.7 98.4,87.5 97.5,84.5 
					100.1,82.6 				"/>
				<polygon class="st1" points="101.6,68.9 100.6,65.8 99.6,68.9 96.3,68.9 99,70.7 97.9,73.8 100.6,71.9 103.2,73.8 102.3,70.7 
					104.9,68.9 				"/>
				<path class="st1" d="M83.7,87.9c-5.9-6.2-18.3-11.8-32.9-14l-0.1-0.4c-0.2-0.9-0.3-1.8-0.3-2.6c15.1,2.2,28.9,7.9,35.6,15.2
					C85.3,86.8,84.5,87.3,83.7,87.9z"/>
				<path class="st1" d="M74.7,91.2c-2.7-4.7-11.1-9.3-21.8-11.4c-0.5-1-1-2.1-1.4-3.2c12.3,2.1,23.1,7.5,26.2,14.1
					c-0.6,0.2-1.3,0.3-2,0.4C75.3,91.1,75,91.2,74.7,91.2z"/>
				<path class="st1" d="M54.6,82.5c5.8,1.5,10.6,4.3,12.3,8.2C61.9,89.5,57.5,86.6,54.6,82.5z"/>
				<path class="st1" d="M72.3,70.6c7.4-2,14.9-2.8,21.1-2.2c0.1,0.8,0.1,1.5,0,2.2c-5-0.5-11.1-0.1-17.5,1.4
					c1.1,0.4,2.2,0.9,3.2,1.3c5.2-0.8,10.2-0.7,13.9,0.4c-0.1,0.7-0.3,1.5-0.5,2.2c-2.5-0.8-5.9-1.1-9.6-0.8c2.9,1.5,5.6,3.1,8,4.8
					c-0.5,0.9-1,1.7-1.5,2.5c-8.9-6.5-23-11.8-39-14c0.1-1,0.2-1.9,0.4-2.9c5,0.7,9.9,1.7,14.6,3c9.2-3.2,18.8-4.8,27.2-4.9
					c0.2,0.7,0.4,1.4,0.5,2.2c-7.2,0-15.5,1.2-24,3.8C70.2,69.9,71.3,70.3,72.3,70.6z"/>
			</g>
		</g>
	</g>
	<g>
		<g>
			<path class="st0" d="M48.8,106.3c-0.3-0.2-0.5-0.4-0.5-0.8c-0.1-0.3,0-0.6,0.2-0.9c0.2-0.3,0.4-0.5,0.8-0.5s0.6,0,0.9,0.2
				c0.3,0.2,0.5,0.4,0.5,0.8s0,0.6-0.2,0.9c-0.2,0.3-0.4,0.5-0.8,0.5S49.1,106.5,48.8,106.3z"/>
			<path class="st0" d="M45.3,98.2l0.1-0.1l2.1,1.9l-0.1,0.1l-0.2-0.2c-0.2-0.2-0.4-0.3-0.6-0.2c-0.1,0-0.3,0.2-0.6,0.5l-2.8,3.2
				c-0.2,0.3-0.3,0.4-0.4,0.5c0,0.1,0,0.2,0,0.3c0.1,0.2,0.1,0.3,0.3,0.4l0.2,0.2l-0.1,0.1l-2.1-1.9l0.1-0.1l0.2,0.2
				c0.2,0.2,0.4,0.2,0.6,0.2c0.1,0,0.3-0.2,0.6-0.5l2.8-3.2c0.2-0.3,0.3-0.4,0.4-0.5c0-0.1,0-0.2,0-0.3c-0.1-0.2-0.1-0.3-0.3-0.4
				L45.3,98.2z"/>
			<path class="st0" d="M40.3,102.4l-1.2-1.3l1-6.3l-2.9,2.5c-0.3,0.3-0.5,0.5-0.5,0.6c0,0.2,0.1,0.4,0.2,0.6l0.2,0.2L37,98.7
				L35.5,97l0.1-0.1l0.2,0.2c0.2,0.2,0.4,0.3,0.6,0.3c0.1,0,0.3-0.1,0.6-0.4l4.2-3.7l0.1,0.1l-1.1,6.8l3.1-2.7
				c0.3-0.3,0.5-0.5,0.5-0.6c0-0.2-0.1-0.4-0.2-0.6l-0.2-0.2l0.1-0.1l1.5,1.7l-0.1,0.1l-0.2-0.2c-0.2-0.2-0.4-0.3-0.6-0.3
				c-0.1,0-0.3,0.1-0.6,0.4l-3.5,3c0,0.3-0.1,0.5,0,0.6c0,0.1,0.1,0.3,0.1,0.5c0,0.1,0.1,0.2,0.3,0.4L40.3,102.4z"/>
			<path class="st0" d="M40.3,92.4l-0.2,0.1L40,92.2c-0.1-0.2-0.3-0.4-0.5-0.4c-0.1,0-0.4,0.1-0.7,0.3l-3.7,2.2
				c-0.4,0.2-0.6,0.4-0.6,0.5c-0.1,0.2,0,0.4,0.1,0.6l0.1,0.2l-0.2,0.1l-1.4-2.3c-0.5-0.8-0.8-1.6-0.9-2.1c-0.1-0.6,0-1.1,0.3-1.6
				c0.3-0.5,0.7-1,1.3-1.3c0.8-0.5,1.6-0.6,2.4-0.5c0.9,0.2,1.7,0.8,2.4,1.9L40.3,92.4z M38.9,91c-0.1-0.4-0.3-0.7-0.4-1
				c-0.4-0.6-0.9-1.1-1.6-1.2s-1.5,0-2.2,0.5c-0.8,0.5-1.3,1.1-1.5,1.8c-0.2,0.7-0.1,1.4,0.3,2.1c0.1,0.3,0.4,0.5,0.6,0.8L38.9,91z"
				/>
			<path class="st0" d="M35.4,83.5l0.2-0.1l1.1,2.6l-0.2,0.1l-0.1-0.2c-0.1-0.3-0.3-0.4-0.5-0.5c-0.1,0-0.4,0-0.7,0.2l-3.9,1.7
				c-0.3,0.1-0.5,0.2-0.6,0.3c-0.1,0.1-0.1,0.2-0.1,0.3c0,0.2,0,0.3,0.1,0.5l0.1,0.2l-0.2,0.1L29.5,86l0.2-0.1l0.1,0.2
				c0.1,0.2,0.3,0.4,0.5,0.5c0.1,0,0.4,0,0.7-0.2l3.9-1.7c0.3-0.1,0.5-0.2,0.6-0.3c0.1-0.1,0.1-0.2,0.1-0.3c0-0.2,0-0.3-0.1-0.5
				L35.4,83.5z"/>
			<path class="st0" d="M27.2,79.2l2.1-0.7l0,0.1c-0.6,0.4-1,0.8-1.2,1.2c-0.2,0.4-0.2,0.9-0.1,1.4c0.1,0.4,0.3,0.8,0.6,1.1
				s0.7,0.5,1.3,0.5c0.5,0.1,1.1,0,1.8-0.2c0.6-0.2,1.1-0.4,1.4-0.7c0.4-0.3,0.6-0.7,0.7-1.1c0.1-0.4,0.1-0.9,0-1.4
				c-0.1-0.4-0.3-0.8-0.6-1c-0.3-0.3-0.7-0.5-1.3-0.8l0.1-0.2c0.7,0.2,1.2,0.4,1.6,0.8s0.7,0.8,0.8,1.4c0.3,1.1,0.1,2-0.5,2.8
				c-0.5,0.6-1.1,1-1.9,1.2c-0.6,0.2-1.3,0.2-1.9,0.1s-1.1-0.4-1.6-0.8S28,82,27.9,81.4c-0.1-0.5-0.1-0.9,0-1.5c0-0.2,0-0.3,0-0.3
				c0-0.1-0.1-0.2-0.2-0.2c-0.1-0.1-0.2-0.1-0.4-0.1L27.2,79.2z"/>
			<path class="st0" d="M31,72.4l0.2,2.6l1.1,0.4c0.3,0.1,0.5,0.1,0.6,0.1c0.1,0,0.2-0.1,0.3-0.2c0.1-0.1,0.1-0.3,0.1-0.6l0.2,0
				l0.2,2.1l-0.2,0c-0.1-0.3-0.2-0.4-0.2-0.5c-0.2-0.2-0.5-0.3-1-0.5l-5.6-1.9l0-0.2l5.3-2.8c0.4-0.2,0.7-0.4,0.8-0.6
				c0.1-0.2,0.2-0.4,0.2-0.6l0.2,0l0.2,2.6l-0.2,0c0-0.3-0.1-0.4-0.2-0.5s-0.2-0.1-0.3-0.1c-0.1,0-0.4,0.1-0.7,0.3L31,72.4z
				 M30.6,72.6l-2.6,1.3l2.8,0.9L30.6,72.6z"/>
			<path class="st0" d="M26.7,64.5l1.6,0l0,0.2c-0.3,0-0.5,0.1-0.6,0.1c-0.2,0.1-0.3,0.2-0.4,0.4s-0.2,0.4-0.2,0.7l0,0.9l5.1,0.3
				c0.4,0,0.7,0,0.8-0.1c0.1-0.1,0.2-0.3,0.2-0.6l0-0.2l0.2,0L33.1,69l-0.2,0l0-0.2c0-0.3-0.1-0.5-0.2-0.6C32.6,68.1,32.4,68,32,68
				L27,67.7l0,0.8c0,0.3,0,0.5,0,0.7c0.1,0.2,0.2,0.3,0.3,0.5c0.2,0.1,0.4,0.2,0.7,0.3l0,0.2l-1.5-0.2L26.7,64.5z"/>
			<path class="st0" d="M33.8,61.5l0.2,0l-0.5,2.8l-0.2,0l0-0.2c0-0.3,0-0.5-0.1-0.6c-0.1-0.1-0.3-0.2-0.7-0.2l-4.2-0.7
				c-0.3-0.1-0.6-0.1-0.7,0c-0.1,0-0.2,0.1-0.2,0.2c-0.1,0.1-0.2,0.3-0.2,0.4l0,0.2l-0.2,0l0.5-2.8l0.2,0l0,0.2c0,0.3,0,0.5,0.1,0.6
				c0.1,0.1,0.3,0.2,0.7,0.2l4.2,0.7c0.3,0.1,0.6,0.1,0.7,0c0.1,0,0.2-0.1,0.2-0.2c0.1-0.1,0.2-0.3,0.2-0.4L33.8,61.5z"/>
			<path class="st0" d="M28.5,55.7c0.3-0.8,0.8-1.4,1.6-1.8c0.8-0.4,1.7-0.5,2.6-0.2c1,0.3,1.7,0.9,2.1,1.7c0.4,0.8,0.5,1.6,0.3,2.5
				c-0.3,0.9-0.8,1.5-1.6,1.9c-0.8,0.4-1.7,0.4-2.7,0.1c-1-0.3-1.7-0.9-2.1-1.8C28.3,57.3,28.2,56.5,28.5,55.7z M28.8,55.9
				c-0.2,0.6-0.1,1.1,0.2,1.6c0.4,0.6,1.1,1,2.1,1.4c1,0.3,1.9,0.4,2.6,0.1c0.5-0.2,0.9-0.6,1.1-1.1c0.2-0.6,0.1-1.2-0.2-1.7
				c-0.3-0.5-1-1-2-1.3c-1.1-0.3-2-0.4-2.6-0.1C29.4,54.9,29,55.3,28.8,55.9z"/>
			<path class="st0" d="M30.2,51.3l0.9-1.6l6.3-1.2L34,46.7c-0.4-0.2-0.6-0.3-0.7-0.2c-0.2,0-0.3,0.2-0.5,0.4l-0.1,0.2L32.5,47
				l1.1-2l0.2,0.1l-0.1,0.2c-0.1,0.2-0.2,0.5-0.1,0.6c0.1,0.1,0.2,0.3,0.6,0.4l4.9,2.7L39,49.1l-6.8,1.3l3.6,1.9
				c0.4,0.2,0.6,0.3,0.7,0.2c0.2,0,0.3-0.2,0.5-0.4l0.1-0.2l0.2,0.1l-1.1,2L36,54l0.1-0.2c0.1-0.2,0.2-0.5,0.1-0.6
				c-0.1-0.1-0.2-0.3-0.6-0.4l-4-2.2c-0.3,0.1-0.5,0.1-0.6,0.2s-0.2,0.1-0.4,0.3c-0.1,0.1-0.2,0.2-0.2,0.4L30.2,51.3z"/>
			<path class="st0" d="M40.2,36.8l1.6,1.3l-0.1,0.1c-0.5-0.2-0.9-0.3-1.3-0.3c-0.5,0-1,0.3-1.5,0.7c-0.6,0.6-0.8,1.3-0.6,2.1
				c0.2,0.7,0.5,1.2,1.1,1.8c0.5,0.4,1,0.7,1.5,0.9c0.5,0.2,1,0.2,1.5,0.1c0.4-0.1,0.8-0.3,1.1-0.6c0.2-0.2,0.3-0.4,0.4-0.6
				c0.1-0.2,0.2-0.4,0.3-0.7l-1.4-1.3c-0.2-0.2-0.4-0.4-0.5-0.4c-0.1,0-0.2,0-0.3,0s-0.3,0.2-0.4,0.4l-0.1-0.1l1.8-1.9l0.1,0.1
				l-0.1,0.1C43,38.7,43,38.9,43,39.1c0,0.1,0.2,0.3,0.5,0.6L45,41c-0.1,0.4-0.3,0.8-0.4,1.1s-0.4,0.7-0.7,1
				c-0.9,0.9-1.8,1.4-2.9,1.3c-0.8-0.1-1.5-0.4-2.1-0.9c-0.4-0.4-0.7-0.9-0.9-1.5c-0.2-0.7-0.3-1.3-0.1-2c0.1-0.5,0.4-1.1,0.9-1.5
				c0.2-0.2,0.3-0.3,0.5-0.4c0.2-0.1,0.4-0.3,0.8-0.4c0.2-0.1,0.3-0.2,0.3-0.2s0.1-0.1,0-0.2c0-0.1-0.1-0.2-0.2-0.3L40.2,36.8z"/>
			<path class="st0" d="M43.9,34.4l1.6,2.1l1.2-0.9c0.3-0.2,0.5-0.4,0.5-0.6c0-0.2,0-0.5-0.3-0.8l0.1-0.1l1.4,1.8l-0.1,0.1
				c-0.2-0.2-0.4-0.4-0.5-0.4c-0.1-0.1-0.2-0.1-0.4,0c-0.1,0-0.3,0.1-0.6,0.3l-1.2,0.9l1.3,1.7c0.2,0.2,0.3,0.4,0.4,0.4
				c0.1,0,0.1,0,0.2,0c0.1,0,0.2-0.1,0.3-0.2l0.9-0.7c0.3-0.2,0.5-0.4,0.6-0.6s0.2-0.3,0.2-0.5c0-0.3,0-0.7-0.1-1.1l0.2-0.1l0.5,1.7
				l-4.1,3.1L46,40.4l0.2-0.1c0.1-0.1,0.2-0.2,0.3-0.4c0.1-0.1,0.1-0.2,0-0.3c0-0.1-0.1-0.3-0.3-0.5l-2.6-3.4
				c-0.3-0.3-0.4-0.5-0.6-0.5c-0.2,0-0.4,0-0.6,0.2l-0.2,0.1l-0.1-0.1l4.1-3.1l0.9,1.1L47,33.4c-0.3-0.2-0.5-0.4-0.6-0.4
				s-0.3-0.1-0.5,0c-0.1,0-0.3,0.2-0.6,0.4L43.9,34.4z M44,31.2l-0.1,2.2l-0.1,0.1l-0.6-1.7L44,31.2z"/>
			<path class="st0" d="M51,29.3c0.8-0.4,1.6-0.4,2.4-0.2c0.9,0.3,1.5,0.9,2,1.7c0.5,0.9,0.6,1.8,0.3,2.7c-0.3,0.9-0.8,1.5-1.6,1.9
				c-0.8,0.4-1.6,0.5-2.5,0.2c-0.8-0.3-1.5-0.9-2-1.8c-0.5-0.9-0.6-1.9-0.2-2.8C49.7,30.3,50.2,29.7,51,29.3z M51.1,29.6
				c-0.5,0.3-0.8,0.7-1,1.2c-0.1,0.7,0,1.5,0.5,2.4c0.5,1,1.1,1.6,1.8,1.9c0.5,0.2,1,0.2,1.6-0.1c0.6-0.3,0.9-0.7,1-1.4
				c0.1-0.6,0-1.4-0.5-2.3c-0.5-1-1.1-1.7-1.8-1.9C52.2,29.3,51.6,29.3,51.1,29.6z"/>
			<path class="st0" d="M61.2,25.4l0.8,2l-0.2,0c-0.3-0.4-0.6-0.8-1-0.9c-0.5-0.3-1-0.3-1.6-0.1c-0.8,0.2-1.3,0.7-1.6,1.5
				c-0.2,0.6-0.2,1.3,0,2.1c0.2,0.6,0.5,1.1,0.8,1.6c0.4,0.4,0.8,0.7,1.2,0.8c0.4,0.1,0.9,0.1,1.3,0c0.2-0.1,0.5-0.2,0.7-0.3
				c0.2-0.1,0.4-0.3,0.6-0.5l-0.5-1.8c-0.1-0.3-0.2-0.5-0.3-0.6c-0.1-0.1-0.2-0.1-0.3-0.2s-0.3,0-0.6,0.1l-0.1-0.2l2.5-0.7l0.1,0.2
				l-0.1,0c-0.2,0.1-0.4,0.2-0.4,0.4c0,0.1,0,0.4,0.1,0.7l0.6,1.9c-0.3,0.3-0.6,0.5-0.9,0.7s-0.7,0.4-1.1,0.5
				c-1.2,0.4-2.3,0.3-3.1-0.3c-0.7-0.4-1.1-1.1-1.3-1.8c-0.2-0.6-0.2-1.1-0.1-1.7c0.1-0.7,0.4-1.3,0.9-1.8c0.4-0.4,0.9-0.7,1.5-0.9
				c0.2-0.1,0.4-0.1,0.6-0.1c0.2,0,0.5,0,0.9,0c0.2,0,0.3,0,0.4,0s0.1-0.1,0.1-0.1s0-0.2,0-0.3L61.2,25.4z"/>
			<path class="st0" d="M70.9,30.8L69.2,31l-2.6-2.8c-0.2,0-0.3,0-0.4,0.1c0,0-0.1,0-0.1,0c0,0-0.1,0-0.2,0l0.2,1.9
				c0,0.4,0.1,0.7,0.2,0.8c0.1,0.1,0.3,0.2,0.6,0.2l0.3,0l0,0.2l-2.8,0.3l0-0.2l0.2,0c0.3,0,0.5-0.1,0.6-0.3c0.1-0.1,0.1-0.3,0-0.7
				L64.7,26c0-0.4-0.1-0.7-0.2-0.8c-0.1-0.1-0.3-0.2-0.6-0.1l-0.2,0l0-0.2l2.4-0.3c0.7-0.1,1.2-0.1,1.6,0c0.3,0.1,0.6,0.2,0.9,0.5
				s0.4,0.6,0.5,0.9c0,0.4,0,0.8-0.3,1.1c-0.2,0.3-0.6,0.6-1.2,0.8l1.6,1.7c0.4,0.4,0.7,0.7,0.9,0.8c0.2,0.1,0.5,0.2,0.9,0.2
				L70.9,30.8z M65.9,28c0.1,0,0.1,0,0.2,0c0,0,0.1,0,0.1,0c0.6-0.1,1.1-0.3,1.4-0.6c0.3-0.3,0.4-0.7,0.4-1.1c0-0.4-0.2-0.7-0.5-1
				c-0.3-0.2-0.6-0.3-1.1-0.3c-0.2,0-0.4,0.1-0.8,0.2L65.9,28z"/>
			<path class="st0" d="M75.5,28.9L73,28.7l-0.5,1c-0.1,0.2-0.2,0.4-0.2,0.6c0,0.1,0,0.2,0.1,0.3c0.1,0.1,0.3,0.1,0.6,0.2l0,0.2
				l-2.1-0.1l0-0.2c0.3,0,0.5-0.1,0.5-0.2c0.2-0.1,0.4-0.4,0.6-0.9l2.7-5.3l0.2,0l1.9,5.6c0.2,0.5,0.3,0.8,0.4,0.9s0.3,0.2,0.6,0.3
				l0,0.2l-2.6-0.2l0-0.2c0.3,0,0.4,0,0.5-0.1c0.1-0.1,0.1-0.2,0.2-0.3c0-0.1,0-0.4-0.2-0.7L75.5,28.9z M75.4,28.5l-0.9-2.7
				l-1.3,2.6L75.4,28.5z"/>
			<path class="st0" d="M80.8,28.8l-0.4,1.9c-0.1,0.4-0.1,0.7,0,0.8c0.1,0.2,0.3,0.3,0.5,0.3l0.2,0.1l0,0.2l-2.8-0.6l0-0.2l0.2,0.1
				c0.3,0.1,0.5,0,0.6-0.1c0.1-0.1,0.2-0.3,0.3-0.7l1-4.2c0.1-0.4,0.1-0.7,0-0.8c-0.1-0.2-0.3-0.3-0.5-0.3l-0.2-0.1l0-0.2l2.4,0.6
				c0.6,0.1,1,0.3,1.3,0.5c0.3,0.2,0.5,0.5,0.7,0.8c0.2,0.3,0.2,0.7,0.1,1.1c-0.1,0.5-0.4,0.9-0.8,1.2c-0.4,0.2-1,0.3-1.6,0.2
				c-0.2,0-0.3-0.1-0.5-0.2S80.9,28.9,80.8,28.8z M80.8,28.5c0.2,0.1,0.3,0.1,0.4,0.2s0.2,0.1,0.3,0.1c0.3,0.1,0.6,0,0.9-0.2
				s0.5-0.5,0.6-0.9c0.1-0.3,0.1-0.6,0-0.8c-0.1-0.3-0.2-0.5-0.4-0.7c-0.2-0.2-0.4-0.3-0.7-0.3c-0.2,0-0.4-0.1-0.6-0.1L80.8,28.5z"
				/>
			<path class="st0" d="M86.8,30.1l2.8,1.2l0.7-1.8c0.1-0.3,0.2-0.5,0.2-0.6c0-0.1,0-0.2-0.1-0.3c-0.1-0.1-0.2-0.2-0.4-0.3l-0.2-0.1
				l0.1-0.2l2.6,1.1l-0.1,0.2l-0.2-0.1c-0.1-0.1-0.3-0.1-0.5-0.1c-0.1,0-0.2,0.1-0.3,0.1c-0.1,0.1-0.2,0.3-0.3,0.6l-1.6,3.9
				c-0.1,0.3-0.2,0.5-0.2,0.6c0,0.1,0,0.2,0.1,0.3c0.1,0.1,0.2,0.2,0.4,0.3l0.2,0.1L90,35.2l-2.6-1.1l0.1-0.2l0.2,0.1
				c0.3,0.1,0.5,0.1,0.6,0c0.1-0.1,0.2-0.3,0.4-0.6l0.8-1.9l-2.8-1.2l-0.8,1.9c-0.1,0.3-0.2,0.5-0.2,0.6c0,0.1,0,0.2,0.1,0.3
				c0.1,0.1,0.2,0.2,0.4,0.3l0.2,0.1l-0.1,0.2l-2.6-1.1l0.1-0.2l0.2,0.1c0.3,0.1,0.5,0.1,0.6,0c0.1-0.1,0.2-0.3,0.4-0.7l1.6-3.9
				c0.1-0.3,0.2-0.5,0.2-0.6c0-0.1,0-0.2-0.1-0.3c-0.1-0.1-0.2-0.2-0.4-0.3l-0.2-0.1l0.1-0.2l2.6,1.1l-0.1,0.2l-0.2-0.1
				c-0.1-0.1-0.3-0.1-0.5-0.1c-0.1,0-0.2,0.1-0.3,0.1s-0.2,0.3-0.3,0.6L86.8,30.1z"/>
			<path class="st0" d="M92.9,36.8L92.8,37l-2.5-1.4l0.1-0.2l0.2,0.1c0.2,0.1,0.4,0.2,0.6,0.1c0.1-0.1,0.3-0.2,0.5-0.6l2.1-3.7
				c0.2-0.3,0.3-0.5,0.3-0.6c0-0.1,0-0.2-0.1-0.3c-0.1-0.1-0.2-0.2-0.3-0.3L93.6,30l0.1-0.2l2.5,1.4L96,31.4l-0.2-0.1
				c-0.2-0.1-0.4-0.2-0.6-0.1c-0.1,0-0.3,0.2-0.5,0.6l-2.1,3.7c-0.2,0.3-0.3,0.5-0.3,0.6c0,0.1,0,0.2,0.1,0.3
				c0.1,0.1,0.2,0.2,0.3,0.3L92.9,36.8z"/>
			<path class="st0" d="M96.5,39.8c-0.1,0.7-0.1,1.2,0.1,1.7c0.1,0.4,0.4,0.8,0.8,1.2l-0.1,0.1c-0.3-0.3-0.7-0.7-1-1.1
				c-0.3-0.4-0.5-0.9-0.7-1.4s-0.3-1-0.4-1.5c-0.3-0.4-0.4-0.8-0.5-1.2c-0.1-0.5-0.1-1,0-1.5c0.1-0.5,0.4-1,0.7-1.5
				c0.6-0.8,1.4-1.2,2.3-1.4c0.9-0.1,1.7,0.1,2.4,0.6c0.7,0.5,1.1,1.2,1.2,2.2c0.1,0.9-0.2,1.8-0.8,2.5c-0.5,0.6-1.1,1.1-1.8,1.3
				C98,40.1,97.2,40,96.5,39.8z M99.8,34.1c-0.5-0.4-1-0.5-1.5-0.4c-0.7,0.1-1.4,0.6-2,1.5c-0.7,0.8-1,1.6-1,2.4
				c0,0.6,0.2,1,0.7,1.4c0.5,0.4,1,0.5,1.6,0.4c0.7-0.1,1.3-0.6,2-1.4c0.5-0.6,0.8-1.2,0.9-1.8c0.1-0.4,0.1-0.8,0-1.2
				C100.4,34.7,100.1,34.4,99.8,34.1z"/>
			<path class="st0" d="M106.8,40.7l0.1-0.1l1.6,1.8l-0.1,0.1l-0.2-0.2c-0.2-0.2-0.4-0.3-0.6-0.2c-0.1,0-0.3,0.1-0.6,0.4l-2,1.8
				c-0.5,0.4-0.9,0.7-1.3,0.9c-0.4,0.1-0.8,0.2-1.2,0c-0.5-0.1-0.9-0.4-1.3-0.9c-0.5-0.5-0.7-1-0.8-1.5c-0.1-0.4,0-0.9,0.2-1.3
				c0.1-0.3,0.5-0.7,1.1-1.2l1.9-1.7c0.3-0.3,0.5-0.5,0.5-0.7c0-0.2-0.1-0.3-0.2-0.5l-0.2-0.2l0.1-0.1l1.9,2.1l-0.1,0.1l-0.2-0.2
				c-0.2-0.2-0.4-0.3-0.6-0.3c-0.1,0-0.4,0.1-0.6,0.4l-2.2,1.9c-0.2,0.2-0.4,0.4-0.6,0.6c-0.2,0.3-0.4,0.5-0.4,0.7
				c-0.1,0.2-0.1,0.5,0,0.7c0.1,0.3,0.2,0.5,0.4,0.8c0.3,0.3,0.6,0.6,1,0.7s0.7,0.1,1,0c0.3-0.1,0.7-0.4,1.2-0.9l2-1.8
				c0.3-0.3,0.5-0.5,0.5-0.6c0-0.2,0-0.4-0.2-0.6L106.8,40.7z"/>
			<path class="st0" d="M110,45.4l-2.2,1.4l0.8,1.2c0.2,0.3,0.4,0.5,0.5,0.6c0.2,0.1,0.5,0,0.8-0.2l0.1,0.2l-2,1.2l-0.1-0.2
				c0.3-0.2,0.4-0.4,0.5-0.4c0.1-0.1,0.1-0.2,0.1-0.4c0-0.1-0.1-0.3-0.2-0.6l-0.8-1.2l-1.9,1.1c-0.3,0.2-0.4,0.3-0.4,0.3
				c0,0.1-0.1,0.1-0.1,0.2c0,0.1,0.1,0.2,0.1,0.3l0.6,1c0.2,0.3,0.4,0.5,0.5,0.7s0.3,0.2,0.5,0.3c0.3,0.1,0.6,0.1,1.1,0.1l0.1,0.2
				l-1.7,0.4l-2.7-4.4l0.2-0.1l0.1,0.2c0.1,0.1,0.2,0.2,0.3,0.3c0.1,0.1,0.2,0.1,0.3,0.1c0.1,0,0.3-0.1,0.6-0.3l3.7-2.2
				c0.4-0.2,0.6-0.4,0.6-0.5c0-0.2,0-0.4-0.1-0.6l-0.1-0.2l0.2-0.1L112,48l-1.2,0.8l-0.1-0.2c0.3-0.2,0.4-0.4,0.5-0.6
				c0.1-0.1,0.1-0.3,0.1-0.5c0-0.1-0.1-0.3-0.3-0.6L110,45.4z"/>
			<path class="st0" d="M111.4,55.3l-1.8,0.6c-0.4,0.1-0.6,0.3-0.7,0.4c-0.1,0.2-0.1,0.4,0,0.6l0.1,0.2l-0.2,0.1l-0.9-2.7l0.2-0.1
				l0.1,0.2c0.1,0.3,0.2,0.4,0.5,0.5c0.1,0,0.4,0,0.7-0.1l4-1.4c0.4-0.1,0.6-0.3,0.7-0.4c0.1-0.2,0.1-0.4,0-0.6l-0.1-0.2l0.2-0.1
				l0.8,2.3c0.2,0.6,0.3,1,0.3,1.4c0,0.4-0.1,0.7-0.3,1c-0.2,0.3-0.5,0.5-0.9,0.7c-0.5,0.2-1,0.1-1.4-0.1c-0.4-0.2-0.8-0.7-1-1.3
				c-0.1-0.2-0.1-0.3-0.1-0.5C111.5,55.7,111.4,55.5,111.4,55.3z M111.7,55.2c0,0.2,0.1,0.3,0.1,0.5c0,0.1,0.1,0.2,0.1,0.3
				c0.1,0.3,0.3,0.6,0.7,0.7s0.7,0.2,1.1,0c0.3-0.1,0.5-0.2,0.7-0.4c0.2-0.2,0.3-0.4,0.4-0.6c0-0.2,0-0.5-0.1-0.8
				c-0.1-0.2-0.2-0.3-0.3-0.6L111.7,55.2z"/>
			<path class="st0" d="M110.8,66.3l-0.3-1.7l2.7-2.7c0-0.2-0.1-0.3-0.1-0.4c0,0,0-0.1,0-0.1c0,0,0-0.1,0-0.2l-1.9,0.3
				c-0.4,0.1-0.7,0.2-0.7,0.3c-0.1,0.1-0.2,0.3-0.1,0.6l0,0.3l-0.2,0l-0.5-2.8l0.2,0l0,0.2c0,0.3,0.2,0.5,0.4,0.5
				c0.1,0.1,0.4,0,0.7,0l4.2-0.7c0.4-0.1,0.7-0.2,0.7-0.3c0.1-0.1,0.2-0.3,0.1-0.6l0-0.2l0.2,0l0.4,2.4c0.1,0.7,0.2,1.2,0.1,1.6
				s-0.2,0.7-0.4,0.9c-0.2,0.3-0.5,0.4-0.9,0.5c-0.4,0.1-0.8,0-1.1-0.2c-0.3-0.2-0.6-0.6-0.8-1.1l-1.6,1.7c-0.4,0.4-0.6,0.7-0.7,0.9
				c-0.1,0.2-0.1,0.5-0.1,0.9L110.8,66.3z M113.3,61.1c0,0.1,0,0.1,0,0.2c0,0,0,0.1,0,0.1c0.1,0.6,0.3,1.1,0.6,1.3
				c0.3,0.3,0.7,0.4,1.1,0.3c0.4-0.1,0.7-0.3,0.9-0.6c0.2-0.3,0.3-0.7,0.2-1.1c0-0.2-0.1-0.4-0.2-0.7L113.3,61.1z"/>
			<path class="st0" d="M117.6,70c0,0.9-0.4,1.6-1,2.2c-0.7,0.6-1.5,0.9-2.5,0.9c-1,0-1.8-0.3-2.5-1c-0.7-0.6-1-1.4-1-2.3
				c0-0.9,0.4-1.7,1-2.3c0.7-0.6,1.5-0.9,2.5-0.9c1.1,0,1.9,0.4,2.6,1.1C117.3,68.4,117.6,69.2,117.6,70z M117.2,69.9
				c0-0.6-0.2-1.1-0.6-1.4c-0.5-0.5-1.3-0.7-2.4-0.7c-1.1,0-1.9,0.2-2.5,0.7c-0.4,0.3-0.7,0.8-0.7,1.4c0,0.6,0.2,1.1,0.7,1.6
				s1.2,0.6,2.3,0.6c1.1,0,2-0.2,2.5-0.6C117,71,117.2,70.6,117.2,69.9z"/>
			<path class="st0" d="M116.3,80.3l-1.5-0.2l0-0.2c0.3,0,0.5,0,0.6,0c0.2-0.1,0.4-0.2,0.5-0.3c0.1-0.2,0.2-0.4,0.2-0.6l0.2-0.9
				l-5-0.8c-0.4-0.1-0.7-0.1-0.8,0c-0.2,0.1-0.3,0.3-0.3,0.5l0,0.2l-0.2,0l0.5-2.8l0.2,0l0,0.2c0,0.3,0,0.5,0.2,0.6
				c0.1,0.1,0.3,0.2,0.7,0.2l5,0.8l0.1-0.8c0.1-0.3,0.1-0.5,0-0.7c0-0.2-0.1-0.3-0.3-0.5c-0.2-0.1-0.4-0.3-0.7-0.3l0-0.2l1.5,0.3
				L116.3,80.3z"/>
			<path class="st0" d="M115,83.5l-2.5-0.8L112,84c-0.1,0.4-0.1,0.6-0.1,0.8c0.1,0.2,0.3,0.4,0.7,0.5l-0.1,0.2l-2.2-0.7l0.1-0.2
				c0.3,0.1,0.5,0.1,0.6,0.1c0.1,0,0.2-0.1,0.3-0.2c0.1-0.1,0.2-0.3,0.3-0.6l0.5-1.4l-2.1-0.7c-0.3-0.1-0.5-0.1-0.5-0.1
				c-0.1,0-0.1,0-0.2,0.1c-0.1,0-0.1,0.2-0.2,0.3l-0.4,1.1c-0.1,0.4-0.2,0.6-0.2,0.8c0,0.2,0,0.4,0.1,0.6c0.1,0.3,0.3,0.5,0.7,0.9
				l-0.1,0.2l-1.4-1.1l1.6-4.8l0.2,0.1l-0.1,0.2c0,0.1-0.1,0.3,0,0.5c0,0.1,0.1,0.2,0.2,0.3c0.1,0.1,0.3,0.2,0.6,0.3l4.1,1.4
				c0.4,0.1,0.7,0.2,0.8,0.1c0.2-0.1,0.3-0.2,0.4-0.5l0.1-0.2l0.2,0.1l-1.6,4.8l-1.4-0.4l0.1-0.2c0.4,0,0.6,0.1,0.8,0
				c0.1,0,0.3-0.1,0.4-0.3c0.1-0.1,0.2-0.3,0.3-0.6L115,83.5z M116.7,86.3l-1.1-1.9l0.1-0.2l1.4,1L116.7,86.3z"/>
			<path class="st0" d="M110.8,94l-1.9-0.9l0.1-0.1c0.5,0.1,1,0.1,1.4,0c0.5-0.2,0.9-0.5,1.2-1.1c0.4-0.7,0.4-1.5,0.1-2.2
				c-0.3-0.6-0.8-1.1-1.5-1.5c-0.6-0.3-1.1-0.5-1.7-0.5c-0.6,0-1.1,0.1-1.5,0.3c-0.4,0.2-0.7,0.5-0.9,0.9c-0.1,0.2-0.2,0.4-0.3,0.7
				c-0.1,0.2-0.1,0.5-0.1,0.7l1.7,0.9c0.3,0.2,0.5,0.2,0.6,0.2c0.1,0,0.2,0,0.3-0.1c0.1-0.1,0.2-0.2,0.3-0.5l0.2,0.1l-1.2,2.2
				l-0.2-0.1l0.1-0.1c0.1-0.2,0.1-0.4,0-0.6c-0.1-0.1-0.3-0.3-0.6-0.4l-1.8-1c0-0.4,0.1-0.8,0.1-1.2s0.2-0.7,0.5-1.1
				c0.6-1.1,1.4-1.8,2.5-2c0.8-0.1,1.5,0,2.2,0.4c0.5,0.3,0.9,0.7,1.3,1.2c0.4,0.6,0.6,1.2,0.6,1.9c0,0.6-0.1,1.1-0.5,1.7
				c-0.1,0.2-0.2,0.4-0.4,0.5c-0.1,0.2-0.3,0.4-0.6,0.6c-0.1,0.1-0.2,0.2-0.3,0.3c0,0.1,0,0.1,0,0.2c0,0.1,0.1,0.1,0.3,0.2L110.8,94
				z"/>
			<path class="st0" d="M107.8,97.2l-2-1.6l-0.9,1.1c-0.2,0.3-0.4,0.5-0.3,0.7c0,0.2,0.2,0.5,0.4,0.7l-0.1,0.1l-1.8-1.4l0.1-0.1
				c0.3,0.2,0.5,0.3,0.6,0.3c0.1,0,0.3,0,0.4-0.1s0.3-0.2,0.5-0.4l0.9-1.1l-1.7-1.4c-0.2-0.2-0.4-0.3-0.4-0.3c-0.1,0-0.1,0-0.2,0
				s-0.2,0.1-0.3,0.3l-0.7,0.9c-0.2,0.3-0.4,0.5-0.5,0.7c-0.1,0.2-0.1,0.4-0.1,0.6c0,0.3,0.1,0.6,0.3,1.1l-0.1,0.2l-0.9-1.5l3.2-4
				l0.1,0.1l-0.1,0.2c-0.1,0.1-0.2,0.3-0.2,0.4c0,0.1,0,0.2,0,0.3c0.1,0.1,0.2,0.2,0.5,0.4l3.3,2.7c0.3,0.3,0.6,0.4,0.7,0.4
				c0.2,0,0.3-0.1,0.5-0.3l0.1-0.2l0.1,0.1l-3.2,4l-1.2-0.9l0.1-0.1c0.3,0.2,0.5,0.3,0.7,0.3c0.2,0,0.3,0,0.5-0.1
				c0.1-0.1,0.3-0.2,0.5-0.5L107.8,97.2z M108.5,100.4l-0.4-2.2l0.1-0.1l1,1.5L108.5,100.4z"/>
			<path class="st0" d="M103,102.4l-1.8-1.9l-1.1,1c-0.3,0.3-0.4,0.5-0.4,0.6c0,0.2,0.1,0.5,0.3,0.8L100,103l-1.5-1.7l0.1-0.1
				c0.3,0.2,0.4,0.3,0.5,0.4c0.1,0,0.3,0,0.4,0c0.1,0,0.3-0.2,0.5-0.3l1.1-1l-1.5-1.6c-0.2-0.2-0.3-0.3-0.4-0.4c-0.1,0-0.1,0-0.2,0
				c-0.1,0-0.2,0.1-0.3,0.2l-0.8,0.8c-0.3,0.3-0.5,0.5-0.6,0.6c-0.1,0.2-0.1,0.3-0.2,0.6c0,0.3,0,0.7,0.2,1.1l-0.1,0.1l-0.7-1.6
				l3.8-3.4l0.1,0.1l-0.2,0.2c-0.1,0.1-0.2,0.2-0.3,0.4c0,0.1,0,0.2,0,0.3c0,0.1,0.2,0.3,0.4,0.5l2.9,3.2c0.3,0.3,0.5,0.5,0.6,0.5
				c0.2,0,0.4-0.1,0.6-0.2l0.2-0.2l0.1,0.1l-3.8,3.4l-1-1l0.1-0.1c0.3,0.2,0.5,0.3,0.7,0.4s0.3,0,0.5,0c0.1-0.1,0.3-0.2,0.6-0.4
				L103,102.4z"/>
			<path class="st0" d="M94.7,106.7c-0.3,0.2-0.6,0.2-0.9,0.1c-0.3-0.1-0.6-0.3-0.8-0.5s-0.2-0.6-0.1-0.9c0.1-0.3,0.3-0.6,0.6-0.8
				c0.3-0.2,0.6-0.2,0.9-0.1c0.3,0.1,0.6,0.3,0.8,0.5c0.2,0.3,0.2,0.6,0.2,0.9S95,106.5,94.7,106.7z"/>
		</g>
	</g>
</g>
<g>
</g>
</svg>
