<?xml version="1.0" encoding="UTF-8"?>
<!DOCTYPE svg PUBLIC "-//W3C//DTD SVG 1.1//EN" "http://www.w3.org/Graphics/SVG/1.1/DTD/svg11.dtd">
<svg xmlns="http://www.w3.org/2000/svg" version="1.1" width="469px" height="500px" style="shape-rendering:geometricPrecision; text-rendering:geometricPrecision; image-rendering:optimizeQuality; fill-rule:evenodd; clip-rule:evenodd" xmlns:xlink="http://www.w3.org/1999/xlink">
<g><path style="opacity:1" fill="#f9f9f9" d="M -0.5,-0.5 C 155.833,-0.5 312.167,-0.5 468.5,-0.5C 468.5,166.167 468.5,332.833 468.5,499.5C 312.167,499.5 155.833,499.5 -0.5,499.5C -0.5,332.833 -0.5,166.167 -0.5,-0.5 Z"/></g>
<g><path style="opacity:1" fill="#00013e" d="M 240.5,75.5 C 240.241,79.2396 240.574,82.9062 241.5,86.5C 241.018,90.6256 239.018,93.6256 235.5,95.5C 235.5,94.1667 235.5,92.8333 235.5,91.5C 237.026,90.5081 237.693,89.0081 237.5,87C 237.561,84.7207 236.895,82.7207 235.5,81C 238.146,78.96 238.146,76.96 235.5,75C 234.551,74.3828 233.718,74.5494 233,75.5C 232.067,70.5492 232.734,65.8825 235,61.5C 236.05,66.5815 237.884,71.2481 240.5,75.5 Z"/></g>
<g><path style="opacity:1" fill="#01043c" d="M 234.5,90.5 C 233.833,90.5 233.5,90.8333 233.5,91.5C 232.518,94.7635 231.851,98.0968 231.5,101.5C 230.13,104.619 229.13,107.952 228.5,111.5C 227.504,111.586 226.671,111.252 226,110.5C 224.478,118.92 222.478,127.254 220,135.5C 219.282,136.451 218.449,136.617 217.5,136C 218.459,134.293 219.125,132.459 219.5,130.5C 218.484,128.547 217.484,127.047 216.5,126C 217.03,123.793 218.03,121.793 219.5,120C 218.346,119.086 218.513,118.253 220,117.5C 220.395,112.216 221.895,107.382 224.5,103C 223.507,100.547 223.34,98.0472 224,95.5C 225.098,94.0325 226.598,93.1992 228.5,93C 228,92.5 227.5,92 227,91.5C 226.922,89.3435 226.755,87.3435 226.5,85.5C 228.203,82.3472 229.536,79.0139 230.5,75.5C 231.115,78.4362 232.282,81.1029 234,83.5C 234.497,85.8098 234.663,88.1432 234.5,90.5 Z"/></g>
<g><path style="opacity:1" fill="#0c123d" d="M 240.5,75.5 C 237.884,71.2481 236.05,66.5815 235,61.5C 232.734,65.8825 232.067,70.5492 233,75.5C 233.718,74.5494 234.551,74.3828 235.5,75C 238.146,76.96 238.146,78.96 235.5,81C 236.895,82.7207 237.561,84.7207 237.5,87C 237.693,89.0081 237.026,90.5081 235.5,91.5C 235.5,90.8333 235.167,90.5 234.5,90.5C 234.663,88.1432 234.497,85.8098 234,83.5C 232.282,81.1029 231.115,78.4362 230.5,75.5C 229.536,79.0139 228.203,82.3472 226.5,85.5C 226.755,87.3435 226.922,89.3435 227,91.5C 227.5,92 228,92.5 228.5,93C 226.598,93.1992 225.098,94.0325 224,95.5C 223.34,98.0472 223.507,100.547 224.5,103C 221.895,107.382 220.395,112.216 220,117.5C 218.513,118.253 218.346,119.086 219.5,120C 218.03,121.793 217.03,123.793 216.5,126C 217.484,127.047 218.484,128.547 219.5,130.5C 219.125,132.459 218.459,134.293 217.5,136C 218.449,136.617 219.282,136.451 220,135.5C 222.478,127.254 224.478,118.92 226,110.5C 226.671,111.252 227.504,111.586 228.5,111.5C 226.501,119.497 224.501,127.497 222.5,135.5C 221.076,137.515 220.41,139.848 220.5,142.5C 220.5,143.167 220.167,143.5 219.5,143.5C 219.921,140.343 218.755,138.01 216,136.5C 215.667,135.167 215.333,133.833 215,132.5C 214,137.5 213,142.5 212,147.5C 210.608,149.842 209.775,149.842 209.5,147.5C 216.895,115.919 225.229,84.5856 234.5,53.5C 237.382,60.5697 239.382,67.9031 240.5,75.5 Z"/></g>
<g><path style="opacity:1" fill="#010839" d="M 240.5,75.5 C 243.434,84.5683 245.767,93.9016 247.5,103.5C 246.85,103.196 246.183,102.863 245.5,102.5C 244.804,99.4436 243.97,96.4436 243,93.5C 240.704,100.214 241.371,106.547 245,112.5C 244.779,132.384 243.779,132.384 242,112.5C 241.395,110.519 240.395,110.185 239,111.5C 238.667,108.5 238.333,105.5 238,102.5C 237.23,101.402 236.397,101.402 235.5,102.5C 235.5,100.167 235.5,97.8333 235.5,95.5C 239.018,93.6256 241.018,90.6256 241.5,86.5C 240.574,82.9062 240.241,79.2396 240.5,75.5 Z"/></g>
<g><path style="opacity:1" fill="#f2f3f5" d="M 226.5,147.5 C 223.941,147.802 221.607,147.468 219.5,146.5C 219.5,145.5 219.5,144.5 219.5,143.5C 220.167,143.5 220.5,143.167 220.5,142.5C 221.924,140.485 222.59,138.152 222.5,135.5C 224.501,127.497 226.501,119.497 228.5,111.5C 229.13,107.952 230.13,104.619 231.5,101.5C 232.268,100.737 232.768,99.7375 233,98.5C 233.5,114.497 233.667,130.497 233.5,146.5C 230.941,146.198 228.607,146.532 226.5,147.5 Z"/></g>
<g><path style="opacity:1" fill="#c8cae1" d="M 233.5,91.5 C 234.497,109.993 234.83,128.659 234.5,147.5C 232.167,147.5 229.833,147.5 227.5,147.5C 227.167,147.5 226.833,147.5 226.5,147.5C 228.607,146.532 230.941,146.198 233.5,146.5C 233.667,130.497 233.5,114.497 233,98.5C 232.768,99.7375 232.268,100.737 231.5,101.5C 231.851,98.0968 232.518,94.7635 233.5,91.5 Z"/></g>
<g><path style="opacity:1" fill="#00013e" d="M 247.5,103.5 C 248.338,103.842 248.672,104.508 248.5,105.5C 248.216,108.777 248.549,111.943 249.5,115C 247.741,116.764 247.574,118.931 249,121.5C 249.333,121.167 249.667,120.833 250,120.5C 250.789,124.091 250.622,127.591 249.5,131C 251.282,131.814 252.782,132.981 254,134.5C 255.499,138.651 256.999,142.818 258.5,147C 257.833,147.333 257.167,147.667 256.5,148C 258.628,149.667 259.961,151.834 260.5,154.5C 262.388,151.546 265.055,149.546 268.5,148.5C 269.32,146.681 270.32,145.014 271.5,143.5C 273.922,144.085 275.589,145.585 276.5,148C 274.285,148.17 272.285,148.837 270.5,150C 270.833,150.333 271.167,150.667 271.5,151C 266.752,156.497 267.752,158.83 274.5,158C 276.717,159.275 279.051,160.275 281.5,161C 282.357,161.689 283.023,162.522 283.5,163.5C 278.314,165.722 274.481,164.389 272,159.5C 271.362,160.609 270.862,161.775 270.5,163C 274.433,165.746 274.433,168.579 270.5,171.5C 271.548,172.548 272.548,173.548 273.5,174.5C 273.423,175.75 272.756,176.583 271.5,177C 271.833,177.333 272.167,177.667 272.5,178C 271.667,178.167 270.833,178.333 270,178.5C 268.011,176.819 265.844,175.486 263.5,174.5C 263.657,173.127 263.49,171.793 263,170.5C 261.404,172.936 259.571,173.436 257.5,172C 258.833,171.667 260.167,171.333 261.5,171C 260.888,169.697 260.554,168.53 260.5,167.5C 259.833,168.5 259.167,169.5 258.5,170.5C 257.573,169.094 256.573,167.594 255.5,166C 250.136,165.829 244.802,165.329 239.5,164.5C 238.855,163.354 238.022,162.354 237,161.5C 231.049,162.627 224.215,162.793 216.5,162C 215.167,163.333 215.167,164.667 216.5,166C 219.956,166.18 223.289,166.847 226.5,168C 224.316,168.867 222.149,169.701 220,170.5C 217.11,169.87 214.276,169.037 211.5,168C 212.308,167.692 212.975,167.192 213.5,166.5C 211.604,165.534 209.604,165.201 207.5,165.5C 207.5,164.167 207.5,162.833 207.5,161.5C 209.604,161.799 211.604,161.466 213.5,160.5C 212.012,158.423 210.012,157.423 207.5,157.5C 207.719,158.675 207.386,159.675 206.5,160.5C 205.575,159.359 204.741,159.359 204,160.5C 203.798,158.744 203.298,157.078 202.5,155.5C 199.147,153.799 195.814,152.132 192.5,150.5C 191.534,152.396 191.201,154.396 191.5,156.5C 199.962,156.03 200.962,157.863 194.5,162C 195.833,162.667 195.833,163.333 194.5,164C 190.83,164.548 187.163,165.048 183.5,165.5C 184.263,164.732 185.263,164.232 186.5,164C 185.289,163.107 185.289,162.274 186.5,161.5C 187.72,160.289 188.887,160.289 190,161.5C 190.692,160.975 191.192,160.308 191.5,159.5C 189.994,158.253 188.494,158.253 187,159.5C 186.517,158.552 186.351,157.552 186.5,156.5C 189.598,156.587 189.932,156.087 187.5,155C 188.934,152.051 188.768,149.218 187,146.5C 185.955,149.154 184.455,151.488 182.5,153.5C 180.309,152.119 178.976,150.119 178.5,147.5C 177.583,146.873 176.583,146.539 175.5,146.5C 175.5,146.167 175.5,145.833 175.5,145.5C 175.003,143.403 174.67,141.57 174.5,140C 175,139.5 175.5,139 176,138.5C 177.401,140.192 179.234,140.859 181.5,140.5C 181.5,139.167 181.5,137.833 181.5,136.5C 177.262,136.114 176.596,134.448 179.5,131.5C 181.773,132.375 182.773,134.042 182.5,136.5C 186.334,137.324 190.001,138.658 193.5,140.5C 198.427,143.42 203.094,146.754 207.5,150.5C 208.176,149.398 208.842,148.398 209.5,147.5C 209.775,149.842 210.608,149.842 212,147.5C 213,142.5 214,137.5 215,132.5C 215.333,133.833 215.667,135.167 216,136.5C 218.755,138.01 219.921,140.343 219.5,143.5C 218.5,143.5 217.5,143.5 216.5,143.5C 216.5,145.5 216.5,147.5 216.5,149.5C 218.376,151.291 221.042,152.124 224.5,152C 223.62,153.356 223.286,154.856 223.5,156.5C 221.436,156.687 219.436,157.187 217.5,158C 218.167,158.333 218.833,158.667 219.5,159C 223.321,159.06 226.987,159.06 230.5,159C 230.833,158.667 231.167,158.333 231.5,158C 230.167,157.333 228.833,156.667 227.5,156C 228.167,155.667 228.833,155.333 229.5,155C 227.842,154.275 227.342,153.108 228,151.5C 230.041,150.577 232.208,150.244 234.5,150.5C 233.408,155.123 235.075,156.956 239.5,156C 240.081,155.107 240.415,154.107 240.5,153C 239.729,150.729 238.729,148.562 237.5,146.5C 237.868,145.09 238.701,144.09 240,143.5C 240.667,138.5 240.667,133.5 240,128.5C 239.333,127.167 238.667,127.167 238,128.5C 237.667,133.5 237.333,138.5 237,143.5C 236.617,142.944 236.117,142.611 235.5,142.5C 235.5,129.167 235.5,115.833 235.5,102.5C 236.397,101.402 237.23,101.402 238,102.5C 238.333,105.5 238.667,108.5 239,111.5C 240.395,110.185 241.395,110.519 242,112.5C 243.779,132.384 244.779,132.384 245,112.5C 241.371,106.547 240.704,100.214 243,93.5C 243.97,96.4436 244.804,99.4436 245.5,102.5C 246.183,102.863 246.85,103.196 247.5,103.5 Z"/></g>
<g><path style="opacity:1" fill="#1f254b" d="M 233.5,91.5 C 233.5,90.8333 233.833,90.5 234.5,90.5C 235.167,90.5 235.5,90.8333 235.5,91.5C 235.5,92.8333 235.5,94.1667 235.5,95.5C 235.5,97.8333 235.5,100.167 235.5,102.5C 235.5,115.833 235.5,129.167 235.5,142.5C 235.784,144.415 235.451,146.081 234.5,147.5C 234.83,128.659 234.497,109.993 233.5,91.5 Z"/></g>
<g><path style="opacity:1" fill="#b8bbd1" d="M 154.5,113.5 C 156.126,120.615 157.126,127.948 157.5,135.5C 155.532,128.434 154.532,121.1 154.5,113.5 Z"/></g>
<g><path style="opacity:1" fill="#030a3a" d="M 193.5,140.5 C 190.001,138.658 186.334,137.324 182.5,136.5C 182.773,134.042 181.773,132.375 179.5,131.5C 176.596,134.448 177.262,136.114 181.5,136.5C 181.5,137.833 181.5,139.167 181.5,140.5C 179.234,140.859 177.401,140.192 176,138.5C 175.5,139 175,139.5 174.5,140C 174.67,141.57 175.003,143.403 175.5,145.5C 172.193,141.574 169.36,137.24 167,132.5C 167.863,143.804 168.863,155.137 170,166.5C 170.601,168.359 171.434,168.692 172.5,167.5C 176.349,165.411 180.016,163.078 183.5,160.5C 180.772,156.127 178.105,151.794 175.5,147.5C 175.5,147.167 175.5,146.833 175.5,146.5C 176.583,146.539 177.583,146.873 178.5,147.5C 178.976,150.119 180.309,152.119 182.5,153.5C 184.455,151.488 185.955,149.154 187,146.5C 188.768,149.218 188.934,152.051 187.5,155C 189.932,156.087 189.598,156.587 186.5,156.5C 186.351,157.552 186.517,158.552 187,159.5C 188.494,158.253 189.994,158.253 191.5,159.5C 191.192,160.308 190.692,160.975 190,161.5C 188.887,160.289 187.72,160.289 186.5,161.5C 185.289,162.274 185.289,163.107 186.5,164C 185.263,164.232 184.263,164.732 183.5,165.5C 180.978,165.128 178.978,165.961 177.5,168C 180.593,171.307 179.926,173.141 175.5,173.5C 176.055,169.416 175.055,168.749 172.5,171.5C 173.309,173.071 173.643,174.738 173.5,176.5C 172.178,176.67 171.011,176.337 170,175.5C 170.305,173.557 170.305,171.557 170,169.5C 168.702,168.44 167.535,167.274 166.5,166C 167.601,158.697 167.268,151.197 165.5,143.5C 164.692,143.192 164.025,142.692 163.5,142C 164.934,139.051 164.768,136.218 163,133.5C 158.917,141.16 159.084,148.826 163.5,156.5C 162.465,162.364 162.465,168.03 163.5,173.5C 165.707,176.741 164.874,179.407 161,181.5C 160.097,180.299 158.931,179.465 157.5,179C 151.472,178.83 145.472,178.33 139.5,177.5C 136.574,175.921 133.407,174.921 130,174.5C 126.9,176.249 124.4,178.582 122.5,181.5C 121.433,179.259 119.766,177.426 117.5,176C 117.833,175.667 118.167,175.333 118.5,175C 115.602,174.564 113.269,173.397 111.5,171.5C 124.784,173.302 138.117,174.636 151.5,175.5C 154.997,176.402 158.663,177.069 162.5,177.5C 162.795,175.265 162.461,173.265 161.5,171.5C 160.817,159.41 159.484,147.41 157.5,135.5C 157.126,127.948 156.126,120.615 154.5,113.5C 154.369,112.624 154.702,111.957 155.5,111.5C 156.7,112.531 158.034,113.365 159.5,114C 171.019,122.697 182.353,131.53 193.5,140.5 Z"/></g>
<g><path style="opacity:1" fill="#bebfd6" d="M 313.5,121.5 C 313.321,129.408 312.321,137.074 310.5,144.5C 310.765,136.604 311.765,128.937 313.5,121.5 Z"/></g>
<g><path style="opacity:1" fill="#0b123e" d="M 248.5,105.5 C 252.969,119.759 256.969,134.259 260.5,149C 260.833,149.5 261.167,150 261.5,150.5C 264.317,147.337 267.65,145.004 271.5,143.5C 270.32,145.014 269.32,146.681 268.5,148.5C 265.055,149.546 262.388,151.546 260.5,154.5C 259.961,151.834 258.628,149.667 256.5,148C 257.167,147.667 257.833,147.333 258.5,147C 256.999,142.818 255.499,138.651 254,134.5C 252.782,132.981 251.282,131.814 249.5,131C 250.622,127.591 250.789,124.091 250,120.5C 249.667,120.833 249.333,121.167 249,121.5C 247.574,118.931 247.741,116.764 249.5,115C 248.549,111.943 248.216,108.777 248.5,105.5 Z"/></g>
<g><path style="opacity:1" fill="#a6a8c2" d="M 222.5,135.5 C 222.59,138.152 221.924,140.485 220.5,142.5C 220.41,139.848 221.076,137.515 222.5,135.5 Z"/></g>
<g><path style="opacity:1" fill="#e1e3ec" d="M 175.5,145.5 C 175.5,145.833 175.5,146.167 175.5,146.5C 175.5,146.833 175.5,147.167 175.5,147.5C 173.908,146.398 173.075,147.065 173,149.5C 172.529,147.754 171.862,146.087 171,144.5C 170.09,149.664 170.59,154.664 172.5,159.5C 174.123,158.509 175.123,159.176 175.5,161.5C 174.47,161.554 173.303,161.888 172,162.5C 171.22,164.387 171.387,166.054 172.5,167.5C 171.434,168.692 170.601,168.359 170,166.5C 168.863,155.137 167.863,143.804 167,132.5C 169.36,137.24 172.193,141.574 175.5,145.5 Z"/></g>
<g><path style="opacity:1" fill="#00013e" d="M 306.5,159.5 C 305.013,166.06 304.68,172.393 305.5,178.5C 306.216,179.311 307.05,179.978 308,180.5C 311.923,178.85 316.089,178.017 320.5,178C 320.167,177.667 319.833,177.333 319.5,177C 321.833,176.333 324.167,176.333 326.5,177C 326.854,178.626 326.854,180.459 326.5,182.5C 321.464,182.062 316.631,182.728 312,184.5C 310.644,183.62 309.144,183.286 307.5,183.5C 307.617,185.484 306.95,187.15 305.5,188.5C 301.954,189.876 298.787,191.876 296,194.5C 296.114,199.335 294.948,199.502 292.5,195C 293.573,193.584 293.573,192.25 292.5,191C 288.569,190.877 285.902,189.044 284.5,185.5C 283.264,186.246 281.93,186.579 280.5,186.5C 280.167,186.5 279.833,186.5 279.5,186.5C 278.587,184.914 278.587,183.414 279.5,182C 278.328,181.581 277.328,180.915 276.5,180C 278.267,178.882 280.101,178.382 282,178.5C 284.047,179.609 286.213,180.276 288.5,180.5C 288.5,179.5 288.5,178.5 288.5,177.5C 287.5,177.5 286.5,177.5 285.5,177.5C 285.759,173.76 285.426,170.094 284.5,166.5C 285.628,165.738 286.795,165.071 288,164.5C 288.333,162.167 288.667,159.833 289,157.5C 290.878,160.45 293.378,161.117 296.5,159.5C 297.132,157.263 298.465,155.597 300.5,154.5C 301.189,152.556 301.689,150.556 302,148.5C 302.833,149.333 303.667,150.167 304.5,151C 303.223,153.466 303.223,155.966 304.5,158.5C 304.533,157.011 305.033,155.678 306,154.5C 306.494,156.134 306.66,157.801 306.5,159.5 Z"/></g>
<g><path style="opacity:1" fill="#010538" d="M 219.5,143.5 C 219.5,144.5 219.5,145.5 219.5,146.5C 218.957,146.56 218.624,146.893 218.5,147.5C 221.645,148.803 224.645,148.803 227.5,147.5C 229.833,147.5 232.167,147.5 234.5,147.5C 235.451,146.081 235.784,144.415 235.5,142.5C 236.117,142.611 236.617,142.944 237,143.5C 237.333,138.5 237.667,133.5 238,128.5C 238.667,127.167 239.333,127.167 240,128.5C 240.667,133.5 240.667,138.5 240,143.5C 238.701,144.09 237.868,145.09 237.5,146.5C 238.729,148.562 239.729,150.729 240.5,153C 240.415,154.107 240.081,155.107 239.5,156C 235.075,156.956 233.408,155.123 234.5,150.5C 232.208,150.244 230.041,150.577 228,151.5C 227.342,153.108 227.842,154.275 229.5,155C 228.833,155.333 228.167,155.667 227.5,156C 228.833,156.667 230.167,157.333 231.5,158C 231.167,158.333 230.833,158.667 230.5,159C 226.987,159.06 223.321,159.06 219.5,159C 218.833,158.667 218.167,158.333 217.5,158C 219.436,157.187 221.436,156.687 223.5,156.5C 223.286,154.856 223.62,153.356 224.5,152C 221.042,152.124 218.376,151.291 216.5,149.5C 216.5,147.5 216.5,145.5 216.5,143.5C 217.5,143.5 218.5,143.5 219.5,143.5 Z"/></g>
<g><path style="opacity:1" fill="#5c5e7d" d="M 219.5,146.5 C 221.607,147.468 223.941,147.802 226.5,147.5C 226.833,147.5 227.167,147.5 227.5,147.5C 224.645,148.803 221.645,148.803 218.5,147.5C 218.624,146.893 218.957,146.56 219.5,146.5 Z"/></g>
<g><path style="opacity:1" fill="#f2f3f4" d="M 175.5,147.5 C 178.105,151.794 180.772,156.127 183.5,160.5C 180.016,163.078 176.349,165.411 172.5,167.5C 171.387,166.054 171.22,164.387 172,162.5C 173.303,161.888 174.47,161.554 175.5,161.5C 175.123,159.176 174.123,158.509 172.5,159.5C 170.59,154.664 170.09,149.664 171,144.5C 171.862,146.087 172.529,147.754 173,149.5C 173.075,147.065 173.908,146.398 175.5,147.5 Z"/></g>
<g><path style="opacity:1" fill="#02083b" d="M 313.5,121.5 C 311.765,128.937 310.765,136.604 310.5,144.5C 309.462,149.436 308.795,154.436 308.5,159.5C 307.833,159.5 307.167,159.5 306.5,159.5C 306.66,157.801 306.494,156.134 306,154.5C 305.033,155.678 304.533,157.011 304.5,158.5C 303.223,155.966 303.223,153.466 304.5,151C 303.667,150.167 302.833,149.333 302,148.5C 301.689,150.556 301.189,152.556 300.5,154.5C 298.465,155.597 297.132,157.263 296.5,159.5C 293.378,161.117 290.878,160.45 289,157.5C 288.667,159.833 288.333,162.167 288,164.5C 286.795,165.071 285.628,165.738 284.5,166.5C 285.426,170.094 285.759,173.76 285.5,177.5C 286.5,177.5 287.5,177.5 288.5,177.5C 288.5,178.5 288.5,179.5 288.5,180.5C 286.213,180.276 284.047,179.609 282,178.5C 280.101,178.382 278.267,178.882 276.5,180C 277.328,180.915 278.328,181.581 279.5,182C 278.587,183.414 278.587,184.914 279.5,186.5C 267.529,178.065 254.196,173.398 239.5,172.5C 232.769,171.123 226.102,171.457 219.5,173.5C 199.753,177.291 183.919,187.291 172,203.5C 168.221,209.399 164.721,215.399 161.5,221.5C 160.903,221.265 160.57,220.765 160.5,220C 161.283,218.05 162.283,216.217 163.5,214.5C 162.781,212.272 161.448,210.439 159.5,209C 161.746,207.743 163.079,205.91 163.5,203.5C 161.516,203.617 159.85,202.95 158.5,201.5C 156.869,203.059 156.036,205.059 156,207.5C 154.12,208.93 152.62,208.596 151.5,206.5C 152.871,204.143 154.205,201.81 155.5,199.5C 154.205,197.19 152.871,194.857 151.5,192.5C 155.316,190.797 157.15,192.13 157,196.5C 158.314,197.313 159.481,198.313 160.5,199.5C 161.853,196.242 163.02,192.908 164,189.5C 166.228,187.887 168.728,187.22 171.5,187.5C 171.654,183.547 172.654,179.881 174.5,176.5C 178.912,177.225 179.246,179.391 175.5,183C 177.78,183.233 179.78,184.066 181.5,185.5C 183.801,184.044 186.135,183.711 188.5,184.5C 190.585,183.459 192.252,181.959 193.5,180C 189.777,179.984 186.443,178.484 183.5,175.5C 182.963,172.035 182.963,168.702 183.5,165.5C 187.163,165.048 190.83,164.548 194.5,164C 195.833,163.333 195.833,162.667 194.5,162C 200.962,157.863 199.962,156.03 191.5,156.5C 191.201,154.396 191.534,152.396 192.5,150.5C 195.814,152.132 199.147,153.799 202.5,155.5C 203.298,157.078 203.798,158.744 204,160.5C 204.741,159.359 205.575,159.359 206.5,160.5C 207.386,159.675 207.719,158.675 207.5,157.5C 210.012,157.423 212.012,158.423 213.5,160.5C 211.604,161.466 209.604,161.799 207.5,161.5C 207.5,162.833 207.5,164.167 207.5,165.5C 209.604,165.201 211.604,165.534 213.5,166.5C 212.975,167.192 212.308,167.692 211.5,168C 214.276,169.037 217.11,169.87 220,170.5C 222.149,169.701 224.316,168.867 226.5,168C 223.289,166.847 219.956,166.18 216.5,166C 215.167,164.667 215.167,163.333 216.5,162C 224.215,162.793 231.049,162.627 237,161.5C 238.022,162.354 238.855,163.354 239.5,164.5C 244.802,165.329 250.136,165.829 255.5,166C 256.573,167.594 257.573,169.094 258.5,170.5C 259.167,169.5 259.833,168.5 260.5,167.5C 260.554,168.53 260.888,169.697 261.5,171C 260.167,171.333 258.833,171.667 257.5,172C 259.571,173.436 261.404,172.936 263,170.5C 263.49,171.793 263.657,173.127 263.5,174.5C 265.844,175.486 268.011,176.819 270,178.5C 270.833,178.333 271.667,178.167 272.5,178C 272.167,177.667 271.833,177.333 271.5,177C 272.756,176.583 273.423,175.75 273.5,174.5C 272.548,173.548 271.548,172.548 270.5,171.5C 274.433,168.579 274.433,165.746 270.5,163C 270.862,161.775 271.362,160.609 272,159.5C 274.481,164.389 278.314,165.722 283.5,163.5C 283.023,162.522 282.357,161.689 281.5,161C 279.051,160.275 276.717,159.275 274.5,158C 267.752,158.83 266.752,156.497 271.5,151C 271.167,150.667 270.833,150.333 270.5,150C 272.285,148.837 274.285,148.17 276.5,148C 275.589,145.585 273.922,144.085 271.5,143.5C 284.916,132.612 298.583,121.945 312.5,111.5C 313.487,114.768 313.82,118.102 313.5,121.5 Z"/></g>
<g><path style="opacity:1" fill="#eaecf1" d="M 300.5,131.5 C 301.239,131.369 301.906,131.536 302.5,132C 296.582,141.167 290.915,150.5 285.5,160C 280.683,158.598 276.016,156.598 271.5,154C 281.597,146.964 291.264,139.464 300.5,131.5 Z"/></g>
<g><path style="opacity:1" fill="#c5c8e0" d="M 187.5,166.5 C 194.546,166.781 196.546,169.948 193.5,176C 188.439,178.789 185.439,177.289 184.5,171.5C 185.092,169.577 186.092,167.911 187.5,166.5 Z"/></g>
<g><path style="opacity:1" fill="#151a41" d="M 187.5,168.5 C 193.016,168.473 194.349,170.64 191.5,175C 186.795,175.106 185.462,172.939 187.5,168.5 Z"/></g>
<g><path style="opacity:1" fill="#444663" d="M 370.5,171.5 C 365.69,171.013 360.69,171.013 355.5,171.5C 360.949,169.953 366.616,169.453 372.5,170C 371.956,170.717 371.289,171.217 370.5,171.5 Z"/></g>
<g><path style="opacity:1" fill="#000241" d="M 111.5,171.5 C 113.269,173.397 115.602,174.564 118.5,175C 118.167,175.333 117.833,175.667 117.5,176C 119.766,177.426 121.433,179.259 122.5,181.5C 117.304,178.071 111.637,175.404 105.5,173.5C 103.392,174.949 101.725,174.449 100.5,172C 104.152,171.501 107.818,171.335 111.5,171.5 Z"/></g>
<g><path style="opacity:1" fill="#9d9db7" d="M 239.5,172.5 C 232.82,172.612 226.153,172.946 219.5,173.5C 226.102,171.457 232.769,171.123 239.5,172.5 Z"/></g>
<g><path style="opacity:1" fill="#bdc1da" d="M 161.5,171.5 C 162.461,173.265 162.795,175.265 162.5,177.5C 158.663,177.069 154.997,176.402 151.5,175.5C 154.777,175.216 157.943,175.549 161,176.5C 161.494,174.866 161.66,173.199 161.5,171.5 Z"/></g>
<g><path style="opacity:1" fill="#b9bed6" d="M 273.5,174.5 C 273.987,166.182 277.487,164.515 284,169.5C 283.812,177.912 280.312,179.579 273.5,174.5 Z"/></g>
<g><path style="opacity:1" fill="#1b1d46" d="M 277.5,168.5 C 281.677,167.842 283.177,169.508 282,173.5C 280.688,175.658 279.022,175.991 277,174.5C 276.322,172.402 276.489,170.402 277.5,168.5 Z"/></g>
<g><path style="opacity:1" fill="#9ca2c2" d="M 307.5,168.5 C 306.964,171.698 307.631,174.365 309.5,176.5C 308.791,177.404 307.791,177.737 306.5,177.5C 306.19,174.287 306.523,171.287 307.5,168.5 Z"/></g>
<g><path style="opacity:1" fill="#040c3a" d="M 306.5,159.5 C 307.167,159.5 307.833,159.5 308.5,159.5C 308.037,162.482 307.704,165.482 307.5,168.5C 306.523,171.287 306.19,174.287 306.5,177.5C 307.791,177.737 308.791,177.404 309.5,176.5C 324.88,175.193 340.213,173.526 355.5,171.5C 351.41,173.108 347.077,174.275 342.5,175C 343.167,175.333 343.833,175.667 344.5,176C 341.459,176.576 338.792,177.742 336.5,179.5C 340.858,180.37 345.191,180.037 349.5,178.5C 350.713,178.747 351.38,179.414 351.5,180.5C 350.209,180.263 349.209,180.596 348.5,181.5C 337.202,182.792 325.869,183.792 314.5,184.5C 315.011,187.022 316.011,189.355 317.5,191.5C 317.103,192.525 316.437,192.692 315.5,192C 314.167,191.333 314.167,190.667 315.5,190C 313.667,189.5 312.5,188.333 312,186.5C 309.571,187.029 307.738,188.363 306.5,190.5C 307.668,192.217 309.335,192.884 311.5,192.5C 311.5,193.5 311.5,194.5 311.5,195.5C 307.878,195.132 304.378,195.132 301,195.5C 300.464,197.869 299.297,199.869 297.5,201.5C 299.905,203.642 301.238,206.309 301.5,209.5C 295.578,200.909 288.578,193.242 280.5,186.5C 281.93,186.579 283.264,186.246 284.5,185.5C 285.902,189.044 288.569,190.877 292.5,191C 293.573,192.25 293.573,193.584 292.5,195C 294.948,199.502 296.114,199.335 296,194.5C 298.787,191.876 301.954,189.876 305.5,188.5C 306.95,187.15 307.617,185.484 307.5,183.5C 309.144,183.286 310.644,183.62 312,184.5C 316.631,182.728 321.464,182.062 326.5,182.5C 326.854,180.459 326.854,178.626 326.5,177C 324.167,176.333 321.833,176.333 319.5,177C 319.833,177.333 320.167,177.667 320.5,178C 316.089,178.017 311.923,178.85 308,180.5C 307.05,179.978 306.216,179.311 305.5,178.5C 304.68,172.393 305.013,166.06 306.5,159.5 Z"/></g>
<g><path style="opacity:1" fill="#757697" d="M 348.5,181.5 C 349.209,180.596 350.209,180.263 351.5,180.5C 351.5,181.833 350.833,182.5 349.5,182.5C 349.5,181.833 349.167,181.5 348.5,181.5 Z"/></g>
<g><path style="opacity:1" fill="#ebecf0" d="M 348.5,181.5 C 349.167,181.5 349.5,181.833 349.5,182.5C 347.205,183.475 345.205,184.808 343.5,186.5C 336.784,190.276 329.951,193.943 323,197.5C 321.826,196.456 320.659,195.456 319.5,194.5C 319.573,192.973 318.906,191.973 317.5,191.5C 316.011,189.355 315.011,187.022 314.5,184.5C 325.869,183.792 337.202,182.792 348.5,181.5 Z"/></g>
<g><path style="opacity:1" fill="#f3f4f5" d="M 239.5,172.5 C 254.196,173.398 267.529,178.065 279.5,186.5C 279.833,186.5 280.167,186.5 280.5,186.5C 288.578,193.242 295.578,200.909 301.5,209.5C 309.557,225.161 312.89,241.828 311.5,259.5C 308.042,277.577 300.042,293.244 287.5,306.5C 286.5,306.833 285.833,307.5 285.5,308.5C 279.962,312.431 274.296,316.098 268.5,319.5C 257.631,324.05 246.298,326.717 234.5,327.5C 225.692,326.983 217.026,325.649 208.5,323.5C 196,318.075 185,310.409 175.5,300.5C 175.5,300.167 175.5,299.833 175.5,299.5C 157.566,276.441 152.9,250.774 161.5,222.5C 161.5,222.167 161.5,221.833 161.5,221.5C 164.721,215.399 168.221,209.399 172,203.5C 183.919,187.291 199.753,177.291 219.5,173.5C 226.153,172.946 232.82,172.612 239.5,172.5 Z"/></g>
<g><path style="opacity:1" fill="#a5a5bf" d="M 270.5,195.5 C 272.749,196.08 274.415,197.413 275.5,199.5C 273.251,198.92 271.585,197.587 270.5,195.5 Z"/></g>
<g><path style="opacity:1" fill="#0c123a" d="M 263.5,193.5 C 261.278,193.178 259.444,193.845 258,195.5C 256.493,194.465 254.993,194.632 253.5,196C 254.696,196.654 254.696,197.154 253.5,197.5C 252.707,197.069 251.873,196.735 251,196.5C 247.343,198.149 243.676,199.815 240,201.5C 238.974,198.307 236.808,196.974 233.5,197.5C 233.5,196.5 233.5,195.5 233.5,194.5C 236.663,195.321 239.33,196.988 241.5,199.5C 247.8,193.171 255.133,191.171 263.5,193.5 Z"/></g>
<g><path style="opacity:1" fill="#34395a" d="M 209.5,198.5 C 208.566,197.432 208.232,196.099 208.5,194.5C 202.167,194.5 195.833,194.5 189.5,194.5C 189.5,211.5 189.5,228.5 189.5,245.5C 189.768,247.099 189.434,248.432 188.5,249.5C 188.5,231.5 188.5,213.5 188.5,195.5C 195.087,193.539 202.087,192.872 209.5,193.5C 209.5,195.167 209.5,196.833 209.5,198.5 Z"/></g>
<g><path style="opacity:1" fill="#00003d" d="M 209.5,198.5 C 210.165,201.803 210.832,205.137 211.5,208.5C 207.77,210.855 206.77,214.022 208.5,218C 206.7,224.701 206.034,231.534 206.5,238.5C 204.571,238.231 202.905,238.731 201.5,240C 203.731,241.147 206.065,242.147 208.5,243C 207.833,243.667 207.167,244.333 206.5,245C 200.76,245.121 195.093,245.288 189.5,245.5C 189.5,228.5 189.5,211.5 189.5,194.5C 195.833,194.5 202.167,194.5 208.5,194.5C 208.232,196.099 208.566,197.432 209.5,198.5 Z"/></g>
<g><path style="opacity:1" fill="#00013d" d="M 183.5,165.5 C 182.963,168.702 182.963,172.035 183.5,175.5C 186.443,178.484 189.777,179.984 193.5,180C 192.252,181.959 190.585,183.459 188.5,184.5C 186.135,183.711 183.801,184.044 181.5,185.5C 179.78,184.066 177.78,183.233 175.5,183C 179.246,179.391 178.912,177.225 174.5,176.5C 172.654,179.881 171.654,183.547 171.5,187.5C 168.728,187.22 166.228,187.887 164,189.5C 163.02,192.908 161.853,196.242 160.5,199.5C 159.481,198.313 158.314,197.313 157,196.5C 157.15,192.13 155.316,190.797 151.5,192.5C 152.871,194.857 154.205,197.19 155.5,199.5C 154.205,201.81 152.871,204.143 151.5,206.5C 152.62,208.596 154.12,208.93 156,207.5C 156.036,205.059 156.869,203.059 158.5,201.5C 159.85,202.95 161.516,203.617 163.5,203.5C 163.079,205.91 161.746,207.743 159.5,209C 161.448,210.439 162.781,212.272 163.5,214.5C 162.283,216.217 161.283,218.05 160.5,220C 160.57,220.765 160.903,221.265 161.5,221.5C 161.5,221.833 161.5,222.167 161.5,222.5C 159.897,222.312 158.563,222.812 157.5,224C 158.609,227.826 157.609,231.159 154.5,234C 154.152,236.055 154.819,238.055 156.5,240C 156.036,242.405 155.869,244.905 156,247.5C 154.701,247.034 153.201,247.034 151.5,247.5C 151.335,245.173 150.669,243.007 149.5,241C 151.622,235.086 151.955,229.086 150.5,223C 149.216,222.316 148.049,222.483 147,223.5C 145.958,229.564 146.458,235.398 148.5,241C 148.361,242.301 147.695,243.134 146.5,243.5C 146.167,243.5 145.833,243.5 145.5,243.5C 145.5,242.167 145.5,240.833 145.5,239.5C 144.167,239.5 142.833,239.5 141.5,239.5C 140.286,242.253 138.786,244.92 137,247.5C 119.478,247.506 101.645,247.339 83.5,247C 79.2027,245.081 75.2027,245.747 71.5,249C 71.5012,250.399 71.8346,251.899 72.5,253.5C 72.1131,254.72 71.2798,255.387 70,255.5C 68.2908,254.43 66.7908,253.097 65.5,251.5C 64.7193,252.737 63.7193,253.737 62.5,254.5C 57.161,252.832 51.8276,251.166 46.5,249.5C 49.1436,248.604 51.8103,247.771 54.5,247C 55.9423,246.623 56.9423,245.79 57.5,244.5C 64.1615,244.662 70.1615,242.996 75.5,239.5C 76.8333,239.167 78.1667,238.833 79.5,238.5C 82.8835,238.66 86.2169,238.327 89.5,237.5C 90.737,237.556 91.737,238.056 92.5,239C 89.3526,241.747 86.1859,242.581 83,241.5C 79.7474,242.953 80.0808,243.619 84,243.5C 88.3004,242.824 92.6338,243.157 97,244.5C 105.276,244.081 115.109,243.915 126.5,244C 126.957,243.586 127.291,243.086 127.5,242.5C 116.849,241.668 106.182,241.168 95.5,241C 95.1667,240.667 94.8333,240.333 94.5,240C 98.4213,239.797 102.255,239.297 106,238.5C 106.333,238.833 106.667,239.167 107,239.5C 110.555,237.935 114.388,236.935 118.5,236.5C 118.291,235.914 117.957,235.414 117.5,235C 114.5,234.667 111.5,234.333 108.5,234C 108.167,233.667 107.833,233.333 107.5,233C 108.942,232.623 109.942,231.79 110.5,230.5C 110.833,230.5 111.167,230.5 111.5,230.5C 119.014,230.22 125.514,232.554 131,237.5C 134.24,237.188 138.074,236.688 142.5,236C 143.38,234.644 143.714,233.144 143.5,231.5C 139.887,231.647 136.72,232.314 134,233.5C 132.581,232.54 131.081,231.707 129.5,231C 130.253,229.513 131.086,229.346 132,230.5C 133.487,229.747 133.654,228.914 132.5,228C 133.672,227.581 134.672,226.915 135.5,226C 138.131,225.893 140.631,225.727 143,225.5C 143.167,225.167 143.333,224.833 143.5,224.5C 141.922,223.702 140.256,223.202 138.5,223C 139.696,222.346 139.696,221.846 138.5,221.5C 137.808,222.025 137.308,222.692 137,223.5C 136.744,220.443 136.244,217.443 135.5,214.5C 138.087,211.685 140.254,212.019 142,215.5C 143.915,212.138 144.915,208.471 145,204.5C 145.333,205.167 145.667,205.833 146,206.5C 146.724,204.041 148.057,203.041 150,203.5C 149.562,200.94 149.729,198.44 150.5,196C 146.716,194.053 142.716,192.72 138.5,192C 137.202,189.094 135.368,186.594 133,184.5C 130.152,187.094 128.152,186.427 127,182.5C 126.667,183.167 126.333,183.833 126,184.5C 124.482,183.837 123.315,182.837 122.5,181.5C 124.4,178.582 126.9,176.249 130,174.5C 133.407,174.921 136.574,175.921 139.5,177.5C 145.472,178.33 151.472,178.83 157.5,179C 158.931,179.465 160.097,180.299 161,181.5C 164.874,179.407 165.707,176.741 163.5,173.5C 162.465,168.03 162.465,162.364 163.5,156.5C 159.084,148.826 158.917,141.16 163,133.5C 164.768,136.218 164.934,139.051 163.5,142C 164.025,142.692 164.692,143.192 165.5,143.5C 167.268,151.197 167.601,158.697 166.5,166C 167.535,167.274 168.702,168.44 170,169.5C 170.305,171.557 170.305,173.557 170,175.5C 171.011,176.337 172.178,176.67 173.5,176.5C 173.643,174.738 173.309,173.071 172.5,171.5C 175.055,168.749 176.055,169.416 175.5,173.5C 179.926,173.141 180.593,171.307 177.5,168C 178.978,165.961 180.978,165.128 183.5,165.5 Z"/></g>
<g><path style="opacity:1" fill="#030b3b" d="M 233.5,194.5 C 229.371,193.426 225.204,193.426 221,194.5C 219.077,195.492 217.244,196.659 215.5,198C 215.677,200.369 215.344,202.869 214.5,205.5C 216.396,206.466 218.396,206.799 220.5,206.5C 219.925,203.429 221.091,201.429 224,200.5C 228.68,202.534 233.513,204.201 238.5,205.5C 240.07,205.306 241.57,205.306 243,205.5C 248.08,204.236 252.746,202.236 257,199.5C 261.218,200.077 265.384,200.91 269.5,202C 270.646,202.645 271.646,203.478 272.5,204.5C 273.614,203.277 273.781,201.944 273,200.5C 270.958,198.396 268.458,197.229 265.5,197C 264.177,196.184 263.511,195.017 263.5,193.5C 265.921,193.878 268.254,194.545 270.5,195.5C 271.585,197.587 273.251,198.92 275.5,199.5C 277.282,202.729 278.782,206.063 280,209.5C 280.5,223.163 280.667,236.829 280.5,250.5C 281.5,250.5 282.5,250.5 283.5,250.5C 284.848,251.601 286.348,252.601 288,253.5C 289.726,252.424 291.559,252.257 293.5,253C 292.748,253.671 292.414,254.504 292.5,255.5C 290.489,256.893 288.155,257.56 285.5,257.5C 277.788,255.28 269.955,253.614 262,252.5C 254.409,253.773 246.909,255.44 239.5,257.5C 239.706,246.25 239.872,234.916 240,223.5C 240.314,217.783 242.148,212.616 245.5,208C 244.101,207.405 242.768,207.572 241.5,208.5C 241.002,209.603 240.669,210.603 240.5,211.5C 239.813,209.726 238.98,208.059 238,206.5C 237.333,207.167 236.667,207.833 236,208.5C 235.501,223.825 235.334,239.158 235.5,254.5C 234.167,254.5 232.833,254.5 231.5,254.5C 232.026,250.064 233.026,245.731 234.5,241.5C 233.167,234.833 233.167,228.167 234.5,221.5C 233.021,216.919 231.855,212.252 231,207.5C 229.611,205.773 227.944,204.439 226,203.5C 224.522,204.978 223.022,206.478 221.5,208C 223.137,209.951 224.637,209.784 226,207.5C 226.617,208.449 226.451,209.282 225.5,210C 227.125,210.853 227.458,211.853 226.5,213C 227.126,213.75 227.626,214.584 228,215.5C 228.167,220.833 228.333,226.167 228.5,231.5C 228.715,239.244 228.049,246.578 226.5,253.5C 227.881,254.881 229.215,256.215 230.5,257.5C 227.211,256.626 223.877,255.959 220.5,255.5C 215.871,253.57 211.038,252.57 206,252.5C 197.707,253.163 189.707,254.83 182,257.5C 178.593,257.578 175.426,256.912 172.5,255.5C 172.324,251.808 173.991,249.808 177.5,249.5C 181.167,250.833 184.833,250.833 188.5,249.5C 189.434,248.432 189.768,247.099 189.5,245.5C 195.093,245.288 200.76,245.121 206.5,245C 207.167,244.333 207.833,243.667 208.5,243C 206.065,242.147 203.731,241.147 201.5,240C 202.905,238.731 204.571,238.231 206.5,238.5C 206.034,231.534 206.7,224.701 208.5,218C 206.77,214.022 207.77,210.855 211.5,208.5C 210.832,205.137 210.165,201.803 209.5,198.5C 216.714,192.313 224.714,190.98 233.5,194.5 Z"/></g>
<g><path style="opacity:1" fill="#00013e" d="M 233.5,194.5 C 233.5,195.5 233.5,196.5 233.5,197.5C 236.808,196.974 238.974,198.307 240,201.5C 243.676,199.815 247.343,198.149 251,196.5C 251.873,196.735 252.707,197.069 253.5,197.5C 254.696,197.154 254.696,196.654 253.5,196C 254.993,194.632 256.493,194.465 258,195.5C 259.444,193.845 261.278,193.178 263.5,193.5C 263.511,195.017 264.177,196.184 265.5,197C 268.458,197.229 270.958,198.396 273,200.5C 273.781,201.944 273.614,203.277 272.5,204.5C 271.646,203.478 270.646,202.645 269.5,202C 265.384,200.91 261.218,200.077 257,199.5C 252.746,202.236 248.08,204.236 243,205.5C 241.57,205.306 240.07,205.306 238.5,205.5C 233.513,204.201 228.68,202.534 224,200.5C 221.091,201.429 219.925,203.429 220.5,206.5C 218.396,206.799 216.396,206.466 214.5,205.5C 215.344,202.869 215.677,200.369 215.5,198C 217.244,196.659 219.077,195.492 221,194.5C 225.204,193.426 229.371,193.426 233.5,194.5 Z"/></g>
<g><path style="opacity:1" fill="#00013e" d="M 251.5,204.5 C 256.214,204.802 260.88,205.468 265.5,206.5C 262.835,209.529 263.502,211.862 267.5,213.5C 268.474,211.257 268.808,208.924 268.5,206.5C 270.103,206.312 271.437,206.812 272.5,208C 271.446,209.388 271.28,210.888 272,212.5C 272.681,210.105 273.515,207.772 274.5,205.5C 275.167,205.833 275.833,206.167 276.5,206.5C 276.677,218.498 277.011,230.498 277.5,242.5C 276.935,247.238 275.102,247.571 272,243.5C 270.12,244.93 268.62,244.596 267.5,242.5C 267.808,241.692 268.308,241.025 269,240.5C 269.373,233.386 269.54,226.386 269.5,219.5C 268.635,218.417 267.635,218.251 266.5,219C 265.532,222.405 264.032,222.905 262,220.5C 261.825,216.234 260.825,212.234 259,208.5C 258.667,208.833 258.333,209.167 258,209.5C 256.246,207.75 254.079,207.083 251.5,207.5C 251.5,206.5 251.5,205.5 251.5,204.5 Z"/></g>
<g><path style="opacity:1" fill="#030a3a" d="M 367.5,175.5 C 356.936,190.905 345.769,205.905 334,220.5C 333.517,221.448 333.351,222.448 333.5,223.5C 332.778,223.918 332.278,224.584 332,225.5C 330.981,224.313 329.814,223.313 328.5,222.5C 327.548,220.955 327.215,219.288 327.5,217.5C 329.677,217.414 331.677,216.747 333.5,215.5C 334.086,215.709 334.586,216.043 335,216.5C 335.494,214.866 335.66,213.199 335.5,211.5C 332.266,210.424 328.932,209.757 325.5,209.5C 325.181,207.25 325.681,205.25 327,203.5C 327.333,203.833 327.667,204.167 328,204.5C 330.674,203.286 333.174,201.953 335.5,200.5C 335.5,201.833 335.5,203.167 335.5,204.5C 332.32,204.176 331.153,205.51 332,208.5C 335.402,207.962 337.902,205.795 339.5,202C 341.568,201.313 343.568,201.48 345.5,202.5C 348.222,200.675 348.889,198.342 347.5,195.5C 348.404,191.705 350.737,189.205 354.5,188C 356.378,186.457 357.878,184.624 359,182.5C 359.333,182.833 359.667,183.167 360,183.5C 361.376,179.628 363.876,176.962 367.5,175.5 Z"/></g>
<g><path style="opacity:1" fill="#dddfef" d="M 188.5,195.5 C 188.5,213.5 188.5,231.5 188.5,249.5C 184.833,250.833 181.167,250.833 177.5,249.5C 180.833,249.5 184.167,249.5 187.5,249.5C 187.17,231.326 187.503,213.326 188.5,195.5 Z"/></g>
<g><path style="opacity:1" fill="#f7f7f7" d="M 258.5,213.5 C 259.109,224.755 258.442,235.755 256.5,246.5C 253.37,246.7 250.37,247.366 247.5,248.5C 245.522,237.215 244.855,225.548 245.5,213.5C 249.801,208.174 254.134,208.174 258.5,213.5 Z"/></g>
<g><path style="opacity:1" fill="#f6f7f7" d="M 223.5,213.5 C 224.145,225.548 223.478,237.215 221.5,248.5C 218.779,248.037 216.112,247.371 213.5,246.5C 212.791,245.596 211.791,245.263 210.5,245.5C 210.5,234.833 210.5,224.167 210.5,213.5C 211.033,210.475 212.867,209.142 216,209.5C 219.329,209.413 221.829,210.746 223.5,213.5 Z"/></g>
<g><path style="opacity:1" fill="#050c3a" d="M 111.5,171.5 C 107.818,171.335 104.152,171.501 100.5,172C 101.725,174.449 103.392,174.949 105.5,173.5C 111.637,175.404 117.304,178.071 122.5,181.5C 123.315,182.837 124.482,183.837 126,184.5C 126.333,183.833 126.667,183.167 127,182.5C 128.152,186.427 130.152,187.094 133,184.5C 135.368,186.594 137.202,189.094 138.5,192C 142.716,192.72 146.716,194.053 150.5,196C 149.729,198.44 149.562,200.94 150,203.5C 148.057,203.041 146.724,204.041 146,206.5C 145.667,205.833 145.333,205.167 145,204.5C 144.915,208.471 143.915,212.138 142,215.5C 140.254,212.019 138.087,211.685 135.5,214.5C 136.244,217.443 136.744,220.443 137,223.5C 137.308,222.692 137.808,222.025 138.5,221.5C 139.696,221.846 139.696,222.346 138.5,223C 140.256,223.202 141.922,223.702 143.5,224.5C 143.333,224.833 143.167,225.167 143,225.5C 140.631,225.727 138.131,225.893 135.5,226C 134.672,226.915 133.672,227.581 132.5,228C 133.654,228.914 133.487,229.747 132,230.5C 131.086,229.346 130.253,229.513 129.5,231C 131.081,231.707 132.581,232.54 134,233.5C 136.72,232.314 139.887,231.647 143.5,231.5C 143.714,233.144 143.38,234.644 142.5,236C 138.074,236.688 134.24,237.188 131,237.5C 125.514,232.554 119.014,230.22 111.5,230.5C 119.408,227.849 127.408,225.182 135.5,222.5C 130.116,214.797 124.783,207.131 119.5,199.5C 111.491,190.007 103.824,180.174 96.5,170C 101.675,169.851 106.675,170.351 111.5,171.5 Z"/></g>
<g><path style="opacity:1" fill="#e9ebf0" d="M 116.5,182.5 C 116.897,181.475 117.563,181.308 118.5,182C 127.678,187.756 137.011,193.256 146.5,198.5C 143.973,202.221 141.973,206.221 140.5,210.5C 139.998,211.521 139.332,211.688 138.5,211C 131.843,201.495 124.843,192.328 117.5,183.5C 117.5,182.833 117.167,182.5 116.5,182.5 Z"/></g>
<g><path style="opacity:1" fill="#000340" d="M 116.5,182.5 C 117.167,182.5 117.5,182.833 117.5,183.5C 117.877,185.258 118.544,186.925 119.5,188.5C 118.509,190.123 119.176,191.123 121.5,191.5C 122.333,193.5 123.167,195.5 124,197.5C 126.389,198.317 128.222,200.317 129.5,203.5C 128.24,204.382 127.074,205.382 126,206.5C 125.89,204.152 124.723,202.652 122.5,202C 122.833,201.667 123.167,201.333 123.5,201C 122.437,199.812 121.103,199.312 119.5,199.5C 118.641,195.615 116.641,192.448 113.5,190C 115.82,188.512 115.987,186.679 114,184.5C 112.187,184.253 110.353,183.92 108.5,183.5C 107.911,180.724 106.578,178.39 104.5,176.5C 105.723,175.386 107.056,175.219 108.5,176C 108.259,177.562 108.759,179.062 110,180.5C 110.689,179.643 111.522,178.977 112.5,178.5C 114.216,179.549 115.549,180.882 116.5,182.5 Z"/></g>
<g><path style="opacity:1" fill="#00013e" d="M 239.5,257.5 C 236.5,257.5 233.5,257.5 230.5,257.5C 229.215,256.215 227.881,254.881 226.5,253.5C 228.049,246.578 228.715,239.244 228.5,231.5C 228.333,226.167 228.167,220.833 228,215.5C 227.626,214.584 227.126,213.75 226.5,213C 227.458,211.853 227.125,210.853 225.5,210C 226.451,209.282 226.617,208.449 226,207.5C 224.637,209.784 223.137,209.951 221.5,208C 223.022,206.478 224.522,204.978 226,203.5C 227.944,204.439 229.611,205.773 231,207.5C 231.855,212.252 233.021,216.919 234.5,221.5C 233.167,228.167 233.167,234.833 234.5,241.5C 233.026,245.731 232.026,250.064 231.5,254.5C 232.833,254.5 234.167,254.5 235.5,254.5C 235.334,239.158 235.501,223.825 236,208.5C 236.667,207.833 237.333,207.167 238,206.5C 238.98,208.059 239.813,209.726 240.5,211.5C 240.669,210.603 241.002,209.603 241.5,208.5C 242.768,207.572 244.101,207.405 245.5,208C 242.148,212.616 240.314,217.783 240,223.5C 239.872,234.916 239.706,246.25 239.5,257.5 Z"/></g>
<g><path style="opacity:1" fill="#9197b7" d="M 223.5,213.5 C 224.495,225.322 224.828,237.322 224.5,249.5C 223.209,249.737 222.209,249.404 221.5,248.5C 223.478,237.215 224.145,225.548 223.5,213.5 Z"/></g>
<g><path style="opacity:1" fill="#abadcb" d="M 245.5,213.5 C 244.855,225.548 245.522,237.215 247.5,248.5C 246.791,249.404 245.791,249.737 244.5,249.5C 244.172,237.322 244.505,225.322 245.5,213.5 Z"/></g>
<g><path style="opacity:1" fill="#c3c3da" d="M 210.5,213.5 C 210.5,224.167 210.5,234.833 210.5,245.5C 211.791,245.263 212.791,245.596 213.5,246.5C 212.167,246.5 210.833,246.5 209.5,246.5C 209.172,235.321 209.505,224.321 210.5,213.5 Z"/></g>
<g><path style="opacity:1" fill="#b3b3ca" d="M 258.5,213.5 C 259.495,224.321 259.828,235.321 259.5,246.5C 258.5,246.5 257.5,246.5 256.5,246.5C 258.442,235.755 259.109,224.755 258.5,213.5 Z"/></g>
<g><path style="opacity:1" fill="#08113a" d="M 333.5,223.5 C 338.884,224.628 344.217,225.961 349.5,227.5C 353.298,228.868 357.298,229.868 361.5,230.5C 362.833,231.167 364.167,231.833 365.5,232.5C 362.15,232.665 358.817,232.498 355.5,232C 349.13,230.467 342.963,228.301 337,225.5C 334.589,227.153 333.422,226.487 333.5,223.5 Z"/></g>
<g><path style="opacity:1" fill="#bec3d5" d="M 349.5,227.5 C 354.069,226.886 358.069,227.886 361.5,230.5C 357.298,229.868 353.298,228.868 349.5,227.5 Z"/></g>
<g><path style="opacity:1" fill="#01083a" d="M 110.5,230.5 C 109.942,231.79 108.942,232.623 107.5,233C 107.833,233.333 108.167,233.667 108.5,234C 111.5,234.333 114.5,234.667 117.5,235C 117.957,235.414 118.291,235.914 118.5,236.5C 114.388,236.935 110.555,237.935 107,239.5C 106.667,239.167 106.333,238.833 106,238.5C 102.255,239.297 98.4213,239.797 94.5,240C 94.8333,240.333 95.1667,240.667 95.5,241C 106.182,241.168 116.849,241.668 127.5,242.5C 127.291,243.086 126.957,243.586 126.5,244C 115.109,243.915 105.276,244.081 97,244.5C 92.6338,243.157 88.3004,242.824 84,243.5C 80.0808,243.619 79.7474,242.953 83,241.5C 86.1859,242.581 89.3526,241.747 92.5,239C 91.737,238.056 90.737,237.556 89.5,237.5C 86.2169,238.327 82.8835,238.66 79.5,238.5C 89.6135,235.387 99.9468,232.721 110.5,230.5 Z"/></g>
<g><path style="opacity:1" fill="#1a1e41" d="M 75.5,239.5 C 70.1615,242.996 64.1615,244.662 57.5,244.5C 63.2309,242.231 69.2309,240.565 75.5,239.5 Z"/></g>
<g><path style="opacity:1" fill="#bdc1db" d="M 145.5,243.5 C 145.833,243.5 146.167,243.5 146.5,243.5C 150.053,245.04 151.22,247.707 150,251.5C 146.504,255.435 143.004,255.435 139.5,251.5C 139.5,251.167 139.5,250.833 139.5,250.5C 139.362,246.307 141.362,243.973 145.5,243.5 Z"/></g>
<g><path style="opacity:1" fill="#060d3a" d="M 386.5,237.5 C 400.484,241.164 414.484,244.831 428.5,248.5C 428.5,249.167 428.5,249.833 428.5,250.5C 425.572,250.565 422.905,251.232 420.5,252.5C 417.848,252.41 415.515,253.076 413.5,254.5C 408.761,255.185 404.094,256.185 399.5,257.5C 401.224,255.838 403.391,254.838 406,254.5C 408.677,253.251 410.511,251.251 411.5,248.5C 412.795,247.902 414.128,247.402 415.5,247C 411.5,246.667 407.5,246.333 403.5,246C 398.193,243.571 392.527,240.737 386.5,237.5 Z"/></g>
<g><path style="opacity:1" fill="#c8cae0" d="M 133.5,255.5 C 133.5,255.833 133.5,256.167 133.5,256.5C 133.5,257.167 133.5,257.833 133.5,258.5C 132.527,256.052 132.194,253.385 132.5,250.5C 115.658,250.17 98.9916,250.503 82.5,251.5C 80.4357,251.313 78.4357,250.813 76.5,250C 95.4971,249.5 114.497,249.333 133.5,249.5C 133.5,251.5 133.5,253.5 133.5,255.5 Z"/></g>
<g><path style="opacity:1" fill="#00023d" d="M 370.5,171.5 C 369.974,173.23 368.974,174.564 367.5,175.5C 363.876,176.962 361.376,179.628 360,183.5C 359.667,183.167 359.333,182.833 359,182.5C 357.878,184.624 356.378,186.457 354.5,188C 350.737,189.205 348.404,191.705 347.5,195.5C 348.889,198.342 348.222,200.675 345.5,202.5C 343.568,201.48 341.568,201.313 339.5,202C 337.902,205.795 335.402,207.962 332,208.5C 331.153,205.51 332.32,204.176 335.5,204.5C 335.5,203.167 335.5,201.833 335.5,200.5C 333.174,201.953 330.674,203.286 328,204.5C 327.667,204.167 327.333,203.833 327,203.5C 325.681,205.25 325.181,207.25 325.5,209.5C 328.932,209.757 332.266,210.424 335.5,211.5C 335.66,213.199 335.494,214.866 335,216.5C 334.586,216.043 334.086,215.709 333.5,215.5C 331.677,216.747 329.677,217.414 327.5,217.5C 327.215,219.288 327.548,220.955 328.5,222.5C 329.814,223.313 330.981,224.313 332,225.5C 332.278,224.584 332.778,223.918 333.5,223.5C 333.422,226.487 334.589,227.153 337,225.5C 342.963,228.301 349.13,230.467 355.5,232C 358.817,232.498 362.15,232.665 365.5,232.5C 365.833,232.5 366.167,232.5 366.5,232.5C 365.947,235.266 363.947,237.266 360.5,238.5C 354.948,236.85 349.282,235.85 343.5,235.5C 341.727,234.108 339.727,232.941 337.5,232C 338.308,231.692 338.975,231.192 339.5,230.5C 338.311,229.571 336.978,229.238 335.5,229.5C 334.949,232.807 334.616,236.14 334.5,239.5C 331.881,239.768 329.381,239.435 327,238.5C 326.517,239.448 326.351,240.448 326.5,241.5C 329.167,241.5 331.833,241.5 334.5,241.5C 333.414,245.178 333.414,248.845 334.5,252.5C 353.67,250.695 373.003,249.861 392.5,250C 394.679,249.558 395.345,248.558 394.5,247C 389.642,246.383 385.309,244.716 381.5,242C 375.514,241.091 369.514,240.257 363.5,239.5C 366.182,235.774 369.349,235.108 373,237.5C 376.378,237.132 379.878,237.132 383.5,237.5C 384.5,237.5 385.5,237.5 386.5,237.5C 392.527,240.737 398.193,243.571 403.5,246C 407.5,246.333 411.5,246.667 415.5,247C 414.128,247.402 412.795,247.902 411.5,248.5C 410.511,251.251 408.677,253.251 406,254.5C 403.391,254.838 401.224,255.838 399.5,257.5C 396.813,257.336 394.146,257.503 391.5,258C 381.047,261.071 370.547,263.905 360,266.5C 359.127,266.265 358.293,265.931 357.5,265.5C 355.583,267.432 353.583,269.099 351.5,270.5C 347.425,272.118 343.092,273.118 338.5,273.5C 336.856,273.714 335.356,273.38 334,272.5C 331.878,273.22 331.378,274.387 332.5,276C 330.285,277.943 330.285,279.609 332.5,281C 331.833,281.667 331.167,282.333 330.5,283C 331.833,283 333.167,283 334.5,283C 336.157,285.333 338.157,287.333 340.5,289C 338.741,290.008 337.574,291.508 337,293.5C 335.901,290.267 333.735,288.267 330.5,287.5C 328.124,288.206 326.79,289.873 326.5,292.5C 324.857,292.48 323.524,293.147 322.5,294.5C 321.029,293.619 320.196,292.286 320,290.5C 319.722,293.778 320.222,296.945 321.5,300C 319.399,303.168 318.565,306.668 319,310.5C 321.503,311.55 323.003,310.55 323.5,307.5C 322.167,306.38 321.667,305.047 322,303.5C 326.334,304.958 330.501,306.791 334.5,309C 333.359,309.741 333.359,310.575 334.5,311.5C 331.938,312.641 329.272,313.474 326.5,314C 325.624,315.586 324.624,317.086 323.5,318.5C 325.074,319.631 326.741,319.798 328.5,319C 333.234,313.85 335.901,314.517 336.5,321C 344.524,321.442 352.524,321.442 360.5,321C 362.14,322.395 363.64,323.895 365,325.5C 366.087,323.068 366.587,323.402 366.5,326.5C 361.837,326.288 357.004,325.621 352,324.5C 349.23,325.348 346.397,325.681 343.5,325.5C 342.167,325.5 340.833,325.5 339.5,325.5C 333.167,323.988 326.667,322.655 320,321.5C 318.615,321.514 317.449,321.848 316.5,322.5C 315.5,322.5 314.5,322.5 313.5,322.5C 312.253,320.822 310.586,319.489 308.5,318.5C 305.455,321.516 301.788,323.182 297.5,323.5C 297.579,324.93 297.246,326.264 296.5,327.5C 293.013,328.647 291.013,330.981 290.5,334.5C 290.167,334.5 289.833,334.5 289.5,334.5C 285.856,335.698 285.19,334.864 287.5,332C 286.789,329.204 286.122,326.37 285.5,323.5C 281.95,321.378 278.283,319.711 274.5,318.5C 276.67,316.914 279.004,315.58 281.5,314.5C 282.458,312.216 283.792,310.216 285.5,308.5C 285.833,307.5 286.5,306.833 287.5,306.5C 290.43,307.787 292.763,307.287 294.5,305C 293.044,304.577 292.544,303.744 293,302.5C 296.767,299.565 299.6,295.898 301.5,291.5C 302.086,291.709 302.586,292.043 303,292.5C 303.749,288.917 305.082,285.583 307,282.5C 308,285.167 309,285.167 310,282.5C 310.309,283.766 310.809,284.933 311.5,286C 311.167,286.333 310.833,286.667 310.5,287C 312.044,288.187 313.711,288.52 315.5,288C 316.396,284.572 317.062,281.072 317.5,277.5C 320.491,277.67 322.491,276.337 323.5,273.5C 322.855,272.354 322.022,271.354 321,270.5C 319.989,271.337 318.822,271.67 317.5,271.5C 317.223,268.552 317.556,265.719 318.5,263C 317.929,261.795 317.262,260.628 316.5,259.5C 315.494,259.938 315.494,260.604 316.5,261.5C 313.911,265.568 313.911,269.568 316.5,273.5C 315.621,276.701 313.955,279.368 311.5,281.5C 310.5,274.335 310.5,267.002 311.5,259.5C 312.89,241.828 309.557,225.161 301.5,209.5C 301.238,206.309 299.905,203.642 297.5,201.5C 299.297,199.869 300.464,197.869 301,195.5C 304.378,195.132 307.878,195.132 311.5,195.5C 311.5,194.5 311.5,193.5 311.5,192.5C 309.335,192.884 307.668,192.217 306.5,190.5C 307.738,188.363 309.571,187.029 312,186.5C 312.5,188.333 313.667,189.5 315.5,190C 314.167,190.667 314.167,191.333 315.5,192C 316.437,192.692 317.103,192.525 317.5,191.5C 318.906,191.973 319.573,192.973 319.5,194.5C 317.713,202.755 319.879,204.089 326,198.5C 329.956,199.211 332.789,197.544 334.5,193.5C 335.689,192.571 337.022,192.238 338.5,192.5C 338.116,194.665 338.783,196.332 340.5,197.5C 342.415,195.929 343.415,193.929 343.5,191.5C 344.552,191.649 345.552,191.483 346.5,191C 341.977,191.05 340.977,189.55 343.5,186.5C 345.205,184.808 347.205,183.475 349.5,182.5C 350.833,182.5 351.5,181.833 351.5,180.5C 351.38,179.414 350.713,178.747 349.5,178.5C 345.191,180.037 340.858,180.37 336.5,179.5C 338.792,177.742 341.459,176.576 344.5,176C 343.833,175.667 343.167,175.333 342.5,175C 347.077,174.275 351.41,173.108 355.5,171.5C 360.69,171.013 365.69,171.013 370.5,171.5 Z"/></g>
<g><path style="opacity:1" fill="#060f3c" d="M 343.5,186.5 C 340.977,189.55 341.977,191.05 346.5,191C 345.552,191.483 344.552,191.649 343.5,191.5C 343.415,193.929 342.415,195.929 340.5,197.5C 338.783,196.332 338.116,194.665 338.5,192.5C 337.022,192.238 335.689,192.571 334.5,193.5C 332.789,197.544 329.956,199.211 326,198.5C 319.879,204.089 317.713,202.755 319.5,194.5C 320.659,195.456 321.826,196.456 323,197.5C 329.951,193.943 336.784,190.276 343.5,186.5 Z"/></g>
<g><path style="opacity:1" fill="#0f143f" d="M 343.5,235.5 C 349.282,235.85 354.948,236.85 360.5,238.5C 363.947,237.266 365.947,235.266 366.5,232.5C 372.402,233.721 378.068,235.388 383.5,237.5C 379.878,237.132 376.378,237.132 373,237.5C 369.349,235.108 366.182,235.774 363.5,239.5C 369.514,240.257 375.514,241.091 381.5,242C 385.309,244.716 389.642,246.383 394.5,247C 395.345,248.558 394.679,249.558 392.5,250C 373.003,249.861 353.67,250.695 334.5,252.5C 333.414,248.845 333.414,245.178 334.5,241.5C 331.833,241.5 329.167,241.5 326.5,241.5C 326.351,240.448 326.517,239.448 327,238.5C 329.381,239.435 331.881,239.768 334.5,239.5C 334.616,236.14 334.949,232.807 335.5,229.5C 336.978,229.238 338.311,229.571 339.5,230.5C 338.975,231.192 338.308,231.692 337.5,232C 339.727,232.941 341.727,234.108 343.5,235.5 Z"/></g>
<g><path style="opacity:1" fill="#b5b6cd" d="M 335.5,241.5 C 336.468,243.607 336.802,245.941 336.5,248.5C 353.342,248.83 370.008,248.497 386.5,247.5C 388.086,248.148 389.753,248.648 391.5,249C 372.836,249.5 354.17,249.667 335.5,249.5C 335.5,246.833 335.5,244.167 335.5,241.5 Z"/></g>
<g><path style="opacity:1" fill="#f3f3f5" d="M 343.5,235.5 C 357.586,239.941 371.919,243.941 386.5,247.5C 370.008,248.497 353.342,248.83 336.5,248.5C 336.802,245.941 336.468,243.607 335.5,241.5C 335.5,239.167 335.5,236.833 335.5,234.5C 338.167,234.833 340.833,235.167 343.5,235.5 Z"/></g>
<g><path style="opacity:1" fill="#828497" d="M 428.5,248.5 C 431.167,249.167 431.167,249.833 428.5,250.5C 428.5,249.833 428.5,249.167 428.5,248.5 Z"/></g>
<g><path style="opacity:1" fill="#f1f2f4" d="M 82.5,251.5 C 98.9916,250.503 115.658,250.17 132.5,250.5C 132.194,253.385 132.527,256.052 133.5,258.5C 133.5,260.5 133.5,262.5 133.5,264.5C 132.167,264.5 130.833,264.5 129.5,264.5C 129.167,264.5 128.833,264.5 128.5,264.5C 124.558,262.964 120.558,261.63 116.5,260.5C 114.485,259.076 112.152,258.41 109.5,258.5C 100.445,256.37 91.4448,254.037 82.5,251.5 Z"/></g>
<g><path style="opacity:1" fill="#171a3a" d="M 143.5,245.5 C 149.096,246.61 149.762,248.944 145.5,252.5C 141.167,251.172 140.501,248.838 143.5,245.5 Z"/></g>
<g><path style="opacity:1" fill="#c0c3dd" d="M 320.5,244.5 C 326.37,243.554 329.203,245.887 329,251.5C 326.525,254.524 323.525,255.19 320,253.5C 318.029,250.384 318.195,247.384 320.5,244.5 Z"/></g>
<g><path style="opacity:1" fill="#0d103d" d="M 321.5,246.5 C 326.159,246.015 327.492,247.848 325.5,252C 320.728,252.81 319.395,250.977 321.5,246.5 Z"/></g>
<g><path style="opacity:1" fill="#14193b" d="M 292.5,255.5 C 292.414,254.504 292.748,253.671 293.5,253C 291.559,252.257 289.726,252.424 288,253.5C 286.348,252.601 284.848,251.601 283.5,250.5C 286.728,250.701 289.895,250.367 293,249.5C 295.235,250.896 296.402,252.896 296.5,255.5C 295.167,255.5 293.833,255.5 292.5,255.5 Z"/></g>
<g><path style="opacity:1" fill="#a7a6b8" d="M 420.5,252.5 C 418.485,253.924 416.152,254.59 413.5,254.5C 415.515,253.076 417.848,252.41 420.5,252.5 Z"/></g>
<g><path style="opacity:1" fill="#626383" d="M 220.5,255.5 C 223.877,255.959 227.211,256.626 230.5,257.5C 233.5,257.5 236.5,257.5 239.5,257.5C 232.942,259.174 226.609,258.508 220.5,255.5 Z"/></g>
<g><path style="opacity:1" fill="#9ca1b3" d="M 109.5,258.5 C 112.152,258.41 114.485,259.076 116.5,260.5C 113.848,260.59 111.515,259.924 109.5,258.5 Z"/></g>
<g><path style="opacity:1" fill="#0b123a" d="M 399.5,257.5 C 386.449,261.013 373.449,264.679 360.5,268.5C 357.848,268.41 355.515,269.076 353.5,270.5C 352.833,270.5 352.167,270.5 351.5,270.5C 353.583,269.099 355.583,267.432 357.5,265.5C 358.293,265.931 359.127,266.265 360,266.5C 370.547,263.905 381.047,261.071 391.5,258C 394.146,257.503 396.813,257.336 399.5,257.5 Z"/></g>
<g><path style="opacity:1" fill="#050d3c" d="M 145.5,243.5 C 141.362,243.973 139.362,246.307 139.5,250.5C 138.153,251.171 136.986,251.171 136,250.5C 135.015,252.175 134.181,253.842 133.5,255.5C 133.5,253.5 133.5,251.5 133.5,249.5C 114.497,249.333 95.4971,249.5 76.5,250C 78.4357,250.813 80.4357,251.313 82.5,251.5C 91.4448,254.037 100.445,256.37 109.5,258.5C 111.515,259.924 113.848,260.59 116.5,260.5C 120.558,261.63 124.558,262.964 128.5,264.5C 121.737,263.793 115.07,262.46 108.5,260.5C 106.325,261.046 104.991,262.046 104.5,263.5C 102.559,263.196 100.893,262.363 99.5,261C 95.5765,259.762 94.2432,260.929 95.5,264.5C 76.9821,259.912 58.4821,255.246 40,250.5C 39.5,250.167 39,249.833 38.5,249.5C 44.7748,247.524 51.1081,245.858 57.5,244.5C 56.9423,245.79 55.9423,246.623 54.5,247C 51.8103,247.771 49.1436,248.604 46.5,249.5C 51.8276,251.166 57.161,252.832 62.5,254.5C 63.7193,253.737 64.7193,252.737 65.5,251.5C 66.7908,253.097 68.2908,254.43 70,255.5C 71.2798,255.387 72.1131,254.72 72.5,253.5C 71.8346,251.899 71.5012,250.399 71.5,249C 75.2027,245.747 79.2027,245.081 83.5,247C 101.645,247.339 119.478,247.506 137,247.5C 138.786,244.92 140.286,242.253 141.5,239.5C 142.833,239.5 144.167,239.5 145.5,239.5C 145.5,240.833 145.5,242.167 145.5,243.5 Z"/></g>
<g><path style="opacity:1" fill="#050d3a" d="M 161.5,222.5 C 152.9,250.774 157.566,276.441 175.5,299.5C 173.071,299.415 171.071,298.415 169.5,296.5C 168.571,297.689 168.238,299.022 168.5,300.5C 170.359,300.461 171.692,301.294 172.5,303C 170.19,303.497 167.857,303.663 165.5,303.5C 163.916,300.751 162.582,297.751 161.5,294.5C 161.667,293.833 161.833,293.167 162,292.5C 163,293.833 164,293.833 165,292.5C 164.706,286.57 162.706,281.236 159,276.5C 158.73,273.776 158.23,271.109 157.5,268.5C 157.167,268.167 156.833,267.833 156.5,267.5C 155.548,269.045 155.215,270.712 155.5,272.5C 152.834,272.067 150.168,271.567 147.5,271C 149.192,269.599 149.859,267.766 149.5,265.5C 151.91,265.079 153.743,263.746 155,261.5C 155.361,258.475 155.861,255.475 156.5,252.5C 155.722,250.853 154.556,249.52 153,248.5C 152.667,248.833 152.333,249.167 152,249.5C 150.618,253.773 149.785,258.44 149.5,263.5C 148.178,263.67 147.011,263.337 146,262.5C 145.505,260.527 145.338,258.527 145.5,256.5C 143.08,256.858 141.08,257.691 139.5,259C 139.108,256.646 139.108,254.146 139.5,251.5C 143.004,255.435 146.504,255.435 150,251.5C 151.22,247.707 150.053,245.04 146.5,243.5C 147.695,243.134 148.361,242.301 148.5,241C 146.458,235.398 145.958,229.564 147,223.5C 148.049,222.483 149.216,222.316 150.5,223C 151.955,229.086 151.622,235.086 149.5,241C 150.669,243.007 151.335,245.173 151.5,247.5C 153.201,247.034 154.701,247.034 156,247.5C 155.869,244.905 156.036,242.405 156.5,240C 154.819,238.055 154.152,236.055 154.5,234C 157.609,231.159 158.609,227.826 157.5,224C 158.563,222.812 159.897,222.312 161.5,222.5 Z"/></g>
<g><path style="opacity:1" fill="#040b3b" d="M 277.5,273.5 C 277.5,274.833 277.5,276.167 277.5,277.5C 273.167,277.5 268.833,277.5 264.5,277.5C 262.221,270.277 258.054,268.944 252,273.5C 248.066,281.008 248.899,287.841 254.5,294C 259.576,295.437 262.909,293.604 264.5,288.5C 268.783,287.508 273.116,287.174 277.5,287.5C 276.589,296.482 271.922,302.648 263.5,306C 253.437,308.294 245.771,305.127 240.5,296.5C 239.4,294.723 238.566,292.723 238,290.5C 234.758,278.457 237.925,268.624 247.5,261C 261.59,255.629 271.59,259.796 277.5,273.5 Z"/></g>
<g><path style="opacity:1" fill="#02083f" d="M 128.5,264.5 C 128.833,264.5 129.167,264.5 129.5,264.5C 129.953,265.458 130.619,266.292 131.5,267C 130.833,267.333 130.167,267.667 129.5,268C 129.966,269.299 129.966,270.799 129.5,272.5C 126.833,272.167 124.167,271.833 121.5,271.5C 112.485,270.081 103.818,267.748 95.5,264.5C 94.2432,260.929 95.5765,259.762 99.5,261C 100.893,262.363 102.559,263.196 104.5,263.5C 104.991,262.046 106.325,261.046 108.5,260.5C 115.07,262.46 121.737,263.793 128.5,264.5 Z"/></g>
<g><path style="opacity:1" fill="#9da2bc" d="M 360.5,268.5 C 358.485,269.924 356.152,270.59 353.5,270.5C 355.515,269.076 357.848,268.41 360.5,268.5 Z"/></g>
<g><path style="opacity:1" fill="#ada9bf" d="M 191.5,267.5 C 190.735,270.096 190.401,272.763 190.5,275.5C 189.848,274.551 189.514,273.385 189.5,272C 189.307,269.992 189.974,268.492 191.5,267.5 Z"/></g>
<g><path style="opacity:1" fill="#b2b5cf" d="M 277.5,273.5 C 278.451,274.919 278.784,276.585 278.5,278.5C 273.637,278.819 268.97,278.486 264.5,277.5C 268.833,277.5 273.167,277.5 277.5,277.5C 277.5,276.167 277.5,274.833 277.5,273.5 Z"/></g>
<g><path style="opacity:1" fill="#030b3a" d="M 311.5,259.5 C 310.5,267.002 310.5,274.335 311.5,281.5C 313.955,279.368 315.621,276.701 316.5,273.5C 313.911,269.568 313.911,265.568 316.5,261.5C 315.494,260.604 315.494,259.938 316.5,259.5C 317.262,260.628 317.929,261.795 318.5,263C 317.556,265.719 317.223,268.552 317.5,271.5C 318.822,271.67 319.989,271.337 321,270.5C 322.022,271.354 322.855,272.354 323.5,273.5C 322.491,276.337 320.491,277.67 317.5,277.5C 317.062,281.072 316.396,284.572 315.5,288C 313.711,288.52 312.044,288.187 310.5,287C 310.833,286.667 311.167,286.333 311.5,286C 310.809,284.933 310.309,283.766 310,282.5C 309,285.167 308,285.167 307,282.5C 305.082,285.583 303.749,288.917 303,292.5C 302.586,292.043 302.086,291.709 301.5,291.5C 299.6,295.898 296.767,299.565 293,302.5C 292.544,303.744 293.044,304.577 294.5,305C 292.763,307.287 290.43,307.787 287.5,306.5C 300.042,293.244 308.042,277.577 311.5,259.5 Z"/></g>
<g><path style="opacity:1" fill="#03093c" d="M 226.5,302.5 C 217.945,306.733 208.945,307.566 199.5,305C 194.144,302.491 191.477,298.324 191.5,292.5C 195.846,292.334 200.179,292.501 204.5,293C 207.506,296.78 211.172,297.447 215.5,295C 217.14,292.224 216.473,290.224 213.5,289C 206.678,288.37 200.345,286.37 194.5,283C 192.505,280.843 191.172,278.343 190.5,275.5C 190.401,272.763 190.735,270.096 191.5,267.5C 194.206,262.969 198.206,260.135 203.5,259C 212.526,257.558 220.859,259.224 228.5,264C 230.497,266.492 231.497,269.325 231.5,272.5C 226.821,272.666 222.155,272.499 217.5,272C 214.912,268.849 211.579,267.849 207.5,269C 204.897,271.871 205.23,274.538 208.5,277C 215.963,277.403 222.796,279.57 229,283.5C 232.936,290.599 232.103,296.933 226.5,302.5 Z"/></g>
<g><path style="opacity:1" fill="#00013e" d="M 175.5,299.5 C 175.5,299.833 175.5,300.167 175.5,300.5C 175.511,302.017 176.177,303.184 177.5,304C 177.043,304.414 176.709,304.914 176.5,305.5C 180.078,308.111 183.411,310.944 186.5,314C 186.387,315.28 185.72,316.113 184.5,316.5C 183.205,315.902 181.872,315.402 180.5,315C 179.687,313.197 178.52,311.697 177,310.5C 174.681,311.409 174.014,313.075 175,315.5C 176.699,316.406 178.533,316.739 180.5,316.5C 180.579,317.93 180.246,319.264 179.5,320.5C 180.689,321.429 182.022,321.762 183.5,321.5C 183.249,324.909 183.583,328.242 184.5,331.5C 186.51,333.171 188.843,333.838 191.5,333.5C 191.351,334.552 191.517,335.552 192,336.5C 192.333,336.167 192.667,335.833 193,335.5C 194.074,336.618 195.24,337.618 196.5,338.5C 196.145,339.522 195.478,340.189 194.5,340.5C 192.115,339.083 189.615,337.75 187,336.5C 184.244,337.695 182.744,336.695 182.5,333.5C 179.708,333.548 177.875,332.215 177,329.5C 176.244,327.191 176.744,325.191 178.5,323.5C 174.761,321.877 172.761,323.21 172.5,327.5C 172.876,331.264 174.876,333.597 178.5,334.5C 179.611,335.611 180.278,336.945 180.5,338.5C 178.298,342.634 176.631,346.967 175.5,351.5C 175.167,352.167 174.833,352.833 174.5,353.5C 173.105,345.63 171.439,337.63 169.5,329.5C 168.5,329.5 167.5,329.5 166.5,329.5C 166.5,328.167 166.5,326.833 166.5,325.5C 167.5,325.5 168.5,325.5 169.5,325.5C 169.519,323.94 169.852,322.44 170.5,321C 169.667,318.5 168.167,318 166,319.5C 166.053,322.675 165.22,325.342 163.5,327.5C 164.478,322.73 162.978,319.063 159,316.5C 156,318.167 153,319.833 150,321.5C 149.517,320.552 149.351,319.552 149.5,318.5C 152.598,318.587 152.932,318.087 150.5,317C 150.833,316.667 151.167,316.333 151.5,316C 154.79,315.747 157.79,314.747 160.5,313C 159.675,311.312 158.675,311.145 157.5,312.5C 153.495,309.64 154.162,308.14 159.5,308C 160.337,306.989 160.67,305.822 160.5,304.5C 157.786,304.75 155.119,304.917 152.5,305C 151.359,304.259 151.359,303.425 152.5,302.5C 150.638,300.82 148.805,299.153 147,297.5C 145.703,298.784 144.536,298.617 143.5,297C 146.204,295.154 149.204,293.987 152.5,293.5C 153.429,292.311 153.762,290.978 153.5,289.5C 148.57,289.966 143.903,289.299 139.5,287.5C 140.203,285.284 141.536,283.451 143.5,282C 139.002,278.51 135.669,274.176 133.5,269C 133.959,265.955 134.626,262.955 135.5,260C 135.613,258.301 134.947,257.134 133.5,256.5C 133.5,256.167 133.5,255.833 133.5,255.5C 134.181,253.842 135.015,252.175 136,250.5C 136.986,251.171 138.153,251.171 139.5,250.5C 139.5,250.833 139.5,251.167 139.5,251.5C 139.108,254.146 139.108,256.646 139.5,259C 141.08,257.691 143.08,256.858 145.5,256.5C 145.338,258.527 145.505,260.527 146,262.5C 147.011,263.337 148.178,263.67 149.5,263.5C 149.785,258.44 150.618,253.773 152,249.5C 152.333,249.167 152.667,248.833 153,248.5C 154.556,249.52 155.722,250.853 156.5,252.5C 155.861,255.475 155.361,258.475 155,261.5C 153.743,263.746 151.91,265.079 149.5,265.5C 149.859,267.766 149.192,269.599 147.5,271C 150.168,271.567 152.834,272.067 155.5,272.5C 155.215,270.712 155.548,269.045 156.5,267.5C 156.833,267.833 157.167,268.167 157.5,268.5C 158.23,271.109 158.73,273.776 159,276.5C 162.706,281.236 164.706,286.57 165,292.5C 164,293.833 163,293.833 162,292.5C 161.833,293.167 161.667,293.833 161.5,294.5C 162.582,297.751 163.916,300.751 165.5,303.5C 167.857,303.663 170.19,303.497 172.5,303C 171.692,301.294 170.359,300.461 168.5,300.5C 168.238,299.022 168.571,297.689 169.5,296.5C 171.071,298.415 173.071,299.415 175.5,299.5 Z"/></g>
<g><path style="opacity:1" fill="#070f3a" d="M 133.5,256.5 C 134.947,257.134 135.613,258.301 135.5,260C 134.626,262.955 133.959,265.955 133.5,269C 135.669,274.176 139.002,278.51 143.5,282C 141.536,283.451 140.203,285.284 139.5,287.5C 137.691,282.972 135.024,282.472 131.5,286C 131.957,286.414 132.291,286.914 132.5,287.5C 131.311,288.429 129.978,288.762 128.5,288.5C 128.579,291.271 128.079,293.937 127,296.5C 125.667,295.167 124.333,295.167 123,296.5C 121,299.167 119,301.833 117,304.5C 116.517,305.448 116.351,306.448 116.5,307.5C 115.325,307.281 114.325,307.614 113.5,308.5C 113.906,314.351 111.572,317.685 106.5,318.5C 105.403,320.229 104.237,321.896 103,323.5C 102.184,324.823 101.017,325.489 99.5,325.5C 110.733,309.427 122.566,293.76 135,278.5C 135.483,277.552 135.649,276.552 135.5,275.5C 130.562,274.769 125.895,273.435 121.5,271.5C 124.167,271.833 126.833,272.167 129.5,272.5C 129.966,270.799 129.966,269.299 129.5,268C 130.167,267.667 130.833,267.333 131.5,267C 130.619,266.292 129.953,265.458 129.5,264.5C 130.833,264.5 132.167,264.5 133.5,264.5C 133.5,262.5 133.5,260.5 133.5,258.5C 133.5,257.833 133.5,257.167 133.5,256.5 Z"/></g>
<g><path style="opacity:1" fill="#00023e" d="M 226.5,302.5 C 222.279,301.5 218.445,302.5 215,305.5C 211.614,304.913 208.28,304.246 205,303.5C 204.333,302.167 204.333,300.833 205,299.5C 206.658,298.595 208.658,298.595 211,299.5C 213.111,298.528 215.278,297.695 217.5,297C 217.996,295.004 218.996,293.337 220.5,292C 218.787,290.622 217.453,288.955 216.5,287C 214.744,286.798 213.078,286.298 211.5,285.5C 213.714,284.959 215.88,284.626 218,284.5C 219,286.167 220,287.833 221,289.5C 222.375,287.624 223.542,285.624 224.5,283.5C 226.544,285.068 226.878,286.902 225.5,289C 226.723,290.72 227.723,292.553 228.5,294.5C 226.951,296.902 226.284,299.568 226.5,302.5 Z"/></g>
<g><path style="opacity:1" fill="#00013e" d="M 240.5,296.5 C 240.336,293.813 240.503,291.146 241,288.5C 245.895,292.441 246.729,291.441 243.5,285.5C 244.485,282.228 245.151,278.895 245.5,275.5C 242.774,270.594 244.107,266.761 249.5,264C 252.502,263.222 255.336,262.055 258,260.5C 260.456,260.287 261.456,261.287 261,263.5C 259.883,263.335 258.716,263.002 257.5,262.5C 255.55,265.767 253.217,268.601 250.5,271C 249.802,274.262 248.802,277.428 247.5,280.5C 247.621,283.002 247.788,285.668 248,288.5C 249.113,289.76 249.28,290.927 248.5,292C 249.667,292.5 250.5,293.333 251,294.5C 252.558,293.655 253.558,294.321 254,296.5C 259.87,295.34 260.704,296.84 256.5,301C 259.131,301.107 261.631,301.273 264,301.5C 265.651,299.598 265.984,297.598 265,295.5C 266.78,296.594 268.614,297.594 270.5,298.5C 269.252,300.459 267.585,301.959 265.5,303C 261.821,303.835 258.155,304.668 254.5,305.5C 251.995,303.871 249.328,302.538 246.5,301.5C 245.289,300.28 245.289,299.113 246.5,298C 244.655,296.872 242.655,296.372 240.5,296.5 Z"/></g>
<g><path style="opacity:1" fill="#e9eaee" d="M 330.5,287.5 C 337.125,297.237 344.125,306.737 351.5,316C 342.207,312.185 333.207,307.518 324.5,302C 323.438,298.573 324.104,295.407 326.5,292.5C 326.79,289.873 328.124,288.206 330.5,287.5 Z"/></g>
<g><path style="opacity:1" fill="#f0f1f3" d="M 153.5,311.5 C 153.218,312.778 152.551,313.778 151.5,314.5C 148.833,314.5 146.167,314.5 143.5,314.5C 137.173,315.182 130.839,315.348 124.5,315C 125.381,314.292 126.047,313.458 126.5,312.5C 127.833,311.5 129.167,310.5 130.5,309.5C 135.351,306.574 140.351,303.907 145.5,301.5C 146.442,301.608 147.275,301.941 148,302.5C 149.662,305.649 151.495,308.649 153.5,311.5 Z"/></g>
<g><path style="opacity:1" fill="#030837" d="M 175.5,300.5 C 185,310.409 196,318.075 208.5,323.5C 206.131,323.851 203.797,324.018 201.5,324C 200.743,322.488 199.743,321.154 198.5,320C 195.238,318.571 192.071,317.071 189,315.5C 187.513,316.253 187.346,317.086 188.5,318C 186.404,318.737 184.737,319.903 183.5,321.5C 182.022,321.762 180.689,321.429 179.5,320.5C 180.246,319.264 180.579,317.93 180.5,316.5C 178.533,316.739 176.699,316.406 175,315.5C 174.014,313.075 174.681,311.409 177,310.5C 178.52,311.697 179.687,313.197 180.5,315C 181.872,315.402 183.205,315.902 184.5,316.5C 185.72,316.113 186.387,315.28 186.5,314C 183.411,310.944 180.078,308.111 176.5,305.5C 176.709,304.914 177.043,304.414 177.5,304C 176.177,303.184 175.511,302.017 175.5,300.5 Z"/></g>
<g><path style="opacity:1" fill="#050c3c" d="M 338.5,273.5 C 337.359,274.339 336.026,275.006 334.5,275.5C 333.479,276.002 333.312,276.668 334,277.5C 346.448,294.949 359.282,312.116 372.5,329C 364.158,328.81 355.825,328.144 347.5,327C 345.942,326.79 344.609,326.29 343.5,325.5C 346.397,325.681 349.23,325.348 352,324.5C 357.004,325.621 361.837,326.288 366.5,326.5C 366.587,323.402 366.087,323.068 365,325.5C 363.64,323.895 362.14,322.395 360.5,321C 352.524,321.442 344.524,321.442 336.5,321C 335.901,314.517 333.234,313.85 328.5,319C 326.741,319.798 325.074,319.631 323.5,318.5C 324.624,317.086 325.624,315.586 326.5,314C 329.272,313.474 331.938,312.641 334.5,311.5C 333.359,310.575 333.359,309.741 334.5,309C 330.501,306.791 326.334,304.958 322,303.5C 321.667,305.047 322.167,306.38 323.5,307.5C 323.003,310.55 321.503,311.55 319,310.5C 318.565,306.668 319.399,303.168 321.5,300C 320.222,296.945 319.722,293.778 320,290.5C 320.196,292.286 321.029,293.619 322.5,294.5C 323.524,293.147 324.857,292.48 326.5,292.5C 324.104,295.407 323.438,298.573 324.5,302C 333.207,307.518 342.207,312.185 351.5,316C 344.125,306.737 337.125,297.237 330.5,287.5C 333.735,288.267 335.901,290.267 337,293.5C 337.574,291.508 338.741,290.008 340.5,289C 338.157,287.333 336.157,285.333 334.5,283C 333.167,283 331.833,283 330.5,283C 331.167,282.333 331.833,281.667 332.5,281C 330.285,279.609 330.285,277.943 332.5,276C 331.378,274.387 331.878,273.22 334,272.5C 335.356,273.38 336.856,273.714 338.5,273.5 Z"/></g>
<g><path style="opacity:1" fill="#01043d" d="M 139.5,287.5 C 140.206,291.885 138.873,295.385 135.5,298C 136.167,298.333 136.833,298.667 137.5,299C 135.342,300.312 135.009,301.978 136.5,304C 133.74,305.179 131.74,307.012 130.5,309.5C 129.167,310.5 127.833,311.5 126.5,312.5C 123.06,314.055 119.727,315.888 116.5,318C 125.445,317.039 134.445,316.206 143.5,315.5C 146.524,316.248 148.19,318.248 148.5,321.5C 137.921,323.381 127.255,324.548 116.5,325C 112.167,325.488 108.167,326.655 104.5,328.5C 103.833,328.5 103.167,328.5 102.5,328.5C 100.517,328.843 99.1834,328.176 98.5,326.5C 98.5,325.833 98.8333,325.5 99.5,325.5C 101.017,325.489 102.184,324.823 103,323.5C 104.237,321.896 105.403,320.229 106.5,318.5C 111.572,317.685 113.906,314.351 113.5,308.5C 114.325,307.614 115.325,307.281 116.5,307.5C 116.351,306.448 116.517,305.448 117,304.5C 119,301.833 121,299.167 123,296.5C 124.333,295.167 125.667,295.167 127,296.5C 128.079,293.937 128.579,291.271 128.5,288.5C 129.978,288.762 131.311,288.429 132.5,287.5C 132.291,286.914 131.957,286.414 131.5,286C 135.024,282.472 137.691,282.972 139.5,287.5 Z"/></g>
<g><path style="opacity:1" fill="#727597" d="M 153.5,311.5 C 154.404,312.209 154.737,313.209 154.5,314.5C 153.5,314.5 152.5,314.5 151.5,314.5C 152.551,313.778 153.218,312.778 153.5,311.5 Z"/></g>
<g><path style="opacity:1" fill="#060e3a" d="M 139.5,287.5 C 143.903,289.299 148.57,289.966 153.5,289.5C 153.762,290.978 153.429,292.311 152.5,293.5C 149.204,293.987 146.204,295.154 143.5,297C 144.536,298.617 145.703,298.784 147,297.5C 148.805,299.153 150.638,300.82 152.5,302.5C 151.359,303.425 151.359,304.259 152.5,305C 155.119,304.917 157.786,304.75 160.5,304.5C 160.67,305.822 160.337,306.989 159.5,308C 154.162,308.14 153.495,309.64 157.5,312.5C 158.675,311.145 159.675,311.312 160.5,313C 157.79,314.747 154.79,315.747 151.5,316C 151.167,316.333 150.833,316.667 150.5,317C 152.932,318.087 152.598,318.587 149.5,318.5C 149.351,319.552 149.517,320.552 150,321.5C 153,319.833 156,318.167 159,316.5C 162.978,319.063 164.478,322.73 163.5,327.5C 163.398,332.878 163.398,338.045 163.5,343C 162.756,344.039 161.756,344.539 160.5,344.5C 160.5,343.167 160.5,341.833 160.5,340.5C 160.669,335.819 161.002,331.152 161.5,326.5C 162.451,325.081 162.784,323.415 162.5,321.5C 157.63,321.69 152.964,322.356 148.5,323.5C 133.785,324.837 119.118,326.504 104.5,328.5C 108.167,326.655 112.167,325.488 116.5,325C 127.255,324.548 137.921,323.381 148.5,321.5C 148.19,318.248 146.524,316.248 143.5,315.5C 143.5,315.167 143.5,314.833 143.5,314.5C 146.167,314.5 148.833,314.5 151.5,314.5C 152.5,314.5 153.5,314.5 154.5,314.5C 154.737,313.209 154.404,312.209 153.5,311.5C 151.495,308.649 149.662,305.649 148,302.5C 147.275,301.941 146.442,301.608 145.5,301.5C 140.351,303.907 135.351,306.574 130.5,309.5C 131.74,307.012 133.74,305.179 136.5,304C 135.009,301.978 135.342,300.312 137.5,299C 136.833,298.667 136.167,298.333 135.5,298C 138.873,295.385 140.206,291.885 139.5,287.5 Z"/></g>
<g><path style="opacity:1" fill="#cacedd" d="M 126.5,312.5 C 126.047,313.458 125.381,314.292 124.5,315C 130.839,315.348 137.173,315.182 143.5,314.5C 143.5,314.833 143.5,315.167 143.5,315.5C 134.445,316.206 125.445,317.039 116.5,318C 119.727,315.888 123.06,314.055 126.5,312.5 Z"/></g>
<g><path style="opacity:1" fill="#070f3b" d="M 194.5,340.5 C 196.772,341.973 198.105,344.14 198.5,347C 197.123,349.301 195.456,349.801 193.5,348.5C 194.974,347.416 195.807,346.082 196,344.5C 191.982,342.497 187.982,340.497 184,338.5C 180.937,342.72 178.104,347.054 175.5,351.5C 176.631,346.967 178.298,342.634 180.5,338.5C 180.278,336.945 179.611,335.611 178.5,334.5C 174.876,333.597 172.876,331.264 172.5,327.5C 172.761,323.21 174.761,321.877 178.5,323.5C 176.744,325.191 176.244,327.191 177,329.5C 177.875,332.215 179.708,333.548 182.5,333.5C 182.744,336.695 184.244,337.695 187,336.5C 189.615,337.75 192.115,339.083 194.5,340.5 Z"/></g>
<g><path style="opacity:1" fill="#06103a" d="M 313.5,322.5 C 311.139,322.326 308.806,321.993 306.5,321.5C 307.427,327.803 308.094,334.137 308.5,340.5C 306.273,336.23 305.107,331.564 305,326.5C 304.667,326.167 304.333,325.833 304,325.5C 302.782,327.019 301.282,328.186 299.5,329C 300.763,330.705 301.097,332.372 300.5,334C 301.167,334.333 301.833,334.667 302.5,335C 301.481,338.913 301.481,343.08 302.5,347.5C 303.251,346.624 303.751,345.624 304,344.5C 304.601,346.137 305.101,347.803 305.5,349.5C 304.751,351.036 303.751,352.369 302.5,353.5C 303.274,354.711 304.107,354.711 305,353.5C 305.333,354.833 305.667,356.167 306,357.5C 306.272,354.618 307.106,351.951 308.5,349.5C 309.167,350.833 309.833,352.167 310.5,353.5C 311.036,360.847 311.703,368.18 312.5,375.5C 313.069,379.329 312.402,382.663 310.5,385.5C 307.19,383.518 304.19,381.185 301.5,378.5C 303.441,378.869 305.275,379.536 307,380.5C 307.249,379.376 307.749,378.376 308.5,377.5C 308.668,378.947 309.334,380.613 310.5,382.5C 312.491,373.929 311.324,365.929 307,358.5C 305.68,362.114 304.513,365.781 303.5,369.5C 302.833,369.833 302.167,370.167 301.5,370.5C 299.941,367.868 298.274,365.368 296.5,363C 297.337,361.989 297.67,360.822 297.5,359.5C 298.976,361.769 300.476,364.102 302,366.5C 302.059,353.97 300.559,341.637 297.5,329.5C 295.313,331.422 292.98,333.088 290.5,334.5C 291.013,330.981 293.013,328.647 296.5,327.5C 297.246,326.264 297.579,324.93 297.5,323.5C 301.788,323.182 305.455,321.516 308.5,318.5C 310.586,319.489 312.253,320.822 313.5,322.5 Z"/></g>
<g><path style="opacity:1" fill="#1f2146" d="M 316.5,322.5 C 317.449,321.848 318.615,321.514 320,321.5C 326.667,322.655 333.167,323.988 339.5,325.5C 331.709,325.148 324.042,324.148 316.5,322.5 Z"/></g>
<g><path style="opacity:1" fill="#0c143c" d="M 268.5,319.5 C 267.699,321.042 267.366,322.708 267.5,324.5C 264.907,325.332 262.573,325.332 260.5,324.5C 243.609,329.607 226.609,329.774 209.5,325C 208.944,324.617 208.611,324.117 208.5,323.5C 217.026,325.649 225.692,326.983 234.5,327.5C 246.298,326.717 257.631,324.05 268.5,319.5 Z"/></g>
<g><path style="opacity:1" fill="#9196b1" d="M 161.5,326.5 C 161.5,325.167 161.5,323.833 161.5,322.5C 157.202,323.2 152.869,323.533 148.5,323.5C 152.964,322.356 157.63,321.69 162.5,321.5C 162.784,323.415 162.451,325.081 161.5,326.5 Z"/></g>
<g><path style="opacity:1" fill="#00023d" d="M 208.5,323.5 C 208.611,324.117 208.944,324.617 209.5,325C 226.609,329.774 243.609,329.607 260.5,324.5C 261.598,326.642 260.764,327.975 258,328.5C 257.667,328.167 257.333,327.833 257,327.5C 252.937,329.053 248.77,330.553 244.5,332C 237.53,331.545 230.53,331.545 223.5,332C 221.221,332.473 219.221,333.473 217.5,335C 231.784,334.048 246.117,333.215 260.5,332.5C 261.5,332.167 262.5,331.833 263.5,331.5C 263.289,329.71 263.289,328.044 263.5,326.5C 266.102,327.411 268.935,327.411 272,326.5C 272.018,328.797 271.851,331.131 271.5,333.5C 269.071,333.884 266.737,334.551 264.5,335.5C 264.343,336.873 264.51,338.207 265,339.5C 266.709,341.175 268.376,342.842 270,344.5C 270.944,343.737 271.444,342.737 271.5,341.5C 270.179,339.668 269.179,337.668 268.5,335.5C 270.612,334.725 272.612,334.725 274.5,335.5C 275.496,335.414 276.329,335.748 277,336.5C 278.67,342.333 279.837,348.333 280.5,354.5C 282.167,354.5 283.833,354.5 285.5,354.5C 285.137,356.911 286.137,358.411 288.5,359C 287.833,359.667 287.167,360.333 286.5,361C 287.554,363.382 288.221,365.882 288.5,368.5C 280.193,362.853 272.193,356.853 264.5,350.5C 263.727,347.213 261.727,345.713 258.5,346C 257.956,349.603 257.122,353.103 256,356.5C 256.019,350.961 254.352,346.628 251,343.5C 248.631,343.323 246.131,343.656 243.5,344.5C 242.05,345.85 241.383,347.516 241.5,349.5C 238.848,349.41 236.515,350.076 234.5,351.5C 234.17,370.341 234.503,389.007 235.5,407.5C 234.265,409.773 234.598,411.606 236.5,413C 235.922,414.417 234.922,415.25 233.5,415.5C 233.509,413.692 233.009,412.025 232,410.5C 230.984,411.634 230.317,411.301 230,409.5C 229.333,410.833 228.667,412.167 228,413.5C 226.833,409.333 225.667,405.167 224.5,401C 226.244,396.958 225.577,393.458 222.5,390.5C 223.711,389.28 223.711,388.113 222.5,387C 223.91,386.632 224.91,385.799 225.5,384.5C 224.986,381.356 224.153,378.356 223,375.5C 221.874,378.723 221.707,381.889 222.5,385C 221.975,385.692 221.308,386.192 220.5,386.5C 219.556,380.349 217.556,374.682 214.5,369.5C 213.376,362.129 212.043,354.795 210.5,347.5C 205.089,346.724 201.422,348.724 199.5,353.5C 195.69,352.976 193.69,354.643 193.5,358.5C 192.178,358.33 191.011,358.663 190,359.5C 189.1,358.23 187.934,357.23 186.5,356.5C 187.651,355.269 188.817,355.269 190,356.5C 190.792,354.413 191.959,352.579 193.5,351C 192.944,350.617 192.611,350.117 192.5,349.5C 192.5,348.833 192.833,348.5 193.5,348.5C 195.456,349.801 197.123,349.301 198.5,347C 198.105,344.14 196.772,341.973 194.5,340.5C 195.478,340.189 196.145,339.522 196.5,338.5C 195.24,337.618 194.074,336.618 193,335.5C 192.667,335.833 192.333,336.167 192,336.5C 191.517,335.552 191.351,334.552 191.5,333.5C 192.833,333.5 193.5,332.833 193.5,331.5C 197.056,325.03 195.056,321.697 187.5,321.5C 186.167,321.5 184.833,321.5 183.5,321.5C 184.737,319.903 186.404,318.737 188.5,318C 187.346,317.086 187.513,316.253 189,315.5C 192.071,317.071 195.238,318.571 198.5,320C 199.743,321.154 200.743,322.488 201.5,324C 203.797,324.018 206.131,323.851 208.5,323.5 Z"/></g>
<g><path style="opacity:1" fill="#434261" d="M 98.5,326.5 C 99.1834,328.176 100.517,328.843 102.5,328.5C 100.636,329.793 98.6365,329.793 96.5,328.5C 96.8555,327.478 97.5222,326.811 98.5,326.5 Z"/></g>
<g><path style="opacity:1" fill="#bcc1d9" d="M 187.5,321.5 C 195.056,321.697 197.056,325.03 193.5,331.5C 187.205,333.372 184.371,331.038 185,324.5C 186.045,323.627 186.878,322.627 187.5,321.5 Z"/></g>
<g><path style="opacity:1" fill="#1a1d40" d="M 188.5,323.5 C 193.493,323.997 194.493,326.164 191.5,330C 186.382,329.824 185.382,327.658 188.5,323.5 Z"/></g>
<g><path style="opacity:1" fill="#0c1438" d="M 183.5,321.5 C 184.833,321.5 186.167,321.5 187.5,321.5C 186.878,322.627 186.045,323.627 185,324.5C 184.371,331.038 187.205,333.372 193.5,331.5C 193.5,332.833 192.833,333.5 191.5,333.5C 188.843,333.838 186.51,333.171 184.5,331.5C 183.583,328.242 183.249,324.909 183.5,321.5 Z"/></g>
<g><path style="opacity:1" fill="#00013f" d="M 288.5,368.5 C 288.221,365.882 287.554,363.382 286.5,361C 287.167,360.333 287.833,359.667 288.5,359C 286.137,358.411 285.137,356.911 285.5,354.5C 283.833,354.5 282.167,354.5 280.5,354.5C 279.837,348.333 278.67,342.333 277,336.5C 276.329,335.748 275.496,335.414 274.5,335.5C 274.611,334.883 274.944,334.383 275.5,334C 278.706,333.11 281.706,333.443 284.5,335C 283.672,335.915 282.672,336.581 281.5,337C 284.203,338.391 284.869,340.391 283.5,343C 284.769,347.693 286.435,352.193 288.5,356.5C 289.167,354.833 289.833,353.167 290.5,351.5C 291.675,354.471 291.342,357.304 289.5,360C 292.299,363.459 291.966,366.292 288.5,368.5 Z"/></g>
<g><path style="opacity:1" fill="#00033e" d="M 308.5,340.5 C 308.5,340.833 308.5,341.167 308.5,341.5C 308.5,344.167 308.5,346.833 308.5,349.5C 307.106,351.951 306.272,354.618 306,357.5C 305.667,356.167 305.333,354.833 305,353.5C 304.107,354.711 303.274,354.711 302.5,353.5C 303.751,352.369 304.751,351.036 305.5,349.5C 305.101,347.803 304.601,346.137 304,344.5C 303.751,345.624 303.251,346.624 302.5,347.5C 301.481,343.08 301.481,338.913 302.5,335C 301.833,334.667 301.167,334.333 300.5,334C 301.097,332.372 300.763,330.705 299.5,329C 301.282,328.186 302.782,327.019 304,325.5C 304.333,325.833 304.667,326.167 305,326.5C 305.107,331.564 306.273,336.23 308.5,340.5 Z"/></g>
<g><path style="opacity:1" fill="#e7e9ee" d="M 297.5,359.5 C 297.5,358.833 297.167,358.5 296.5,358.5C 293.366,351.567 289.699,344.9 285.5,338.5C 286.867,337.16 288.2,335.827 289.5,334.5C 289.833,334.5 290.167,334.5 290.5,334.5C 292.98,333.088 295.313,331.422 297.5,329.5C 300.559,341.637 302.059,353.97 302,366.5C 300.476,364.102 298.976,361.769 297.5,359.5 Z"/></g>
<g><path style="opacity:1" fill="#3c3a61" d="M 160.5,340.5 C 160.5,341.833 160.5,343.167 160.5,344.5C 160.932,347.877 160.265,350.877 158.5,353.5C 158.77,348.972 159.437,344.639 160.5,340.5 Z"/></g>
<g><path style="opacity:1" fill="#4c4e6e" d="M 308.5,341.5 C 309.617,345.295 310.283,349.295 310.5,353.5C 309.833,352.167 309.167,350.833 308.5,349.5C 308.5,346.833 308.5,344.167 308.5,341.5 Z"/></g>
<g><path style="opacity:1" fill="#e9eaef" d="M 193.5,348.5 C 192.833,348.5 192.5,348.833 192.5,349.5C 183.771,354.627 175.604,360.627 168,367.5C 167.517,366.552 167.351,365.552 167.5,364.5C 170.069,361.039 172.403,357.372 174.5,353.5C 174.833,352.833 175.167,352.167 175.5,351.5C 178.104,347.054 180.937,342.72 184,338.5C 187.982,340.497 191.982,342.497 196,344.5C 195.807,346.082 194.974,347.416 193.5,348.5 Z"/></g>
<g><path style="opacity:1" fill="#f3f3f4" d="M 236.5,400.5 C 235.504,384.675 235.17,368.675 235.5,352.5C 238.059,352.802 240.393,352.468 242.5,351.5C 244.717,350.631 247.05,350.298 249.5,350.5C 245.784,367.364 241.451,384.03 236.5,400.5 Z"/></g>
<g><path style="opacity:1" fill="#0c123a" d="M 214.5,369.5 C 212.65,362.472 210.316,355.472 207.5,348.5C 203.075,352.271 198.409,355.605 193.5,358.5C 193.69,354.643 195.69,352.976 199.5,353.5C 201.422,348.724 205.089,346.724 210.5,347.5C 212.043,354.795 213.376,362.129 214.5,369.5 Z"/></g>
<g><path style="opacity:1" fill="#ccd1e5" d="M 234.5,351.5 C 237.167,351.5 239.833,351.5 242.5,351.5C 240.393,352.468 238.059,352.802 235.5,352.5C 235.17,368.675 235.504,384.675 236.5,400.5C 236.007,402.806 235.674,405.139 235.5,407.5C 234.503,389.007 234.17,370.341 234.5,351.5 Z"/></g>
<g><path style="opacity:1" fill="#030a3a" d="M 285.5,308.5 C 283.792,310.216 282.458,312.216 281.5,314.5C 279.004,315.58 276.67,316.914 274.5,318.5C 278.283,319.711 281.95,321.378 285.5,323.5C 286.122,326.37 286.789,329.204 287.5,332C 285.19,334.864 285.856,335.698 289.5,334.5C 288.2,335.827 286.867,337.16 285.5,338.5C 289.699,344.9 293.366,351.567 296.5,358.5C 295.307,358.97 294.64,359.97 294.5,361.5C 295.522,364.213 295.522,366.88 294.5,369.5C 295.244,373.373 297.577,375.04 301.5,374.5C 301.5,375.833 301.5,377.167 301.5,378.5C 296.587,375.882 292.254,372.548 288.5,368.5C 291.966,366.292 292.299,363.459 289.5,360C 291.342,357.304 291.675,354.471 290.5,351.5C 289.833,353.167 289.167,354.833 288.5,356.5C 286.435,352.193 284.769,347.693 283.5,343C 284.869,340.391 284.203,338.391 281.5,337C 282.672,336.581 283.672,335.915 284.5,335C 281.706,333.443 278.706,333.11 275.5,334C 274.944,334.383 274.611,334.883 274.5,335.5C 272.612,334.725 270.612,334.725 268.5,335.5C 269.179,337.668 270.179,339.668 271.5,341.5C 271.444,342.737 270.944,343.737 270,344.5C 268.376,342.842 266.709,341.175 265,339.5C 264.51,338.207 264.343,336.873 264.5,335.5C 266.737,334.551 269.071,333.884 271.5,333.5C 271.851,331.131 272.018,328.797 272,326.5C 268.935,327.411 266.102,327.411 263.5,326.5C 263.289,328.044 263.289,329.71 263.5,331.5C 262.5,331.833 261.5,332.167 260.5,332.5C 246.117,333.215 231.784,334.048 217.5,335C 219.221,333.473 221.221,332.473 223.5,332C 230.53,331.545 237.53,331.545 244.5,332C 248.77,330.553 252.937,329.053 257,327.5C 257.333,327.833 257.667,328.167 258,328.5C 260.764,327.975 261.598,326.642 260.5,324.5C 262.573,325.332 264.907,325.332 267.5,324.5C 267.366,322.708 267.699,321.042 268.5,319.5C 274.296,316.098 279.962,312.431 285.5,308.5 Z"/></g>
<g><path style="opacity:1" fill="#b8bdd4" d="M 276.5,321.5 C 284.828,322.069 286.495,325.569 281.5,332C 273.088,331.812 271.421,328.312 276.5,321.5 Z"/></g>
<g><path style="opacity:1" fill="#13153f" d="M 277.5,323.5 C 281.976,323.8 283.31,325.967 281.5,330C 276.57,330.427 275.237,328.26 277.5,323.5 Z"/></g>
<g><path style="opacity:1" fill="#060e3b" d="M 192.5,349.5 C 192.611,350.117 192.944,350.617 193.5,351C 191.959,352.579 190.792,354.413 190,356.5C 188.817,355.269 187.651,355.269 186.5,356.5C 187.934,357.23 189.1,358.23 190,359.5C 191.011,358.663 192.178,358.33 193.5,358.5C 185.143,365.519 176.476,372.185 167.5,378.5C 168.339,374.163 171.006,371.663 175.5,371C 174.289,369.887 174.289,368.72 175.5,367.5C 174.833,367.167 174.167,366.833 173.5,366.5C 170.978,367.762 168.311,368.429 165.5,368.5C 165.157,366.517 165.824,365.183 167.5,364.5C 167.351,365.552 167.517,366.552 168,367.5C 175.604,360.627 183.771,354.627 192.5,349.5 Z"/></g>
<g><path style="opacity:1" fill="#9499b1" d="M 259.5,353.5 C 259.59,356.152 258.924,358.485 257.5,360.5C 257.41,357.848 258.076,355.515 259.5,353.5 Z"/></g>
<g><path style="opacity:1" fill="#01043b" d="M 174.5,353.5 C 172.403,357.372 170.069,361.039 167.5,364.5C 165.824,365.183 165.157,366.517 165.5,368.5C 168.311,368.429 170.978,367.762 173.5,366.5C 174.167,366.833 174.833,367.167 175.5,367.5C 174.289,368.72 174.289,369.887 175.5,371C 171.006,371.663 168.339,374.163 167.5,378.5C 165.754,380.252 163.754,381.585 161.5,382.5C 160.417,382.539 159.417,382.873 158.5,383.5C 158.167,383 157.833,382.5 157.5,382C 158.041,377.894 158.041,373.728 157.5,369.5C 158.295,365.215 158.628,360.881 158.5,356.5C 158.5,355.5 158.5,354.5 158.5,353.5C 160.265,350.877 160.932,347.877 160.5,344.5C 161.756,344.539 162.756,344.039 163.5,343C 163.398,338.045 163.398,332.878 163.5,327.5C 165.22,325.342 166.053,322.675 166,319.5C 168.167,318 169.667,318.5 170.5,321C 169.852,322.44 169.519,323.94 169.5,325.5C 168.5,325.5 167.5,325.5 166.5,325.5C 166.5,326.833 166.5,328.167 166.5,329.5C 167.5,329.5 168.5,329.5 169.5,329.5C 171.439,337.63 173.105,345.63 174.5,353.5 Z"/></g>
<g><path style="opacity:1" fill="#4b4a72" d="M 158.5,356.5 C 158.628,360.881 158.295,365.215 157.5,369.5C 157.167,369.5 156.833,369.5 156.5,369.5C 156.77,364.972 157.437,360.639 158.5,356.5 Z"/></g>
<g><path style="opacity:1" fill="#040a3d" d="M 264.5,350.5 C 260.853,347.496 259.186,348.496 259.5,353.5C 258.076,355.515 257.41,357.848 257.5,360.5C 252.322,379.544 246.989,398.544 241.5,417.5C 241.381,412.404 242.047,407.738 243.5,403.5C 241.305,394.444 239.472,394.777 238,404.5C 239.413,410.655 238.413,416.321 235,421.5C 232.521,419.912 232.021,417.912 233.5,415.5C 234.922,415.25 235.922,414.417 236.5,413C 234.598,411.606 234.265,409.773 235.5,407.5C 235.674,405.139 236.007,402.806 236.5,400.5C 241.451,384.03 245.784,367.364 249.5,350.5C 247.05,350.298 244.717,350.631 242.5,351.5C 239.833,351.5 237.167,351.5 234.5,351.5C 236.515,350.076 238.848,349.41 241.5,349.5C 241.383,347.516 242.05,345.85 243.5,344.5C 246.131,343.656 248.631,343.323 251,343.5C 254.352,346.628 256.019,350.961 256,356.5C 257.122,353.103 257.956,349.603 258.5,346C 261.727,345.713 263.727,347.213 264.5,350.5 Z"/></g>
<g><path style="opacity:1" fill="#00023d" d="M 296.5,358.5 C 297.167,358.5 297.5,358.833 297.5,359.5C 297.67,360.822 297.337,361.989 296.5,363C 298.274,365.368 299.941,367.868 301.5,370.5C 302.167,370.167 302.833,369.833 303.5,369.5C 304.513,365.781 305.68,362.114 307,358.5C 311.324,365.929 312.491,373.929 310.5,382.5C 309.334,380.613 308.668,378.947 308.5,377.5C 307.749,378.376 307.249,379.376 307,380.5C 305.275,379.536 303.441,378.869 301.5,378.5C 301.5,377.167 301.5,375.833 301.5,374.5C 297.577,375.04 295.244,373.373 294.5,369.5C 295.522,366.88 295.522,364.213 294.5,361.5C 294.64,359.97 295.307,358.97 296.5,358.5 Z"/></g>
<g><path style="opacity:1" fill="#1c1d42" d="M 156.5,369.5 C 156.833,369.5 157.167,369.5 157.5,369.5C 158.041,373.728 158.041,377.894 157.5,382C 157.833,382.5 158.167,383 158.5,383.5C 159.417,382.873 160.417,382.539 161.5,382.5C 159.83,385.002 157.664,387.002 155,388.5C 155.1,382.162 155.6,375.828 156.5,369.5 Z"/></g>
<g><path style="opacity:1" fill="#393a58" d="M 312.5,375.5 C 313.362,378.823 314.028,382.323 314.5,386C 314.167,386.833 313.833,387.667 313.5,388.5C 312.452,387.452 311.452,386.452 310.5,385.5C 312.402,382.663 313.069,379.329 312.5,375.5 Z"/></g>
<g><path style="opacity:1" fill="#050d3a" d="M 214.5,369.5 C 217.556,374.682 219.556,380.349 220.5,386.5C 221.308,386.192 221.975,385.692 222.5,385C 221.707,381.889 221.874,378.723 223,375.5C 224.153,378.356 224.986,381.356 225.5,384.5C 224.91,385.799 223.91,386.632 222.5,387C 223.711,388.113 223.711,389.28 222.5,390.5C 225.577,393.458 226.244,396.958 224.5,401C 225.667,405.167 226.833,409.333 228,413.5C 228.667,412.167 229.333,410.833 230,409.5C 230.317,411.301 230.984,411.634 232,410.5C 233.009,412.025 233.509,413.692 233.5,415.5C 231.433,415.532 230.1,416.532 229.5,418.5C 231.205,422.913 232.538,427.413 233.5,432C 232.154,434.794 232.654,437.294 235,439.5C 235.122,437.563 235.955,436.23 237.5,435.5C 236.812,438.918 235.812,442.251 234.5,445.5C 227.226,420.342 220.56,395.009 214.5,369.5 Z"/></g>
<g><path style="opacity:1" fill="#00023e" d="M 241.5,417.5 C 240.546,423.605 239.213,429.605 237.5,435.5C 235.955,436.23 235.122,437.563 235,439.5C 232.654,437.294 232.154,434.794 233.5,432C 232.538,427.413 231.205,422.913 229.5,418.5C 230.1,416.532 231.433,415.532 233.5,415.5C 232.021,417.912 232.521,419.912 235,421.5C 238.413,416.321 239.413,410.655 238,404.5C 239.472,394.777 241.305,394.444 243.5,403.5C 242.047,407.738 241.381,412.404 241.5,417.5 Z"/></g>
</svg>
