<?xml version="1.0" encoding="UTF-8"?>
<!DOCTYPE svg PUBLIC "-//W3C//DTD SVG 1.1//EN" "http://www.w3.org/Graphics/SVG/1.1/DTD/svg11.dtd">
<svg xmlns="http://www.w3.org/2000/svg" version="1.1" width="360px" height="360px" style="shape-rendering:geometricPrecision; text-rendering:geometricPrecision; image-rendering:optimizeQuality; fill-rule:evenodd; clip-rule:evenodd" xmlns:xlink="http://www.w3.org/1999/xlink">
<g><path style="opacity:1" fill="#025da8" d="M 359.5,128.5 C 359.5,136.833 359.5,145.167 359.5,153.5C 356.361,169.736 350.527,185.07 342,199.5C 317.177,236.989 284.344,265.155 243.5,284C 191.635,309.367 137.301,317.034 80.5,307C 52.8156,301.261 30.3156,287.428 13,265.5C -0.184887,243.216 -3.18489,219.549 4,194.5C 13.3641,166.934 28.8641,143.434 50.5,124C 114.276,68.6333 188.276,45.6333 272.5,55C 299.268,58.9669 322.101,70.4669 341,89.5C 350.433,101.029 356.6,114.029 359.5,128.5 Z"/></g>
<g><path style="opacity:1" fill="#f6f7f8" d="M 296.5,87.5 C 302.842,87.3338 309.175,87.5005 315.5,88C 228.157,102.377 160.324,146.21 112,219.5C 100.285,238.264 91.2852,258.264 85,279.5C 80.6259,262.42 73.2926,246.753 63,232.5C 50.4229,216.588 35.9229,202.755 19.5,191C 29.2688,190.107 38.6021,191.774 47.5,196C 60.2161,202.689 71.8828,210.856 82.5,220.5C 113.9,161.62 161.566,122.12 225.5,102C 248.822,94.7848 272.488,89.9514 296.5,87.5 Z"/></g>
<g><path style="opacity:1" fill="#f4f6f8" d="M 278.5,111.5 C 289.041,110.539 293.541,115.205 292,125.5C 288.469,131.182 283.635,132.682 277.5,130C 270.643,123.45 270.976,117.283 278.5,111.5 Z"/></g>
<g><path style="opacity:1" fill="#f4f6f8" d="M 248.5,126.5 C 249.043,126.56 249.376,126.893 249.5,127.5C 245.801,135.45 244.635,143.783 246,152.5C 248.541,159.371 253.374,163.871 260.5,166C 277.086,167.02 292.419,163.02 306.5,154C 312.947,149.887 319.114,145.387 325,140.5C 321.228,159.712 312.894,176.712 300,191.5C 272.937,219.956 240.104,238.456 201.5,247C 176.821,252.836 151.821,255.503 126.5,255C 169.799,246.841 211.132,232.841 250.5,213C 271.251,202.584 287.918,187.584 300.5,168C 295.523,169.983 290.523,172.316 285.5,175C 274.274,180.436 262.607,181.769 250.5,179C 237.489,172.477 232.322,161.977 235,147.5C 238.002,139.485 242.502,132.485 248.5,126.5 Z"/></g>
</svg>
