<?xml version="1.0" encoding="UTF-8" standalone="no"?>
<svg
   xmlns:dc="http://purl.org/dc/elements/1.1/"
   xmlns:cc="http://creativecommons.org/ns#"
   xmlns:rdf="http://www.w3.org/1999/02/22-rdf-syntax-ns#"
   xmlns:svg="http://www.w3.org/2000/svg"
   xmlns="http://www.w3.org/2000/svg"
   xmlns:sodipodi="http://sodipodi.sourceforge.net/DTD/sodipodi-0.dtd"
   xmlns:inkscape="http://www.inkscape.org/namespaces/inkscape"
   version="1.1"
   id="svg10"
   xml:space="preserve"
   width="211.65067"
   height="211.65067"
   viewBox="0 0 211.65067 211.65067"
   sodipodi:docname="fr_STG_4c.ai"
   inkscape:version="1.0.2-2 (e86c870879, 2021-01-15)"><metadata
     id="metadata16"><rdf:RDF><cc:Work
         rdf:about=""><dc:format>image/svg+xml</dc:format><dc:type
           rdf:resource="http://purl.org/dc/dcmitype/StillImage" /><dc:title></dc:title></cc:Work></rdf:RDF></metadata><defs
     id="defs14"><clipPath
       clipPathUnits="userSpaceOnUse"
       id="clipPath30"><path
         d="M 0,158.738 H 158.738 V 0 H 0 Z"
         id="path28" /></clipPath></defs><sodipodi:namedview
     pagecolor="#505050"
     bordercolor="#eeeeee"
     borderopacity="1"
     objecttolerance="10"
     gridtolerance="10"
     guidetolerance="10"
     inkscape:pageopacity="0"
     inkscape:pageshadow="2"
     inkscape:window-width="1647"
     inkscape:window-height="1033"
     id="namedview12"
     showgrid="false"
     inkscape:zoom="3.8412353"
     inkscape:cx="105.82533"
     inkscape:cy="105.82533"
     inkscape:window-x="128"
     inkscape:window-y="0"
     inkscape:window-maximized="0"
     inkscape:current-layer="g18" /><g
     id="g18"
     inkscape:groupmode="layer"
     inkscape:label="fr_STG_4c"
     transform="matrix(1.3333333,0,0,-1.3333333,0,211.65067)"><g
       id="g20"
       transform="translate(84.4141,131.6851)"><path
         d="m 0,0 4.935,5.445 3.029,-6.711 5.723,4.608 1.943,-7.104 6.374,3.655 0.809,-7.319 6.868,2.612 -0.345,-7.356 7.188,1.504 -1.488,-7.211 7.336,0.359 -2.6,-6.888 7.303,-0.793 -3.642,-6.397 7.088,-1.927 -4.598,-5.747 6.699,-3.016 -5.439,-4.954 6.144,-4.027 -6.148,-4.045 5.443,-4.938 -6.707,-3.031 4.604,-5.728 -7.096,-1.946 3.65,-6.378 -7.31,-0.808 2.607,-6.875 -7.348,0.346 1.501,-7.197 -7.203,1.492 0.359,-7.345 -6.883,2.601 -0.793,-7.308 -6.393,3.647 -1.925,-7.095 -5.744,4.603 -3.01,-6.706 -4.953,5.445 -4.022,-6.151 -4.042,6.154 -4.934,-5.448 -3.029,6.709 -5.724,-4.606 -1.944,7.1 -6.374,-3.652 -0.809,7.319 -6.867,-2.609 0.345,7.354 -7.19,-1.504 1.49,7.212 -7.337,-0.36 2.599,6.89 -7.303,0.793 3.642,6.395 -7.087,1.93 4.599,5.748 -6.701,3.011 5.44,4.957 -6.147,4.028 6.147,4.043 -5.44,4.936 6.705,3.034 -4.603,5.73 7.096,1.946 -3.651,6.379 7.312,0.808 -2.608,6.873 7.348,-0.343 -1.502,7.195 7.204,-1.49 -0.358,7.341 6.883,-2.601 0.793,7.31 6.393,-3.646 1.926,7.094 5.743,-4.602 3.01,6.705 4.954,-5.441 4.022,6.148 z"
         style="fill:#ffde2f;fill-opacity:1;fill-rule:nonzero;stroke:none"
         id="path22" /></g><g
       id="g24"><g
         id="g26"
         clip-path="url(#clipPath30)"><g
           id="g32"
           transform="translate(30.1904,80.4219)"><path
             d="m 0,0 c 0,27.736 22.465,50.22 50.179,50.22 27.714,0 50.178,-22.484 50.178,-50.22 0,-27.736 -22.464,-50.22 -50.178,-50.22 C 22.465,-50.22 0,-27.736 0,0"
             style="fill:#ffde2f;fill-opacity:1;fill-rule:nonzero;stroke:none"
             id="path34" /></g><g
           id="g36"
           transform="translate(30.1904,80.4219)"><path
             d="m 0,0 c 0,27.736 22.465,50.22 50.179,50.22 27.714,0 50.178,-22.484 50.178,-50.22 0,-27.736 -22.464,-50.22 -50.178,-50.22 C 22.465,-50.22 0,-27.736 0,0"
             style="fill:#ffde2f;fill-opacity:1;fill-rule:nonzero;stroke:none"
             id="path38" /></g><g
           id="g40"
           transform="translate(30.1904,80.4219)"><path
             d="m 0,0 c 0,27.736 22.465,50.22 50.179,50.22 27.714,0 50.178,-22.484 50.178,-50.22 0,-27.736 -22.464,-50.22 -50.178,-50.22 C 22.465,-50.22 0,-27.736 0,0 Z"
             style="fill:none;stroke:#024ea2;stroke-width:1;stroke-linecap:butt;stroke-linejoin:miter;stroke-miterlimit:4;stroke-dasharray:none;stroke-opacity:1"
             id="path42" /></g><g
           id="g44"
           transform="translate(46.1875,80.4453)"><path
             d="M 0,0 C 0,18.88 15.293,34.187 34.159,34.187 53.023,34.187 68.315,18.88 68.315,0 68.315,-18.881 53.023,-34.186 34.159,-34.186 15.293,-34.186 0,-18.881 0,0"
             style="fill:#024ea2;fill-opacity:1;fill-rule:nonzero;stroke:none"
             id="path46" /></g><g
           id="g48"
           transform="translate(46.1875,80.4453)"><path
             d="M 0,0 C 0,18.88 15.293,34.187 34.159,34.187 53.023,34.187 68.315,18.88 68.315,0 68.315,-18.881 53.023,-34.186 34.159,-34.186 15.293,-34.186 0,-18.881 0,0"
             style="fill:#024ea2;fill-opacity:1;fill-rule:nonzero;stroke:none"
             id="path50" /></g><g
           id="g52"
           transform="translate(105.9834,96.3569)"><path
             d="m 0,0 -1.05,3.029 -1.011,-3.031 -3.271,-0.002 2.652,-1.877 -1.017,-3.03 2.652,1.88 2.643,-1.88 -0.971,3.022 2.607,1.885 z"
             style="fill:#ffde2f;fill-opacity:1;fill-rule:nonzero;stroke:none"
             id="path54" /></g><g
           id="g56"
           transform="translate(95.4707,106.3022)"><path
             d="m 0,0 -1.05,3.029 -1.012,-3.031 -3.273,-0.002 2.652,-1.877 -1.015,-3.027 2.652,1.877 2.642,-1.877 -0.972,3.017 2.609,1.887 z"
             style="fill:#ffde2f;fill-opacity:1;fill-rule:nonzero;stroke:none"
             id="path58" /></g><g
           id="g60"
           transform="translate(81.2275,110.23)"><path
             d="m 0,0 -1.051,3.029 -1.011,-3.031 h -3.273 l 2.653,-1.879 -1.016,-3.027 2.653,1.877 2.641,-1.877 -0.971,3.019 2.607,1.887 z"
             style="fill:#ffde2f;fill-opacity:1;fill-rule:nonzero;stroke:none"
             id="path62" /></g><g
           id="g64"
           transform="translate(67.1543,106.3003)"><path
             d="m 0,0 -1.052,3.031 -1.011,-3.033 h -3.272 l 2.652,-1.877 -1.015,-3.029 2.652,1.877 2.642,-1.877 -0.972,3.019 2.608,1.887 z"
             style="fill:#ffde2f;fill-opacity:1;fill-rule:nonzero;stroke:none"
             id="path66" /></g><g
           id="g68"
           transform="translate(56.6406,96.3569)"><path
             d="m 0,0 -1.051,3.029 -1.011,-3.031 -3.272,-0.002 2.652,-1.877 -1.016,-3.03 2.652,1.88 2.642,-1.88 -0.971,3.022 2.607,1.885 z"
             style="fill:#ffde2f;fill-opacity:1;fill-rule:nonzero;stroke:none"
             id="path70" /></g><g
           id="g72"
           transform="translate(52.7432,81.3203)"><path
             d="M 0,0 -1.051,3.031 -2.062,0 l -3.273,-0.002 2.653,-1.877 -1.016,-3.029 2.652,1.877 2.643,-1.877 -0.972,3.019 2.607,1.887 z"
             style="fill:#ffde2f;fill-opacity:1;fill-rule:nonzero;stroke:none"
             id="path74" /></g><g
           id="g76"
           transform="translate(57.2188,67.6094)"><path
             d="m 0,0 -1.052,3.029 -1.011,-3.031 -3.272,-0.002 2.652,-1.877 -1.015,-3.029 2.651,1.879 2.643,-1.879 -0.972,3.019 2.608,1.887 z"
             style="fill:#ffde2f;fill-opacity:1;fill-rule:nonzero;stroke:none"
             id="path78" /></g><g
           id="g80"
           transform="translate(66.5762,57.666)"><path
             d="m 0,0 -1.051,3.027 -1.011,-3.03 h -3.272 l 2.652,-1.878 -1.016,-3.029 2.652,1.879 2.642,-1.879 -0.971,3.019 2.607,1.888 z"
             style="fill:#ffde2f;fill-opacity:1;fill-rule:nonzero;stroke:none"
             id="path82" /></g><g
           id="g84"
           transform="translate(81.2275,52.5391)"><path
             d="m 0,0 -1.051,3.029 -1.012,-3.03 h -3.272 l 2.653,-1.878 -1.017,-3.029 2.652,1.877 2.643,-1.877 -0.971,3.021 2.607,1.886 z"
             style="fill:#ffde2f;fill-opacity:1;fill-rule:nonzero;stroke:none"
             id="path86" /></g><g
           id="g88"
           transform="translate(95.8799,57.6641)"><path
             d="m 0,0 -1.052,3.029 -1.011,-3.03 -3.273,-0.003 2.654,-1.876 -1.018,-3.029 2.653,1.878 2.643,-1.878 -0.972,3.018 2.608,1.887 z"
             style="fill:#ffde2f;fill-opacity:1;fill-rule:nonzero;stroke:none"
             id="path90" /></g><g
           id="g92"
           transform="translate(105.2393,67.6094)"><path
             d="m 0,0 -1.052,3.027 -1.011,-3.031 h -3.273 l 2.654,-1.877 -1.019,-3.029 2.654,1.879 2.643,-1.879 -0.971,3.019 2.607,1.887 z"
             style="fill:#ffde2f;fill-opacity:1;fill-rule:nonzero;stroke:none"
             id="path94" /></g><g
           id="g96"
           transform="translate(110.0498,81.3848)"><path
             d="m 0,0 -1.051,3.029 -1.01,-3.031 -3.273,-0.002 2.653,-1.877 -1.018,-3.029 2.654,1.879 2.643,-1.879 -0.972,3.021 2.606,1.885 z"
             style="fill:#ffde2f;fill-opacity:1;fill-rule:nonzero;stroke:none"
             id="path98" /></g><g
           id="g100"
           transform="translate(105.9834,96.3569)"><path
             d="m 0,0 -1.05,3.029 -1.011,-3.031 -3.271,-0.002 2.652,-1.877 -1.017,-3.03 2.652,1.88 2.643,-1.88 -0.971,3.022 2.607,1.885 z"
             style="fill:#ffde2f;fill-opacity:1;fill-rule:nonzero;stroke:none"
             id="path102" /></g><g
           id="g104"
           transform="translate(95.4707,106.3022)"><path
             d="m 0,0 -1.05,3.029 -1.012,-3.031 -3.273,-0.002 2.652,-1.877 -1.015,-3.027 2.652,1.877 2.642,-1.877 -0.972,3.017 2.609,1.887 z"
             style="fill:#ffde2f;fill-opacity:1;fill-rule:nonzero;stroke:none"
             id="path106" /></g><g
           id="g108"
           transform="translate(81.2275,110.23)"><path
             d="m 0,0 -1.051,3.029 -1.011,-3.031 h -3.273 l 2.653,-1.879 -1.016,-3.027 2.653,1.877 2.641,-1.877 -0.971,3.019 2.607,1.887 z"
             style="fill:#ffde2f;fill-opacity:1;fill-rule:nonzero;stroke:none"
             id="path110" /></g><g
           id="g112"
           transform="translate(67.1543,106.3003)"><path
             d="m 0,0 -1.052,3.031 -1.011,-3.033 h -3.272 l 2.652,-1.877 -1.015,-3.029 2.652,1.877 2.642,-1.877 -0.972,3.019 2.608,1.887 z"
             style="fill:#ffde2f;fill-opacity:1;fill-rule:nonzero;stroke:none"
             id="path114" /></g><g
           id="g116"
           transform="translate(56.6406,96.3569)"><path
             d="m 0,0 -1.051,3.029 -1.011,-3.031 -3.272,-0.002 2.652,-1.877 -1.016,-3.03 2.652,1.88 2.642,-1.88 -0.971,3.022 2.607,1.885 z"
             style="fill:#ffde2f;fill-opacity:1;fill-rule:nonzero;stroke:none"
             id="path118" /></g><g
           id="g120"
           transform="translate(52.7432,81.3203)"><path
             d="M 0,0 -1.051,3.031 -2.062,0 l -3.273,-0.002 2.653,-1.877 -1.016,-3.029 2.652,1.877 2.643,-1.877 -0.972,3.019 2.607,1.887 z"
             style="fill:#ffde2f;fill-opacity:1;fill-rule:nonzero;stroke:none"
             id="path122" /></g><g
           id="g124"
           transform="translate(57.2188,67.6094)"><path
             d="m 0,0 -1.052,3.029 -1.011,-3.031 -3.272,-0.002 2.652,-1.877 -1.015,-3.029 2.651,1.879 2.643,-1.879 -0.972,3.019 2.608,1.887 z"
             style="fill:#ffde2f;fill-opacity:1;fill-rule:nonzero;stroke:none"
             id="path126" /></g><g
           id="g128"
           transform="translate(66.5762,57.666)"><path
             d="m 0,0 -1.051,3.027 -1.011,-3.03 h -3.272 l 2.652,-1.878 -1.016,-3.029 2.652,1.879 2.642,-1.879 -0.971,3.019 2.607,1.888 z"
             style="fill:#ffde2f;fill-opacity:1;fill-rule:nonzero;stroke:none"
             id="path130" /></g><g
           id="g132"
           transform="translate(81.2275,52.5391)"><path
             d="m 0,0 -1.051,3.029 -1.012,-3.03 h -3.272 l 2.653,-1.878 -1.017,-3.029 2.652,1.877 2.643,-1.877 -0.971,3.021 2.607,1.886 z"
             style="fill:#ffde2f;fill-opacity:1;fill-rule:nonzero;stroke:none"
             id="path134" /></g><g
           id="g136"
           transform="translate(95.8799,57.6641)"><path
             d="m 0,0 -1.052,3.029 -1.011,-3.03 -3.273,-0.003 2.654,-1.876 -1.018,-3.029 2.653,1.878 2.643,-1.878 -0.972,3.018 2.608,1.887 z"
             style="fill:#ffde2f;fill-opacity:1;fill-rule:nonzero;stroke:none"
             id="path138" /></g><g
           id="g140"
           transform="translate(105.2393,67.6094)"><path
             d="m 0,0 -1.052,3.027 -1.011,-3.031 h -3.273 l 2.654,-1.877 -1.019,-3.029 2.654,1.879 2.643,-1.879 -0.971,3.019 2.607,1.887 z"
             style="fill:#ffde2f;fill-opacity:1;fill-rule:nonzero;stroke:none"
             id="path142" /></g><g
           id="g144"
           transform="translate(110.0498,81.3848)"><path
             d="m 0,0 -1.051,3.029 -1.01,-3.031 -3.273,-0.002 2.653,-1.877 -1.018,-3.029 2.654,1.879 2.643,-1.879 -0.972,3.021 2.606,1.885 z"
             style="fill:#ffde2f;fill-opacity:1;fill-rule:nonzero;stroke:none"
             id="path146" /></g></g></g><text
       transform="matrix(-0.8800292,0.47491957,0.47491957,0.8800292,63.7441,45.4087)"
       style="font-variant:normal;font-weight:normal;font-stretch:normal;font-size:10px;font-family:'Times New Roman';-inkscape-font-specification:TimesNewRomanPSMT;writing-mode:lr-tb;fill:#024ea2;fill-opacity:1;fill-rule:nonzero;stroke:none"
       id="text150"><tspan
         x="0"
         y="0"
         id="tspan148">•</tspan></text><text
       transform="matrix(-0.78390346,0.62088274,0.62088274,0.78390346,58.5127,48.3809)"
       style="font-variant:normal;font-weight:normal;font-stretch:normal;font-size:9.99996px;font-family:'Times New Roman';-inkscape-font-specification:TimesNewRomanPSMT;writing-mode:lr-tb;fill:#024ea2;fill-opacity:1;fill-rule:nonzero;stroke:none"
       id="text154"><tspan
         x="0"
         y="0"
         id="tspan152">S</tspan></text><text
       transform="matrix(-0.69048074,0.72335078,0.72335078,0.69048074,54.1499,51.835)"
       style="font-variant:normal;font-weight:normal;font-stretch:normal;font-size:9.99999px;font-family:'Times New Roman';-inkscape-font-specification:TimesNewRomanPSMT;writing-mode:lr-tb;fill:#024ea2;fill-opacity:1;fill-rule:nonzero;stroke:none"
       id="text158"><tspan
         x="0"
         y="0"
         id="tspan156">P</tspan></text><text
       transform="matrix(-0.57624025,0.81728035,0.81728035,0.57624025,50.291,55.8462)"
       style="font-variant:normal;font-weight:normal;font-stretch:normal;font-size:10px;font-family:'Times New Roman';-inkscape-font-specification:TimesNewRomanPSMT;writing-mode:lr-tb;fill:#024ea2;fill-opacity:1;fill-rule:nonzero;stroke:none"
       id="text162"><tspan
         x="0"
         y="0"
         id="tspan160">É</tspan></text><text
       transform="matrix(-0.43296935,0.90140864,0.90140864,0.43296935,46.7378,60.8457)"
       style="font-variant:normal;font-weight:normal;font-stretch:normal;font-size:10px;font-family:'Times New Roman';-inkscape-font-specification:TimesNewRomanPSMT;writing-mode:lr-tb;fill:#024ea2;fill-opacity:1;fill-rule:nonzero;stroke:none"
       id="text166"><tspan
         x="0"
         y="0"
         id="tspan164">C</tspan></text><text
       transform="matrix(-0.31078055,0.95048169,0.95048169,0.31078055,43.9521,66.8979)"
       style="font-variant:normal;font-weight:normal;font-stretch:normal;font-size:9.99998px;font-family:'Times New Roman';-inkscape-font-specification:TimesNewRomanPSMT;writing-mode:lr-tb;fill:#024ea2;fill-opacity:1;fill-rule:nonzero;stroke:none"
       id="text170"><tspan
         x="0"
         y="0"
         id="tspan168">I</tspan></text><text
       transform="matrix(-0.1755404,0.98447223,0.98447223,0.1755404,42.7808,70.0503)"
       style="font-variant:normal;font-weight:normal;font-stretch:normal;font-size:9.99998px;font-family:'Times New Roman';-inkscape-font-specification:TimesNewRomanPSMT;writing-mode:lr-tb;fill:#024ea2;fill-opacity:1;fill-rule:nonzero;stroke:none"
       id="text174"><tspan
         x="0"
         y="0"
         id="tspan172">A</tspan></text><text
       transform="matrix(-0.01686996,0.99985769,0.99985769,0.01686996,41.5996,77.1841)"
       style="font-variant:normal;font-weight:normal;font-stretch:normal;font-size:10px;font-family:'Times New Roman';-inkscape-font-specification:TimesNewRomanPSMT;writing-mode:lr-tb;fill:#024ea2;fill-opacity:1;fill-rule:nonzero;stroke:none"
       id="text178"><tspan
         x="0"
         y="0"
         id="tspan176">L</tspan></text><text
       transform="matrix(0.10962039,0.99397353,0.99397353,-0.10962039,41.6118,83.3047)"
       style="font-variant:normal;font-weight:normal;font-stretch:normal;font-size:9.99996px;font-family:'Times New Roman';-inkscape-font-specification:TimesNewRomanPSMT;writing-mode:lr-tb;fill:#024ea2;fill-opacity:1;fill-rule:nonzero;stroke:none"
       id="text182"><tspan
         x="0"
         y="0"
         id="tspan180">I</tspan></text><text
       transform="matrix(0.22687112,0.97392479,0.97392479,-0.22687112,41.8901,86.6094)"
       style="font-variant:normal;font-weight:normal;font-stretch:normal;font-size:9.99995px;font-family:'Times New Roman';-inkscape-font-specification:TimesNewRomanPSMT;writing-mode:lr-tb;fill:#024ea2;fill-opacity:1;fill-rule:nonzero;stroke:none"
       id="text186"><tspan
         x="0"
         y="0"
         id="tspan184">T</tspan></text><text
       transform="matrix(0.3789198,0.92542951,0.92542951,-0.3789198,43.2773,92.5693)"
       style="font-variant:normal;font-weight:normal;font-stretch:normal;font-size:10px;font-family:'Times New Roman';-inkscape-font-specification:TimesNewRomanPSMT;writing-mode:lr-tb;fill:#024ea2;fill-opacity:1;fill-rule:nonzero;stroke:none"
       id="text190"><tspan
         x="0"
         y="0"
         id="tspan188">É</tspan></text><text
       transform="matrix(0.57472006,0.81835008,0.81835008,-0.57472006,46.7241,100.291)"
       style="font-variant:normal;font-weight:normal;font-stretch:normal;font-size:10px;font-family:'Times New Roman';-inkscape-font-specification:TimesNewRomanPSMT;writing-mode:lr-tb;fill:#024ea2;fill-opacity:1;fill-rule:nonzero;stroke:none"
       id="text194"><tspan
         x="0"
         y="0"
         id="tspan192">T</tspan></text><text
       transform="matrix(0.70310555,0.7110855,0.7110755,-0.70310555,50.229,105.3179)"
       style="font-variant:normal;font-weight:normal;font-stretch:normal;font-size:10.0001px;font-family:'Times New Roman';-inkscape-font-specification:TimesNewRomanPSMT;writing-mode:lr-tb;fill:#024ea2;fill-opacity:1;fill-rule:nonzero;stroke:none"
       id="text198"><tspan
         x="0"
         y="0"
         id="tspan196">R</tspan></text><text
       transform="matrix(0.8186179,0.57433852,0.57433852,-0.8186179,54.9229,110.0942)"
       style="font-variant:normal;font-weight:normal;font-stretch:normal;font-size:10px;font-family:'Times New Roman';-inkscape-font-specification:TimesNewRomanPSMT;writing-mode:lr-tb;fill:#024ea2;fill-opacity:1;fill-rule:nonzero;stroke:none"
       id="text202"><tspan
         x="0"
         y="0"
         id="tspan200">A</tspan></text><text
       transform="matrix(0.90971707,0.41522866,0.41522866,-0.90971707,60.8315,114.2393)"
       style="font-variant:normal;font-weight:normal;font-stretch:normal;font-size:10px;font-family:'Times New Roman';-inkscape-font-specification:TimesNewRomanPSMT;writing-mode:lr-tb;fill:#024ea2;fill-opacity:1;fill-rule:nonzero;stroke:none"
       id="text206"><tspan
         x="0"
         y="0"
         id="tspan204">D</tspan></text><text
       transform="matrix(0.95717818,0.28949945,0.28949945,-0.95717818,67.4531,117.1177)"
       style="font-variant:normal;font-weight:normal;font-stretch:normal;font-size:10px;font-family:'Times New Roman';-inkscape-font-specification:TimesNewRomanPSMT;writing-mode:lr-tb;fill:#024ea2;fill-opacity:1;fill-rule:nonzero;stroke:none"
       id="text210"><tspan
         x="0"
         y="0"
         id="tspan208">I</tspan></text><text
       transform="matrix(0.98512304,0.17185053,0.17185053,-0.98512304,70.6265,118.1655)"
       style="font-variant:normal;font-weight:normal;font-stretch:normal;font-size:9.99997px;font-family:'Times New Roman';-inkscape-font-specification:TimesNewRomanPSMT;writing-mode:lr-tb;fill:#024ea2;fill-opacity:1;fill-rule:nonzero;stroke:none"
       id="text214"><tspan
         x="0"
         y="0"
         id="tspan212">T</tspan></text><text
       transform="matrix(0.99871799,0.0506199,0.0506199,-0.99871799,76.6675,119.1328)"
       style="font-variant:normal;font-weight:normal;font-stretch:normal;font-size:10px;font-family:'Times New Roman';-inkscape-font-specification:TimesNewRomanPSMT;writing-mode:lr-tb;fill:#024ea2;fill-opacity:1;fill-rule:nonzero;stroke:none"
       id="text218"><tspan
         x="0"
         y="0"
         id="tspan216">I</tspan></text><text
       transform="matrix(0.99637586,-0.08505965,-0.08505965,-0.99637586,79.9912,119.4326)"
       style="font-variant:normal;font-weight:normal;font-stretch:normal;font-size:10px;font-family:'Times New Roman';-inkscape-font-specification:TimesNewRomanPSMT;writing-mode:lr-tb;fill:#024ea2;fill-opacity:1;fill-rule:nonzero;stroke:none"
       id="text222"><tspan
         x="0"
         y="0"
         id="tspan220">O</tspan></text><text
       transform="matrix(0.963907,-0.26623917,-0.26623917,-0.963907,87.2153,118.812)"
       style="font-variant:normal;font-weight:normal;font-stretch:normal;font-size:10px;font-family:'Times New Roman';-inkscape-font-specification:TimesNewRomanPSMT;writing-mode:lr-tb;fill:#024ea2;fill-opacity:1;fill-rule:nonzero;stroke:none"
       id="text226"><tspan
         x="0"
         y="0"
         id="tspan224">N</tspan></text><text
       transform="matrix(0.89945145,-0.4370207,-0.4370207,-0.89945145,94.2065,116.8779)"
       style="font-variant:normal;font-weight:normal;font-stretch:normal;font-size:9.99998px;font-family:'Times New Roman';-inkscape-font-specification:TimesNewRomanPSMT;writing-mode:lr-tb;fill:#024ea2;fill-opacity:1;fill-rule:nonzero;stroke:none"
       id="text230"><tspan
         x="0"
         y="0"
         id="tspan228">N</tspan></text><text
       transform="matrix(0.8131601,-0.58204007,-0.58204007,-0.8131601,100.6934,113.6733)"
       style="font-variant:normal;font-weight:normal;font-stretch:normal;font-size:10px;font-family:'Times New Roman';-inkscape-font-specification:TimesNewRomanPSMT;writing-mode:lr-tb;fill:#024ea2;fill-opacity:1;fill-rule:nonzero;stroke:none"
       id="text234"><tspan
         x="0"
         y="0"
         id="tspan232">E</tspan></text><text
       transform="matrix(0.71235712,-0.70181716,-0.70181716,-0.71235712,105.6626,110.1182)"
       style="font-variant:normal;font-weight:normal;font-stretch:normal;font-size:10px;font-family:'Times New Roman';-inkscape-font-specification:TimesNewRomanPSMT;writing-mode:lr-tb;fill:#024ea2;fill-opacity:1;fill-rule:nonzero;stroke:none"
       id="text238"><tspan
         x="0"
         y="0"
         id="tspan236">L</tspan></text><text
       transform="matrix(0.59158951,-0.80623933,-0.80623933,-0.59158951,110.0234,105.8218)"
       style="font-variant:normal;font-weight:normal;font-stretch:normal;font-size:10px;font-family:'Times New Roman';-inkscape-font-specification:TimesNewRomanPSMT;writing-mode:lr-tb;fill:#024ea2;fill-opacity:1;fill-rule:nonzero;stroke:none"
       id="text242"><tspan
         x="0"
         y="0"
         id="tspan240">L</tspan></text><text
       transform="matrix(0.45388114,-0.89106224,-0.89106224,-0.45388114,113.6416,100.8906)"
       style="font-variant:normal;font-weight:normal;font-stretch:normal;font-size:9.99998px;font-family:'Times New Roman';-inkscape-font-specification:TimesNewRomanPSMT;writing-mode:lr-tb;fill:#024ea2;fill-opacity:1;fill-rule:nonzero;stroke:none"
       id="text246"><tspan
         x="0"
         y="0"
         id="tspan244">E</tspan></text><text
       transform="matrix(0.22749009,-0.9737804,-0.9737804,-0.22749009,117.3374,93.1006)"
       style="font-variant:normal;font-weight:normal;font-stretch:normal;font-size:10px;font-family:'Times New Roman';-inkscape-font-specification:TimesNewRomanPSMT;writing-mode:lr-tb;fill:#024ea2;fill-opacity:1;fill-rule:nonzero;stroke:none"
       id="text250"><tspan
         x="0"
         y="0"
         id="tspan248">G</tspan></text><text
       transform="matrix(0.04778988,-0.99885741,-0.99885741,-0.04778988,118.9766,86.041)"
       style="font-variant:normal;font-weight:normal;font-stretch:normal;font-size:10px;font-family:'Times New Roman';-inkscape-font-specification:TimesNewRomanPSMT;writing-mode:lr-tb;fill:#024ea2;fill-opacity:1;fill-rule:nonzero;stroke:none"
       id="text254"><tspan
         x="0"
         y="0"
         id="tspan252">A</tspan></text><text
       transform="matrix(-0.12186952,-0.99254613,-0.99254613,0.12186952,119.3047,78.8184)"
       style="font-variant:normal;font-weight:normal;font-stretch:normal;font-size:10px;font-family:'Times New Roman';-inkscape-font-specification:TimesNewRomanPSMT;writing-mode:lr-tb;fill:#024ea2;fill-opacity:1;fill-rule:nonzero;stroke:none"
       id="text258"><tspan
         x="0"
         y="0"
         id="tspan256">R</tspan></text><text
       transform="matrix(-0.29843043,-0.95443139,-0.95443139,0.29843043,118.5122,72.1528)"
       style="font-variant:normal;font-weight:normal;font-stretch:normal;font-size:9.99999px;font-family:'Times New Roman';-inkscape-font-specification:TimesNewRomanPSMT;writing-mode:lr-tb;fill:#024ea2;fill-opacity:1;fill-rule:nonzero;stroke:none"
       id="text262"><tspan
         x="0"
         y="0"
         id="tspan260">A</tspan></text><text
       transform="matrix(-0.47463226,-0.88018419,-0.88018419,0.47463226,116.3477,65.2368)"
       style="font-variant:normal;font-weight:normal;font-stretch:normal;font-size:9.99995px;font-family:'Times New Roman';-inkscape-font-specification:TimesNewRomanPSMT;writing-mode:lr-tb;fill:#024ea2;fill-opacity:1;fill-rule:nonzero;stroke:none"
       id="text266"><tspan
         x="0"
         y="0"
         id="tspan264">N</tspan></text><text
       transform="matrix(-0.62015158,-0.784482,-0.784482,0.62015158,112.8818,58.9146)"
       style="font-variant:normal;font-weight:normal;font-stretch:normal;font-size:9.99997px;font-family:'Times New Roman';-inkscape-font-specification:TimesNewRomanPSMT;writing-mode:lr-tb;fill:#024ea2;fill-opacity:1;fill-rule:nonzero;stroke:none"
       id="text270"><tspan
         x="0"
         y="0"
         id="tspan268">T</tspan></text><text
       transform="matrix(-0.7107225,-0.70347248,-0.70347248,0.7107225,109.0273,54.1753)"
       style="font-variant:normal;font-weight:normal;font-stretch:normal;font-size:9.99996px;font-family:'Times New Roman';-inkscape-font-specification:TimesNewRomanPSMT;writing-mode:lr-tb;fill:#024ea2;fill-opacity:1;fill-rule:nonzero;stroke:none"
       id="text274"><tspan
         x="0"
         y="0"
         id="tspan272">I</tspan></text><text
       transform="matrix(-0.78966227,-0.61354176,-0.61354176,0.78966227,106.71,51.7671)"
       style="font-variant:normal;font-weight:normal;font-stretch:normal;font-size:9.99997px;font-family:'Times New Roman';-inkscape-font-specification:TimesNewRomanPSMT;writing-mode:lr-tb;fill:#024ea2;fill-opacity:1;fill-rule:nonzero;stroke:none"
       id="text278"><tspan
         x="0"
         y="0"
         id="tspan276">E</tspan></text><text
       transform="matrix(-0.88826661,-0.45932824,-0.45932824,0.88826661,99.7041,46.7656)"
       style="font-variant:normal;font-weight:normal;font-stretch:normal;font-size:10px;font-family:'Times New Roman';-inkscape-font-specification:TimesNewRomanPSMT;writing-mode:lr-tb;fill:#024ea2;fill-opacity:1;fill-rule:nonzero;stroke:none"
       id="text282"><tspan
         x="0"
         y="0"
         id="tspan280">•</tspan></text></g></svg>
