<?xml version="1.0" encoding="utf-8"?>
<!-- Generator: Adobe Illustrator 19.2.1, SVG Export Plug-In . SVG Version: 6.00 Build 0)  -->
<svg version="1.1" id="layer" xmlns="http://www.w3.org/2000/svg" xmlns:xlink="http://www.w3.org/1999/xlink" x="0px" y="0px"
	 viewBox="0 0 652 652" style="enable-background:new 0 0 652 652;" xml:space="preserve">
<style type="text/css">
	.st0{fill:#FFED00;}
	.st1{fill:#008136;}
</style>
<path class="st0" d="M320.7,570.7c137.7,0,250-112.4,250-250c0-137.7-112.3-250-250-250c-137.6,0-250,112.3-250,250
	C70.7,458.4,183.1,570.7,320.7,570.7"/>
<path class="st1" d="M317.7,505.1c0,0,1.8-10.3,2.5-14.9c4.3-26.6,6.9-53.7,13.7-79.8c8-29.9,16.6-61.7,30.7-89.4
	c2.6-4.3,6.7-12.4,12.8-12.1c16.1-1.2,32.3-6.5,45.5-16.1c9.8-7.3,17.6-15.4,23.1-26.4c4.2-11.1,6-22.1,6-34
	c0.2-10.8,1.9-20.5,6-30.4c0.9-2.7,2-5.4,1.8-8.4c-6.1-0.6-14,4.6-19.6,6.7c-13.4,4.4-28,6.4-41.7,9.1c-11.2,1.9-21.4,5.1-30.6,11.9
	c-15.2,10.7-22.8,24-28.4,41.6c-2.4,9.9-4.4,21.4-3.7,31.6l0.5,1.2c2.6-0.9,7-8.7,8.4-11c9-14,18-26.7,31.7-37.1
	c2.3-1.4,15.2-8.5,16.8-4.9c-0.2,4.6-7.6,11-10.6,14.6c-26.7,31.4-42.3,73.6-56.3,111.9c-7.7,21.1-12.5,43.6-21.5,64.1
	c-0.4,0.7-1.1,2.2-1.9,2.6c-2.5-2.5-3.9-8.4-4.9-11.7c-4.1-14.5-7.7-29.6-11.8-44.1c-10.2-38.4-22.3-83.3-45.7-116.1
	c-17.9-23.7-42.1-50.7-71-61l-1.5,0c-1.1,2.3,1.5,4,2.9,5.6c34.7,35.5,62.6,83.9,77.7,130.8c15.6,49.2,30.3,101.8,39,152.7
	c0.7,4.1,1.7,9.2,2.7,13.2c0,0,9.3,0.6,13.7,0.6C308.2,505.6,317.6,505.1,317.7,505.1 M123.4,385l-5.3,2.1l0.2,0.6
	c0.2-0.1,0.4,0,0.6,0.1c0.2,0.2,0.4,0.4,0.5,0.9l7,17.4l-6.9,2.8l-4.5-11.1c-0.2-0.4-0.2-0.8-0.2-1c0.1-0.2,0.1-0.4,0.3-0.4
	l-0.2-0.6l-5.3,2.2l0.2,0.6c0.2-0.1,0.4-0.1,0.6,0.1c0.2,0.2,0.4,0.4,0.5,0.8l4.5,11.1l-6.5,2.6l-6.9-17.1c-0.2-0.4-0.2-0.8-0.2-1
	c0.1-0.2,0.2-0.4,0.4-0.5l-0.2-0.6l-5.4,2.2l0.2,0.6c0.2-0.1,0.3,0,0.5,0.1c0.2,0.2,0.4,0.5,0.5,0.9l9.3,23.1l0.6-0.2
	c-0.1-0.3-0.1-0.5,0-0.7c0.1-0.2,0.4-0.3,0.7-0.5l22.7-9.2c0.4-0.2,0.7-0.2,0.8-0.2c0.2,0.1,0.4,0.2,0.5,0.5l0.6-0.2l-9.5-23.4
	c-0.2-0.4-0.3-0.8-0.3-1c0-0.2,0.1-0.4,0.3-0.5L123.4,385L123.4,385z M93.3,383.6l0.6-0.1c-0.1-0.4-0.1-0.7,0.1-0.9
	c0.1-0.2,0.4-0.3,0.8-0.4l16.2-3.5c3.7-0.8,6-2.7,7-5.5c0.9-2.8,0.9-6.3-0.1-10.6c-0.8-4.3-2.3-7.5-4.2-9.7c-2-2.2-4.9-2.9-8.6-2.1
	l-16.2,3.5c-0.4,0.1-0.7,0.1-0.9,0c-0.2-0.1-0.3-0.3-0.4-0.7l-0.6,0.1l1.6,7.3l0.6-0.1c-0.1-0.4,0-0.6,0.1-0.8
	c0.1-0.2,0.4-0.3,0.8-0.4l16.4-3.5c2-0.4,3.5,0,4.6,1.2c1.1,1.2,1.9,3.3,2.5,6.1c0.6,2.8,0.7,5,0.2,6.6c-0.5,1.6-1.7,2.6-3.7,3
	l-16.4,3.5c-0.4,0.1-0.7,0.1-0.9,0c-0.2-0.1-0.3-0.3-0.4-0.6l-0.6,0.1L93.3,383.6L93.3,383.6z M89.8,332.3l-0.2-10.6
	c0-1.9,0.2-3.4,0.8-4.4c0.6-1,1.5-1.6,2.7-1.6c1.2-0.1,2.1,0.3,2.8,1c0.6,0.7,1,2.1,1,4l0.2,11.5L89.8,332.3L89.8,332.3z
	 M101.5,323.9l8.4-5.8c0.4-0.3,0.8-0.6,1.2-0.9c0.4-0.3,0.7-0.4,1-0.5c0.1,0,0.2,0,0.2,0.1c0,0.1,0.1,0.2,0.1,0.2l0.6,0l-0.1-8.3
	h-0.6c0,0.3-0.1,0.7-0.3,1c-0.2,0.3-0.4,0.5-0.7,0.8l-9.8,7.1c-0.3-2.3-1.2-4.2-2.6-5.6c-1.4-1.4-3.2-2.1-5.3-2.1
	c-3.1,0.1-5.3,1.3-6.6,3.6c-1.3,2.3-1.8,5.5-1.7,9.7l0.3,15.6l0.6,0c0-0.4,0.1-0.7,0.2-0.8c0.2-0.1,0.5-0.2,0.9-0.2l24.5-0.4
	c0.4,0,0.7,0,0.9,0.2c0.2,0.1,0.3,0.4,0.3,0.8l0.6,0l-0.1-7.4l-0.7,0c0,0.3-0.1,0.6-0.2,0.7c-0.2,0.1-0.5,0.2-0.9,0.2l-9.9,0.2
	l-0.1-8.1L101.5,323.9z M88,281.6c-0.5,3.4-0.3,6.4,0.5,9.2c0.8,2.8,2.2,5,4.1,6.8c1.9,1.8,4.2,2.9,6.9,3.4c2.7,0.4,5.2,0.1,7.6-1
	c2.4-1.1,4.4-2.8,6-5.2c1.7-2.3,2.8-5.2,3.3-8.6c0.5-3.4,0.3-6.4-0.5-9.2c-0.8-2.7-2.2-5-4.1-6.8c-1.9-1.8-4.2-2.9-6.9-3.3
	c-2.7-0.4-5.2-0.1-7.6,1c-2.4,1.1-4.4,2.8-6,5.2C89.7,275.4,88.5,278.3,88,281.6 M92.4,282.3c0.6-3.5,2-6.2,4.1-8.1
	c2.1-1.9,4.7-2.6,7.6-2.2c3,0.5,5.2,2,6.6,4.4c1.4,2.4,1.9,5.4,1.4,8.9c-0.6,3.5-2,6.2-4.1,8.1c-2.1,1.9-4.6,2.6-7.6,2.2
	c-3-0.5-5.2-2-6.6-4.4C92.4,288.9,91.9,285.9,92.4,282.3 M116.2,240.8c1-3.1,1.1-5.6,0.1-7.4c-0.9-1.8-2.5-3.1-4.8-3.8
	c-2.7-0.9-4.9-0.8-6.7,0.3c-1.8,1.1-3.2,3.1-4.2,6l-5.9,17l0.6,0.2c0.1-0.4,0.3-0.6,0.5-0.6c0.2-0.1,0.5,0,0.9,0.1l23.2,8
	c0.4,0.1,0.6,0.3,0.8,0.4c0.1,0.2,0.1,0.4,0,0.8l0.6,0.2l2.4-7l-0.6-0.2c-0.1,0.3-0.3,0.5-0.5,0.6c-0.2,0.1-0.5,0-0.9-0.1l-9.5-3.3
	L116.2,240.8L116.2,240.8z M101.3,248.1l3.5-10.1c0.6-1.7,1.2-2.8,1.9-3.2c0.7-0.5,1.7-0.5,3,0c1.3,0.4,2.1,1.1,2.4,1.9
	c0.3,0.8,0.1,2.1-0.5,3.7l-3.5,10.1L101.3,248.1L101.3,248.1z M147.6,206.3l-5-2.8l-0.3,0.6c0.2,0.1,0.3,0.3,0.3,0.5
	c0,0.2-0.1,0.6-0.3,1l-9.1,16.4l-6.5-3.6l5.8-10.5c0.2-0.4,0.5-0.7,0.7-0.8c0.2-0.1,0.4-0.1,0.5-0.1l0.3-0.6l-5-2.8l-0.3,0.5
	c0.2,0.1,0.3,0.3,0.3,0.5c0,0.2-0.1,0.5-0.3,1l-5.8,10.5l-6.2-3.4l9-16.1c0.2-0.4,0.5-0.7,0.7-0.8c0.2-0.1,0.5-0.1,0.7,0l0.3-0.6
	l-5.1-2.8l-0.3,0.5c0.2,0.1,0.2,0.2,0.2,0.5c0,0.2-0.1,0.5-0.4,1l-12,21.7l0.6,0.3c0.2-0.3,0.3-0.5,0.5-0.5c0.2,0,0.5,0.1,0.8,0.3
	l21.4,11.9c0.4,0.2,0.6,0.4,0.7,0.6c0.1,0.2,0.1,0.4-0.1,0.7l0.5,0.3l12.2-22c0.2-0.4,0.4-0.7,0.6-0.8c0.2-0.2,0.4-0.2,0.5-0.1
	L147.6,206.3L147.6,206.3z M154.3,196.7l-0.5-0.4c-0.2,0.2-0.3,0.3-0.5,0.4c-0.2,0-0.3,0-0.5-0.2c-0.1-0.1-0.2-0.2-0.3-0.5
	c-0.1-0.3-0.4-0.8-0.9-1.6c-0.4-0.8-1.1-2.1-2-3.8l8.3-10.3c2,0.5,3.4,0.9,4.4,1.1s1.5,0.4,1.8,0.5c0.3,0.1,0.5,0.2,0.6,0.3
	c0.1,0.1,0.2,0.2,0.2,0.4c0,0.1-0.1,0.3-0.2,0.4l0.5,0.4l4.7-5.8l-0.5-0.4c-0.1,0.2-0.3,0.2-0.6,0.2c-0.3,0-0.7-0.1-1.2-0.2
	l-25.5-6.5c-0.2-0.1-0.4-0.1-0.6-0.1c-0.2,0-0.3-0.1-0.4-0.2c-0.1-0.1-0.2-0.2-0.1-0.3c0-0.1,0.1-0.2,0.1-0.4l-0.5-0.4l-5,6.2
	l0.5,0.4c0.1-0.1,0.2-0.2,0.4-0.2c0.1,0,0.2,0,0.3,0.1c0.1,0.1,0.2,0.3,0.3,0.4c0.1,0.2,0.2,0.3,0.2,0.5l11.4,22.6
	c0.4,0.6,0.6,1.1,0.8,1.5c0.2,0.4,0.1,0.7-0.1,1.1l0.5,0.4L154.3,196.7L154.3,196.7z M153.2,179.1l-5.8,7.1l-5-9.9L153.2,179.1
	L153.2,179.1z M165.3,153.3l25.4,3.1c0.3,0,0.6,0.1,0.9,0.1c0.3,0,0.4,0.1,0.5,0.2c0.1,0.1,0.1,0.2,0.1,0.4c0,0.1-0.1,0.2-0.3,0.4
	l0.4,0.5l5.3-4.4l-0.4-0.5c-0.2,0.2-0.4,0.2-0.6,0.2c-0.2-0.1-0.4-0.2-0.7-0.5l-15.8-18.7c-0.3-0.3-0.4-0.6-0.4-0.8
	c0-0.2,0.1-0.4,0.3-0.6l-0.4-0.5l-4.9,4.1l0.4,0.5c0.2-0.2,0.4-0.2,0.6-0.2c0.2,0.1,0.4,0.2,0.7,0.6l11.5,13.7l-23.9-2.8
	c-0.3,0-0.5,0-0.7-0.1c-0.2,0-0.4-0.1-0.5-0.2c-0.1-0.1-0.1-0.2-0.1-0.3c0-0.1,0.1-0.2,0.2-0.3l-0.4-0.4l-6,5l0.4,0.5
	c0.2-0.2,0.4-0.2,0.6-0.2c0.2,0.1,0.4,0.2,0.7,0.6l15.7,18.7c0.3,0.3,0.4,0.6,0.4,0.8c0,0.2-0.1,0.4-0.3,0.6l0.4,0.5l4.8-4l-0.4-0.5
	c-0.2,0.1-0.3,0.2-0.5,0.1c-0.2-0.1-0.4-0.3-0.7-0.6L165.3,153.3L165.3,153.3z M228.7,104l0.3,0.6c0.2-0.1,0.3-0.1,0.5-0.1
	c0.2,0,0.3,0.1,0.4,0.2c0.1,0.2,0.1,1,0.1,2.4l0.1,4.4l0.4,14.9l-11.4-9.8c-1.7-1.4-3-2.5-3.8-3.2c-0.9-0.7-1.3-1.1-1.4-1.3
	c-0.1-0.1-0.1-0.3,0-0.4c0.1-0.1,0.2-0.2,0.4-0.3l-0.3-0.6l-7.1,3.3l0.3,0.6c0.5-0.2,0.8-0.2,1.1,0c0.3,0.2,0.6,0.4,0.8,0.6l19.9,17
	c0.2,0.1,0.4,0.3,0.5,0.4c0.2,0.2,0.3,0.3,0.3,0.4c0.1,0.1,0.1,0.2,0,0.3c0,0.1-0.2,0.2-0.4,0.3l0.3,0.6l6.8-3.2l-0.3-0.6
	c-0.2,0.1-0.4,0.1-0.6,0.1c-0.1,0-0.2-0.1-0.3-0.2c-0.1-0.1-0.1-0.3-0.1-0.4l0-0.6l-0.7-26c0-0.4,0-0.8,0.2-1.1
	c0.1-0.3,0.3-0.6,0.6-0.7l-0.3-0.6L228.7,104L228.7,104z M279.3,117.7l-1.5-5.5l-0.6,0.2c0.1,0.2,0,0.4-0.2,0.5
	c-0.2,0.2-0.5,0.3-0.9,0.4l-18.1,4.9L256,111l11.6-3.1c0.4-0.1,0.8-0.1,1-0.1c0.2,0.1,0.4,0.2,0.4,0.3l0.6-0.2l-1.5-5.6l-0.6,0.2
	c0.1,0.2,0,0.4-0.2,0.5c-0.2,0.2-0.5,0.3-0.9,0.4l-11.6,3.1l-1.8-6.8l17.8-4.8c0.5-0.1,0.8-0.1,1.1,0c0.2,0.1,0.4,0.3,0.5,0.5
	l0.6-0.2l-1.5-5.7l-0.6,0.2c0.1,0.2,0,0.3-0.2,0.5c-0.2,0.2-0.5,0.3-1,0.4l-24,6.4l0.2,0.6c0.3-0.1,0.6-0.1,0.7,0.1
	c0.1,0.1,0.3,0.4,0.4,0.8l6.3,23.7c0.1,0.4,0.1,0.7,0.1,0.9c-0.1,0.2-0.3,0.3-0.6,0.4l0.2,0.6l24.3-6.5c0.4-0.1,0.8-0.2,1-0.1
	c0.2,0,0.4,0.1,0.4,0.3L279.3,117.7L279.3,117.7z M309.5,107.9c-0.5,0.4-1.5,0.9-3,1.4c-1.5,0.5-3.1,0.8-4.8,1
	c-3.5,0.3-6.4-0.3-8.8-1.7c-2.3-1.4-3.7-3.8-4.1-7.1c-0.2-2.1,0.2-4,1.1-5.5c0.9-1.6,2.2-2.8,3.8-3.7c1.6-0.9,3.5-1.5,5.5-1.6
	c2-0.1,3.7-0.1,5.1,0.3c1.4,0.3,2.6,0.7,3.4,1.2c0.8,0.5,1.2,0.8,1.2,1c0,0.2,0,0.3,0,0.4c0,0.1,0,0.2,0,0.2l0.6,0.3l2.7-6.4
	l-0.7-0.2c-0.2,0.2-0.4,0.3-0.5,0.3c-0.2,0-0.6-0.1-1.2-0.3c-0.6-0.2-1.4-0.4-2.4-0.6c-1-0.2-2.2-0.4-3.6-0.5c-1.4-0.1-3-0.1-4.8,0
	c-3.2,0.3-6,1.1-8.4,2.4c-2.4,1.3-4.3,3.1-5.6,5.4c-1.3,2.3-1.8,5-1.6,8.1c0.3,3.3,1.3,5.9,2.9,7.9c1.6,2,3.7,3.4,6.3,4.2
	c2.6,0.8,5.4,1.1,8.6,0.8c2.8-0.3,5.5-0.9,7.9-1.8c2.4-1,4.5-2.2,6.2-3.8l-0.1-0.6c-0.2-0.1-0.3-0.2-0.4-0.3
	c-0.1-0.1-0.1-0.3-0.2-0.5l-0.7-7.6c0-0.4,0-0.6,0.1-0.8c0.1-0.2,0.2-0.3,0.4-0.3l-0.1-0.6L302,99.5c-0.4,0-0.7,0-0.9-0.1
	s-0.3-0.3-0.4-0.5l-0.6,0.1l0.5,6l0.6-0.1c0-0.2,0.1-0.4,0.3-0.6c0.2-0.2,0.5-0.3,0.8-0.4l6.8-0.6L309.5,107.9L309.5,107.9z
	 M350.9,115.8l0.5-5.6l-0.6-0.1c0,0.2-0.1,0.4-0.4,0.4c-0.2,0.1-0.6,0.1-1,0.1l-18.7-1.6l0.6-7.4l11.9,1c0.4,0.1,0.8,0.1,1,0.3
	c0.2,0.2,0.3,0.3,0.3,0.4l0.6,0.1l0.5-5.7l-0.6-0.1c0,0.2-0.1,0.4-0.3,0.4c-0.2,0.1-0.5,0.1-1,0.1l-11.9-1l0.6-7l18.4,1.6
	c0.5,0.1,0.8,0.2,1,0.3s0.3,0.4,0.2,0.6l0.6,0.1l0.5-5.8l-0.6-0.1c0,0.2-0.1,0.3-0.3,0.4c-0.2,0.1-0.6,0.1-1,0.1l-24.7-2.2l-0.1,0.6
	c0.3,0,0.5,0.1,0.6,0.3c0.1,0.2,0.1,0.5,0.1,0.9l-2.1,24.4c0,0.4-0.1,0.7-0.2,0.8c-0.1,0.2-0.4,0.2-0.7,0.2l-0.1,0.6l25.1,2.2
	c0.5,0,0.8,0.1,1,0.2c0.2,0.1,0.3,0.3,0.3,0.5L350.9,115.8L350.9,115.8z M374.2,119.8c-0.4-0.1-0.6-0.2-0.7-0.4
	c-0.1-0.2-0.1-0.5,0-0.9l5.3-21.1l8.8,2.2c0.4,0.1,0.7,0.2,0.9,0.3c0.2,0.1,0.2,0.3,0.2,0.5l0.6,0.2l1.4-5.4L390,95
	c-0.1,0.2-0.2,0.3-0.4,0.3c-0.2,0-0.5,0-1-0.1l-23.1-5.7c-0.4-0.1-0.8-0.2-0.9-0.4c-0.2-0.1-0.2-0.3-0.2-0.5l-0.6-0.2l-1.4,5.4
	l0.6,0.2c0.1-0.2,0.2-0.3,0.4-0.4c0.2,0,0.5,0,1,0.1l8.8,2.2l-5.3,21.1c-0.1,0.4-0.2,0.7-0.4,0.8c-0.2,0.1-0.4,0.2-0.8,0.1l-0.2,0.6
	l7.2,1.8l0.2-0.6L374.2,119.8z M392.8,126.2l0.2-0.6c-0.2-0.1-0.4-0.2-0.5-0.4c-0.1-0.1-0.1-0.3,0-0.5c0-0.1,0.1-0.2,0.4-0.4
	c0.2-0.2,0.7-0.7,1.3-1.3c0.7-0.7,1.7-1.7,3.1-3.1l12.2,4.9c0.1,2,0.2,3.5,0.2,4.5c0.1,1,0.1,1.6,0.1,1.9c0,0.3,0,0.5-0.1,0.7
	c-0.1,0.1-0.2,0.2-0.3,0.3s-0.3,0-0.4-0.1l-0.2,0.6l6.9,2.8l0.2-0.6c-0.2-0.1-0.3-0.3-0.4-0.5c-0.1-0.3-0.1-0.7-0.1-1.2l-1.3-26.2
	c0-0.2,0-0.4-0.1-0.6c0-0.2,0-0.3,0.1-0.5c0.1-0.1,0.2-0.2,0.3-0.2c0.1,0,0.3,0,0.4,0l0.2-0.6l-7.4-3l-0.2,0.6
	c0.1,0.1,0.2,0.1,0.3,0.3c0.1,0.1,0.1,0.2,0,0.3c-0.1,0.2-0.2,0.3-0.3,0.4s-0.2,0.2-0.4,0.4l-18.2,17.5c-0.5,0.5-0.9,0.9-1.2,1.2
	c-0.3,0.3-0.7,0.4-1.1,0.2l-0.2,0.6L392.8,126.2L392.8,126.2z M409.4,119.9l-8.5-3.4l8-7.7L409.4,119.9L409.4,119.9z M439.6,122.6
	l8.9,5.8c1.6,1,2.7,2.1,3.2,3.2c0.5,1.1,0.5,2.1-0.2,3.1c-0.6,1-1.4,1.6-2.4,1.8c-1,0.1-2.3-0.4-3.9-1.4l-9.6-6.3L439.6,122.6
	L439.6,122.6z M439.9,137l0.1,10.3l0.1,1.5c0,0.5,0,0.8-0.2,1.1c-0.1,0.1-0.1,0.1-0.2,0.1c-0.1,0-0.2,0-0.2-0.1l-0.3,0.5l7,4.6
	l0.4-0.5c-0.3-0.2-0.5-0.5-0.6-0.8c-0.1-0.3-0.2-0.7-0.2-1l-0.4-12.1c2.1,1.1,4.1,1.4,6.1,1c1.9-0.4,3.5-1.5,4.7-3.3
	c1.7-2.6,1.9-5.1,0.7-7.5c-1.2-2.3-3.6-4.6-7.1-6.9l-13.1-8.5l-0.3,0.5c0.4,0.2,0.5,0.4,0.5,0.6c0,0.2-0.1,0.5-0.3,0.8l-13.3,20.5
	c-0.2,0.4-0.4,0.6-0.6,0.6c-0.2,0.1-0.5,0-0.8-0.2l-0.3,0.5l6.2,4l0.3-0.5c-0.3-0.2-0.4-0.4-0.4-0.6c0-0.2,0.1-0.5,0.3-0.8l5.4-8.3
	L439.9,137L439.9,137z M473.3,144c0.3-0.3,0.5-0.5,0.7-0.5c0.2,0,0.5,0.1,0.9,0.4l0.4-0.5l-6.1-5.2l-0.4,0.5
	c0.4,0.4,0.7,0.6,0.7,0.9s-0.1,0.5-0.4,0.8l-15.8,18.8c-0.2,0.3-0.5,0.5-0.7,0.5c-0.2,0-0.5-0.1-1-0.5l-0.4,0.5l6.1,5.2l0.4-0.5
	c-0.4-0.3-0.5-0.6-0.6-0.8c0-0.2,0.1-0.5,0.4-0.8L473.3,144L473.3,144z M466.6,173.3l0.5-0.4c-0.2-0.2-0.3-0.4-0.3-0.5
	c0-0.2,0.1-0.3,0.2-0.5c0-0.1,0.2-0.1,0.5-0.2c0.3-0.1,0.9-0.3,1.8-0.6l4.1-1.5l9,9.7c-0.8,1.9-1.4,3.3-1.7,4.2
	c-0.4,0.9-0.6,1.5-0.7,1.7c-0.1,0.3-0.2,0.5-0.3,0.5c-0.1,0.1-0.2,0.2-0.4,0.1c-0.1,0-0.2-0.1-0.4-0.2l-0.5,0.4l5.1,5.5l0.5-0.4
	c-0.1-0.1-0.2-0.4-0.1-0.7c0.1-0.3,0.2-0.7,0.4-1.1l9.9-24.3c0.1-0.2,0.2-0.4,0.2-0.6s0.1-0.3,0.2-0.4c0.1-0.1,0.2-0.1,0.4-0.1
	c0.1,0,0.2,0.1,0.4,0.2l0.5-0.4l-5.5-5.9l-0.5,0.4c0.1,0.1,0.1,0.2,0.1,0.4c0,0.1-0.1,0.2-0.1,0.3c-0.1,0.1-0.3,0.2-0.5,0.3
	c-0.2,0.1-0.3,0.1-0.5,0.2l-24,8.2c-0.7,0.3-1.2,0.5-1.6,0.6c-0.4,0.1-0.8,0-1.1-0.3l-0.5,0.4l4.9,5.2L466.6,173.3z M484.3,174.6
	l-6.3-6.7l10.5-3.6L484.3,174.6L484.3,174.6z M508.2,190.1l-6.6,24.7c-0.1,0.3-0.2,0.6-0.3,0.9c-0.1,0.2-0.2,0.4-0.3,0.5
	c-0.1,0.1-0.2,0.1-0.4,0c-0.1-0.1-0.2-0.2-0.3-0.3l-0.5,0.3l3.7,5.9l0.5-0.3c-0.2-0.2-0.2-0.5-0.1-0.7c0.1-0.2,0.3-0.4,0.6-0.6
	l20.8-13c0.4-0.2,0.6-0.3,0.8-0.3c0.2,0,0.4,0.1,0.5,0.4l0.5-0.3l-3.4-5.4l-0.5,0.3c0.1,0.2,0.2,0.4,0.1,0.6
	c-0.1,0.2-0.3,0.4-0.6,0.6l-15.1,9.5l6.2-23.3l0.2-0.7c0-0.2,0.1-0.3,0.3-0.4c0.1-0.1,0.2-0.1,0.4-0.1c0.1,0,0.2,0.1,0.2,0.2
	l0.5-0.3l-4.1-6.6l-0.5,0.3c0.2,0.2,0.2,0.4,0.1,0.6c-0.1,0.2-0.3,0.4-0.6,0.6l-20.8,13c-0.4,0.2-0.6,0.3-0.8,0.3
	c-0.2,0-0.4-0.1-0.5-0.4l-0.5,0.3l3.3,5.3l0.5-0.3c-0.1-0.2-0.1-0.4-0.1-0.5s0.3-0.4,0.7-0.6l16.3-10.2L508.2,190.1z M542.1,239.6
	l-0.6,0.2c0.1,0.4,0.1,0.7,0,0.9c-0.1,0.2-0.4,0.3-0.8,0.4l-15.9,4.9c-3.6,1.2-5.8,3.2-6.5,6c-0.7,2.9-0.3,6.3,1,10.5
	c1.2,4.2,2.9,7.3,5,9.3c2.2,2,5.1,2.4,8.7,1.4l15.9-4.9c0.4-0.1,0.7-0.1,0.9-0.1c0.2,0.1,0.4,0.3,0.5,0.7l0.6-0.2l-2.2-7.1l-0.6,0.2
	c0.1,0.3,0.1,0.6,0,0.8c-0.1,0.2-0.4,0.3-0.7,0.4l-16.1,4.9c-1.9,0.6-3.5,0.3-4.7-0.8c-1.2-1.1-2.2-3.1-3-5.9
	c-0.9-2.8-1.1-4.9-0.8-6.5c0.4-1.6,1.5-2.7,3.4-3.3l16.1-4.9c0.4-0.1,0.7-0.1,0.9-0.1c0.2,0.1,0.4,0.2,0.4,0.5l0.6-0.2L542.1,239.6
	L542.1,239.6z M547.2,290.4l-17.1,19c-0.2,0.3-0.4,0.5-0.6,0.7c-0.2,0.2-0.3,0.3-0.4,0.3c-0.1,0-0.3,0-0.3-0.1
	c-0.1-0.1-0.1-0.2-0.2-0.4l-0.6,0.1l0.6,6.9l0.6-0.1c0-0.3,0-0.5,0.2-0.6c0.2-0.1,0.4-0.2,0.8-0.2l24.4-2.1c0.4-0.1,0.7,0,0.9,0.1
	c0.2,0.1,0.3,0.3,0.3,0.6l0.6-0.1l-0.6-6.3l-0.6,0.1c0,0.3,0,0.5-0.2,0.6c-0.2,0.1-0.4,0.2-0.8,0.2l-17.8,1.6l16.1-18
	c0.2-0.2,0.3-0.4,0.5-0.5c0.1-0.2,0.3-0.2,0.4-0.3c0.2,0,0.3,0,0.3,0.1s0.1,0.2,0.1,0.3l0.6-0.1l-0.7-7.8l-0.6,0.1
	c0,0.3,0,0.5-0.2,0.6c-0.2,0.1-0.4,0.2-0.8,0.2l-24.4,2.1c-0.4,0-0.7,0-0.9-0.1c-0.2-0.1-0.3-0.3-0.3-0.6l-0.6,0.1l0.5,6.2l0.6-0.1
	c0-0.2,0-0.4,0.2-0.5c0.2-0.1,0.4-0.2,0.8-0.2L547.2,290.4L547.2,290.4z M554,333.4c0.4,0,0.7,0.1,0.9,0.2c0.2,0.2,0.2,0.5,0.2,0.9
	l0.6,0l0.3-8l-0.6,0c0,0.5-0.1,0.9-0.3,1.1c-0.2,0.1-0.5,0.2-0.9,0.2l-24.5-0.9c-0.4,0-0.7-0.1-0.8-0.2c-0.2-0.2-0.2-0.5-0.2-1.1
	l-0.6,0l-0.3,8l0.6,0c0-0.5,0.1-0.8,0.3-0.9c0.2-0.2,0.5-0.2,0.9-0.2L554,333.4L554,333.4z M553,361.8c0.5-3.4,0.3-6.4-0.5-9.2
	c-0.8-2.8-2.2-5-4.1-6.8c-1.9-1.8-4.2-2.9-6.9-3.3c-2.7-0.4-5.2-0.1-7.6,1c-2.4,1.1-4.4,2.8-6,5.2c-1.7,2.3-2.8,5.2-3.3,8.6
	c-0.5,3.4-0.3,6.4,0.5,9.2c0.8,2.8,2.2,5,4.1,6.8c1.9,1.8,4.2,2.9,6.9,3.4c2.7,0.4,5.2,0.1,7.6-1c2.4-1.1,4.4-2.8,6-5.2
	C551.4,368,552.5,365.2,553,361.8 M548.6,361.1c-0.6,3.5-2,6.2-4.1,8.1c-2.1,1.9-4.6,2.6-7.6,2.2c-3-0.5-5.2-2-6.6-4.4
	c-1.4-2.4-1.9-5.4-1.4-8.9c0.6-3.5,2-6.2,4.1-8.1c2.1-1.8,4.6-2.6,7.6-2.1c2.9,0.5,5.2,2,6.6,4.4
	C548.7,354.6,549.1,357.6,548.6,361.1 M536.9,394.6l-23.7,9.5c-0.3,0.1-0.6,0.2-0.9,0.3c-0.2,0.1-0.4,0.1-0.5,0.1
	c-0.1-0.1-0.2-0.1-0.3-0.3c0-0.1,0-0.3,0-0.5l-0.6-0.2l-2.5,6.5l0.6,0.2c0.1-0.3,0.2-0.4,0.5-0.5c0.2,0,0.5,0,0.9,0.2l22.9,8.8
	c0.4,0.1,0.6,0.3,0.7,0.5c0.1,0.2,0.1,0.4,0,0.7l0.6,0.2l2.3-5.9l-0.6-0.2c-0.1,0.3-0.2,0.4-0.4,0.5c-0.2,0-0.5,0-0.8-0.2l-16.7-6.4
	l22.3-9.1c0.3-0.1,0.5-0.2,0.7-0.3c0.2-0.1,0.4-0.1,0.5-0.1c0.1,0.1,0.2,0.1,0.3,0.2c0,0.1,0,0.2,0,0.3l0.6,0.2l2.8-7.3l-0.6-0.2
	c-0.1,0.3-0.2,0.4-0.4,0.5c-0.2,0.1-0.5,0-0.9-0.2l-22.9-8.8c-0.4-0.1-0.6-0.3-0.7-0.5c-0.1-0.2-0.1-0.4,0-0.6l-0.6-0.2l-2.2,5.8
	l0.6,0.2c0.1-0.2,0.2-0.3,0.4-0.4s0.5,0,0.9,0.2l17.9,6.9L536.9,394.6z M138.2,437.5c3.4,0,6.2,2.8,6.2,6.2s-2.8,6.2-6.2,6.2
	c-3.5,0-6.3-2.8-6.3-6.2S134.7,437.5,138.2,437.5 M502.5,437.2c3.4,0,6.2,2.8,6.2,6.3c0,3.4-2.8,6.2-6.3,6.2c-3.5,0-6.3-2.8-6.3-6.3
	S499.1,437.2,502.5,437.2"/>
<path class="st1" d="M123.4,385l-5.3,2.1l0.2,0.6c0.2-0.1,0.4,0,0.6,0.1c0.2,0.2,0.4,0.4,0.5,0.9l7,17.4l-6.9,2.8l-4.5-11.1
	c-0.2-0.4-0.2-0.8-0.2-1c0.1-0.2,0.1-0.4,0.3-0.4l-0.2-0.6l-5.4,2.2l0.2,0.6c0.2-0.1,0.4-0.1,0.5,0.1c0.2,0.1,0.4,0.4,0.5,0.8
	l4.5,11.1l-6.6,2.6l-6.9-17.1c-0.2-0.4-0.2-0.8-0.2-1c0.1-0.2,0.2-0.4,0.4-0.5L102,394l-5.5,2.2l0.2,0.6c0.1-0.1,0.3,0,0.5,0.1
	c0.2,0.2,0.4,0.4,0.5,0.9l9.3,23.1l0.6-0.2c-0.1-0.3-0.1-0.5,0-0.7c0.1-0.2,0.4-0.3,0.7-0.5l22.7-9.2c0.4-0.2,0.7-0.2,0.8-0.2
	c0.2,0,0.4,0.2,0.5,0.5l0.6-0.2l-9.3-23.3c-0.2-0.4-0.3-0.8-0.3-1c0-0.2,0.1-0.4,0.3-0.5L123.4,385L123.4,385z M93.3,383.6l0.6-0.1
	c-0.1-0.4-0.1-0.7,0.1-0.9c0.1-0.2,0.4-0.3,0.8-0.4l16.2-3.5c3.7-0.8,6.1-2.7,7-5.5c0.9-2.8,0.9-6.3-0.1-10.6
	c-0.8-4.3-2.2-7.5-4.2-9.7c-2-2.2-4.8-2.9-8.6-2.1l-16.2,3.5c-0.4,0.1-0.7,0.1-0.9,0c-0.2-0.1-0.3-0.3-0.4-0.7l-0.6,0.1l1.6,7.3
	l0.6-0.1c-0.1-0.4,0-0.6,0.1-0.8c0.1-0.2,0.4-0.3,0.8-0.4l16.4-3.5c2-0.4,3.5,0,4.6,1.2c1.1,1.2,1.9,3.3,2.5,6.1
	c0.6,2.8,0.7,5,0.2,6.6c-0.5,1.6-1.7,2.6-3.7,3l-16.4,3.5c-0.4,0.1-0.7,0.1-0.8,0c-0.2-0.1-0.3-0.3-0.4-0.6l-0.6,0.1l1.6,7.3
	L93.3,383.6z M89.8,332.3l-0.2-10.6c0-1.9,0.2-3.4,0.8-4.4c0.6-1,1.5-1.6,2.7-1.6c1.2-0.1,2.1,0.3,2.8,1c0.6,0.7,1,2.1,1,4l0.2,11.5
	L89.8,332.3L89.8,332.3z M101.5,323.9l8.4-5.8c0.4-0.3,0.8-0.6,1.2-0.9c0.4-0.3,0.7-0.4,1-0.5c0.1,0,0.2,0,0.2,0.1
	c0,0.1,0.1,0.2,0.1,0.2l0.6,0l-0.2-8.3h-0.6c0,0.3-0.1,0.7-0.3,1c-0.2,0.3-0.4,0.5-0.7,0.8l-9.8,7.1c-0.3-2.3-1.2-4.2-2.6-5.6
	c-1.4-1.4-3.2-2.1-5.3-2.1c-3.1,0.1-5.3,1.3-6.6,3.6c-1.3,2.3-1.8,5.5-1.7,9.7l0.3,15.6l0.6,0c0-0.4,0.1-0.7,0.2-0.8
	c0.2-0.1,0.4-0.2,0.8-0.2l24.5-0.4c0.4,0,0.7,0,0.9,0.2c0.2,0.1,0.2,0.4,0.2,0.8l0.6,0l-0.1-7.4l-0.6,0c0,0.3-0.1,0.5-0.2,0.7
	s-0.5,0.2-0.9,0.2l-9.9,0.2l-0.1-8.1L101.5,323.9z M88,281.6c-0.5,3.4-0.3,6.4,0.5,9.2c0.8,2.8,2.2,5,4.1,6.8
	c1.9,1.8,4.2,2.9,6.9,3.4c2.7,0.4,5.2,0.1,7.6-1c2.4-1.1,4.4-2.8,6-5.2c1.7-2.3,2.8-5.2,3.3-8.6c0.5-3.4,0.3-6.4-0.5-9.2
	c-0.8-2.7-2.2-5-4.1-6.8c-1.9-1.8-4.2-2.9-6.9-3.3c-2.7-0.4-5.2-0.1-7.6,1c-2.4,1.1-4.4,2.8-6,5.2C89.6,275.4,88.5,278.3,88,281.6
	 M92.4,282.3c0.6-3.5,2-6.2,4.1-8.1c2.1-1.9,4.7-2.6,7.6-2.2c3,0.5,5.2,2,6.6,4.4s1.9,5.4,1.4,8.9c-0.6,3.5-2,6.2-4.1,8.1
	c-2.1,1.9-4.6,2.6-7.6,2.2c-2.9-0.5-5.2-2-6.6-4.4C92.4,288.9,91.9,285.9,92.4,282.3 M116.3,240.9c1-3.1,1.1-5.6,0.2-7.4
	c-0.9-1.8-2.5-3.1-4.8-3.8c-2.7-0.9-4.9-0.8-6.7,0.3c-1.8,1.1-3.2,3.1-4.1,6l-5.9,17l0.6,0.2c0.1-0.4,0.3-0.6,0.5-0.6
	c0.2-0.1,0.5,0,0.9,0.1l23.2,8c0.4,0.1,0.7,0.3,0.8,0.4c0.1,0.2,0.1,0.4,0,0.8l0.6,0.2l2.4-7l-0.6-0.2c-0.1,0.3-0.3,0.5-0.5,0.6
	c-0.2,0.1-0.5,0-0.9-0.1l-9.5-3.2L116.3,240.9L116.3,240.9z M101.3,248.2l3.5-10.1c0.5-1.7,1.2-2.8,1.9-3.2c0.7-0.5,1.7-0.5,3,0
	c1.3,0.4,2.1,1.1,2.4,1.9c0.3,0.8,0.1,2.1-0.5,3.7l-3.5,10.1L101.3,248.2L101.3,248.2z M147.6,206.4l-5-2.8l-0.3,0.6
	c0.2,0.1,0.3,0.3,0.3,0.5c0,0.2-0.1,0.6-0.3,1l-9.1,16.4l-6.5-3.6l5.8-10.5c0.2-0.4,0.5-0.6,0.7-0.8c0.2-0.1,0.4-0.1,0.5-0.1
	l0.3-0.6l-5-2.8l-0.3,0.5c0.2,0.1,0.3,0.3,0.3,0.5c0,0.2-0.1,0.5-0.3,0.9l-5.8,10.5l-6.2-3.4l8.9-16.1c0.2-0.4,0.5-0.7,0.7-0.8
	s0.5-0.1,0.7,0l0.3-0.6l-5.1-2.8l-0.3,0.6c0.1,0.1,0.2,0.2,0.2,0.5s-0.1,0.6-0.4,1l-12,21.7l0.6,0.3c0.2-0.3,0.3-0.5,0.5-0.5
	c0.2,0,0.5,0.1,0.8,0.3l21.4,11.8c0.4,0.2,0.6,0.4,0.7,0.6c0.1,0.2,0.1,0.4-0.1,0.7l0.5,0.3l12.2-22c0.2-0.4,0.4-0.7,0.6-0.8
	c0.2-0.2,0.4-0.2,0.5-0.1L147.6,206.4L147.6,206.4z M154.4,196.8l-0.5-0.4c-0.2,0.2-0.3,0.3-0.5,0.4c-0.2,0-0.3,0-0.5-0.2
	c-0.1-0.1-0.2-0.2-0.3-0.5c-0.1-0.3-0.4-0.8-0.9-1.7c-0.4-0.8-1.1-2.1-2-3.8l8.3-10.3c2,0.5,3.4,0.9,4.4,1.1
	c0.9,0.2,1.5,0.4,1.8,0.5c0.3,0.1,0.5,0.2,0.6,0.3c0.1,0.1,0.2,0.2,0.2,0.4c0,0.1-0.1,0.3-0.2,0.4l0.5,0.4l4.7-5.8l-0.5-0.4
	c-0.1,0.2-0.3,0.2-0.6,0.2c-0.3,0-0.7-0.1-1.2-0.2l-25.5-6.5c-0.2-0.1-0.4-0.1-0.6-0.1c-0.2,0-0.3-0.1-0.4-0.2
	c-0.1-0.1-0.2-0.2-0.2-0.4c0-0.1,0.1-0.3,0.1-0.4l-0.5-0.4l-5,6.2l0.5,0.4c0.1-0.1,0.2-0.2,0.4-0.2c0.1,0,0.2,0,0.3,0.1
	c0.1,0.1,0.2,0.2,0.3,0.4c0.1,0.2,0.2,0.3,0.2,0.5l11.4,22.6c0.3,0.6,0.6,1.1,0.8,1.5c0.2,0.4,0.1,0.7-0.1,1.1l0.5,0.4L154.4,196.8
	L154.4,196.8z M153.2,179.1l-5.8,7.1l-5-9.9C142.5,176.4,153.2,179.1,153.2,179.1z M165.3,153.4l25.3,3.1c0.3,0,0.6,0.1,0.9,0.1
	c0.3,0,0.4,0.1,0.5,0.2c0.1,0.1,0.1,0.2,0.1,0.4c0,0.1-0.1,0.2-0.3,0.4l0.4,0.5l5.3-4.4l-0.4-0.5c-0.2,0.2-0.4,0.3-0.6,0.2
	s-0.4-0.2-0.7-0.5l-15.8-18.8c-0.3-0.3-0.4-0.6-0.4-0.8c0-0.2,0.1-0.4,0.3-0.6l-0.4-0.5l-4.9,4.1l0.4,0.5c0.2-0.2,0.4-0.2,0.6-0.2
	c0.2,0.1,0.4,0.2,0.7,0.6l11.5,13.7l-24-2.8c-0.3,0-0.5,0-0.7-0.1c-0.2,0-0.4-0.1-0.5-0.2c-0.1-0.1-0.1-0.2-0.1-0.3
	c0-0.1,0.1-0.2,0.2-0.3l-0.4-0.5l-6,5l0.4,0.5c0.2-0.2,0.4-0.2,0.6-0.2c0.2,0.1,0.4,0.2,0.7,0.6l15.8,18.7c0.3,0.3,0.4,0.6,0.4,0.8
	s-0.1,0.4-0.3,0.5l0.4,0.5l4.8-4l-0.4-0.5c-0.2,0.1-0.4,0.2-0.5,0.1c-0.2-0.1-0.4-0.2-0.7-0.6L165.3,153.4L165.3,153.4z M228.8,104
	l0.3,0.6c0.2-0.1,0.3-0.1,0.5-0.1c0.2,0,0.3,0.1,0.4,0.2c0.1,0.2,0.1,1,0.1,2.4l0.1,4.4l0.4,14.9l-11.4-9.9c-1.7-1.4-3-2.5-3.8-3.2
	c-0.9-0.7-1.3-1.1-1.4-1.3c-0.1-0.1-0.1-0.3,0-0.4c0.1-0.1,0.2-0.2,0.4-0.3l-0.3-0.6l-7.1,3.3l0.3,0.6c0.4-0.2,0.8-0.2,1.1,0
	c0.3,0.2,0.5,0.4,0.8,0.6l19.9,17c0.2,0.1,0.3,0.3,0.5,0.4c0.2,0.2,0.3,0.3,0.3,0.4c0.1,0.1,0.1,0.2,0,0.3c0,0.1-0.2,0.2-0.4,0.3
	l0.3,0.6l6.8-3.2l-0.3-0.6c-0.2,0.1-0.4,0.1-0.6,0.1c-0.1,0-0.2-0.1-0.3-0.2c-0.1-0.1-0.1-0.3-0.1-0.4l0-0.6l-0.7-26
	c0-0.4,0-0.8,0.2-1.2c0.1-0.3,0.3-0.6,0.6-0.7l-0.3-0.6L228.8,104L228.8,104z M279.3,117.8l-1.5-5.5l-0.6,0.2c0.1,0.2,0,0.4-0.2,0.5
	c-0.2,0.2-0.5,0.3-0.9,0.4l-18.1,4.9l-1.9-7.2l11.6-3.1c0.4-0.1,0.8-0.1,1,0c0.2,0.1,0.4,0.2,0.4,0.3l0.6-0.2l-1.5-5.6l-0.6,0.2
	c0.1,0.2,0,0.4-0.2,0.5c-0.2,0.2-0.5,0.3-0.9,0.4l-11.6,3.1l-1.8-6.8l17.8-4.8c0.5-0.1,0.8-0.1,1.1,0c0.2,0.1,0.4,0.3,0.4,0.5
	l0.6-0.2l-1.5-5.7l-0.6,0.2c0.1,0.2,0,0.3-0.2,0.5c-0.2,0.2-0.5,0.3-1,0.4l-24,6.3l0.2,0.6c0.3-0.1,0.5-0.1,0.7,0.1
	c0.1,0.1,0.3,0.4,0.4,0.8l6.3,23.7c0.1,0.4,0.1,0.7,0.1,0.9c-0.1,0.2-0.3,0.3-0.6,0.4l0.2,0.6l24.3-6.5c0.4-0.1,0.8-0.2,1-0.1
	c0.2,0,0.4,0.1,0.4,0.3L279.3,117.8L279.3,117.8z M309.6,107.9c-0.5,0.4-1.5,0.9-3,1.4c-1.5,0.5-3.1,0.8-4.8,1
	c-3.5,0.3-6.4-0.3-8.8-1.7c-2.3-1.5-3.7-3.8-4.1-7.1c-0.2-2.1,0.2-4,1.1-5.5c0.9-1.6,2.2-2.8,3.8-3.7c1.6-0.9,3.5-1.5,5.5-1.7
	c2-0.1,3.7,0,5.1,0.3c1.4,0.3,2.6,0.7,3.4,1.2s1.2,0.8,1.2,1c0,0.2,0,0.3,0,0.4c0,0.1,0,0.2-0.1,0.2l0.6,0.3l2.8-6.4l-0.7-0.2
	c-0.2,0.2-0.4,0.3-0.5,0.3c-0.2,0-0.6-0.1-1.2-0.3c-0.6-0.2-1.4-0.4-2.3-0.6c-1-0.2-2.2-0.4-3.6-0.5s-3-0.1-4.8,0
	c-3.2,0.3-6,1.1-8.4,2.4c-2.5,1.3-4.3,3.1-5.6,5.4c-1.3,2.3-1.9,5-1.6,8.1c0.3,3.3,1.3,5.9,2.9,7.9c1.6,2,3.7,3.4,6.3,4.2
	c2.6,0.8,5.4,1.1,8.6,0.8c2.8-0.2,5.5-0.9,7.9-1.8s4.5-2.2,6.2-3.8l-0.1-0.6c-0.2-0.1-0.3-0.2-0.4-0.3c-0.1-0.1-0.1-0.3-0.2-0.5
	l-0.7-7.6c0-0.4,0-0.6,0-0.8c0.1-0.2,0.2-0.3,0.4-0.3l-0.1-0.6L302,99.7c-0.4,0-0.7,0-0.9-0.1c-0.2-0.1-0.4-0.3-0.4-0.4l-0.6,0.1
	l0.5,6l0.6-0.1c0-0.2,0.1-0.4,0.3-0.6c0.2-0.2,0.5-0.3,0.8-0.4l6.8-0.6l0.4,4.5L309.6,107.9z M350.9,115.9l0.5-5.7l-0.6-0.1
	c0,0.2-0.1,0.4-0.4,0.4c-0.2,0.1-0.6,0.1-1,0.1l-18.7-1.6l0.6-7.4l11.9,1c0.5,0.1,0.8,0.1,1,0.3c0.2,0.1,0.3,0.3,0.3,0.4l0.6,0.1
	l0.5-5.7l-0.6-0.1c0,0.2-0.1,0.4-0.3,0.5c-0.2,0.1-0.5,0.1-1,0.1l-11.9-1l0.6-7l18.4,1.6c0.5,0.1,0.8,0.2,1,0.3
	c0.2,0.2,0.3,0.4,0.3,0.6l0.6,0.1l0.5-5.8l-0.6-0.1c0,0.2-0.1,0.3-0.3,0.4c-0.2,0.1-0.6,0.1-1,0.1l-24.8-2.3l-0.1,0.6
	c0.3,0,0.5,0.1,0.6,0.3c0.1,0.2,0.1,0.5,0.1,0.9l-2.1,24.4c0,0.4-0.1,0.7-0.2,0.8c-0.1,0.2-0.4,0.2-0.7,0.2l-0.1,0.6l25.1,2.2
	c0.5,0,0.8,0.1,1,0.2c0.2,0.1,0.3,0.3,0.3,0.5L350.9,115.9L350.9,115.9z M374.2,119.9c-0.4-0.1-0.6-0.2-0.7-0.4s-0.1-0.5,0-0.9
	l5.3-21.1l8.8,2.2c0.4,0.1,0.7,0.2,0.9,0.3c0.2,0.1,0.2,0.3,0.2,0.5l0.6,0.1l1.4-5.4l-0.6-0.2c0,0.2-0.2,0.3-0.4,0.4
	c-0.2,0-0.5,0-1-0.1l-23.1-5.7c-0.4-0.1-0.7-0.2-0.9-0.4c-0.2-0.1-0.2-0.3-0.2-0.5l-0.6-0.1l-1.4,5.4l0.6,0.2
	c0.1-0.2,0.2-0.3,0.4-0.4c0.2,0,0.5,0,1,0.1l8.8,2.2l-5.3,21.1c-0.1,0.4-0.2,0.7-0.4,0.8c-0.2,0.1-0.4,0.2-0.8,0.1l-0.2,0.6l7.2,1.8
	L374.2,119.9L374.2,119.9z M392.9,126.3l0.2-0.6c-0.2-0.1-0.4-0.2-0.5-0.4c-0.1-0.1-0.1-0.3,0-0.5c0-0.1,0.1-0.2,0.4-0.4
	c0.2-0.2,0.7-0.7,1.3-1.3c0.7-0.7,1.7-1.7,3.1-3.1l12.2,5c0.1,2,0.2,3.5,0.2,4.5c0.1,1,0.1,1.6,0.1,1.9c0,0.3,0,0.5-0.1,0.6
	c-0.1,0.1-0.2,0.2-0.3,0.3c-0.1,0-0.3,0-0.4-0.1l-0.2,0.6l6.9,2.8l0.2-0.6c-0.2-0.1-0.3-0.2-0.4-0.5c-0.1-0.3-0.1-0.7-0.1-1.2
	l-1.3-26.2c0-0.2,0-0.4-0.1-0.6c0-0.2,0-0.3,0-0.5c0.1-0.1,0.1-0.2,0.3-0.2c0.1,0,0.3,0,0.4,0l0.2-0.6l-7.4-3l-0.2,0.6
	c0.1,0.1,0.2,0.1,0.3,0.3c0,0.1,0.1,0.2,0,0.3c-0.1,0.2-0.2,0.3-0.3,0.4c-0.1,0.1-0.2,0.3-0.4,0.4l-18.3,17.5
	c-0.5,0.5-0.9,0.9-1.2,1.2c-0.3,0.3-0.7,0.3-1.1,0.2l-0.2,0.6L392.9,126.3L392.9,126.3z M409.5,120l-8.5-3.4l8-7.7L409.5,120
	L409.5,120z M439.6,122.7l8.9,5.8c1.6,1,2.7,2.1,3.2,3.2c0.5,1.1,0.5,2.1-0.2,3.1c-0.6,1-1.4,1.6-2.4,1.8c-1,0.1-2.3-0.3-3.9-1.4
	l-9.7-6.3L439.6,122.7L439.6,122.7z M440,137l0.1,10.2l0.1,1.5c0,0.5,0,0.9-0.2,1.1c-0.1,0.1-0.1,0.1-0.2,0.1c-0.1,0-0.2,0-0.2-0.1
	l-0.3,0.5l7,4.6l0.4-0.5c-0.3-0.2-0.5-0.5-0.6-0.8c-0.1-0.3-0.2-0.7-0.2-1l-0.4-12.2c2.1,1.1,4.1,1.4,6.1,1c1.9-0.4,3.5-1.5,4.7-3.3
	c1.7-2.6,1.9-5.1,0.7-7.4c-1.2-2.3-3.6-4.6-7.1-6.9l-13.1-8.5l-0.3,0.5c0.3,0.2,0.5,0.4,0.5,0.6c0,0.2-0.1,0.5-0.3,0.8l-13.3,20.5
	c-0.2,0.3-0.4,0.5-0.6,0.6c-0.2,0.1-0.5,0-0.8-0.2l-0.3,0.5l6.2,4l0.3-0.5c-0.3-0.2-0.4-0.4-0.4-0.6c0-0.2,0.1-0.5,0.3-0.8l5.4-8.3
	L440,137L440,137z M473.4,144c0.3-0.3,0.5-0.5,0.7-0.5c0.2,0,0.5,0.1,0.9,0.4l0.4-0.5l-6.1-5.2l-0.4,0.5c0.4,0.4,0.7,0.6,0.7,0.9
	s-0.1,0.5-0.4,0.8l-15.8,18.8c-0.2,0.3-0.5,0.5-0.7,0.5c-0.2,0-0.5-0.1-1-0.5l-0.4,0.5l6.1,5.2l0.4-0.5c-0.4-0.3-0.5-0.6-0.6-0.8
	c0-0.2,0.1-0.5,0.4-0.8L473.4,144L473.4,144z M466.7,173.4l0.5-0.4c-0.2-0.2-0.3-0.4-0.3-0.5c0-0.2,0.1-0.3,0.2-0.5
	c0-0.1,0.2-0.1,0.5-0.2c0.3-0.1,0.9-0.3,1.8-0.6l4.1-1.5l9,9.7c-0.8,1.9-1.4,3.3-1.7,4.1s-0.6,1.5-0.7,1.7c-0.1,0.3-0.2,0.5-0.3,0.5
	c-0.1,0.1-0.2,0.2-0.4,0.1c-0.1,0-0.2-0.1-0.4-0.2l-0.5,0.4l5.1,5.5l0.5-0.4c-0.1-0.1-0.2-0.4-0.1-0.7c0.1-0.3,0.2-0.7,0.4-1.1
	l9.9-24.3c0.1-0.2,0.2-0.4,0.2-0.6c0.1-0.2,0.1-0.3,0.2-0.4c0.1-0.1,0.2-0.1,0.4-0.1c0.1,0,0.2,0.1,0.4,0.2l0.5-0.4l-5.5-5.9
	l-0.5,0.4c0.1,0.1,0.1,0.2,0.1,0.4c0,0.1,0,0.2-0.1,0.3c-0.1,0.1-0.3,0.2-0.5,0.3c-0.2,0.1-0.3,0.1-0.5,0.2l-24,8.1
	c-0.7,0.3-1.2,0.5-1.6,0.6c-0.4,0.1-0.8,0-1.1-0.3l-0.5,0.4L466.7,173.4L466.7,173.4z M484.3,174.7l-6.3-6.7l10.5-3.6L484.3,174.7
	L484.3,174.7z M508.3,190.1l-6.6,24.7c-0.1,0.3-0.2,0.6-0.2,0.9c-0.1,0.2-0.2,0.4-0.2,0.5c-0.1,0.1-0.2,0.1-0.4,0s-0.2-0.2-0.3-0.3
	l-0.5,0.3l3.7,5.9l0.5-0.3c-0.2-0.2-0.2-0.5-0.1-0.6c0.1-0.2,0.3-0.4,0.7-0.6l20.8-13c0.4-0.2,0.6-0.3,0.8-0.3
	c0.2,0,0.4,0.1,0.5,0.4l0.5-0.3l-3.4-5.4l-0.5,0.3c0.1,0.2,0.2,0.4,0.1,0.6c-0.1,0.2-0.3,0.4-0.6,0.6l-15.1,9.5l6.2-23.3
	c0.1-0.3,0.1-0.5,0.2-0.7s0.1-0.3,0.3-0.4c0.1-0.1,0.2-0.1,0.4-0.1c0.1,0,0.2,0.1,0.2,0.2l0.5-0.3l-4.1-6.6l-0.5,0.3
	c0.1,0.2,0.2,0.4,0.1,0.6c-0.1,0.2-0.3,0.4-0.6,0.6l-20.8,13c-0.4,0.2-0.6,0.3-0.8,0.3c-0.2,0-0.4-0.1-0.5-0.4l-0.5,0.3l3.3,5.3
	l0.5-0.3c-0.1-0.2-0.1-0.4-0.1-0.5c0.1-0.2,0.3-0.4,0.7-0.6L508.3,190.1L508.3,190.1z M542.2,239.6l-0.6,0.2c0.1,0.4,0.1,0.7,0,0.9
	c-0.1,0.2-0.4,0.3-0.8,0.4L525,246c-3.6,1.2-5.8,3.2-6.5,6c-0.7,2.9-0.3,6.4,1,10.5c1.2,4.2,2.9,7.3,5,9.3c2.2,2,5.1,2.4,8.7,1.4
	l15.9-4.9c0.4-0.1,0.7-0.1,0.9-0.1c0.2,0.1,0.4,0.3,0.5,0.7l0.6-0.2l-2.2-7.1l-0.6,0.2c0.1,0.4,0.1,0.6,0,0.8
	c-0.1,0.2-0.4,0.3-0.8,0.4l-16.1,4.9c-1.9,0.6-3.5,0.3-4.7-0.8c-1.2-1.1-2.2-3.1-3-5.8c-0.9-2.8-1.1-4.9-0.8-6.5
	c0.4-1.6,1.5-2.7,3.4-3.3l16.1-4.9c0.4-0.1,0.7-0.1,0.9-0.1c0.2,0.1,0.4,0.2,0.4,0.5l0.6-0.2L542.2,239.6L542.2,239.6z M547.2,290.4
	l-17.1,19c-0.2,0.3-0.4,0.5-0.6,0.7c-0.2,0.2-0.3,0.3-0.4,0.3c-0.1,0-0.2,0-0.3-0.1c-0.1-0.1-0.1-0.2-0.2-0.4l-0.6,0.1l0.6,6.9
	l0.6-0.1c0-0.3,0-0.5,0.2-0.6c0.2-0.1,0.4-0.2,0.8-0.2l24.4-2.1c0.4,0,0.7,0,0.9,0.1c0.2,0.1,0.3,0.3,0.3,0.6l0.6-0.1l-0.5-6.3
	l-0.6,0.1c0,0.3,0,0.5-0.2,0.6c-0.2,0.1-0.4,0.2-0.8,0.2l-17.8,1.6l16.1-18c0.2-0.2,0.3-0.4,0.5-0.5c0.1-0.2,0.3-0.2,0.4-0.3
	c0.2,0,0.3,0,0.3,0.1c0.1,0.1,0.1,0.2,0.1,0.3l0.6-0.1l-0.7-7.8l-0.6,0.1c0,0.3,0,0.5-0.2,0.6c-0.2,0.1-0.4,0.2-0.8,0.2l-24.4,2.1
	c-0.4,0-0.7,0-0.9-0.1c-0.2-0.1-0.3-0.3-0.3-0.5l-0.6,0.1l0.5,6.2l0.6-0.1c0-0.2,0-0.4,0.2-0.5c0.2-0.1,0.4-0.2,0.8-0.2L547.2,290.4
	L547.2,290.4z M554.1,333.4c0.4,0,0.7,0.1,0.9,0.2c0.2,0.2,0.2,0.5,0.2,1l0.6,0l0.3-8l-0.6,0c0,0.6-0.1,0.9-0.3,1.1
	c-0.2,0.2-0.5,0.2-0.9,0.2l-24.5-0.9c-0.4,0-0.7-0.1-0.8-0.2c-0.2-0.2-0.2-0.5-0.2-1.1l-0.6,0l-0.3,8l0.6,0c0-0.5,0.1-0.8,0.3-0.9
	c0.2-0.2,0.5-0.2,0.9-0.2L554.1,333.4L554.1,333.4z M553.1,361.8c0.5-3.4,0.3-6.4-0.5-9.2c-0.8-2.8-2.2-5-4.1-6.8
	c-1.9-1.8-4.2-2.9-6.9-3.4c-2.7-0.4-5.2-0.1-7.6,1c-2.4,1.1-4.4,2.8-6,5.2c-1.7,2.3-2.8,5.2-3.3,8.6c-0.5,3.4-0.3,6.4,0.5,9.2
	c0.8,2.8,2.2,5,4.1,6.8c1.9,1.8,4.2,2.9,6.9,3.3c2.7,0.4,5.2,0.1,7.6-1c2.4-1.1,4.4-2.8,6-5.2S552.6,365.2,553.1,361.8 M548.7,361.1
	c-0.6,3.5-2,6.2-4.1,8.1c-2.1,1.9-4.6,2.6-7.6,2.2c-2.9-0.5-5.2-2-6.6-4.4c-1.4-2.4-1.9-5.4-1.4-8.9c0.6-3.5,2-6.2,4.1-8.1
	c2.1-1.9,4.7-2.6,7.6-2.2c2.9,0.5,5.2,2,6.6,4.4C548.8,354.5,549.2,357.5,548.7,361.1 M537,394.4l-23.8,9.6
	c-0.3,0.1-0.6,0.2-0.9,0.3c-0.2,0.1-0.4,0.1-0.5,0.1c-0.1-0.1-0.2-0.1-0.3-0.3c0-0.1,0-0.3,0-0.5l-0.6-0.2l-2.5,6.5l0.6,0.2
	c0.1-0.3,0.2-0.4,0.5-0.5c0.2,0,0.5,0,0.9,0.2l22.9,8.8c0.4,0.1,0.6,0.3,0.7,0.5c0.1,0.2,0.1,0.4,0,0.7l0.6,0.2l2.3-5.9l-0.6-0.2
	c-0.1,0.3-0.2,0.4-0.4,0.5c-0.2,0-0.5,0-0.8-0.2l-16.7-6.4l22.3-9.1c0.3-0.1,0.5-0.2,0.7-0.3c0.2-0.1,0.4-0.1,0.5-0.1
	c0.1,0.1,0.2,0.1,0.3,0.2c0,0.1,0,0.2,0,0.3l0.6,0.2l2.8-7.3l-0.6-0.2c-0.1,0.3-0.2,0.4-0.4,0.5c-0.2,0.1-0.5,0-0.9-0.2l-22.9-8.8
	c-0.4-0.1-0.6-0.3-0.7-0.5c-0.1-0.2-0.1-0.4,0-0.6l-0.6-0.2l-2.2,5.8l0.6,0.2c0.1-0.2,0.2-0.3,0.4-0.4s0.5,0,0.9,0.2l17.9,6.9
	L537,394.4z"/>
<path class="st1" d="M123.4,385l-5.3,2.1l0.2,0.6c0.2-0.1,0.4,0,0.6,0.1c0.2,0.2,0.4,0.4,0.5,0.9l7,17.4l-6.9,2.8l-4.5-11.1
	c-0.2-0.4-0.2-0.8-0.2-1c0.1-0.2,0.1-0.4,0.3-0.4l-0.2-0.6l-5.4,2.2l0.2,0.6c0.2-0.1,0.4-0.1,0.5,0.1c0.2,0.1,0.4,0.4,0.5,0.8
	l4.5,11.1l-6.6,2.6l-6.9-17.1c-0.2-0.4-0.2-0.8-0.2-1c0.1-0.2,0.2-0.4,0.4-0.5L102,394l-5.5,2.2l0.2,0.6c0.1-0.1,0.3,0,0.5,0.1
	c0.2,0.2,0.4,0.4,0.5,0.9l9.3,23.1l0.6-0.2c-0.1-0.3-0.1-0.5,0-0.7c0.1-0.2,0.4-0.3,0.7-0.5l22.7-9.2c0.4-0.2,0.7-0.2,0.8-0.2
	c0.2,0,0.4,0.2,0.5,0.5l0.6-0.2l-9.3-23.3c-0.2-0.4-0.3-0.8-0.3-1c0-0.2,0.1-0.4,0.3-0.5L123.4,385L123.4,385z M93.3,383.6l0.6-0.1
	c-0.1-0.4-0.1-0.7,0.1-0.9c0.1-0.2,0.4-0.3,0.8-0.4l16.2-3.5c3.7-0.8,6.1-2.7,7-5.5c0.9-2.8,0.9-6.3-0.1-10.6
	c-0.8-4.3-2.2-7.5-4.2-9.7c-2-2.2-4.8-2.9-8.6-2.1l-16.2,3.5c-0.4,0.1-0.7,0.1-0.9,0c-0.2-0.1-0.3-0.3-0.4-0.7l-0.6,0.1l1.6,7.3
	l0.6-0.1c-0.1-0.4,0-0.6,0.1-0.8c0.1-0.2,0.4-0.3,0.8-0.4l16.4-3.5c2-0.4,3.5,0,4.6,1.2c1.1,1.2,1.9,3.3,2.5,6.1
	c0.6,2.8,0.7,5,0.2,6.6c-0.5,1.6-1.7,2.6-3.7,3l-16.4,3.5c-0.4,0.1-0.7,0.1-0.8,0c-0.2-0.1-0.3-0.3-0.4-0.6l-0.6,0.1l1.6,7.3
	L93.3,383.6z M89.8,332.3l-0.2-10.6c0-1.9,0.2-3.4,0.8-4.4c0.6-1,1.5-1.6,2.7-1.6c1.2-0.1,2.1,0.3,2.8,1c0.6,0.7,1,2.1,1,4l0.2,11.5
	L89.8,332.3L89.8,332.3z M101.5,323.9l8.4-5.8c0.4-0.3,0.8-0.6,1.2-0.9c0.4-0.3,0.7-0.4,1-0.5c0.1,0,0.2,0,0.2,0.1
	c0,0.1,0.1,0.2,0.1,0.2l0.6,0l-0.2-8.3h-0.6c0,0.3-0.1,0.7-0.3,1c-0.2,0.3-0.4,0.5-0.7,0.8l-9.8,7.1c-0.3-2.3-1.2-4.2-2.6-5.6
	c-1.4-1.4-3.2-2.1-5.3-2.1c-3.1,0.1-5.3,1.3-6.6,3.6c-1.3,2.3-1.8,5.5-1.7,9.7l0.3,15.6l0.6,0c0-0.4,0.1-0.7,0.2-0.8
	c0.2-0.1,0.4-0.2,0.8-0.2l24.5-0.4c0.4,0,0.7,0,0.9,0.2c0.2,0.1,0.2,0.4,0.2,0.8l0.6,0l-0.1-7.4l-0.6,0c0,0.3-0.1,0.5-0.2,0.7
	s-0.5,0.2-0.9,0.2l-9.9,0.2l-0.1-8.1L101.5,323.9z M88,281.6c-0.5,3.4-0.3,6.4,0.5,9.2c0.8,2.8,2.2,5,4.1,6.8
	c1.9,1.8,4.2,2.9,6.9,3.4c2.7,0.4,5.2,0.1,7.6-1c2.4-1.1,4.4-2.8,6-5.2c1.7-2.3,2.8-5.2,3.3-8.6c0.5-3.4,0.3-6.4-0.5-9.2
	c-0.8-2.7-2.2-5-4.1-6.8c-1.9-1.8-4.2-2.9-6.9-3.3c-2.7-0.4-5.2-0.1-7.6,1c-2.4,1.1-4.4,2.8-6,5.2C89.6,275.4,88.5,278.3,88,281.6
	 M92.4,282.3c0.6-3.5,2-6.2,4.1-8.1c2.1-1.9,4.7-2.6,7.6-2.2c3,0.5,5.2,2,6.6,4.4s1.9,5.4,1.4,8.9c-0.6,3.5-2,6.2-4.1,8.1
	c-2.1,1.9-4.6,2.6-7.6,2.2c-2.9-0.5-5.2-2-6.6-4.4C92.4,288.9,91.9,285.9,92.4,282.3 M116.3,240.9c1-3.1,1.1-5.6,0.2-7.4
	c-0.9-1.8-2.5-3.1-4.8-3.8c-2.7-0.9-4.9-0.8-6.7,0.3c-1.8,1.1-3.2,3.1-4.1,6l-5.9,17l0.6,0.2c0.1-0.4,0.3-0.6,0.5-0.6
	c0.2-0.1,0.5,0,0.9,0.1l23.2,8c0.4,0.1,0.7,0.3,0.8,0.4c0.1,0.2,0.1,0.4,0,0.8l0.6,0.2l2.4-7l-0.6-0.2c-0.1,0.3-0.3,0.5-0.5,0.6
	c-0.2,0.1-0.5,0-0.9-0.1l-9.5-3.2L116.3,240.9L116.3,240.9z M101.3,248.2l3.5-10.1c0.5-1.7,1.2-2.8,1.9-3.2c0.7-0.5,1.7-0.5,3,0
	c1.3,0.4,2.1,1.1,2.4,1.9c0.3,0.8,0.1,2.1-0.5,3.7l-3.5,10.1L101.3,248.2L101.3,248.2z M147.6,206.4l-5-2.8l-0.3,0.6
	c0.2,0.1,0.3,0.3,0.3,0.5c0,0.2-0.1,0.6-0.3,1l-9.1,16.4l-6.5-3.6l5.8-10.5c0.2-0.4,0.5-0.6,0.7-0.8c0.2-0.1,0.4-0.1,0.5-0.1
	l0.3-0.6l-5-2.8l-0.3,0.5c0.2,0.1,0.3,0.3,0.3,0.5c0,0.2-0.1,0.5-0.3,0.9l-5.8,10.5l-6.2-3.4l8.9-16.1c0.2-0.4,0.5-0.7,0.7-0.8
	s0.5-0.1,0.7,0l0.3-0.6l-5.1-2.8l-0.3,0.6c0.1,0.1,0.2,0.2,0.2,0.5s-0.1,0.6-0.4,1l-12,21.7l0.6,0.3c0.2-0.3,0.3-0.5,0.5-0.5
	c0.2,0,0.5,0.1,0.8,0.3l21.4,11.8c0.4,0.2,0.6,0.4,0.7,0.6c0.1,0.2,0.1,0.4-0.1,0.7l0.5,0.3l12.2-22c0.2-0.4,0.4-0.7,0.6-0.8
	c0.2-0.2,0.4-0.2,0.5-0.1L147.6,206.4L147.6,206.4z M154.4,196.8l-0.5-0.4c-0.2,0.2-0.3,0.3-0.5,0.4c-0.2,0-0.3,0-0.5-0.2
	c-0.1-0.1-0.2-0.2-0.3-0.5c-0.1-0.3-0.4-0.8-0.9-1.7c-0.4-0.8-1.1-2.1-2-3.8l8.3-10.3c2,0.5,3.4,0.9,4.4,1.1
	c0.9,0.2,1.5,0.4,1.8,0.5c0.3,0.1,0.5,0.2,0.6,0.3c0.1,0.1,0.2,0.2,0.2,0.4c0,0.1-0.1,0.3-0.2,0.4l0.5,0.4l4.7-5.8l-0.5-0.4
	c-0.1,0.2-0.3,0.2-0.6,0.2c-0.3,0-0.7-0.1-1.2-0.2l-25.5-6.5c-0.2-0.1-0.4-0.1-0.6-0.1c-0.2,0-0.3-0.1-0.4-0.2
	c-0.1-0.1-0.2-0.2-0.2-0.4c0-0.1,0.1-0.3,0.1-0.4l-0.5-0.4l-5,6.2l0.5,0.4c0.1-0.1,0.2-0.2,0.4-0.2c0.1,0,0.2,0,0.3,0.1
	c0.1,0.1,0.2,0.2,0.3,0.4c0.1,0.2,0.2,0.3,0.2,0.5l11.4,22.6c0.3,0.6,0.6,1.1,0.8,1.5c0.2,0.4,0.1,0.7-0.1,1.1l0.5,0.4L154.4,196.8
	L154.4,196.8z M153.2,179.1l-5.8,7.1l-5-9.9C142.5,176.4,153.2,179.1,153.2,179.1z M165.3,153.4l25.3,3.1c0.3,0,0.6,0.1,0.9,0.1
	c0.3,0,0.4,0.1,0.5,0.2c0.1,0.1,0.1,0.2,0.1,0.4c0,0.1-0.1,0.2-0.3,0.4l0.4,0.5l5.3-4.4l-0.4-0.5c-0.2,0.2-0.4,0.3-0.6,0.2
	s-0.4-0.2-0.7-0.5l-15.8-18.8c-0.3-0.3-0.4-0.6-0.4-0.8c0-0.2,0.1-0.4,0.3-0.6l-0.4-0.5l-4.9,4.1l0.4,0.5c0.2-0.2,0.4-0.2,0.6-0.2
	c0.2,0.1,0.4,0.2,0.7,0.6l11.5,13.7l-24-2.8c-0.3,0-0.5,0-0.7-0.1c-0.2,0-0.4-0.1-0.5-0.2c-0.1-0.1-0.1-0.2-0.1-0.3
	c0-0.1,0.1-0.2,0.2-0.3l-0.4-0.5l-6,5l0.4,0.5c0.2-0.2,0.4-0.2,0.6-0.2c0.2,0.1,0.4,0.2,0.7,0.6l15.8,18.7c0.3,0.3,0.4,0.6,0.4,0.8
	s-0.1,0.4-0.3,0.5l0.4,0.5l4.8-4l-0.4-0.5c-0.2,0.1-0.4,0.2-0.5,0.1c-0.2-0.1-0.4-0.2-0.7-0.6L165.3,153.4L165.3,153.4z M228.8,104
	l0.3,0.6c0.2-0.1,0.3-0.1,0.5-0.1c0.2,0,0.3,0.1,0.4,0.2c0.1,0.2,0.1,1,0.1,2.4l0.1,4.4l0.4,14.9l-11.4-9.9c-1.7-1.4-3-2.5-3.8-3.2
	c-0.9-0.7-1.3-1.1-1.4-1.3c-0.1-0.1-0.1-0.3,0-0.4c0.1-0.1,0.2-0.2,0.4-0.3l-0.3-0.6l-7.1,3.3l0.3,0.6c0.4-0.2,0.8-0.2,1.1,0
	c0.3,0.2,0.5,0.4,0.8,0.6l19.9,17c0.2,0.1,0.3,0.3,0.5,0.4c0.2,0.2,0.3,0.3,0.3,0.4c0.1,0.1,0.1,0.2,0,0.3c0,0.1-0.2,0.2-0.4,0.3
	l0.3,0.6l6.8-3.2l-0.3-0.6c-0.2,0.1-0.4,0.1-0.6,0.1c-0.1,0-0.2-0.1-0.3-0.2c-0.1-0.1-0.1-0.3-0.1-0.4l0-0.6l-0.7-26
	c0-0.4,0-0.8,0.2-1.2c0.1-0.3,0.3-0.6,0.6-0.7l-0.3-0.6L228.8,104L228.8,104z M279.3,117.8l-1.5-5.5l-0.6,0.2c0.1,0.2,0,0.4-0.2,0.5
	c-0.2,0.2-0.5,0.3-0.9,0.4l-18.1,4.9l-1.9-7.2l11.6-3.1c0.4-0.1,0.8-0.1,1,0c0.2,0.1,0.4,0.2,0.4,0.3l0.6-0.2l-1.5-5.6l-0.6,0.2
	c0.1,0.2,0,0.4-0.2,0.5c-0.2,0.2-0.5,0.3-0.9,0.4l-11.6,3.1l-1.8-6.8l17.8-4.8c0.5-0.1,0.8-0.1,1.1,0c0.2,0.1,0.4,0.3,0.4,0.5
	l0.6-0.2l-1.5-5.7l-0.6,0.2c0.1,0.2,0,0.3-0.2,0.5c-0.2,0.2-0.5,0.3-1,0.4l-24,6.3l0.2,0.6c0.3-0.1,0.5-0.1,0.7,0.1
	c0.1,0.1,0.3,0.4,0.4,0.8l6.3,23.7c0.1,0.4,0.1,0.7,0.1,0.9c-0.1,0.2-0.3,0.3-0.6,0.4l0.2,0.6l24.3-6.5c0.4-0.1,0.8-0.2,1-0.1
	c0.2,0,0.4,0.1,0.4,0.3L279.3,117.8L279.3,117.8z M309.6,107.9c-0.5,0.4-1.5,0.9-3,1.4c-1.5,0.5-3.1,0.8-4.8,1
	c-3.5,0.3-6.4-0.3-8.8-1.7c-2.3-1.5-3.7-3.8-4.1-7.1c-0.2-2.1,0.2-4,1.1-5.5c0.9-1.6,2.2-2.8,3.8-3.7c1.6-0.9,3.5-1.5,5.5-1.7
	c2-0.1,3.7,0,5.1,0.3c1.4,0.3,2.6,0.7,3.4,1.2s1.2,0.8,1.2,1c0,0.2,0,0.3,0,0.4c0,0.1,0,0.2-0.1,0.2l0.6,0.3l2.8-6.4l-0.7-0.2
	c-0.2,0.2-0.4,0.3-0.5,0.3c-0.2,0-0.6-0.1-1.2-0.3c-0.6-0.2-1.4-0.4-2.3-0.6c-1-0.2-2.2-0.4-3.6-0.5s-3-0.1-4.8,0
	c-3.2,0.3-6,1.1-8.4,2.4c-2.5,1.3-4.3,3.1-5.6,5.4c-1.3,2.3-1.9,5-1.6,8.1c0.3,3.3,1.3,5.9,2.9,7.9c1.6,2,3.7,3.4,6.3,4.2
	c2.6,0.8,5.4,1.1,8.6,0.8c2.8-0.2,5.5-0.9,7.9-1.8s4.5-2.2,6.2-3.8l-0.1-0.6c-0.2-0.1-0.3-0.2-0.4-0.3c-0.1-0.1-0.1-0.3-0.2-0.5
	l-0.7-7.6c0-0.4,0-0.6,0-0.8c0.1-0.2,0.2-0.3,0.4-0.3l-0.1-0.6L302,99.7c-0.4,0-0.7,0-0.9-0.1c-0.2-0.1-0.4-0.3-0.4-0.4l-0.6,0.1
	l0.5,6l0.6-0.1c0-0.2,0.1-0.4,0.3-0.6c0.2-0.2,0.5-0.3,0.8-0.4l6.8-0.6l0.4,4.5L309.6,107.9z M350.9,115.9l0.5-5.7l-0.6-0.1
	c0,0.2-0.1,0.4-0.4,0.4c-0.2,0.1-0.6,0.1-1,0.1l-18.7-1.6l0.6-7.4l11.9,1c0.5,0.1,0.8,0.1,1,0.3c0.2,0.1,0.3,0.3,0.3,0.4l0.6,0.1
	l0.5-5.7l-0.6-0.1c0,0.2-0.1,0.4-0.3,0.5c-0.2,0.1-0.5,0.1-1,0.1l-11.9-1l0.6-7l18.4,1.6c0.5,0.1,0.8,0.2,1,0.3
	c0.2,0.2,0.3,0.4,0.3,0.6l0.6,0.1l0.5-5.8l-0.6-0.1c0,0.2-0.1,0.3-0.3,0.4c-0.2,0.1-0.6,0.1-1,0.1l-24.8-2.3l-0.1,0.6
	c0.3,0,0.5,0.1,0.6,0.3c0.1,0.2,0.1,0.5,0.1,0.9l-2.1,24.4c0,0.4-0.1,0.7-0.2,0.8c-0.1,0.2-0.4,0.2-0.7,0.2l-0.1,0.6l25.1,2.2
	c0.5,0,0.8,0.1,1,0.2c0.2,0.1,0.3,0.3,0.3,0.5L350.9,115.9L350.9,115.9z M374.2,119.9c-0.4-0.1-0.6-0.2-0.7-0.4s-0.1-0.5,0-0.9
	l5.3-21.1l8.8,2.2c0.4,0.1,0.7,0.2,0.9,0.3c0.2,0.1,0.2,0.3,0.2,0.5l0.6,0.1l1.4-5.4l-0.6-0.2c0,0.2-0.2,0.3-0.4,0.4
	c-0.2,0-0.5,0-1-0.1l-23.1-5.7c-0.4-0.1-0.7-0.2-0.9-0.4c-0.2-0.1-0.2-0.3-0.2-0.5l-0.6-0.1l-1.4,5.4l0.6,0.2
	c0.1-0.2,0.2-0.3,0.4-0.4c0.2,0,0.5,0,1,0.1l8.8,2.2l-5.3,21.1c-0.1,0.4-0.2,0.7-0.4,0.8c-0.2,0.1-0.4,0.2-0.8,0.1l-0.2,0.6l7.2,1.8
	L374.2,119.9L374.2,119.9z M392.9,126.3l0.2-0.6c-0.2-0.1-0.4-0.2-0.5-0.4c-0.1-0.1-0.1-0.3,0-0.5c0-0.1,0.1-0.2,0.4-0.4
	c0.2-0.2,0.7-0.7,1.3-1.3c0.7-0.7,1.7-1.7,3.1-3.1l12.2,5c0.1,2,0.2,3.5,0.2,4.5c0.1,1,0.1,1.6,0.1,1.9c0,0.3,0,0.5-0.1,0.6
	c-0.1,0.1-0.2,0.2-0.3,0.3c-0.1,0-0.3,0-0.4-0.1l-0.2,0.6l6.9,2.8l0.2-0.6c-0.2-0.1-0.3-0.2-0.4-0.5c-0.1-0.3-0.1-0.7-0.1-1.2
	l-1.3-26.2c0-0.2,0-0.4-0.1-0.6c0-0.2,0-0.3,0-0.5c0.1-0.1,0.1-0.2,0.3-0.2c0.1,0,0.3,0,0.4,0l0.2-0.6l-7.4-3l-0.2,0.6
	c0.1,0.1,0.2,0.1,0.3,0.3c0,0.1,0.1,0.2,0,0.3c-0.1,0.2-0.2,0.3-0.3,0.4c-0.1,0.1-0.2,0.3-0.4,0.4l-18.3,17.5
	c-0.5,0.5-0.9,0.9-1.2,1.2c-0.3,0.3-0.7,0.3-1.1,0.2l-0.2,0.6L392.9,126.3L392.9,126.3z M409.5,120l-8.5-3.4l8-7.7L409.5,120
	L409.5,120z M439.6,122.7l8.9,5.8c1.6,1,2.7,2.1,3.2,3.2c0.5,1.1,0.5,2.1-0.2,3.1c-0.6,1-1.4,1.6-2.4,1.8c-1,0.1-2.3-0.3-3.9-1.4
	l-9.7-6.3L439.6,122.7L439.6,122.7z M440,137l0.1,10.2l0.1,1.5c0,0.5,0,0.9-0.2,1.1c-0.1,0.1-0.1,0.1-0.2,0.1c-0.1,0-0.2,0-0.2-0.1
	l-0.3,0.5l7,4.6l0.4-0.5c-0.3-0.2-0.5-0.5-0.6-0.8c-0.1-0.3-0.2-0.7-0.2-1l-0.4-12.2c2.1,1.1,4.1,1.4,6.1,1c1.9-0.4,3.5-1.5,4.7-3.3
	c1.7-2.6,1.9-5.1,0.7-7.4c-1.2-2.3-3.6-4.6-7.1-6.9l-13.1-8.5l-0.3,0.5c0.3,0.2,0.5,0.4,0.5,0.6c0,0.2-0.1,0.5-0.3,0.8l-13.3,20.5
	c-0.2,0.3-0.4,0.5-0.6,0.6c-0.2,0.1-0.5,0-0.8-0.2l-0.3,0.5l6.2,4l0.3-0.5c-0.3-0.2-0.4-0.4-0.4-0.6c0-0.2,0.1-0.5,0.3-0.8l5.4-8.3
	L440,137L440,137z M473.4,144c0.3-0.3,0.5-0.5,0.7-0.5c0.2,0,0.5,0.1,0.9,0.4l0.4-0.5l-6.1-5.2l-0.4,0.5c0.4,0.4,0.7,0.6,0.7,0.9
	s-0.1,0.5-0.4,0.8l-15.8,18.8c-0.2,0.3-0.5,0.5-0.7,0.5c-0.2,0-0.5-0.1-1-0.5l-0.4,0.5l6.1,5.2l0.4-0.5c-0.4-0.3-0.5-0.6-0.6-0.8
	c0-0.2,0.1-0.5,0.4-0.8L473.4,144L473.4,144z M466.7,173.4l0.5-0.4c-0.2-0.2-0.3-0.4-0.3-0.5c0-0.2,0.1-0.3,0.2-0.5
	c0-0.1,0.2-0.1,0.5-0.2c0.3-0.1,0.9-0.3,1.8-0.6l4.1-1.5l9,9.7c-0.8,1.9-1.4,3.3-1.7,4.1s-0.6,1.5-0.7,1.7c-0.1,0.3-0.2,0.5-0.3,0.5
	c-0.1,0.1-0.2,0.2-0.4,0.1c-0.1,0-0.2-0.1-0.4-0.2l-0.5,0.4l5.1,5.5l0.5-0.4c-0.1-0.1-0.2-0.4-0.1-0.7c0.1-0.3,0.2-0.7,0.4-1.1
	l9.9-24.3c0.1-0.2,0.2-0.4,0.2-0.6c0.1-0.2,0.1-0.3,0.2-0.4c0.1-0.1,0.2-0.1,0.4-0.1c0.1,0,0.2,0.1,0.4,0.2l0.5-0.4l-5.5-5.9
	l-0.5,0.4c0.1,0.1,0.1,0.2,0.1,0.4c0,0.1,0,0.2-0.1,0.3c-0.1,0.1-0.3,0.2-0.5,0.3c-0.2,0.1-0.3,0.1-0.5,0.2l-24,8.1
	c-0.7,0.3-1.2,0.5-1.6,0.6c-0.4,0.1-0.8,0-1.1-0.3l-0.5,0.4L466.7,173.4L466.7,173.4z M484.3,174.7l-6.3-6.7l10.5-3.6L484.3,174.7
	L484.3,174.7z M508.3,190.1l-6.6,24.7c-0.1,0.3-0.2,0.6-0.2,0.9c-0.1,0.2-0.2,0.4-0.2,0.5c-0.1,0.1-0.2,0.1-0.4,0s-0.2-0.2-0.3-0.3
	l-0.5,0.3l3.7,5.9l0.5-0.3c-0.2-0.2-0.2-0.5-0.1-0.6c0.1-0.2,0.3-0.4,0.7-0.6l20.8-13c0.4-0.2,0.6-0.3,0.8-0.3
	c0.2,0,0.4,0.1,0.5,0.4l0.5-0.3l-3.4-5.4l-0.5,0.3c0.1,0.2,0.2,0.4,0.1,0.6c-0.1,0.2-0.3,0.4-0.6,0.6l-15.1,9.5l6.2-23.3
	c0.1-0.3,0.1-0.5,0.2-0.7s0.1-0.3,0.3-0.4c0.1-0.1,0.2-0.1,0.4-0.1c0.1,0,0.2,0.1,0.2,0.2l0.5-0.3l-4.1-6.6l-0.5,0.3
	c0.1,0.2,0.2,0.4,0.1,0.6c-0.1,0.2-0.3,0.4-0.6,0.6l-20.8,13c-0.4,0.2-0.6,0.3-0.8,0.3c-0.2,0-0.4-0.1-0.5-0.4l-0.5,0.3l3.3,5.3
	l0.5-0.3c-0.1-0.2-0.1-0.4-0.1-0.5c0.1-0.2,0.3-0.4,0.7-0.6L508.3,190.1L508.3,190.1z M542.2,239.6l-0.6,0.2c0.1,0.4,0.1,0.7,0,0.9
	c-0.1,0.2-0.4,0.3-0.8,0.4L525,246c-3.6,1.2-5.8,3.2-6.5,6c-0.7,2.9-0.3,6.4,1,10.5c1.2,4.2,2.9,7.3,5,9.3c2.2,2,5.1,2.4,8.7,1.4
	l15.9-4.9c0.4-0.1,0.7-0.1,0.9-0.1c0.2,0.1,0.4,0.3,0.5,0.7l0.6-0.2l-2.2-7.1l-0.6,0.2c0.1,0.4,0.1,0.6,0,0.8
	c-0.1,0.2-0.4,0.3-0.8,0.4l-16.1,4.9c-1.9,0.6-3.5,0.3-4.7-0.8c-1.2-1.1-2.2-3.1-3-5.8c-0.9-2.8-1.1-4.9-0.8-6.5
	c0.4-1.6,1.5-2.7,3.4-3.3l16.1-4.9c0.4-0.1,0.7-0.1,0.9-0.1c0.2,0.1,0.4,0.2,0.4,0.5l0.6-0.2L542.2,239.6L542.2,239.6z M547.2,290.4
	l-17.1,19c-0.2,0.3-0.4,0.5-0.6,0.7c-0.2,0.2-0.3,0.3-0.4,0.3c-0.1,0-0.2,0-0.3-0.1c-0.1-0.1-0.1-0.2-0.2-0.4l-0.6,0.1l0.6,6.9
	l0.6-0.1c0-0.3,0-0.5,0.2-0.6c0.2-0.1,0.4-0.2,0.8-0.2l24.4-2.1c0.4,0,0.7,0,0.9,0.1c0.2,0.1,0.3,0.3,0.3,0.6l0.6-0.1l-0.5-6.3
	l-0.6,0.1c0,0.3,0,0.5-0.2,0.6c-0.2,0.1-0.4,0.2-0.8,0.2l-17.8,1.6l16.1-18c0.2-0.2,0.3-0.4,0.5-0.5c0.1-0.2,0.3-0.2,0.4-0.3
	c0.2,0,0.3,0,0.3,0.1c0.1,0.1,0.1,0.2,0.1,0.3l0.6-0.1l-0.7-7.8l-0.6,0.1c0,0.3,0,0.5-0.2,0.6c-0.2,0.1-0.4,0.2-0.8,0.2l-24.4,2.1
	c-0.4,0-0.7,0-0.9-0.1c-0.2-0.1-0.3-0.3-0.3-0.5l-0.6,0.1l0.5,6.2l0.6-0.1c0-0.2,0-0.4,0.2-0.5c0.2-0.1,0.4-0.2,0.8-0.2L547.2,290.4
	L547.2,290.4z M554.1,333.4c0.4,0,0.7,0.1,0.9,0.2c0.2,0.2,0.2,0.5,0.2,1l0.6,0l0.3-8l-0.6,0c0,0.6-0.1,0.9-0.3,1.1
	c-0.2,0.2-0.5,0.2-0.9,0.2l-24.5-0.9c-0.4,0-0.7-0.1-0.8-0.2c-0.2-0.2-0.2-0.5-0.2-1.1l-0.6,0l-0.3,8l0.6,0c0-0.5,0.1-0.8,0.3-0.9
	c0.2-0.2,0.5-0.2,0.9-0.2L554.1,333.4L554.1,333.4z M553.1,361.8c0.5-3.4,0.3-6.4-0.5-9.2c-0.8-2.8-2.2-5-4.1-6.8
	c-1.9-1.8-4.2-2.9-6.9-3.4c-2.7-0.4-5.2-0.1-7.6,1c-2.4,1.1-4.4,2.8-6,5.2c-1.7,2.3-2.8,5.2-3.3,8.6c-0.5,3.4-0.3,6.4,0.5,9.2
	c0.8,2.8,2.2,5,4.1,6.8c1.9,1.8,4.2,2.9,6.9,3.3c2.7,0.4,5.2,0.1,7.6-1c2.4-1.1,4.4-2.8,6-5.2S552.6,365.2,553.1,361.8 M548.7,361.1
	c-0.6,3.5-2,6.2-4.1,8.1c-2.1,1.9-4.6,2.6-7.6,2.2c-2.9-0.5-5.2-2-6.6-4.4c-1.4-2.4-1.9-5.4-1.4-8.9c0.6-3.5,2-6.2,4.1-8.1
	c2.1-1.9,4.7-2.6,7.6-2.2c2.9,0.5,5.2,2,6.6,4.4C548.8,354.5,549.2,357.5,548.7,361.1 M537,394.4l-23.8,9.6
	c-0.3,0.1-0.6,0.2-0.9,0.3c-0.2,0.1-0.4,0.1-0.5,0.1c-0.1-0.1-0.2-0.1-0.3-0.3c0-0.1,0-0.3,0-0.5l-0.6-0.2l-2.5,6.5l0.6,0.2
	c0.1-0.3,0.2-0.4,0.5-0.5c0.2,0,0.5,0,0.9,0.2l22.9,8.8c0.4,0.1,0.6,0.3,0.7,0.5c0.1,0.2,0.1,0.4,0,0.7l0.6,0.2l2.3-5.9l-0.6-0.2
	c-0.1,0.3-0.2,0.4-0.4,0.5c-0.2,0-0.5,0-0.8-0.2l-16.7-6.4l22.3-9.1c0.3-0.1,0.5-0.2,0.7-0.3c0.2-0.1,0.4-0.1,0.5-0.1
	c0.1,0.1,0.2,0.1,0.3,0.2c0,0.1,0,0.2,0,0.3l0.6,0.2l2.8-7.3l-0.6-0.2c-0.1,0.3-0.2,0.4-0.4,0.5c-0.2,0.1-0.5,0-0.9-0.2l-22.9-8.8
	c-0.4-0.1-0.6-0.3-0.7-0.5c-0.1-0.2-0.1-0.4,0-0.6l-0.6-0.2l-2.2,5.8l0.6,0.2c0.1-0.2,0.2-0.3,0.4-0.4s0.5,0,0.9,0.2l17.9,6.9
	L537,394.4z M138.2,437.5c3.5,0,6.3,2.8,6.3,6.2c0,3.5-2.8,6.2-6.2,6.2s-6.3-2.8-6.3-6.2C132,440.3,134.8,437.5,138.2,437.5
	 M502.6,437.2c3.4,0,6.2,2.8,6.2,6.3c0,3.4-2.8,6.2-6.3,6.2c-3.5,0-6.3-2.8-6.3-6.3C496.3,440,499.1,437.2,502.6,437.2"/>
<path class="st1" d="M169.6,460l9.5,8.7l-0.6,0.6c-0.4-0.4-1.3-1.2-1.7-0.7c-0.5,0.5-6.3,15.2-7.4,17.1l0.1,0.1
	c5.7-2.7,16.7-7.6,17.1-8.1c0.5-0.5-0.4-1.3-0.7-1.6l0.5-0.6l8.4,7.7l-0.6,0.6c-0.6-0.5-1.1-0.6-1.7-0.3c-2.6,1.5-25.4,12-25.8,12.4
	c-0.5,0.5-0.2,1.4,0.3,1.8l-0.6,0.6l-10.6-9.8l0.5-0.6c0.4,0.5,1.3,0.7,1.8,0.2c0.2-0.2,11.6-25.4,11.3-26.5c-0.2-0.6-0.4-0.8-0.6-1
	L169.6,460L169.6,460z M185.6,499.8l4.6-6.7l14.7,10.2l-4.6,6.7L185.6,499.8L185.6,499.8z M215.2,499.3c0.4-0.9-0.2-1.4-1.1-1.9
	l0.4-0.7l11.4,5.8l-0.4,0.7c-0.9-0.4-1.7-0.6-2.2,0.3l-9.6,18.9l16.6,8.5c0.5,0.2,1.2,0.3,1.9-1l0.7,0.4l-4.7,9.3l-0.7-0.4
	c0.7-1.3,0.2-1.8-0.3-2.1l-26.4-13.4l0.4-0.7c0.9,0.4,1.8,0.6,2.2-0.3L215.2,499.3L215.2,499.3z M262.2,548.7l0.2-0.8
	c0.3,0.1,0.8,0.3,1-0.3c0.2-0.7-0.5-3.7-0.6-5l-15.2-4.4c-0.7,1.1-3,3.2-3.2,3.9c-0.2,0.6,0.4,0.8,0.7,0.8l-0.2,0.8l-9.8-2.9
	l0.2-0.8c0.5,0.2,1.2,0.1,1.5-0.3c8.8-10.8,18.7-21.9,19-22.8c0.1-0.5,0-0.7-0.7-0.9l0.2-0.8l13.7,4l-0.2,0.8c-0.7-0.1-0.9,0-1,0.4
	c-0.2,0.8,3.5,22,4.4,29.7c0.1,0.5,0.6,0.9,1.1,1.1l-0.2,0.8L262.2,548.7L262.2,548.7z M262.1,537.1l-2.1-13.2l-8.7,10L262.1,537.1
	L262.1,537.1z M287.8,525.6c0.1-1-0.7-1.2-2.1-1.4l0.1-0.8l20.4,1.9c8.1,0.8,11.3,2.4,10.7,8.5c-0.3,2.9-2.5,5.2-5.1,6.2
	c3.5,1.5,5.2,3.9,4.8,7.8c-0.5,5.3-4.4,8.4-13,7.6l-20.7-1.9l0.1-0.8c1.4,0.1,2.2-0.1,2.3-1L287.8,525.6L287.8,525.6z M294.8,548.7
	l7.4,0.7c3.1,0.3,5.7-0.4,6-3.2c0.3-3.7-2.6-4-5.3-4.2l-7.4-0.7L294.8,548.7L294.8,548.7z M295.9,536.7l8.1,0.8
	c3.5,0.3,4.6-1.1,4.8-2.9c0.3-2.7-1.2-3.4-4.2-3.7l-8.1-0.8L295.9,536.7L295.9,536.7z M355.1,547.8c0.8-0.1,1.5-0.6,1.6-1.9l0.8-0.1
	l0.8,9.2l-0.7,0.1c-0.6-1.2-1-1.4-2-1.3l-30.3,2.6l-0.1-0.8c0.9-0.2,1.9-0.4,1.8-1.4l-2.2-26.1c-0.1-1-1.1-1.1-2-1.1l-0.1-0.8
	l30.8-2.6c0.5-0.1,1.2-0.4,1.1-1.6l0.8-0.1l0.8,9.2l-0.8,0.1c-0.1-1.4-0.8-1.6-1.4-1.6l-19.8,1.7l0.5,5.5l12.8-1.1
	c0.5-0.1,1.2-0.4,1.1-1.7l0.8-0.1l0.8,8.9l-0.8,0.1c-0.1-1.3-0.8-1.5-1.4-1.5l-12.8,1.1l0.6,6.8L355.1,547.8L355.1,547.8z
	 M362.8,523.9c-0.3-0.9-1.1-0.9-2.1-0.7l-0.2-0.8l12.3-3.3l0.2,0.8c-0.9,0.3-1.6,0.7-1.4,1.7l5.5,20.5l18-4.8c0.5-0.1,1.1-0.6,0.7-2
	l0.8-0.2l2.7,10.1l-0.8,0.2c-0.4-1.4-1.1-1.5-1.6-1.3l-28.6,7.7l-0.2-0.8c1-0.3,1.7-0.7,1.4-1.7L362.8,523.9L362.8,523.9z
	 M415.2,531.1c1.1,2.7-0.2,6-2.9,7.1c-2.7,1.1-5.9-0.2-7.1-2.9s0.2-6,2.9-7.1C410.8,527,414,528.4,415.2,531.1L415.2,531.1z
	 M450.1,510.9c0.7-0.4,1-1.2,0.6-2.4l0.7-0.4l4.7,7.9l-0.6,0.3c-1-0.8-1.4-0.8-2.4-0.3l-26.1,15.5l-0.4-0.7c0.8-0.5,1.5-1.2,1-2
	l-13.4-22.5c-0.5-0.8-1.4-0.5-2.3-0.1l-0.4-0.7l26.6-15.8c0.5-0.3,0.9-0.9,0.3-1.9l0.7-0.4l4.7,7.9l-0.7,0.4
	c-0.7-1.2-1.4-1.1-1.9-0.8l-17.1,10.2l2.9,4.8l11-6.5c0.5-0.3,0.9-0.9,0.2-2l0.7-0.4l4.6,7.7l-0.7,0.4c-0.7-1.1-1.4-1-1.9-0.7
	l-11,6.5l3.5,5.9L450.1,510.9L450.1,510.9z M447.1,486c-0.6-0.7-1.4-0.3-2.3,0.4l-0.6-0.6l9.1-8.2l0.6,0.6c-0.2,0.3-0.7,1,0,1.7
	l11.2,12.4c2.3,2.6,5.4,1.7,8.3-0.9c2.9-2.6,4.1-5.6,1.8-8.2l-11.2-12.4c-0.6-0.7-1.3-0.4-1.7-0.1l-0.5-0.6l9.1-8.2l0.5,0.6
	c-0.8,0.8-1.3,1.5-0.6,2.2L481,476c4.9,5.4,6.1,12.7-2.8,20.7c-8.9,8-16,6.1-20.9,0.7L447.1,486L447.1,486z M350.4,469.8
	c9.9,0,17.7,7.7,17.7,17.4c0,9.8-7.7,17.5-17.8,17.5c-9.9,0-17.9-7.6-17.9-17.5c0-9.6,7.9-17.4,17.9-17.4L350.4,469.8L350.4,469.8z
	 M350.2,473.3c-7.6,0-13.3,6.2-13.3,13.9c0,7.7,5.7,13.9,13.5,13.9c7.6,0.1,13.2-6.1,13.2-13.9c0-7.6-5.6-13.9-13.3-13.9
	L350.2,473.3L350.2,473.3z M347.5,496.1h-4v-17.2c1.6-0.3,3.8-0.6,6.7-0.6c3.3,0,4.8,0.5,6,1.4c1,0.7,1.7,2.1,1.7,3.7
	c0,2-1.5,3.5-3.6,4.1v0.2c1.7,0.5,2.6,1.9,3.2,4.2c0.5,2.6,0.8,3.7,1.3,4.2h-4.3c-0.5-0.6-0.8-2.1-1.4-4.1c-0.3-1.9-1.4-2.8-3.6-2.8
	h-1.9L347.5,496.1L347.5,496.1z M347.6,486.4h1.9c2.2,0,4-0.7,4-2.5c0-1.6-1.2-2.6-3.7-2.6c-1.1,0-1.8,0.1-2.2,0.2V486.4z"/>
</svg>
