<svg viewBox="0 0 528 528" version="1.1" xmlns="http://www.w3.org/2000/svg" xmlns:xlink="http://www.w3.org/1999/xlink" xml:space="preserve" xmlns:serif="http://www.serif.com/" style="fill-rule:evenodd;clip-rule:evenodd;stroke-linejoin:round;stroke-miterlimit:2;">
        <g>
            <path fill="#001BB7" d="M3.866,309.227c-2.542,-14.697 -3.866,-29.808 -3.866,-45.227c0,-145.706 118.294,-264 264,-264c145.706,0 264,118.294 264,264c-145.706,0 -264,118.294 -264,264c-116.925,0 -216.199,-76.178 -250.854,-181.568c12.972,-23.397 31.203,-50.641 54.676,-81.725c8.921,-11.833 17.787,-23 26.596,-33.498c-7.045,12.872 -14.928,27.823 -23.653,44.857c-10.245,20.002 -16.977,33.801 -20.202,41.395c-1.546,3.64 -2.303,6.03 -2.407,7.121l2.698,2.967l-2.71,-2.694l-0,0.549l2.71,2.723l-2.71,-2.71c0,3.316 1.649,6.401 5.267,9.064c3.328,2.45 6.525,3.593 9.529,3.593c3.275,0 5.736,-0.827 7.449,-2.238c7.964,-6.572 35.578,-34.591 82.82,-84.075l14.007,-14.709c-14.114,20.351 -26.295,38.805 -36.546,55.363l-0.006,0.01c-6.105,9.956 -10.371,17.803 -12.813,23.533c-1.8,4.223 -2.623,7.429 -2.623,9.575c0,4.709 1.737,8.91 5.269,12.578c3.485,3.619 8.278,5.514 14.443,5.514c5.648,0 14.548,-4.328 26.458,-13.455c11.457,-8.78 19.767,-16.573 24.964,-23.344l0.01,-0.013c2.388,-3.153 3.441,-5.936 3.441,-8.229c0,-0.188 -0.019,-0.375 -0.058,-0.558l-0.877,-4.165l-0.001,-0.006c-0.022,-0.406 -0.081,-1.01 -0.185,-1.81c-0.117,-0.898 -0.234,-1.757 -0.351,-2.577c-0.116,-0.815 -0.33,-2.232 -0.64,-4.251l-0.021,-0.119c-0.504,-2.52 -1.323,-4.047 -2.051,-4.747l-1.108,-0.746l-0.727,-0.226l-0.774,-0.061l-0.872,0.141l-0.729,0.299l-0.687,0.457c-0.252,0.203 -0.515,0.456 -0.78,0.768l-0.103,0.129c-0.159,0.212 -0.346,0.423 -0.558,0.635c-0.349,0.349 -0.919,1.03 -1.693,2.058c-9.408,10.347 -17.424,17.919 -24.054,22.672c-1.547,1.109 -3.008,2.06 -4.386,2.85c5.285,-9.719 14.755,-24.665 28.395,-44.85c17.164,-25.399 38.251,-54.721 63.261,-87.967c0.816,-0.985 1.281,-2.23 1.281,-3.767c0,-1.505 -0.639,-3.051 -2.213,-4.488c-1.258,-1.149 -2.758,-1.895 -4.508,-2.224c-0.165,-0.031 -0.332,-0.046 -0.499,-0.046c-4.154,0 -8.49,-0.663 -13.008,-1.974l-0.011,-0.003c-2.997,-0.856 -5.484,-1.261 -7.453,-1.261c-1.61,0 -4.307,1.006 -7.915,3.411c-6.973,4.649 -18.466,14.705 -34.453,30.201l-0.004,0.004c-17.383,16.919 -33.973,33.877 -49.772,50.873c-7.73,8.316 -14.586,15.828 -20.57,22.536c9.692,-17.816 23.221,-42.12 40.587,-72.912l0.005,-0.01c6.236,-11.162 9.971,-18.162 11.218,-20.993c0.552,-1.253 0.693,-2.089 0.693,-2.42c0,-2.218 -1.641,-4.688 -5.901,-6.439c-3.148,-1.294 -6.384,-1.938 -9.705,-1.938c-3.185,0 -5.48,0.711 -6.986,1.831l-0.109,-0.058c-1.338,-0.725 -2.733,-1.079 -4.182,-1.079c-2.256,0 -5.433,1.216 -9.382,3.99c-7.851,5.515 -19.655,17.439 -35.358,35.822c-16.078,18.784 -31.617,38.324 -46.615,58.617c-11.825,16.001 -22.52,31.016 -32.085,45.045Zm46.987,18.9l0.404,-0.406c0.043,0.118 0.089,0.235 0.138,0.352c-0.175,0.036 -0.356,0.054 -0.542,0.054Z"/>
        </g>
</svg>
